  0
SECTION
  2
BLOCKS
  0
ENDSEC
  0
SECTION
  2
ENTITIES
  0
LINE
  8
0
 10
110
 20
243
 11
0
 21
243
  0
LINE
  8
0
 10
0
 20
243
 11
0
 21
0
  0
LINE
  8
0
 10
0
 20
0
 11
110
 21
0
  0
LINE
  8
0
 10
110
 20
0
 11
110
 21
243
  0
LINE
  8
0
 10
38.5858
 20
141.403
 11
38.492
 21
141.412
  0
LINE
  8
0
 10
38.492
 20
141.412
 11
38.3989
 21
141.427
  0
LINE
  8
0
 10
38.3989
 20
141.427
 11
38.307
 21
141.447
  0
LINE
  8
0
 10
38.307
 20
141.447
 11
38.2165
 21
141.473
  0
LINE
  8
0
 10
38.2165
 20
141.473
 11
38.1278
 21
141.505
  0
LINE
  8
0
 10
38.1278
 20
141.505
 11
38.0413
 21
141.543
  0
LINE
  8
0
 10
38.0413
 20
141.543
 11
37.9574
 21
141.586
  0
LINE
  8
0
 10
37.9574
 20
141.586
 11
37.8763
 21
141.634
  0
LINE
  8
0
 10
37.8763
 20
141.634
 11
37.7983
 21
141.686
  0
LINE
  8
0
 10
37.7983
 20
141.686
 11
37.7239
 21
141.744
  0
LINE
  8
0
 10
37.7239
 20
141.744
 11
37.6532
 21
141.807
  0
LINE
  8
0
 10
37.6532
 20
141.807
 11
37.5865
 21
141.873
  0
LINE
  8
0
 10
37.5865
 20
141.873
 11
37.5242
 21
141.944
  0
LINE
  8
0
 10
37.5242
 20
141.944
 11
37.4665
 21
142.018
  0
LINE
  8
0
 10
37.4665
 20
142.018
 11
37.4135
 21
142.096
  0
LINE
  8
0
 10
37.4135
 20
142.096
 11
37.3655
 21
142.177
  0
LINE
  8
0
 10
37.3655
 20
142.177
 11
37.3228
 21
142.261
  0
LINE
  8
0
 10
37.3228
 20
142.261
 11
37.2853
 21
142.348
  0
LINE
  8
0
 10
37.2853
 20
142.348
 11
37.2534
 21
142.436
  0
LINE
  8
0
 10
37.2534
 20
142.436
 11
37.2271
 21
142.527
  0
LINE
  8
0
 10
37.2271
 20
142.527
 11
37.2066
 21
142.619
  0
LINE
  8
0
 10
37.2066
 20
142.619
 11
37.1918
 21
142.712
  0
LINE
  8
0
 10
37.1918
 20
142.712
 11
37.183
 21
142.806
  0
LINE
  8
0
 10
37.183
 20
142.806
 11
37.18
 21
142.9
  0
LINE
  8
0
 10
37.18
 20
142.9
 11
37.183
 21
142.994
  0
LINE
  8
0
 10
37.183
 20
142.994
 11
37.1918
 21
143.088
  0
LINE
  8
0
 10
37.1918
 20
143.088
 11
37.2066
 21
143.181
  0
LINE
  8
0
 10
37.2066
 20
143.181
 11
37.2271
 21
143.273
  0
LINE
  8
0
 10
37.2271
 20
143.273
 11
37.2534
 21
143.364
  0
LINE
  8
0
 10
37.2534
 20
143.364
 11
37.2853
 21
143.452
  0
LINE
  8
0
 10
37.2853
 20
143.452
 11
37.3228
 21
143.539
  0
LINE
  8
0
 10
37.3228
 20
143.539
 11
37.3655
 21
143.623
  0
LINE
  8
0
 10
37.3655
 20
143.623
 11
37.4135
 21
143.704
  0
LINE
  8
0
 10
37.4135
 20
143.704
 11
37.4665
 21
143.782
  0
LINE
  8
0
 10
37.4665
 20
143.782
 11
37.5242
 21
143.856
  0
LINE
  8
0
 10
37.5242
 20
143.856
 11
37.5865
 21
143.927
  0
LINE
  8
0
 10
37.5865
 20
143.927
 11
37.6532
 21
143.993
  0
LINE
  8
0
 10
37.6532
 20
143.993
 11
37.7239
 21
144.056
  0
LINE
  8
0
 10
37.7239
 20
144.056
 11
37.7983
 21
144.114
  0
LINE
  8
0
 10
37.7983
 20
144.114
 11
37.8763
 21
144.166
  0
LINE
  8
0
 10
37.8763
 20
144.166
 11
37.9574
 21
144.214
  0
LINE
  8
0
 10
37.9574
 20
144.214
 11
38.0413
 21
144.257
  0
LINE
  8
0
 10
38.0413
 20
144.257
 11
38.1278
 21
144.295
  0
LINE
  8
0
 10
38.1278
 20
144.295
 11
38.2165
 21
144.327
  0
LINE
  8
0
 10
38.2165
 20
144.327
 11
38.307
 21
144.353
  0
LINE
  8
0
 10
38.307
 20
144.353
 11
38.3989
 21
144.373
  0
LINE
  8
0
 10
38.3989
 20
144.373
 11
38.492
 21
144.388
  0
LINE
  8
0
 10
38.492
 20
144.388
 11
38.5858
 21
144.397
  0
LINE
  8
0
 10
38.5858
 20
144.397
 11
38.68
 21
144.4
  0
LINE
  8
0
 10
38.68
 20
144.4
 11
38.7742
 21
144.397
  0
LINE
  8
0
 10
38.7742
 20
144.397
 11
38.868
 21
144.388
  0
LINE
  8
0
 10
38.868
 20
144.388
 11
38.9611
 21
144.373
  0
LINE
  8
0
 10
38.9611
 20
144.373
 11
39.053
 21
144.353
  0
LINE
  8
0
 10
39.053
 20
144.353
 11
39.1435
 21
144.327
  0
LINE
  8
0
 10
39.1435
 20
144.327
 11
39.2322
 21
144.295
  0
LINE
  8
0
 10
39.2322
 20
144.295
 11
39.3187
 21
144.257
  0
LINE
  8
0
 10
39.3187
 20
144.257
 11
39.4026
 21
144.214
  0
LINE
  8
0
 10
39.4026
 20
144.214
 11
39.4837
 21
144.166
  0
LINE
  8
0
 10
39.4837
 20
144.166
 11
39.5617
 21
144.114
  0
LINE
  8
0
 10
39.5617
 20
144.114
 11
39.6361
 21
144.056
  0
LINE
  8
0
 10
39.6361
 20
144.056
 11
39.7068
 21
143.993
  0
LINE
  8
0
 10
39.7068
 20
143.993
 11
39.7735
 21
143.927
  0
LINE
  8
0
 10
39.7735
 20
143.927
 11
39.8358
 21
143.856
  0
LINE
  8
0
 10
39.8358
 20
143.856
 11
39.8935
 21
143.782
  0
LINE
  8
0
 10
39.8935
 20
143.782
 11
39.9465
 21
143.704
  0
LINE
  8
0
 10
39.9465
 20
143.704
 11
39.9945
 21
143.623
  0
LINE
  8
0
 10
39.9945
 20
143.623
 11
40.0372
 21
143.539
  0
LINE
  8
0
 10
40.0372
 20
143.539
 11
40.0747
 21
143.452
  0
LINE
  8
0
 10
40.0747
 20
143.452
 11
40.1066
 21
143.364
  0
LINE
  8
0
 10
40.1066
 20
143.364
 11
40.1329
 21
143.273
  0
LINE
  8
0
 10
40.1329
 20
143.273
 11
40.1534
 21
143.181
  0
LINE
  8
0
 10
40.1534
 20
143.181
 11
40.1682
 21
143.088
  0
LINE
  8
0
 10
40.1682
 20
143.088
 11
40.177
 21
142.994
  0
LINE
  8
0
 10
40.177
 20
142.994
 11
40.18
 21
142.9
  0
LINE
  8
0
 10
40.18
 20
142.9
 11
40.177
 21
142.806
  0
LINE
  8
0
 10
40.177
 20
142.806
 11
40.1682
 21
142.712
  0
LINE
  8
0
 10
40.1682
 20
142.712
 11
40.1534
 21
142.619
  0
LINE
  8
0
 10
40.1534
 20
142.619
 11
40.1329
 21
142.527
  0
LINE
  8
0
 10
40.1329
 20
142.527
 11
40.1066
 21
142.436
  0
LINE
  8
0
 10
40.1066
 20
142.436
 11
40.0747
 21
142.348
  0
LINE
  8
0
 10
40.0747
 20
142.348
 11
40.0372
 21
142.261
  0
LINE
  8
0
 10
40.0372
 20
142.261
 11
39.9945
 21
142.177
  0
LINE
  8
0
 10
39.9945
 20
142.177
 11
39.9465
 21
142.096
  0
LINE
  8
0
 10
39.9465
 20
142.096
 11
39.8935
 21
142.018
  0
LINE
  8
0
 10
39.8935
 20
142.018
 11
39.8358
 21
141.944
  0
LINE
  8
0
 10
39.8358
 20
141.944
 11
39.7735
 21
141.873
  0
LINE
  8
0
 10
39.7735
 20
141.873
 11
39.7068
 21
141.807
  0
LINE
  8
0
 10
39.7068
 20
141.807
 11
39.6361
 21
141.744
  0
LINE
  8
0
 10
39.6361
 20
141.744
 11
39.5617
 21
141.686
  0
LINE
  8
0
 10
39.5617
 20
141.686
 11
39.4837
 21
141.634
  0
LINE
  8
0
 10
39.4837
 20
141.634
 11
39.4026
 21
141.586
  0
LINE
  8
0
 10
39.4026
 20
141.586
 11
39.3187
 21
141.543
  0
LINE
  8
0
 10
39.3187
 20
141.543
 11
39.2322
 21
141.505
  0
LINE
  8
0
 10
39.2322
 20
141.505
 11
39.1435
 21
141.473
  0
LINE
  8
0
 10
39.1435
 20
141.473
 11
39.053
 21
141.447
  0
LINE
  8
0
 10
39.053
 20
141.447
 11
38.9611
 21
141.427
  0
LINE
  8
0
 10
38.9611
 20
141.427
 11
38.868
 21
141.412
  0
LINE
  8
0
 10
38.868
 20
141.412
 11
38.7742
 21
141.403
  0
LINE
  8
0
 10
38.7742
 20
141.403
 11
38.68
 21
141.4
  0
LINE
  8
0
 10
38.68
 20
141.4
 11
38.5858
 21
141.403
  0
LINE
  8
0
 10
71.2258
 20
141.403
 11
71.132
 21
141.412
  0
LINE
  8
0
 10
71.132
 20
141.412
 11
71.0389
 21
141.427
  0
LINE
  8
0
 10
71.0389
 20
141.427
 11
70.947
 21
141.447
  0
LINE
  8
0
 10
70.947
 20
141.447
 11
70.8565
 21
141.473
  0
LINE
  8
0
 10
70.8565
 20
141.473
 11
70.7678
 21
141.505
  0
LINE
  8
0
 10
70.7678
 20
141.505
 11
70.6813
 21
141.543
  0
LINE
  8
0
 10
70.6813
 20
141.543
 11
70.5974
 21
141.586
  0
LINE
  8
0
 10
70.5974
 20
141.586
 11
70.5163
 21
141.634
  0
LINE
  8
0
 10
70.5163
 20
141.634
 11
70.4383
 21
141.686
  0
LINE
  8
0
 10
70.4383
 20
141.686
 11
70.3639
 21
141.744
  0
LINE
  8
0
 10
70.3639
 20
141.744
 11
70.2932
 21
141.807
  0
LINE
  8
0
 10
70.2932
 20
141.807
 11
70.2265
 21
141.873
  0
LINE
  8
0
 10
70.2265
 20
141.873
 11
70.1642
 21
141.944
  0
LINE
  8
0
 10
70.1642
 20
141.944
 11
70.1065
 21
142.018
  0
LINE
  8
0
 10
70.1065
 20
142.018
 11
70.0535
 21
142.096
  0
LINE
  8
0
 10
70.0535
 20
142.096
 11
70.0055
 21
142.177
  0
LINE
  8
0
 10
70.0055
 20
142.177
 11
69.9628
 21
142.261
  0
LINE
  8
0
 10
69.9628
 20
142.261
 11
69.9253
 21
142.348
  0
LINE
  8
0
 10
69.9253
 20
142.348
 11
69.8934
 21
142.436
  0
LINE
  8
0
 10
69.8934
 20
142.436
 11
69.8671
 21
142.527
  0
LINE
  8
0
 10
69.8671
 20
142.527
 11
69.8466
 21
142.619
  0
LINE
  8
0
 10
69.8466
 20
142.619
 11
69.8318
 21
142.712
  0
LINE
  8
0
 10
69.8318
 20
142.712
 11
69.823
 21
142.806
  0
LINE
  8
0
 10
69.823
 20
142.806
 11
69.82
 21
142.9
  0
LINE
  8
0
 10
69.82
 20
142.9
 11
69.823
 21
142.994
  0
LINE
  8
0
 10
69.823
 20
142.994
 11
69.8318
 21
143.088
  0
LINE
  8
0
 10
69.8318
 20
143.088
 11
69.8466
 21
143.181
  0
LINE
  8
0
 10
69.8466
 20
143.181
 11
69.8671
 21
143.273
  0
LINE
  8
0
 10
69.8671
 20
143.273
 11
69.8934
 21
143.364
  0
LINE
  8
0
 10
69.8934
 20
143.364
 11
69.9253
 21
143.452
  0
LINE
  8
0
 10
69.9253
 20
143.452
 11
69.9628
 21
143.539
  0
LINE
  8
0
 10
69.9628
 20
143.539
 11
70.0055
 21
143.623
  0
LINE
  8
0
 10
70.0055
 20
143.623
 11
70.0535
 21
143.704
  0
LINE
  8
0
 10
70.0535
 20
143.704
 11
70.1065
 21
143.782
  0
LINE
  8
0
 10
70.1065
 20
143.782
 11
70.1642
 21
143.856
  0
LINE
  8
0
 10
70.1642
 20
143.856
 11
70.2265
 21
143.927
  0
LINE
  8
0
 10
70.2265
 20
143.927
 11
70.2932
 21
143.993
  0
LINE
  8
0
 10
70.2932
 20
143.993
 11
70.3639
 21
144.056
  0
LINE
  8
0
 10
70.3639
 20
144.056
 11
70.4383
 21
144.114
  0
LINE
  8
0
 10
70.4383
 20
144.114
 11
70.5163
 21
144.166
  0
LINE
  8
0
 10
70.5163
 20
144.166
 11
70.5974
 21
144.214
  0
LINE
  8
0
 10
70.5974
 20
144.214
 11
70.6813
 21
144.257
  0
LINE
  8
0
 10
70.6813
 20
144.257
 11
70.7678
 21
144.295
  0
LINE
  8
0
 10
70.7678
 20
144.295
 11
70.8565
 21
144.327
  0
LINE
  8
0
 10
70.8565
 20
144.327
 11
70.947
 21
144.353
  0
LINE
  8
0
 10
70.947
 20
144.353
 11
71.0389
 21
144.373
  0
LINE
  8
0
 10
71.0389
 20
144.373
 11
71.132
 21
144.388
  0
LINE
  8
0
 10
71.132
 20
144.388
 11
71.2258
 21
144.397
  0
LINE
  8
0
 10
71.2258
 20
144.397
 11
71.32
 21
144.4
  0
LINE
  8
0
 10
71.32
 20
144.4
 11
71.4142
 21
144.397
  0
LINE
  8
0
 10
71.4142
 20
144.397
 11
71.508
 21
144.388
  0
LINE
  8
0
 10
71.508
 20
144.388
 11
71.6011
 21
144.373
  0
LINE
  8
0
 10
71.6011
 20
144.373
 11
71.693
 21
144.353
  0
LINE
  8
0
 10
71.693
 20
144.353
 11
71.7835
 21
144.327
  0
LINE
  8
0
 10
71.7835
 20
144.327
 11
71.8722
 21
144.295
  0
LINE
  8
0
 10
71.8722
 20
144.295
 11
71.9587
 21
144.257
  0
LINE
  8
0
 10
71.9587
 20
144.257
 11
72.0426
 21
144.214
  0
LINE
  8
0
 10
72.0426
 20
144.214
 11
72.1237
 21
144.166
  0
LINE
  8
0
 10
72.1237
 20
144.166
 11
72.2017
 21
144.114
  0
LINE
  8
0
 10
72.2017
 20
144.114
 11
72.2761
 21
144.056
  0
LINE
  8
0
 10
72.2761
 20
144.056
 11
72.3468
 21
143.993
  0
LINE
  8
0
 10
72.3468
 20
143.993
 11
72.4135
 21
143.927
  0
LINE
  8
0
 10
72.4135
 20
143.927
 11
72.4758
 21
143.856
  0
LINE
  8
0
 10
72.4758
 20
143.856
 11
72.5335
 21
143.782
  0
LINE
  8
0
 10
72.5335
 20
143.782
 11
72.5865
 21
143.704
  0
LINE
  8
0
 10
72.5865
 20
143.704
 11
72.6345
 21
143.623
  0
LINE
  8
0
 10
72.6345
 20
143.623
 11
72.6772
 21
143.539
  0
LINE
  8
0
 10
72.6772
 20
143.539
 11
72.7147
 21
143.452
  0
LINE
  8
0
 10
72.7147
 20
143.452
 11
72.7466
 21
143.364
  0
LINE
  8
0
 10
72.7466
 20
143.364
 11
72.7729
 21
143.273
  0
LINE
  8
0
 10
72.7729
 20
143.273
 11
72.7934
 21
143.181
  0
LINE
  8
0
 10
72.7934
 20
143.181
 11
72.8082
 21
143.088
  0
LINE
  8
0
 10
72.8082
 20
143.088
 11
72.817
 21
142.994
  0
LINE
  8
0
 10
72.817
 20
142.994
 11
72.82
 21
142.9
  0
LINE
  8
0
 10
72.82
 20
142.9
 11
72.817
 21
142.806
  0
LINE
  8
0
 10
72.817
 20
142.806
 11
72.8082
 21
142.712
  0
LINE
  8
0
 10
72.8082
 20
142.712
 11
72.7934
 21
142.619
  0
LINE
  8
0
 10
72.7934
 20
142.619
 11
72.7729
 21
142.527
  0
LINE
  8
0
 10
72.7729
 20
142.527
 11
72.7466
 21
142.436
  0
LINE
  8
0
 10
72.7466
 20
142.436
 11
72.7147
 21
142.348
  0
LINE
  8
0
 10
72.7147
 20
142.348
 11
72.6772
 21
142.261
  0
LINE
  8
0
 10
72.6772
 20
142.261
 11
72.6345
 21
142.177
  0
LINE
  8
0
 10
72.6345
 20
142.177
 11
72.5865
 21
142.096
  0
LINE
  8
0
 10
72.5865
 20
142.096
 11
72.5335
 21
142.018
  0
LINE
  8
0
 10
72.5335
 20
142.018
 11
72.4758
 21
141.944
  0
LINE
  8
0
 10
72.4758
 20
141.944
 11
72.4135
 21
141.873
  0
LINE
  8
0
 10
72.4135
 20
141.873
 11
72.3468
 21
141.807
  0
LINE
  8
0
 10
72.3468
 20
141.807
 11
72.2761
 21
141.744
  0
LINE
  8
0
 10
72.2761
 20
141.744
 11
72.2017
 21
141.686
  0
LINE
  8
0
 10
72.2017
 20
141.686
 11
72.1237
 21
141.634
  0
LINE
  8
0
 10
72.1237
 20
141.634
 11
72.0426
 21
141.586
  0
LINE
  8
0
 10
72.0426
 20
141.586
 11
71.9587
 21
141.543
  0
LINE
  8
0
 10
71.9587
 20
141.543
 11
71.8722
 21
141.505
  0
LINE
  8
0
 10
71.8722
 20
141.505
 11
71.7835
 21
141.473
  0
LINE
  8
0
 10
71.7835
 20
141.473
 11
71.693
 21
141.447
  0
LINE
  8
0
 10
71.693
 20
141.447
 11
71.6011
 21
141.427
  0
LINE
  8
0
 10
71.6011
 20
141.427
 11
71.508
 21
141.412
  0
LINE
  8
0
 10
71.508
 20
141.412
 11
71.4142
 21
141.403
  0
LINE
  8
0
 10
71.4142
 20
141.403
 11
71.32
 21
141.4
  0
LINE
  8
0
 10
71.32
 20
141.4
 11
71.2258
 21
141.403
  0
LINE
  8
0
 10
54.1492
 20
82.0267
 11
53.3017
 21
82.1068
  0
LINE
  8
0
 10
53.3017
 20
82.1068
 11
52.461
 21
82.24
  0
LINE
  8
0
 10
52.461
 20
82.24
 11
51.6302
 21
82.4257
  0
LINE
  8
0
 10
51.6302
 20
82.4257
 11
50.8128
 21
82.6632
  0
LINE
  8
0
 10
50.8128
 20
82.6632
 11
50.0119
 21
82.9515
  0
LINE
  8
0
 10
50.0119
 20
82.9515
 11
49.2307
 21
83.2896
  0
LINE
  8
0
 10
49.2307
 20
83.2896
 11
48.4722
 21
83.676
  0
LINE
  8
0
 10
48.4722
 20
83.676
 11
47.7395
 21
84.1094
  0
LINE
  8
0
 10
47.7395
 20
84.1094
 11
47.0355
 21
84.5878
  0
LINE
  8
0
 10
47.0355
 20
84.5878
 11
46.3629
 21
85.1095
  0
LINE
  8
0
 10
46.3629
 20
85.1095
 11
45.7244
 21
85.6725
  0
LINE
  8
0
 10
45.7244
 20
85.6725
 11
45.1225
 21
86.2744
  0
LINE
  8
0
 10
45.1225
 20
86.2744
 11
44.5595
 21
86.9129
  0
LINE
  8
0
 10
44.5595
 20
86.9129
 11
44.0378
 21
87.5855
  0
LINE
  8
0
 10
44.0378
 20
87.5855
 11
43.5594
 21
88.2895
  0
LINE
  8
0
 10
43.5594
 20
88.2895
 11
43.126
 21
89.0222
  0
LINE
  8
0
 10
43.126
 20
89.0222
 11
42.7396
 21
89.7807
  0
LINE
  8
0
 10
42.7396
 20
89.7807
 11
42.4015
 21
90.5619
  0
LINE
  8
0
 10
42.4015
 20
90.5619
 11
42.1132
 21
91.3628
  0
LINE
  8
0
 10
42.1132
 20
91.3628
 11
41.8757
 21
92.1803
  0
LINE
  8
0
 10
41.8757
 20
92.1803
 11
41.69
 21
93.011
  0
LINE
  8
0
 10
41.69
 20
93.011
 11
41.5568
 21
93.8517
  0
LINE
  8
0
 10
41.5568
 20
93.8517
 11
41.4767
 21
94.6992
  0
LINE
  8
0
 10
41.4767
 20
94.6992
 11
41.45
 21
95.55
  0
LINE
  8
0
 10
41.45
 20
95.55
 11
41.45
 21
106.75
  0
LINE
  8
0
 10
41.45
 20
106.75
 11
41.4767
 21
107.601
  0
LINE
  8
0
 10
41.4767
 20
107.601
 11
41.5568
 21
108.448
  0
LINE
  8
0
 10
41.5568
 20
108.448
 11
41.69
 21
109.289
  0
LINE
  8
0
 10
41.69
 20
109.289
 11
41.8757
 21
110.12
  0
LINE
  8
0
 10
41.8757
 20
110.12
 11
42.1132
 21
110.937
  0
LINE
  8
0
 10
42.1132
 20
110.937
 11
42.4015
 21
111.738
  0
LINE
  8
0
 10
42.4015
 20
111.738
 11
42.7396
 21
112.519
  0
LINE
  8
0
 10
42.7396
 20
112.519
 11
43.126
 21
113.278
  0
LINE
  8
0
 10
43.126
 20
113.278
 11
43.5594
 21
114.01
  0
LINE
  8
0
 10
43.5594
 20
114.01
 11
44.0378
 21
114.714
  0
LINE
  8
0
 10
44.0378
 20
114.714
 11
44.5595
 21
115.387
  0
LINE
  8
0
 10
44.5595
 20
115.387
 11
45.1225
 21
116.026
  0
LINE
  8
0
 10
45.1225
 20
116.026
 11
45.7244
 21
116.628
  0
LINE
  8
0
 10
45.7244
 20
116.628
 11
46.3629
 21
117.19
  0
LINE
  8
0
 10
46.3629
 20
117.19
 11
47.0355
 21
117.712
  0
LINE
  8
0
 10
47.0355
 20
117.712
 11
47.7395
 21
118.191
  0
LINE
  8
0
 10
47.7395
 20
118.191
 11
48.4722
 21
118.624
  0
LINE
  8
0
 10
48.4722
 20
118.624
 11
49.2307
 21
119.01
  0
LINE
  8
0
 10
49.2307
 20
119.01
 11
50.0119
 21
119.348
  0
LINE
  8
0
 10
50.0119
 20
119.348
 11
50.8128
 21
119.637
  0
LINE
  8
0
 10
50.8128
 20
119.637
 11
51.6302
 21
119.874
  0
LINE
  8
0
 10
51.6302
 20
119.874
 11
52.461
 21
120.06
  0
LINE
  8
0
 10
52.461
 20
120.06
 11
53.3017
 21
120.193
  0
LINE
  8
0
 10
53.3017
 20
120.193
 11
54.1492
 21
120.273
  0
LINE
  8
0
 10
54.1492
 20
120.273
 11
55
 21
120.3
  0
LINE
  8
0
 10
55
 20
120.3
 11
55.8508
 21
120.273
  0
LINE
  8
0
 10
55.8508
 20
120.273
 11
56.6983
 21
120.193
  0
LINE
  8
0
 10
56.6983
 20
120.193
 11
57.539
 21
120.06
  0
LINE
  8
0
 10
57.539
 20
120.06
 11
58.3697
 21
119.874
  0
LINE
  8
0
 10
58.3697
 20
119.874
 11
59.1872
 21
119.637
  0
LINE
  8
0
 10
59.1872
 20
119.637
 11
59.9881
 21
119.348
  0
LINE
  8
0
 10
59.9881
 20
119.348
 11
60.7693
 21
119.01
  0
LINE
  8
0
 10
60.7693
 20
119.01
 11
61.5278
 21
118.624
  0
LINE
  8
0
 10
61.5278
 20
118.624
 11
62.2605
 21
118.191
  0
LINE
  8
0
 10
62.2605
 20
118.191
 11
62.9645
 21
117.712
  0
LINE
  8
0
 10
62.9645
 20
117.712
 11
63.6371
 21
117.19
  0
LINE
  8
0
 10
63.6371
 20
117.19
 11
64.2756
 21
116.628
  0
LINE
  8
0
 10
64.2756
 20
116.628
 11
64.8775
 21
116.026
  0
LINE
  8
0
 10
64.8775
 20
116.026
 11
65.4404
 21
115.387
  0
LINE
  8
0
 10
65.4404
 20
115.387
 11
65.9622
 21
114.714
  0
LINE
  8
0
 10
65.9622
 20
114.714
 11
66.4406
 21
114.01
  0
LINE
  8
0
 10
66.4406
 20
114.01
 11
66.8739
 21
113.278
  0
LINE
  8
0
 10
66.8739
 20
113.278
 11
67.2604
 21
112.519
  0
LINE
  8
0
 10
67.2604
 20
112.519
 11
67.5985
 21
111.738
  0
LINE
  8
0
 10
67.5985
 20
111.738
 11
67.8868
 21
110.937
  0
LINE
  8
0
 10
67.8868
 20
110.937
 11
68.1243
 21
110.12
  0
LINE
  8
0
 10
68.1243
 20
110.12
 11
68.31
 21
109.289
  0
LINE
  8
0
 10
68.31
 20
109.289
 11
68.4431
 21
108.448
  0
LINE
  8
0
 10
68.4431
 20
108.448
 11
68.5233
 21
107.601
  0
LINE
  8
0
 10
68.5233
 20
107.601
 11
68.55
 21
106.75
  0
LINE
  8
0
 10
68.55
 20
106.75
 11
68.55
 21
95.55
  0
LINE
  8
0
 10
68.55
 20
95.55
 11
68.5233
 21
94.6992
  0
LINE
  8
0
 10
68.5233
 20
94.6992
 11
68.4431
 21
93.8517
  0
LINE
  8
0
 10
68.4431
 20
93.8517
 11
68.31
 21
93.011
  0
LINE
  8
0
 10
68.31
 20
93.011
 11
68.1243
 21
92.1803
  0
LINE
  8
0
 10
68.1243
 20
92.1803
 11
67.8868
 21
91.3628
  0
LINE
  8
0
 10
67.8868
 20
91.3628
 11
67.5985
 21
90.5619
  0
LINE
  8
0
 10
67.5985
 20
90.5619
 11
67.2604
 21
89.7807
  0
LINE
  8
0
 10
67.2604
 20
89.7807
 11
66.8739
 21
89.0222
  0
LINE
  8
0
 10
66.8739
 20
89.0222
 11
66.4406
 21
88.2895
  0
LINE
  8
0
 10
66.4406
 20
88.2895
 11
65.9622
 21
87.5855
  0
LINE
  8
0
 10
65.9622
 20
87.5855
 11
65.4404
 21
86.9129
  0
LINE
  8
0
 10
65.4404
 20
86.9129
 11
64.8775
 21
86.2744
  0
LINE
  8
0
 10
64.8775
 20
86.2744
 11
64.2756
 21
85.6725
  0
LINE
  8
0
 10
64.2756
 20
85.6725
 11
63.6371
 21
85.1095
  0
LINE
  8
0
 10
63.6371
 20
85.1095
 11
62.9645
 21
84.5878
  0
LINE
  8
0
 10
62.9645
 20
84.5878
 11
62.2605
 21
84.1094
  0
LINE
  8
0
 10
62.2605
 20
84.1094
 11
61.5278
 21
83.676
  0
LINE
  8
0
 10
61.5278
 20
83.676
 11
60.7693
 21
83.2896
  0
LINE
  8
0
 10
60.7693
 20
83.2896
 11
59.9881
 21
82.9515
  0
LINE
  8
0
 10
59.9881
 20
82.9515
 11
59.1872
 21
82.6632
  0
LINE
  8
0
 10
59.1872
 20
82.6632
 11
58.3697
 21
82.4257
  0
LINE
  8
0
 10
58.3697
 20
82.4257
 11
57.539
 21
82.24
  0
LINE
  8
0
 10
57.539
 20
82.24
 11
56.6983
 21
82.1068
  0
LINE
  8
0
 10
56.6983
 20
82.1068
 11
55.8508
 21
82.0267
  0
LINE
  8
0
 10
55.8508
 20
82.0267
 11
55
 21
82
  0
LINE
  8
0
 10
55
 20
82
 11
54.1492
 21
82.0267
  0
LINE
  8
0
 10
38.5858
 20
70.003
 11
38.492
 21
70.0118
  0
LINE
  8
0
 10
38.492
 20
70.0118
 11
38.3989
 21
70.0266
  0
LINE
  8
0
 10
38.3989
 20
70.0266
 11
38.307
 21
70.0471
  0
LINE
  8
0
 10
38.307
 20
70.0471
 11
38.2165
 21
70.0734
  0
LINE
  8
0
 10
38.2165
 20
70.0734
 11
38.1278
 21
70.1053
  0
LINE
  8
0
 10
38.1278
 20
70.1053
 11
38.0413
 21
70.1428
  0
LINE
  8
0
 10
38.0413
 20
70.1428
 11
37.9574
 21
70.1855
  0
LINE
  8
0
 10
37.9574
 20
70.1855
 11
37.8763
 21
70.2335
  0
LINE
  8
0
 10
37.8763
 20
70.2335
 11
37.7983
 21
70.2865
  0
LINE
  8
0
 10
37.7983
 20
70.2865
 11
37.7239
 21
70.3442
  0
LINE
  8
0
 10
37.7239
 20
70.3442
 11
37.6532
 21
70.4065
  0
LINE
  8
0
 10
37.6532
 20
70.4065
 11
37.5865
 21
70.4732
  0
LINE
  8
0
 10
37.5865
 20
70.4732
 11
37.5242
 21
70.5439
  0
LINE
  8
0
 10
37.5242
 20
70.5439
 11
37.4665
 21
70.6183
  0
LINE
  8
0
 10
37.4665
 20
70.6183
 11
37.4135
 21
70.6963
  0
LINE
  8
0
 10
37.4135
 20
70.6963
 11
37.3655
 21
70.7774
  0
LINE
  8
0
 10
37.3655
 20
70.7774
 11
37.3228
 21
70.8613
  0
LINE
  8
0
 10
37.3228
 20
70.8613
 11
37.2853
 21
70.9478
  0
LINE
  8
0
 10
37.2853
 20
70.9478
 11
37.2534
 21
71.0365
  0
LINE
  8
0
 10
37.2534
 20
71.0365
 11
37.2271
 21
71.127
  0
LINE
  8
0
 10
37.2271
 20
71.127
 11
37.2066
 21
71.2189
  0
LINE
  8
0
 10
37.2066
 20
71.2189
 11
37.1918
 21
71.312
  0
LINE
  8
0
 10
37.1918
 20
71.312
 11
37.183
 21
71.4058
  0
LINE
  8
0
 10
37.183
 20
71.4058
 11
37.18
 21
71.5
  0
LINE
  8
0
 10
37.18
 20
71.5
 11
37.183
 21
71.5942
  0
LINE
  8
0
 10
37.183
 20
71.5942
 11
37.1918
 21
71.688
  0
LINE
  8
0
 10
37.1918
 20
71.688
 11
37.2066
 21
71.7811
  0
LINE
  8
0
 10
37.2066
 20
71.7811
 11
37.2271
 21
71.873
  0
LINE
  8
0
 10
37.2271
 20
71.873
 11
37.2534
 21
71.9635
  0
LINE
  8
0
 10
37.2534
 20
71.9635
 11
37.2853
 21
72.0522
  0
LINE
  8
0
 10
37.2853
 20
72.0522
 11
37.3228
 21
72.1387
  0
LINE
  8
0
 10
37.3228
 20
72.1387
 11
37.3655
 21
72.2226
  0
LINE
  8
0
 10
37.3655
 20
72.2226
 11
37.4135
 21
72.3037
  0
LINE
  8
0
 10
37.4135
 20
72.3037
 11
37.4665
 21
72.3817
  0
LINE
  8
0
 10
37.4665
 20
72.3817
 11
37.5242
 21
72.4561
  0
LINE
  8
0
 10
37.5242
 20
72.4561
 11
37.5865
 21
72.5268
  0
LINE
  8
0
 10
37.5865
 20
72.5268
 11
37.6532
 21
72.5934
  0
LINE
  8
0
 10
37.6532
 20
72.5934
 11
37.7239
 21
72.6558
  0
LINE
  8
0
 10
37.7239
 20
72.6558
 11
37.7983
 21
72.7135
  0
LINE
  8
0
 10
37.7983
 20
72.7135
 11
37.8763
 21
72.7665
  0
LINE
  8
0
 10
37.8763
 20
72.7665
 11
37.9574
 21
72.8145
  0
LINE
  8
0
 10
37.9574
 20
72.8145
 11
38.0413
 21
72.8572
  0
LINE
  8
0
 10
38.0413
 20
72.8572
 11
38.1278
 21
72.8947
  0
LINE
  8
0
 10
38.1278
 20
72.8947
 11
38.2165
 21
72.9266
  0
LINE
  8
0
 10
38.2165
 20
72.9266
 11
38.307
 21
72.9529
  0
LINE
  8
0
 10
38.307
 20
72.9529
 11
38.3989
 21
72.9734
  0
LINE
  8
0
 10
38.3989
 20
72.9734
 11
38.492
 21
72.9882
  0
LINE
  8
0
 10
38.492
 20
72.9882
 11
38.5858
 21
72.997
  0
LINE
  8
0
 10
38.5858
 20
72.997
 11
38.68
 21
73
  0
LINE
  8
0
 10
38.68
 20
73
 11
38.7742
 21
72.997
  0
LINE
  8
0
 10
38.7742
 20
72.997
 11
38.868
 21
72.9882
  0
LINE
  8
0
 10
38.868
 20
72.9882
 11
38.9611
 21
72.9734
  0
LINE
  8
0
 10
38.9611
 20
72.9734
 11
39.053
 21
72.9529
  0
LINE
  8
0
 10
39.053
 20
72.9529
 11
39.1435
 21
72.9266
  0
LINE
  8
0
 10
39.1435
 20
72.9266
 11
39.2322
 21
72.8947
  0
LINE
  8
0
 10
39.2322
 20
72.8947
 11
39.3187
 21
72.8572
  0
LINE
  8
0
 10
39.3187
 20
72.8572
 11
39.4026
 21
72.8145
  0
LINE
  8
0
 10
39.4026
 20
72.8145
 11
39.4837
 21
72.7665
  0
LINE
  8
0
 10
39.4837
 20
72.7665
 11
39.5617
 21
72.7135
  0
LINE
  8
0
 10
39.5617
 20
72.7135
 11
39.6361
 21
72.6558
  0
LINE
  8
0
 10
39.6361
 20
72.6558
 11
39.7068
 21
72.5934
  0
LINE
  8
0
 10
39.7068
 20
72.5934
 11
39.7735
 21
72.5268
  0
LINE
  8
0
 10
39.7735
 20
72.5268
 11
39.8358
 21
72.4561
  0
LINE
  8
0
 10
39.8358
 20
72.4561
 11
39.8935
 21
72.3817
  0
LINE
  8
0
 10
39.8935
 20
72.3817
 11
39.9465
 21
72.3037
  0
LINE
  8
0
 10
39.9465
 20
72.3037
 11
39.9945
 21
72.2226
  0
LINE
  8
0
 10
39.9945
 20
72.2226
 11
40.0372
 21
72.1387
  0
LINE
  8
0
 10
40.0372
 20
72.1387
 11
40.0747
 21
72.0522
  0
LINE
  8
0
 10
40.0747
 20
72.0522
 11
40.1066
 21
71.9635
  0
LINE
  8
0
 10
40.1066
 20
71.9635
 11
40.1329
 21
71.873
  0
LINE
  8
0
 10
40.1329
 20
71.873
 11
40.1534
 21
71.7811
  0
LINE
  8
0
 10
40.1534
 20
71.7811
 11
40.1682
 21
71.688
  0
LINE
  8
0
 10
40.1682
 20
71.688
 11
40.177
 21
71.5942
  0
LINE
  8
0
 10
40.177
 20
71.5942
 11
40.18
 21
71.5
  0
LINE
  8
0
 10
40.18
 20
71.5
 11
40.177
 21
71.4058
  0
LINE
  8
0
 10
40.177
 20
71.4058
 11
40.1682
 21
71.312
  0
LINE
  8
0
 10
40.1682
 20
71.312
 11
40.1534
 21
71.2189
  0
LINE
  8
0
 10
40.1534
 20
71.2189
 11
40.1329
 21
71.127
  0
LINE
  8
0
 10
40.1329
 20
71.127
 11
40.1066
 21
71.0365
  0
LINE
  8
0
 10
40.1066
 20
71.0365
 11
40.0747
 21
70.9478
  0
LINE
  8
0
 10
40.0747
 20
70.9478
 11
40.0372
 21
70.8613
  0
LINE
  8
0
 10
40.0372
 20
70.8613
 11
39.9945
 21
70.7774
  0
LINE
  8
0
 10
39.9945
 20
70.7774
 11
39.9465
 21
70.6963
  0
LINE
  8
0
 10
39.9465
 20
70.6963
 11
39.8935
 21
70.6183
  0
LINE
  8
0
 10
39.8935
 20
70.6183
 11
39.8358
 21
70.5439
  0
LINE
  8
0
 10
39.8358
 20
70.5439
 11
39.7735
 21
70.4732
  0
LINE
  8
0
 10
39.7735
 20
70.4732
 11
39.7068
 21
70.4065
  0
LINE
  8
0
 10
39.7068
 20
70.4065
 11
39.6361
 21
70.3442
  0
LINE
  8
0
 10
39.6361
 20
70.3442
 11
39.5617
 21
70.2865
  0
LINE
  8
0
 10
39.5617
 20
70.2865
 11
39.4837
 21
70.2335
  0
LINE
  8
0
 10
39.4837
 20
70.2335
 11
39.4026
 21
70.1855
  0
LINE
  8
0
 10
39.4026
 20
70.1855
 11
39.3187
 21
70.1428
  0
LINE
  8
0
 10
39.3187
 20
70.1428
 11
39.2322
 21
70.1053
  0
LINE
  8
0
 10
39.2322
 20
70.1053
 11
39.1435
 21
70.0734
  0
LINE
  8
0
 10
39.1435
 20
70.0734
 11
39.053
 21
70.0471
  0
LINE
  8
0
 10
39.053
 20
70.0471
 11
38.9611
 21
70.0266
  0
LINE
  8
0
 10
38.9611
 20
70.0266
 11
38.868
 21
70.0118
  0
LINE
  8
0
 10
38.868
 20
70.0118
 11
38.7742
 21
70.003
  0
LINE
  8
0
 10
38.7742
 20
70.003
 11
38.68
 21
70
  0
LINE
  8
0
 10
38.68
 20
70
 11
38.5858
 21
70.003
  0
LINE
  8
0
 10
71.2258
 20
70.003
 11
71.132
 21
70.0118
  0
LINE
  8
0
 10
71.132
 20
70.0118
 11
71.0389
 21
70.0266
  0
LINE
  8
0
 10
71.0389
 20
70.0266
 11
70.947
 21
70.0471
  0
LINE
  8
0
 10
70.947
 20
70.0471
 11
70.8565
 21
70.0734
  0
LINE
  8
0
 10
70.8565
 20
70.0734
 11
70.7678
 21
70.1053
  0
LINE
  8
0
 10
70.7678
 20
70.1053
 11
70.6813
 21
70.1428
  0
LINE
  8
0
 10
70.6813
 20
70.1428
 11
70.5974
 21
70.1855
  0
LINE
  8
0
 10
70.5974
 20
70.1855
 11
70.5163
 21
70.2335
  0
LINE
  8
0
 10
70.5163
 20
70.2335
 11
70.4383
 21
70.2865
  0
LINE
  8
0
 10
70.4383
 20
70.2865
 11
70.3639
 21
70.3442
  0
LINE
  8
0
 10
70.3639
 20
70.3442
 11
70.2932
 21
70.4065
  0
LINE
  8
0
 10
70.2932
 20
70.4065
 11
70.2265
 21
70.4732
  0
LINE
  8
0
 10
70.2265
 20
70.4732
 11
70.1642
 21
70.5439
  0
LINE
  8
0
 10
70.1642
 20
70.5439
 11
70.1065
 21
70.6183
  0
LINE
  8
0
 10
70.1065
 20
70.6183
 11
70.0535
 21
70.6963
  0
LINE
  8
0
 10
70.0535
 20
70.6963
 11
70.0055
 21
70.7774
  0
LINE
  8
0
 10
70.0055
 20
70.7774
 11
69.9628
 21
70.8613
  0
LINE
  8
0
 10
69.9628
 20
70.8613
 11
69.9253
 21
70.9478
  0
LINE
  8
0
 10
69.9253
 20
70.9478
 11
69.8934
 21
71.0365
  0
LINE
  8
0
 10
69.8934
 20
71.0365
 11
69.8671
 21
71.127
  0
LINE
  8
0
 10
69.8671
 20
71.127
 11
69.8466
 21
71.2189
  0
LINE
  8
0
 10
69.8466
 20
71.2189
 11
69.8318
 21
71.312
  0
LINE
  8
0
 10
69.8318
 20
71.312
 11
69.823
 21
71.4058
  0
LINE
  8
0
 10
69.823
 20
71.4058
 11
69.82
 21
71.5
  0
LINE
  8
0
 10
69.82
 20
71.5
 11
69.823
 21
71.5942
  0
LINE
  8
0
 10
69.823
 20
71.5942
 11
69.8318
 21
71.688
  0
LINE
  8
0
 10
69.8318
 20
71.688
 11
69.8466
 21
71.7811
  0
LINE
  8
0
 10
69.8466
 20
71.7811
 11
69.8671
 21
71.873
  0
LINE
  8
0
 10
69.8671
 20
71.873
 11
69.8934
 21
71.9635
  0
LINE
  8
0
 10
69.8934
 20
71.9635
 11
69.9253
 21
72.0522
  0
LINE
  8
0
 10
69.9253
 20
72.0522
 11
69.9628
 21
72.1387
  0
LINE
  8
0
 10
69.9628
 20
72.1387
 11
70.0055
 21
72.2226
  0
LINE
  8
0
 10
70.0055
 20
72.2226
 11
70.0535
 21
72.3037
  0
LINE
  8
0
 10
70.0535
 20
72.3037
 11
70.1065
 21
72.3817
  0
LINE
  8
0
 10
70.1065
 20
72.3817
 11
70.1642
 21
72.4561
  0
LINE
  8
0
 10
70.1642
 20
72.4561
 11
70.2265
 21
72.5268
  0
LINE
  8
0
 10
70.2265
 20
72.5268
 11
70.2932
 21
72.5934
  0
LINE
  8
0
 10
70.2932
 20
72.5934
 11
70.3639
 21
72.6558
  0
LINE
  8
0
 10
70.3639
 20
72.6558
 11
70.4383
 21
72.7135
  0
LINE
  8
0
 10
70.4383
 20
72.7135
 11
70.5163
 21
72.7665
  0
LINE
  8
0
 10
70.5163
 20
72.7665
 11
70.5974
 21
72.8145
  0
LINE
  8
0
 10
70.5974
 20
72.8145
 11
70.6813
 21
72.8572
  0
LINE
  8
0
 10
70.6813
 20
72.8572
 11
70.7678
 21
72.8947
  0
LINE
  8
0
 10
70.7678
 20
72.8947
 11
70.8565
 21
72.9266
  0
LINE
  8
0
 10
70.8565
 20
72.9266
 11
70.947
 21
72.9529
  0
LINE
  8
0
 10
70.947
 20
72.9529
 11
71.0389
 21
72.9734
  0
LINE
  8
0
 10
71.0389
 20
72.9734
 11
71.132
 21
72.9882
  0
LINE
  8
0
 10
71.132
 20
72.9882
 11
71.2258
 21
72.997
  0
LINE
  8
0
 10
71.2258
 20
72.997
 11
71.32
 21
73
  0
LINE
  8
0
 10
71.32
 20
73
 11
71.4142
 21
72.997
  0
LINE
  8
0
 10
71.4142
 20
72.997
 11
71.508
 21
72.9882
  0
LINE
  8
0
 10
71.508
 20
72.9882
 11
71.6011
 21
72.9734
  0
LINE
  8
0
 10
71.6011
 20
72.9734
 11
71.693
 21
72.9529
  0
LINE
  8
0
 10
71.693
 20
72.9529
 11
71.7835
 21
72.9266
  0
LINE
  8
0
 10
71.7835
 20
72.9266
 11
71.8722
 21
72.8947
  0
LINE
  8
0
 10
71.8722
 20
72.8947
 11
71.9587
 21
72.8572
  0
LINE
  8
0
 10
71.9587
 20
72.8572
 11
72.0426
 21
72.8145
  0
LINE
  8
0
 10
72.0426
 20
72.8145
 11
72.1237
 21
72.7665
  0
LINE
  8
0
 10
72.1237
 20
72.7665
 11
72.2017
 21
72.7135
  0
LINE
  8
0
 10
72.2017
 20
72.7135
 11
72.2761
 21
72.6558
  0
LINE
  8
0
 10
72.2761
 20
72.6558
 11
72.3468
 21
72.5934
  0
LINE
  8
0
 10
72.3468
 20
72.5934
 11
72.4135
 21
72.5268
  0
LINE
  8
0
 10
72.4135
 20
72.5268
 11
72.4758
 21
72.4561
  0
LINE
  8
0
 10
72.4758
 20
72.4561
 11
72.5335
 21
72.3817
  0
LINE
  8
0
 10
72.5335
 20
72.3817
 11
72.5865
 21
72.3037
  0
LINE
  8
0
 10
72.5865
 20
72.3037
 11
72.6345
 21
72.2226
  0
LINE
  8
0
 10
72.6345
 20
72.2226
 11
72.6772
 21
72.1387
  0
LINE
  8
0
 10
72.6772
 20
72.1387
 11
72.7147
 21
72.0522
  0
LINE
  8
0
 10
72.7147
 20
72.0522
 11
72.7466
 21
71.9635
  0
LINE
  8
0
 10
72.7466
 20
71.9635
 11
72.7729
 21
71.873
  0
LINE
  8
0
 10
72.7729
 20
71.873
 11
72.7934
 21
71.7811
  0
LINE
  8
0
 10
72.7934
 20
71.7811
 11
72.8082
 21
71.688
  0
LINE
  8
0
 10
72.8082
 20
71.688
 11
72.817
 21
71.5942
  0
LINE
  8
0
 10
72.817
 20
71.5942
 11
72.82
 21
71.5
  0
LINE
  8
0
 10
72.82
 20
71.5
 11
72.817
 21
71.4058
  0
LINE
  8
0
 10
72.817
 20
71.4058
 11
72.8082
 21
71.312
  0
LINE
  8
0
 10
72.8082
 20
71.312
 11
72.7934
 21
71.2189
  0
LINE
  8
0
 10
72.7934
 20
71.2189
 11
72.7729
 21
71.127
  0
LINE
  8
0
 10
72.7729
 20
71.127
 11
72.7466
 21
71.0365
  0
LINE
  8
0
 10
72.7466
 20
71.0365
 11
72.7147
 21
70.9478
  0
LINE
  8
0
 10
72.7147
 20
70.9478
 11
72.6772
 21
70.8613
  0
LINE
  8
0
 10
72.6772
 20
70.8613
 11
72.6345
 21
70.7774
  0
LINE
  8
0
 10
72.6345
 20
70.7774
 11
72.5865
 21
70.6963
  0
LINE
  8
0
 10
72.5865
 20
70.6963
 11
72.5335
 21
70.6183
  0
LINE
  8
0
 10
72.5335
 20
70.6183
 11
72.4758
 21
70.5439
  0
LINE
  8
0
 10
72.4758
 20
70.5439
 11
72.4135
 21
70.4732
  0
LINE
  8
0
 10
72.4135
 20
70.4732
 11
72.3468
 21
70.4065
  0
LINE
  8
0
 10
72.3468
 20
70.4065
 11
72.2761
 21
70.3442
  0
LINE
  8
0
 10
72.2761
 20
70.3442
 11
72.2017
 21
70.2865
  0
LINE
  8
0
 10
72.2017
 20
70.2865
 11
72.1237
 21
70.2335
  0
LINE
  8
0
 10
72.1237
 20
70.2335
 11
72.0426
 21
70.1855
  0
LINE
  8
0
 10
72.0426
 20
70.1855
 11
71.9587
 21
70.1428
  0
LINE
  8
0
 10
71.9587
 20
70.1428
 11
71.8722
 21
70.1053
  0
LINE
  8
0
 10
71.8722
 20
70.1053
 11
71.7835
 21
70.0734
  0
LINE
  8
0
 10
71.7835
 20
70.0734
 11
71.693
 21
70.0471
  0
LINE
  8
0
 10
71.693
 20
70.0471
 11
71.6011
 21
70.0266
  0
LINE
  8
0
 10
71.6011
 20
70.0266
 11
71.508
 21
70.0118
  0
LINE
  8
0
 10
71.508
 20
70.0118
 11
71.4142
 21
70.003
  0
LINE
  8
0
 10
71.4142
 20
70.003
 11
71.32
 21
70
  0
LINE
  8
0
 10
71.32
 20
70
 11
71.2258
 21
70.003
  0
ENDSEC
  0
SECTION
  2
OBJECTS
  0
DICTIONARY
  0
ENDSEC
  0
EOF
