  0
SECTION
  2
BLOCKS
  0
ENDSEC
  0
SECTION
  2
ENTITIES
  0
LINE
  8
0
 10
110
 20
243
 11
0
 21
243
  0
LINE
  8
0
 10
0
 20
243
 11
0
 21
0
  0
LINE
  8
0
 10
0
 20
0
 11
110
 21
0
  0
LINE
  8
0
 10
110
 20
0
 11
110
 21
243
  0
LINE
  8
0
 10
54.3658
 20
198.92
 11
53.7341
 21
198.98
  0
LINE
  8
0
 10
53.7341
 20
198.98
 11
53.1074
 21
199.079
  0
LINE
  8
0
 10
53.1074
 20
199.079
 11
52.4882
 21
199.217
  0
LINE
  8
0
 10
52.4882
 20
199.217
 11
51.8789
 21
199.394
  0
LINE
  8
0
 10
51.8789
 20
199.394
 11
51.2819
 21
199.609
  0
LINE
  8
0
 10
51.2819
 20
199.609
 11
50.6996
 21
199.861
  0
LINE
  8
0
 10
50.6996
 20
199.861
 11
50.1343
 21
200.149
  0
LINE
  8
0
 10
50.1343
 20
200.149
 11
49.5882
 21
200.472
  0
LINE
  8
0
 10
49.5882
 20
200.472
 11
49.0634
 21
200.829
  0
LINE
  8
0
 10
49.0634
 20
200.829
 11
48.562
 21
201.218
  0
LINE
  8
0
 10
48.562
 20
201.218
 11
48.0861
 21
201.637
  0
LINE
  8
0
 10
48.0861
 20
201.637
 11
47.6374
 21
202.086
  0
LINE
  8
0
 10
47.6374
 20
202.086
 11
47.2178
 21
202.562
  0
LINE
  8
0
 10
47.2178
 20
202.562
 11
46.8289
 21
203.063
  0
LINE
  8
0
 10
46.8289
 20
203.063
 11
46.4723
 21
203.588
  0
LINE
  8
0
 10
46.4723
 20
203.588
 11
46.1493
 21
204.134
  0
LINE
  8
0
 10
46.1493
 20
204.134
 11
45.8612
 21
204.7
  0
LINE
  8
0
 10
45.8612
 20
204.7
 11
45.6093
 21
205.282
  0
LINE
  8
0
 10
45.6093
 20
205.282
 11
45.3943
 21
205.879
  0
LINE
  8
0
 10
45.3943
 20
205.879
 11
45.2173
 21
206.488
  0
LINE
  8
0
 10
45.2173
 20
206.488
 11
45.0789
 21
207.107
  0
LINE
  8
0
 10
45.0789
 20
207.107
 11
44.9796
 21
207.734
  0
LINE
  8
0
 10
44.9796
 20
207.734
 11
44.9199
 21
208.366
  0
LINE
  8
0
 10
44.9199
 20
208.366
 11
44.9
 21
209
  0
LINE
  8
0
 10
44.9
 20
209
 11
44.9199
 21
209.634
  0
LINE
  8
0
 10
44.9199
 20
209.634
 11
44.9796
 21
210.266
  0
LINE
  8
0
 10
44.9796
 20
210.266
 11
45.0789
 21
210.893
  0
LINE
  8
0
 10
45.0789
 20
210.893
 11
45.2173
 21
211.512
  0
LINE
  8
0
 10
45.2173
 20
211.512
 11
45.3943
 21
212.121
  0
LINE
  8
0
 10
45.3943
 20
212.121
 11
45.6093
 21
212.718
  0
LINE
  8
0
 10
45.6093
 20
212.718
 11
45.8612
 21
213.3
  0
LINE
  8
0
 10
45.8612
 20
213.3
 11
46.1493
 21
213.866
  0
LINE
  8
0
 10
46.1493
 20
213.866
 11
46.4723
 21
214.412
  0
LINE
  8
0
 10
46.4723
 20
214.412
 11
46.8289
 21
214.937
  0
LINE
  8
0
 10
46.8289
 20
214.937
 11
47.2178
 21
215.438
  0
LINE
  8
0
 10
47.2178
 20
215.438
 11
47.6374
 21
215.914
  0
LINE
  8
0
 10
47.6374
 20
215.914
 11
48.0861
 21
216.363
  0
LINE
  8
0
 10
48.0861
 20
216.363
 11
48.562
 21
216.782
  0
LINE
  8
0
 10
48.562
 20
216.782
 11
49.0634
 21
217.171
  0
LINE
  8
0
 10
49.0634
 20
217.171
 11
49.5882
 21
217.528
  0
LINE
  8
0
 10
49.5882
 20
217.528
 11
50.1343
 21
217.851
  0
LINE
  8
0
 10
50.1343
 20
217.851
 11
50.6996
 21
218.139
  0
LINE
  8
0
 10
50.6996
 20
218.139
 11
51.2819
 21
218.391
  0
LINE
  8
0
 10
51.2819
 20
218.391
 11
51.8789
 21
218.606
  0
LINE
  8
0
 10
51.8789
 20
218.606
 11
52.4882
 21
218.783
  0
LINE
  8
0
 10
52.4882
 20
218.783
 11
53.1074
 21
218.921
  0
LINE
  8
0
 10
53.1074
 20
218.921
 11
53.7341
 21
219.02
  0
LINE
  8
0
 10
53.7341
 20
219.02
 11
54.3658
 21
219.08
  0
LINE
  8
0
 10
54.3658
 20
219.08
 11
55
 21
219.1
  0
LINE
  8
0
 10
55
 20
219.1
 11
55.6342
 21
219.08
  0
LINE
  8
0
 10
55.6342
 20
219.08
 11
56.2659
 21
219.02
  0
LINE
  8
0
 10
56.2659
 20
219.02
 11
56.8925
 21
218.921
  0
LINE
  8
0
 10
56.8925
 20
218.921
 11
57.5118
 21
218.783
  0
LINE
  8
0
 10
57.5118
 20
218.783
 11
58.1211
 21
218.606
  0
LINE
  8
0
 10
58.1211
 20
218.606
 11
58.718
 21
218.391
  0
LINE
  8
0
 10
58.718
 20
218.391
 11
59.3004
 21
218.139
  0
LINE
  8
0
 10
59.3004
 20
218.139
 11
59.8657
 21
217.851
  0
LINE
  8
0
 10
59.8657
 20
217.851
 11
60.4118
 21
217.528
  0
LINE
  8
0
 10
60.4118
 20
217.528
 11
60.9366
 21
217.171
  0
LINE
  8
0
 10
60.9366
 20
217.171
 11
61.438
 21
216.782
  0
LINE
  8
0
 10
61.438
 20
216.782
 11
61.9139
 21
216.363
  0
LINE
  8
0
 10
61.9139
 20
216.363
 11
62.3626
 21
215.914
  0
LINE
  8
0
 10
62.3626
 20
215.914
 11
62.7822
 21
215.438
  0
LINE
  8
0
 10
62.7822
 20
215.438
 11
63.1711
 21
214.937
  0
LINE
  8
0
 10
63.1711
 20
214.937
 11
63.5277
 21
214.412
  0
LINE
  8
0
 10
63.5277
 20
214.412
 11
63.8507
 21
213.866
  0
LINE
  8
0
 10
63.8507
 20
213.866
 11
64.1387
 21
213.3
  0
LINE
  8
0
 10
64.1387
 20
213.3
 11
64.3907
 21
212.718
  0
LINE
  8
0
 10
64.3907
 20
212.718
 11
64.6057
 21
212.121
  0
LINE
  8
0
 10
64.6057
 20
212.121
 11
64.7827
 21
211.512
  0
LINE
  8
0
 10
64.7827
 20
211.512
 11
64.9211
 21
210.893
  0
LINE
  8
0
 10
64.9211
 20
210.893
 11
65.0204
 21
210.266
  0
LINE
  8
0
 10
65.0204
 20
210.266
 11
65.0801
 21
209.634
  0
LINE
  8
0
 10
65.0801
 20
209.634
 11
65.1
 21
209
  0
LINE
  8
0
 10
65.1
 20
209
 11
65.0801
 21
208.366
  0
LINE
  8
0
 10
65.0801
 20
208.366
 11
65.0204
 21
207.734
  0
LINE
  8
0
 10
65.0204
 20
207.734
 11
64.9211
 21
207.107
  0
LINE
  8
0
 10
64.9211
 20
207.107
 11
64.7827
 21
206.488
  0
LINE
  8
0
 10
64.7827
 20
206.488
 11
64.6057
 21
205.879
  0
LINE
  8
0
 10
64.6057
 20
205.879
 11
64.3907
 21
205.282
  0
LINE
  8
0
 10
64.3907
 20
205.282
 11
64.1387
 21
204.7
  0
LINE
  8
0
 10
64.1387
 20
204.7
 11
63.8507
 21
204.134
  0
LINE
  8
0
 10
63.8507
 20
204.134
 11
63.5277
 21
203.588
  0
LINE
  8
0
 10
63.5277
 20
203.588
 11
63.1711
 21
203.063
  0
LINE
  8
0
 10
63.1711
 20
203.063
 11
62.7822
 21
202.562
  0
LINE
  8
0
 10
62.7822
 20
202.562
 11
62.3626
 21
202.086
  0
LINE
  8
0
 10
62.3626
 20
202.086
 11
61.9139
 21
201.637
  0
LINE
  8
0
 10
61.9139
 20
201.637
 11
61.438
 21
201.218
  0
LINE
  8
0
 10
61.438
 20
201.218
 11
60.9366
 21
200.829
  0
LINE
  8
0
 10
60.9366
 20
200.829
 11
60.4118
 21
200.472
  0
LINE
  8
0
 10
60.4118
 20
200.472
 11
59.8657
 21
200.149
  0
LINE
  8
0
 10
59.8657
 20
200.149
 11
59.3004
 21
199.861
  0
LINE
  8
0
 10
59.3004
 20
199.861
 11
58.718
 21
199.609
  0
LINE
  8
0
 10
58.718
 20
199.609
 11
58.1211
 21
199.394
  0
LINE
  8
0
 10
58.1211
 20
199.394
 11
57.5118
 21
199.217
  0
LINE
  8
0
 10
57.5118
 20
199.217
 11
56.8925
 21
199.079
  0
LINE
  8
0
 10
56.8925
 20
199.079
 11
56.2659
 21
198.98
  0
LINE
  8
0
 10
56.2659
 20
198.98
 11
55.6342
 21
198.92
  0
LINE
  8
0
 10
55.6342
 20
198.92
 11
55
 21
198.9
  0
LINE
  8
0
 10
55
 20
198.9
 11
54.3658
 21
198.92
  0
LINE
  8
0
 10
54.3658
 20
163.92
 11
53.7341
 21
163.98
  0
LINE
  8
0
 10
53.7341
 20
163.98
 11
53.1074
 21
164.079
  0
LINE
  8
0
 10
53.1074
 20
164.079
 11
52.4882
 21
164.217
  0
LINE
  8
0
 10
52.4882
 20
164.217
 11
51.8789
 21
164.394
  0
LINE
  8
0
 10
51.8789
 20
164.394
 11
51.2819
 21
164.609
  0
LINE
  8
0
 10
51.2819
 20
164.609
 11
50.6996
 21
164.861
  0
LINE
  8
0
 10
50.6996
 20
164.861
 11
50.1343
 21
165.149
  0
LINE
  8
0
 10
50.1343
 20
165.149
 11
49.5882
 21
165.472
  0
LINE
  8
0
 10
49.5882
 20
165.472
 11
49.0634
 21
165.829
  0
LINE
  8
0
 10
49.0634
 20
165.829
 11
48.562
 21
166.218
  0
LINE
  8
0
 10
48.562
 20
166.218
 11
48.0861
 21
166.637
  0
LINE
  8
0
 10
48.0861
 20
166.637
 11
47.6374
 21
167.086
  0
LINE
  8
0
 10
47.6374
 20
167.086
 11
47.2178
 21
167.562
  0
LINE
  8
0
 10
47.2178
 20
167.562
 11
46.8289
 21
168.063
  0
LINE
  8
0
 10
46.8289
 20
168.063
 11
46.4723
 21
168.588
  0
LINE
  8
0
 10
46.4723
 20
168.588
 11
46.1493
 21
169.134
  0
LINE
  8
0
 10
46.1493
 20
169.134
 11
45.8612
 21
169.7
  0
LINE
  8
0
 10
45.8612
 20
169.7
 11
45.6093
 21
170.282
  0
LINE
  8
0
 10
45.6093
 20
170.282
 11
45.3943
 21
170.879
  0
LINE
  8
0
 10
45.3943
 20
170.879
 11
45.2173
 21
171.488
  0
LINE
  8
0
 10
45.2173
 20
171.488
 11
45.0789
 21
172.107
  0
LINE
  8
0
 10
45.0789
 20
172.107
 11
44.9796
 21
172.734
  0
LINE
  8
0
 10
44.9796
 20
172.734
 11
44.9199
 21
173.366
  0
LINE
  8
0
 10
44.9199
 20
173.366
 11
44.9
 21
174
  0
LINE
  8
0
 10
44.9
 20
174
 11
44.9199
 21
174.634
  0
LINE
  8
0
 10
44.9199
 20
174.634
 11
44.9796
 21
175.266
  0
LINE
  8
0
 10
44.9796
 20
175.266
 11
45.0789
 21
175.893
  0
LINE
  8
0
 10
45.0789
 20
175.893
 11
45.2173
 21
176.512
  0
LINE
  8
0
 10
45.2173
 20
176.512
 11
45.3943
 21
177.121
  0
LINE
  8
0
 10
45.3943
 20
177.121
 11
45.6093
 21
177.718
  0
LINE
  8
0
 10
45.6093
 20
177.718
 11
45.8612
 21
178.3
  0
LINE
  8
0
 10
45.8612
 20
178.3
 11
46.1493
 21
178.866
  0
LINE
  8
0
 10
46.1493
 20
178.866
 11
46.4723
 21
179.412
  0
LINE
  8
0
 10
46.4723
 20
179.412
 11
46.8289
 21
179.937
  0
LINE
  8
0
 10
46.8289
 20
179.937
 11
47.2178
 21
180.438
  0
LINE
  8
0
 10
47.2178
 20
180.438
 11
47.6374
 21
180.914
  0
LINE
  8
0
 10
47.6374
 20
180.914
 11
48.0861
 21
181.363
  0
LINE
  8
0
 10
48.0861
 20
181.363
 11
48.562
 21
181.782
  0
LINE
  8
0
 10
48.562
 20
181.782
 11
49.0634
 21
182.171
  0
LINE
  8
0
 10
49.0634
 20
182.171
 11
49.5882
 21
182.528
  0
LINE
  8
0
 10
49.5882
 20
182.528
 11
50.1343
 21
182.851
  0
LINE
  8
0
 10
50.1343
 20
182.851
 11
50.6996
 21
183.139
  0
LINE
  8
0
 10
50.6996
 20
183.139
 11
51.2819
 21
183.391
  0
LINE
  8
0
 10
51.2819
 20
183.391
 11
51.8789
 21
183.606
  0
LINE
  8
0
 10
51.8789
 20
183.606
 11
52.4882
 21
183.783
  0
LINE
  8
0
 10
52.4882
 20
183.783
 11
53.1074
 21
183.921
  0
LINE
  8
0
 10
53.1074
 20
183.921
 11
53.7341
 21
184.02
  0
LINE
  8
0
 10
53.7341
 20
184.02
 11
54.3658
 21
184.08
  0
LINE
  8
0
 10
54.3658
 20
184.08
 11
55
 21
184.1
  0
LINE
  8
0
 10
55
 20
184.1
 11
55.6342
 21
184.08
  0
LINE
  8
0
 10
55.6342
 20
184.08
 11
56.2659
 21
184.02
  0
LINE
  8
0
 10
56.2659
 20
184.02
 11
56.8925
 21
183.921
  0
LINE
  8
0
 10
56.8925
 20
183.921
 11
57.5118
 21
183.783
  0
LINE
  8
0
 10
57.5118
 20
183.783
 11
58.1211
 21
183.606
  0
LINE
  8
0
 10
58.1211
 20
183.606
 11
58.718
 21
183.391
  0
LINE
  8
0
 10
58.718
 20
183.391
 11
59.3004
 21
183.139
  0
LINE
  8
0
 10
59.3004
 20
183.139
 11
59.8657
 21
182.851
  0
LINE
  8
0
 10
59.8657
 20
182.851
 11
60.4118
 21
182.528
  0
LINE
  8
0
 10
60.4118
 20
182.528
 11
60.9366
 21
182.171
  0
LINE
  8
0
 10
60.9366
 20
182.171
 11
61.438
 21
181.782
  0
LINE
  8
0
 10
61.438
 20
181.782
 11
61.9139
 21
181.363
  0
LINE
  8
0
 10
61.9139
 20
181.363
 11
62.3626
 21
180.914
  0
LINE
  8
0
 10
62.3626
 20
180.914
 11
62.7822
 21
180.438
  0
LINE
  8
0
 10
62.7822
 20
180.438
 11
63.1711
 21
179.937
  0
LINE
  8
0
 10
63.1711
 20
179.937
 11
63.5277
 21
179.412
  0
LINE
  8
0
 10
63.5277
 20
179.412
 11
63.8507
 21
178.866
  0
LINE
  8
0
 10
63.8507
 20
178.866
 11
64.1387
 21
178.3
  0
LINE
  8
0
 10
64.1387
 20
178.3
 11
64.3907
 21
177.718
  0
LINE
  8
0
 10
64.3907
 20
177.718
 11
64.6057
 21
177.121
  0
LINE
  8
0
 10
64.6057
 20
177.121
 11
64.7827
 21
176.512
  0
LINE
  8
0
 10
64.7827
 20
176.512
 11
64.9211
 21
175.893
  0
LINE
  8
0
 10
64.9211
 20
175.893
 11
65.0204
 21
175.266
  0
LINE
  8
0
 10
65.0204
 20
175.266
 11
65.0801
 21
174.634
  0
LINE
  8
0
 10
65.0801
 20
174.634
 11
65.1
 21
174
  0
LINE
  8
0
 10
65.1
 20
174
 11
65.0801
 21
173.366
  0
LINE
  8
0
 10
65.0801
 20
173.366
 11
65.0204
 21
172.734
  0
LINE
  8
0
 10
65.0204
 20
172.734
 11
64.9211
 21
172.107
  0
LINE
  8
0
 10
64.9211
 20
172.107
 11
64.7827
 21
171.488
  0
LINE
  8
0
 10
64.7827
 20
171.488
 11
64.6057
 21
170.879
  0
LINE
  8
0
 10
64.6057
 20
170.879
 11
64.3907
 21
170.282
  0
LINE
  8
0
 10
64.3907
 20
170.282
 11
64.1387
 21
169.7
  0
LINE
  8
0
 10
64.1387
 20
169.7
 11
63.8507
 21
169.134
  0
LINE
  8
0
 10
63.8507
 20
169.134
 11
63.5277
 21
168.588
  0
LINE
  8
0
 10
63.5277
 20
168.588
 11
63.1711
 21
168.063
  0
LINE
  8
0
 10
63.1711
 20
168.063
 11
62.7822
 21
167.562
  0
LINE
  8
0
 10
62.7822
 20
167.562
 11
62.3626
 21
167.086
  0
LINE
  8
0
 10
62.3626
 20
167.086
 11
61.9139
 21
166.637
  0
LINE
  8
0
 10
61.9139
 20
166.637
 11
61.438
 21
166.218
  0
LINE
  8
0
 10
61.438
 20
166.218
 11
60.9366
 21
165.829
  0
LINE
  8
0
 10
60.9366
 20
165.829
 11
60.4118
 21
165.472
  0
LINE
  8
0
 10
60.4118
 20
165.472
 11
59.8657
 21
165.149
  0
LINE
  8
0
 10
59.8657
 20
165.149
 11
59.3004
 21
164.861
  0
LINE
  8
0
 10
59.3004
 20
164.861
 11
58.718
 21
164.609
  0
LINE
  8
0
 10
58.718
 20
164.609
 11
58.1211
 21
164.394
  0
LINE
  8
0
 10
58.1211
 20
164.394
 11
57.5118
 21
164.217
  0
LINE
  8
0
 10
57.5118
 20
164.217
 11
56.8925
 21
164.079
  0
LINE
  8
0
 10
56.8925
 20
164.079
 11
56.2659
 21
163.98
  0
LINE
  8
0
 10
56.2659
 20
163.98
 11
55.6342
 21
163.92
  0
LINE
  8
0
 10
55.6342
 20
163.92
 11
55
 21
163.9
  0
LINE
  8
0
 10
55
 20
163.9
 11
54.3658
 21
163.92
  0
LINE
  8
0
 10
38.5858
 20
141.403
 11
38.492
 21
141.412
  0
LINE
  8
0
 10
38.492
 20
141.412
 11
38.3989
 21
141.427
  0
LINE
  8
0
 10
38.3989
 20
141.427
 11
38.307
 21
141.447
  0
LINE
  8
0
 10
38.307
 20
141.447
 11
38.2165
 21
141.473
  0
LINE
  8
0
 10
38.2165
 20
141.473
 11
38.1278
 21
141.505
  0
LINE
  8
0
 10
38.1278
 20
141.505
 11
38.0413
 21
141.543
  0
LINE
  8
0
 10
38.0413
 20
141.543
 11
37.9574
 21
141.586
  0
LINE
  8
0
 10
37.9574
 20
141.586
 11
37.8763
 21
141.634
  0
LINE
  8
0
 10
37.8763
 20
141.634
 11
37.7983
 21
141.686
  0
LINE
  8
0
 10
37.7983
 20
141.686
 11
37.7239
 21
141.744
  0
LINE
  8
0
 10
37.7239
 20
141.744
 11
37.6532
 21
141.807
  0
LINE
  8
0
 10
37.6532
 20
141.807
 11
37.5865
 21
141.873
  0
LINE
  8
0
 10
37.5865
 20
141.873
 11
37.5242
 21
141.944
  0
LINE
  8
0
 10
37.5242
 20
141.944
 11
37.4665
 21
142.018
  0
LINE
  8
0
 10
37.4665
 20
142.018
 11
37.4135
 21
142.096
  0
LINE
  8
0
 10
37.4135
 20
142.096
 11
37.3655
 21
142.177
  0
LINE
  8
0
 10
37.3655
 20
142.177
 11
37.3228
 21
142.261
  0
LINE
  8
0
 10
37.3228
 20
142.261
 11
37.2853
 21
142.348
  0
LINE
  8
0
 10
37.2853
 20
142.348
 11
37.2534
 21
142.436
  0
LINE
  8
0
 10
37.2534
 20
142.436
 11
37.2271
 21
142.527
  0
LINE
  8
0
 10
37.2271
 20
142.527
 11
37.2066
 21
142.619
  0
LINE
  8
0
 10
37.2066
 20
142.619
 11
37.1918
 21
142.712
  0
LINE
  8
0
 10
37.1918
 20
142.712
 11
37.183
 21
142.806
  0
LINE
  8
0
 10
37.183
 20
142.806
 11
37.18
 21
142.9
  0
LINE
  8
0
 10
37.18
 20
142.9
 11
37.183
 21
142.994
  0
LINE
  8
0
 10
37.183
 20
142.994
 11
37.1918
 21
143.088
  0
LINE
  8
0
 10
37.1918
 20
143.088
 11
37.2066
 21
143.181
  0
LINE
  8
0
 10
37.2066
 20
143.181
 11
37.2271
 21
143.273
  0
LINE
  8
0
 10
37.2271
 20
143.273
 11
37.2534
 21
143.364
  0
LINE
  8
0
 10
37.2534
 20
143.364
 11
37.2853
 21
143.452
  0
LINE
  8
0
 10
37.2853
 20
143.452
 11
37.3228
 21
143.539
  0
LINE
  8
0
 10
37.3228
 20
143.539
 11
37.3655
 21
143.623
  0
LINE
  8
0
 10
37.3655
 20
143.623
 11
37.4135
 21
143.704
  0
LINE
  8
0
 10
37.4135
 20
143.704
 11
37.4665
 21
143.782
  0
LINE
  8
0
 10
37.4665
 20
143.782
 11
37.5242
 21
143.856
  0
LINE
  8
0
 10
37.5242
 20
143.856
 11
37.5865
 21
143.927
  0
LINE
  8
0
 10
37.5865
 20
143.927
 11
37.6532
 21
143.993
  0
LINE
  8
0
 10
37.6532
 20
143.993
 11
37.7239
 21
144.056
  0
LINE
  8
0
 10
37.7239
 20
144.056
 11
37.7983
 21
144.114
  0
LINE
  8
0
 10
37.7983
 20
144.114
 11
37.8763
 21
144.166
  0
LINE
  8
0
 10
37.8763
 20
144.166
 11
37.9574
 21
144.214
  0
LINE
  8
0
 10
37.9574
 20
144.214
 11
38.0413
 21
144.257
  0
LINE
  8
0
 10
38.0413
 20
144.257
 11
38.1278
 21
144.295
  0
LINE
  8
0
 10
38.1278
 20
144.295
 11
38.2165
 21
144.327
  0
LINE
  8
0
 10
38.2165
 20
144.327
 11
38.307
 21
144.353
  0
LINE
  8
0
 10
38.307
 20
144.353
 11
38.3989
 21
144.373
  0
LINE
  8
0
 10
38.3989
 20
144.373
 11
38.492
 21
144.388
  0
LINE
  8
0
 10
38.492
 20
144.388
 11
38.5858
 21
144.397
  0
LINE
  8
0
 10
38.5858
 20
144.397
 11
38.68
 21
144.4
  0
LINE
  8
0
 10
38.68
 20
144.4
 11
38.7742
 21
144.397
  0
LINE
  8
0
 10
38.7742
 20
144.397
 11
38.868
 21
144.388
  0
LINE
  8
0
 10
38.868
 20
144.388
 11
38.9611
 21
144.373
  0
LINE
  8
0
 10
38.9611
 20
144.373
 11
39.053
 21
144.353
  0
LINE
  8
0
 10
39.053
 20
144.353
 11
39.1435
 21
144.327
  0
LINE
  8
0
 10
39.1435
 20
144.327
 11
39.2322
 21
144.295
  0
LINE
  8
0
 10
39.2322
 20
144.295
 11
39.3187
 21
144.257
  0
LINE
  8
0
 10
39.3187
 20
144.257
 11
39.4026
 21
144.214
  0
LINE
  8
0
 10
39.4026
 20
144.214
 11
39.4837
 21
144.166
  0
LINE
  8
0
 10
39.4837
 20
144.166
 11
39.5617
 21
144.114
  0
LINE
  8
0
 10
39.5617
 20
144.114
 11
39.6361
 21
144.056
  0
LINE
  8
0
 10
39.6361
 20
144.056
 11
39.7068
 21
143.993
  0
LINE
  8
0
 10
39.7068
 20
143.993
 11
39.7735
 21
143.927
  0
LINE
  8
0
 10
39.7735
 20
143.927
 11
39.8358
 21
143.856
  0
LINE
  8
0
 10
39.8358
 20
143.856
 11
39.8935
 21
143.782
  0
LINE
  8
0
 10
39.8935
 20
143.782
 11
39.9465
 21
143.704
  0
LINE
  8
0
 10
39.9465
 20
143.704
 11
39.9945
 21
143.623
  0
LINE
  8
0
 10
39.9945
 20
143.623
 11
40.0372
 21
143.539
  0
LINE
  8
0
 10
40.0372
 20
143.539
 11
40.0747
 21
143.452
  0
LINE
  8
0
 10
40.0747
 20
143.452
 11
40.1066
 21
143.364
  0
LINE
  8
0
 10
40.1066
 20
143.364
 11
40.1329
 21
143.273
  0
LINE
  8
0
 10
40.1329
 20
143.273
 11
40.1534
 21
143.181
  0
LINE
  8
0
 10
40.1534
 20
143.181
 11
40.1682
 21
143.088
  0
LINE
  8
0
 10
40.1682
 20
143.088
 11
40.177
 21
142.994
  0
LINE
  8
0
 10
40.177
 20
142.994
 11
40.18
 21
142.9
  0
LINE
  8
0
 10
40.18
 20
142.9
 11
40.177
 21
142.806
  0
LINE
  8
0
 10
40.177
 20
142.806
 11
40.1682
 21
142.712
  0
LINE
  8
0
 10
40.1682
 20
142.712
 11
40.1534
 21
142.619
  0
LINE
  8
0
 10
40.1534
 20
142.619
 11
40.1329
 21
142.527
  0
LINE
  8
0
 10
40.1329
 20
142.527
 11
40.1066
 21
142.436
  0
LINE
  8
0
 10
40.1066
 20
142.436
 11
40.0747
 21
142.348
  0
LINE
  8
0
 10
40.0747
 20
142.348
 11
40.0372
 21
142.261
  0
LINE
  8
0
 10
40.0372
 20
142.261
 11
39.9945
 21
142.177
  0
LINE
  8
0
 10
39.9945
 20
142.177
 11
39.9465
 21
142.096
  0
LINE
  8
0
 10
39.9465
 20
142.096
 11
39.8935
 21
142.018
  0
LINE
  8
0
 10
39.8935
 20
142.018
 11
39.8358
 21
141.944
  0
LINE
  8
0
 10
39.8358
 20
141.944
 11
39.7735
 21
141.873
  0
LINE
  8
0
 10
39.7735
 20
141.873
 11
39.7068
 21
141.807
  0
LINE
  8
0
 10
39.7068
 20
141.807
 11
39.6361
 21
141.744
  0
LINE
  8
0
 10
39.6361
 20
141.744
 11
39.5617
 21
141.686
  0
LINE
  8
0
 10
39.5617
 20
141.686
 11
39.4837
 21
141.634
  0
LINE
  8
0
 10
39.4837
 20
141.634
 11
39.4026
 21
141.586
  0
LINE
  8
0
 10
39.4026
 20
141.586
 11
39.3187
 21
141.543
  0
LINE
  8
0
 10
39.3187
 20
141.543
 11
39.2322
 21
141.505
  0
LINE
  8
0
 10
39.2322
 20
141.505
 11
39.1435
 21
141.473
  0
LINE
  8
0
 10
39.1435
 20
141.473
 11
39.053
 21
141.447
  0
LINE
  8
0
 10
39.053
 20
141.447
 11
38.9611
 21
141.427
  0
LINE
  8
0
 10
38.9611
 20
141.427
 11
38.868
 21
141.412
  0
LINE
  8
0
 10
38.868
 20
141.412
 11
38.7742
 21
141.403
  0
LINE
  8
0
 10
38.7742
 20
141.403
 11
38.68
 21
141.4
  0
LINE
  8
0
 10
38.68
 20
141.4
 11
38.5858
 21
141.403
  0
LINE
  8
0
 10
71.2258
 20
141.403
 11
71.132
 21
141.412
  0
LINE
  8
0
 10
71.132
 20
141.412
 11
71.0389
 21
141.427
  0
LINE
  8
0
 10
71.0389
 20
141.427
 11
70.947
 21
141.447
  0
LINE
  8
0
 10
70.947
 20
141.447
 11
70.8565
 21
141.473
  0
LINE
  8
0
 10
70.8565
 20
141.473
 11
70.7678
 21
141.505
  0
LINE
  8
0
 10
70.7678
 20
141.505
 11
70.6813
 21
141.543
  0
LINE
  8
0
 10
70.6813
 20
141.543
 11
70.5974
 21
141.586
  0
LINE
  8
0
 10
70.5974
 20
141.586
 11
70.5163
 21
141.634
  0
LINE
  8
0
 10
70.5163
 20
141.634
 11
70.4383
 21
141.686
  0
LINE
  8
0
 10
70.4383
 20
141.686
 11
70.3639
 21
141.744
  0
LINE
  8
0
 10
70.3639
 20
141.744
 11
70.2932
 21
141.807
  0
LINE
  8
0
 10
70.2932
 20
141.807
 11
70.2265
 21
141.873
  0
LINE
  8
0
 10
70.2265
 20
141.873
 11
70.1642
 21
141.944
  0
LINE
  8
0
 10
70.1642
 20
141.944
 11
70.1065
 21
142.018
  0
LINE
  8
0
 10
70.1065
 20
142.018
 11
70.0535
 21
142.096
  0
LINE
  8
0
 10
70.0535
 20
142.096
 11
70.0055
 21
142.177
  0
LINE
  8
0
 10
70.0055
 20
142.177
 11
69.9628
 21
142.261
  0
LINE
  8
0
 10
69.9628
 20
142.261
 11
69.9253
 21
142.348
  0
LINE
  8
0
 10
69.9253
 20
142.348
 11
69.8934
 21
142.436
  0
LINE
  8
0
 10
69.8934
 20
142.436
 11
69.8671
 21
142.527
  0
LINE
  8
0
 10
69.8671
 20
142.527
 11
69.8466
 21
142.619
  0
LINE
  8
0
 10
69.8466
 20
142.619
 11
69.8318
 21
142.712
  0
LINE
  8
0
 10
69.8318
 20
142.712
 11
69.823
 21
142.806
  0
LINE
  8
0
 10
69.823
 20
142.806
 11
69.82
 21
142.9
  0
LINE
  8
0
 10
69.82
 20
142.9
 11
69.823
 21
142.994
  0
LINE
  8
0
 10
69.823
 20
142.994
 11
69.8318
 21
143.088
  0
LINE
  8
0
 10
69.8318
 20
143.088
 11
69.8466
 21
143.181
  0
LINE
  8
0
 10
69.8466
 20
143.181
 11
69.8671
 21
143.273
  0
LINE
  8
0
 10
69.8671
 20
143.273
 11
69.8934
 21
143.364
  0
LINE
  8
0
 10
69.8934
 20
143.364
 11
69.9253
 21
143.452
  0
LINE
  8
0
 10
69.9253
 20
143.452
 11
69.9628
 21
143.539
  0
LINE
  8
0
 10
69.9628
 20
143.539
 11
70.0055
 21
143.623
  0
LINE
  8
0
 10
70.0055
 20
143.623
 11
70.0535
 21
143.704
  0
LINE
  8
0
 10
70.0535
 20
143.704
 11
70.1065
 21
143.782
  0
LINE
  8
0
 10
70.1065
 20
143.782
 11
70.1642
 21
143.856
  0
LINE
  8
0
 10
70.1642
 20
143.856
 11
70.2265
 21
143.927
  0
LINE
  8
0
 10
70.2265
 20
143.927
 11
70.2932
 21
143.993
  0
LINE
  8
0
 10
70.2932
 20
143.993
 11
70.3639
 21
144.056
  0
LINE
  8
0
 10
70.3639
 20
144.056
 11
70.4383
 21
144.114
  0
LINE
  8
0
 10
70.4383
 20
144.114
 11
70.5163
 21
144.166
  0
LINE
  8
0
 10
70.5163
 20
144.166
 11
70.5974
 21
144.214
  0
LINE
  8
0
 10
70.5974
 20
144.214
 11
70.6813
 21
144.257
  0
LINE
  8
0
 10
70.6813
 20
144.257
 11
70.7678
 21
144.295
  0
LINE
  8
0
 10
70.7678
 20
144.295
 11
70.8565
 21
144.327
  0
LINE
  8
0
 10
70.8565
 20
144.327
 11
70.947
 21
144.353
  0
LINE
  8
0
 10
70.947
 20
144.353
 11
71.0389
 21
144.373
  0
LINE
  8
0
 10
71.0389
 20
144.373
 11
71.132
 21
144.388
  0
LINE
  8
0
 10
71.132
 20
144.388
 11
71.2258
 21
144.397
  0
LINE
  8
0
 10
71.2258
 20
144.397
 11
71.32
 21
144.4
  0
LINE
  8
0
 10
71.32
 20
144.4
 11
71.4142
 21
144.397
  0
LINE
  8
0
 10
71.4142
 20
144.397
 11
71.508
 21
144.388
  0
LINE
  8
0
 10
71.508
 20
144.388
 11
71.6011
 21
144.373
  0
LINE
  8
0
 10
71.6011
 20
144.373
 11
71.693
 21
144.353
  0
LINE
  8
0
 10
71.693
 20
144.353
 11
71.7835
 21
144.327
  0
LINE
  8
0
 10
71.7835
 20
144.327
 11
71.8722
 21
144.295
  0
LINE
  8
0
 10
71.8722
 20
144.295
 11
71.9587
 21
144.257
  0
LINE
  8
0
 10
71.9587
 20
144.257
 11
72.0426
 21
144.214
  0
LINE
  8
0
 10
72.0426
 20
144.214
 11
72.1237
 21
144.166
  0
LINE
  8
0
 10
72.1237
 20
144.166
 11
72.2017
 21
144.114
  0
LINE
  8
0
 10
72.2017
 20
144.114
 11
72.2761
 21
144.056
  0
LINE
  8
0
 10
72.2761
 20
144.056
 11
72.3468
 21
143.993
  0
LINE
  8
0
 10
72.3468
 20
143.993
 11
72.4135
 21
143.927
  0
LINE
  8
0
 10
72.4135
 20
143.927
 11
72.4758
 21
143.856
  0
LINE
  8
0
 10
72.4758
 20
143.856
 11
72.5335
 21
143.782
  0
LINE
  8
0
 10
72.5335
 20
143.782
 11
72.5865
 21
143.704
  0
LINE
  8
0
 10
72.5865
 20
143.704
 11
72.6345
 21
143.623
  0
LINE
  8
0
 10
72.6345
 20
143.623
 11
72.6772
 21
143.539
  0
LINE
  8
0
 10
72.6772
 20
143.539
 11
72.7147
 21
143.452
  0
LINE
  8
0
 10
72.7147
 20
143.452
 11
72.7466
 21
143.364
  0
LINE
  8
0
 10
72.7466
 20
143.364
 11
72.7729
 21
143.273
  0
LINE
  8
0
 10
72.7729
 20
143.273
 11
72.7934
 21
143.181
  0
LINE
  8
0
 10
72.7934
 20
143.181
 11
72.8082
 21
143.088
  0
LINE
  8
0
 10
72.8082
 20
143.088
 11
72.817
 21
142.994
  0
LINE
  8
0
 10
72.817
 20
142.994
 11
72.82
 21
142.9
  0
LINE
  8
0
 10
72.82
 20
142.9
 11
72.817
 21
142.806
  0
LINE
  8
0
 10
72.817
 20
142.806
 11
72.8082
 21
142.712
  0
LINE
  8
0
 10
72.8082
 20
142.712
 11
72.7934
 21
142.619
  0
LINE
  8
0
 10
72.7934
 20
142.619
 11
72.7729
 21
142.527
  0
LINE
  8
0
 10
72.7729
 20
142.527
 11
72.7466
 21
142.436
  0
LINE
  8
0
 10
72.7466
 20
142.436
 11
72.7147
 21
142.348
  0
LINE
  8
0
 10
72.7147
 20
142.348
 11
72.6772
 21
142.261
  0
LINE
  8
0
 10
72.6772
 20
142.261
 11
72.6345
 21
142.177
  0
LINE
  8
0
 10
72.6345
 20
142.177
 11
72.5865
 21
142.096
  0
LINE
  8
0
 10
72.5865
 20
142.096
 11
72.5335
 21
142.018
  0
LINE
  8
0
 10
72.5335
 20
142.018
 11
72.4758
 21
141.944
  0
LINE
  8
0
 10
72.4758
 20
141.944
 11
72.4135
 21
141.873
  0
LINE
  8
0
 10
72.4135
 20
141.873
 11
72.3468
 21
141.807
  0
LINE
  8
0
 10
72.3468
 20
141.807
 11
72.2761
 21
141.744
  0
LINE
  8
0
 10
72.2761
 20
141.744
 11
72.2017
 21
141.686
  0
LINE
  8
0
 10
72.2017
 20
141.686
 11
72.1237
 21
141.634
  0
LINE
  8
0
 10
72.1237
 20
141.634
 11
72.0426
 21
141.586
  0
LINE
  8
0
 10
72.0426
 20
141.586
 11
71.9587
 21
141.543
  0
LINE
  8
0
 10
71.9587
 20
141.543
 11
71.8722
 21
141.505
  0
LINE
  8
0
 10
71.8722
 20
141.505
 11
71.7835
 21
141.473
  0
LINE
  8
0
 10
71.7835
 20
141.473
 11
71.693
 21
141.447
  0
LINE
  8
0
 10
71.693
 20
141.447
 11
71.6011
 21
141.427
  0
LINE
  8
0
 10
71.6011
 20
141.427
 11
71.508
 21
141.412
  0
LINE
  8
0
 10
71.508
 20
141.412
 11
71.4142
 21
141.403
  0
LINE
  8
0
 10
71.4142
 20
141.403
 11
71.32
 21
141.4
  0
LINE
  8
0
 10
71.32
 20
141.4
 11
71.2258
 21
141.403
  0
LINE
  8
0
 10
54.1492
 20
82.0267
 11
53.3017
 21
82.1068
  0
LINE
  8
0
 10
53.3017
 20
82.1068
 11
52.461
 21
82.24
  0
LINE
  8
0
 10
52.461
 20
82.24
 11
51.6302
 21
82.4257
  0
LINE
  8
0
 10
51.6302
 20
82.4257
 11
50.8128
 21
82.6632
  0
LINE
  8
0
 10
50.8128
 20
82.6632
 11
50.0119
 21
82.9515
  0
LINE
  8
0
 10
50.0119
 20
82.9515
 11
49.2307
 21
83.2896
  0
LINE
  8
0
 10
49.2307
 20
83.2896
 11
48.4722
 21
83.676
  0
LINE
  8
0
 10
48.4722
 20
83.676
 11
47.7395
 21
84.1094
  0
LINE
  8
0
 10
47.7395
 20
84.1094
 11
47.0355
 21
84.5878
  0
LINE
  8
0
 10
47.0355
 20
84.5878
 11
46.3629
 21
85.1095
  0
LINE
  8
0
 10
46.3629
 20
85.1095
 11
45.7244
 21
85.6725
  0
LINE
  8
0
 10
45.7244
 20
85.6725
 11
45.1225
 21
86.2744
  0
LINE
  8
0
 10
45.1225
 20
86.2744
 11
44.5595
 21
86.9129
  0
LINE
  8
0
 10
44.5595
 20
86.9129
 11
44.0378
 21
87.5855
  0
LINE
  8
0
 10
44.0378
 20
87.5855
 11
43.5594
 21
88.2895
  0
LINE
  8
0
 10
43.5594
 20
88.2895
 11
43.126
 21
89.0222
  0
LINE
  8
0
 10
43.126
 20
89.0222
 11
42.7396
 21
89.7807
  0
LINE
  8
0
 10
42.7396
 20
89.7807
 11
42.4015
 21
90.5619
  0
LINE
  8
0
 10
42.4015
 20
90.5619
 11
42.1132
 21
91.3628
  0
LINE
  8
0
 10
42.1132
 20
91.3628
 11
41.8757
 21
92.1803
  0
LINE
  8
0
 10
41.8757
 20
92.1803
 11
41.69
 21
93.011
  0
LINE
  8
0
 10
41.69
 20
93.011
 11
41.5568
 21
93.8517
  0
LINE
  8
0
 10
41.5568
 20
93.8517
 11
41.4767
 21
94.6992
  0
LINE
  8
0
 10
41.4767
 20
94.6992
 11
41.45
 21
95.55
  0
LINE
  8
0
 10
41.45
 20
95.55
 11
41.45
 21
106.75
  0
LINE
  8
0
 10
41.45
 20
106.75
 11
41.4767
 21
107.601
  0
LINE
  8
0
 10
41.4767
 20
107.601
 11
41.5568
 21
108.448
  0
LINE
  8
0
 10
41.5568
 20
108.448
 11
41.69
 21
109.289
  0
LINE
  8
0
 10
41.69
 20
109.289
 11
41.8757
 21
110.12
  0
LINE
  8
0
 10
41.8757
 20
110.12
 11
42.1132
 21
110.937
  0
LINE
  8
0
 10
42.1132
 20
110.937
 11
42.4015
 21
111.738
  0
LINE
  8
0
 10
42.4015
 20
111.738
 11
42.7396
 21
112.519
  0
LINE
  8
0
 10
42.7396
 20
112.519
 11
43.126
 21
113.278
  0
LINE
  8
0
 10
43.126
 20
113.278
 11
43.5594
 21
114.01
  0
LINE
  8
0
 10
43.5594
 20
114.01
 11
44.0378
 21
114.714
  0
LINE
  8
0
 10
44.0378
 20
114.714
 11
44.5595
 21
115.387
  0
LINE
  8
0
 10
44.5595
 20
115.387
 11
45.1225
 21
116.026
  0
LINE
  8
0
 10
45.1225
 20
116.026
 11
45.7244
 21
116.628
  0
LINE
  8
0
 10
45.7244
 20
116.628
 11
46.3629
 21
117.19
  0
LINE
  8
0
 10
46.3629
 20
117.19
 11
47.0355
 21
117.712
  0
LINE
  8
0
 10
47.0355
 20
117.712
 11
47.7395
 21
118.191
  0
LINE
  8
0
 10
47.7395
 20
118.191
 11
48.4722
 21
118.624
  0
LINE
  8
0
 10
48.4722
 20
118.624
 11
49.2307
 21
119.01
  0
LINE
  8
0
 10
49.2307
 20
119.01
 11
50.0119
 21
119.348
  0
LINE
  8
0
 10
50.0119
 20
119.348
 11
50.8128
 21
119.637
  0
LINE
  8
0
 10
50.8128
 20
119.637
 11
51.6302
 21
119.874
  0
LINE
  8
0
 10
51.6302
 20
119.874
 11
52.461
 21
120.06
  0
LINE
  8
0
 10
52.461
 20
120.06
 11
53.3017
 21
120.193
  0
LINE
  8
0
 10
53.3017
 20
120.193
 11
54.1492
 21
120.273
  0
LINE
  8
0
 10
54.1492
 20
120.273
 11
55
 21
120.3
  0
LINE
  8
0
 10
55
 20
120.3
 11
55.8508
 21
120.273
  0
LINE
  8
0
 10
55.8508
 20
120.273
 11
56.6983
 21
120.193
  0
LINE
  8
0
 10
56.6983
 20
120.193
 11
57.539
 21
120.06
  0
LINE
  8
0
 10
57.539
 20
120.06
 11
58.3697
 21
119.874
  0
LINE
  8
0
 10
58.3697
 20
119.874
 11
59.1872
 21
119.637
  0
LINE
  8
0
 10
59.1872
 20
119.637
 11
59.9881
 21
119.348
  0
LINE
  8
0
 10
59.9881
 20
119.348
 11
60.7693
 21
119.01
  0
LINE
  8
0
 10
60.7693
 20
119.01
 11
61.5278
 21
118.624
  0
LINE
  8
0
 10
61.5278
 20
118.624
 11
62.2605
 21
118.191
  0
LINE
  8
0
 10
62.2605
 20
118.191
 11
62.9645
 21
117.712
  0
LINE
  8
0
 10
62.9645
 20
117.712
 11
63.6371
 21
117.19
  0
LINE
  8
0
 10
63.6371
 20
117.19
 11
64.2756
 21
116.628
  0
LINE
  8
0
 10
64.2756
 20
116.628
 11
64.8775
 21
116.026
  0
LINE
  8
0
 10
64.8775
 20
116.026
 11
65.4404
 21
115.387
  0
LINE
  8
0
 10
65.4404
 20
115.387
 11
65.9622
 21
114.714
  0
LINE
  8
0
 10
65.9622
 20
114.714
 11
66.4406
 21
114.01
  0
LINE
  8
0
 10
66.4406
 20
114.01
 11
66.8739
 21
113.278
  0
LINE
  8
0
 10
66.8739
 20
113.278
 11
67.2604
 21
112.519
  0
LINE
  8
0
 10
67.2604
 20
112.519
 11
67.5985
 21
111.738
  0
LINE
  8
0
 10
67.5985
 20
111.738
 11
67.8868
 21
110.937
  0
LINE
  8
0
 10
67.8868
 20
110.937
 11
68.1243
 21
110.12
  0
LINE
  8
0
 10
68.1243
 20
110.12
 11
68.31
 21
109.289
  0
LINE
  8
0
 10
68.31
 20
109.289
 11
68.4431
 21
108.448
  0
LINE
  8
0
 10
68.4431
 20
108.448
 11
68.5233
 21
107.601
  0
LINE
  8
0
 10
68.5233
 20
107.601
 11
68.55
 21
106.75
  0
LINE
  8
0
 10
68.55
 20
106.75
 11
68.55
 21
95.55
  0
LINE
  8
0
 10
68.55
 20
95.55
 11
68.5233
 21
94.6992
  0
LINE
  8
0
 10
68.5233
 20
94.6992
 11
68.4431
 21
93.8517
  0
LINE
  8
0
 10
68.4431
 20
93.8517
 11
68.31
 21
93.011
  0
LINE
  8
0
 10
68.31
 20
93.011
 11
68.1243
 21
92.1803
  0
LINE
  8
0
 10
68.1243
 20
92.1803
 11
67.8868
 21
91.3628
  0
LINE
  8
0
 10
67.8868
 20
91.3628
 11
67.5985
 21
90.5619
  0
LINE
  8
0
 10
67.5985
 20
90.5619
 11
67.2604
 21
89.7807
  0
LINE
  8
0
 10
67.2604
 20
89.7807
 11
66.8739
 21
89.0222
  0
LINE
  8
0
 10
66.8739
 20
89.0222
 11
66.4406
 21
88.2895
  0
LINE
  8
0
 10
66.4406
 20
88.2895
 11
65.9622
 21
87.5855
  0
LINE
  8
0
 10
65.9622
 20
87.5855
 11
65.4404
 21
86.9129
  0
LINE
  8
0
 10
65.4404
 20
86.9129
 11
64.8775
 21
86.2744
  0
LINE
  8
0
 10
64.8775
 20
86.2744
 11
64.2756
 21
85.6725
  0
LINE
  8
0
 10
64.2756
 20
85.6725
 11
63.6371
 21
85.1095
  0
LINE
  8
0
 10
63.6371
 20
85.1095
 11
62.9645
 21
84.5878
  0
LINE
  8
0
 10
62.9645
 20
84.5878
 11
62.2605
 21
84.1094
  0
LINE
  8
0
 10
62.2605
 20
84.1094
 11
61.5278
 21
83.676
  0
LINE
  8
0
 10
61.5278
 20
83.676
 11
60.7693
 21
83.2896
  0
LINE
  8
0
 10
60.7693
 20
83.2896
 11
59.9881
 21
82.9515
  0
LINE
  8
0
 10
59.9881
 20
82.9515
 11
59.1872
 21
82.6632
  0
LINE
  8
0
 10
59.1872
 20
82.6632
 11
58.3697
 21
82.4257
  0
LINE
  8
0
 10
58.3697
 20
82.4257
 11
57.539
 21
82.24
  0
LINE
  8
0
 10
57.539
 20
82.24
 11
56.6983
 21
82.1068
  0
LINE
  8
0
 10
56.6983
 20
82.1068
 11
55.8508
 21
82.0267
  0
LINE
  8
0
 10
55.8508
 20
82.0267
 11
55
 21
82
  0
LINE
  8
0
 10
55
 20
82
 11
54.1492
 21
82.0267
  0
LINE
  8
0
 10
38.5858
 20
70.003
 11
38.492
 21
70.0118
  0
LINE
  8
0
 10
38.492
 20
70.0118
 11
38.3989
 21
70.0266
  0
LINE
  8
0
 10
38.3989
 20
70.0266
 11
38.307
 21
70.0471
  0
LINE
  8
0
 10
38.307
 20
70.0471
 11
38.2165
 21
70.0734
  0
LINE
  8
0
 10
38.2165
 20
70.0734
 11
38.1278
 21
70.1053
  0
LINE
  8
0
 10
38.1278
 20
70.1053
 11
38.0413
 21
70.1428
  0
LINE
  8
0
 10
38.0413
 20
70.1428
 11
37.9574
 21
70.1855
  0
LINE
  8
0
 10
37.9574
 20
70.1855
 11
37.8763
 21
70.2335
  0
LINE
  8
0
 10
37.8763
 20
70.2335
 11
37.7983
 21
70.2865
  0
LINE
  8
0
 10
37.7983
 20
70.2865
 11
37.7239
 21
70.3442
  0
LINE
  8
0
 10
37.7239
 20
70.3442
 11
37.6532
 21
70.4065
  0
LINE
  8
0
 10
37.6532
 20
70.4065
 11
37.5865
 21
70.4732
  0
LINE
  8
0
 10
37.5865
 20
70.4732
 11
37.5242
 21
70.5439
  0
LINE
  8
0
 10
37.5242
 20
70.5439
 11
37.4665
 21
70.6183
  0
LINE
  8
0
 10
37.4665
 20
70.6183
 11
37.4135
 21
70.6963
  0
LINE
  8
0
 10
37.4135
 20
70.6963
 11
37.3655
 21
70.7774
  0
LINE
  8
0
 10
37.3655
 20
70.7774
 11
37.3228
 21
70.8613
  0
LINE
  8
0
 10
37.3228
 20
70.8613
 11
37.2853
 21
70.9478
  0
LINE
  8
0
 10
37.2853
 20
70.9478
 11
37.2534
 21
71.0365
  0
LINE
  8
0
 10
37.2534
 20
71.0365
 11
37.2271
 21
71.127
  0
LINE
  8
0
 10
37.2271
 20
71.127
 11
37.2066
 21
71.2189
  0
LINE
  8
0
 10
37.2066
 20
71.2189
 11
37.1918
 21
71.312
  0
LINE
  8
0
 10
37.1918
 20
71.312
 11
37.183
 21
71.4058
  0
LINE
  8
0
 10
37.183
 20
71.4058
 11
37.18
 21
71.5
  0
LINE
  8
0
 10
37.18
 20
71.5
 11
37.183
 21
71.5942
  0
LINE
  8
0
 10
37.183
 20
71.5942
 11
37.1918
 21
71.688
  0
LINE
  8
0
 10
37.1918
 20
71.688
 11
37.2066
 21
71.7811
  0
LINE
  8
0
 10
37.2066
 20
71.7811
 11
37.2271
 21
71.873
  0
LINE
  8
0
 10
37.2271
 20
71.873
 11
37.2534
 21
71.9635
  0
LINE
  8
0
 10
37.2534
 20
71.9635
 11
37.2853
 21
72.0522
  0
LINE
  8
0
 10
37.2853
 20
72.0522
 11
37.3228
 21
72.1387
  0
LINE
  8
0
 10
37.3228
 20
72.1387
 11
37.3655
 21
72.2226
  0
LINE
  8
0
 10
37.3655
 20
72.2226
 11
37.4135
 21
72.3037
  0
LINE
  8
0
 10
37.4135
 20
72.3037
 11
37.4665
 21
72.3817
  0
LINE
  8
0
 10
37.4665
 20
72.3817
 11
37.5242
 21
72.4561
  0
LINE
  8
0
 10
37.5242
 20
72.4561
 11
37.5865
 21
72.5268
  0
LINE
  8
0
 10
37.5865
 20
72.5268
 11
37.6532
 21
72.5934
  0
LINE
  8
0
 10
37.6532
 20
72.5934
 11
37.7239
 21
72.6558
  0
LINE
  8
0
 10
37.7239
 20
72.6558
 11
37.7983
 21
72.7135
  0
LINE
  8
0
 10
37.7983
 20
72.7135
 11
37.8763
 21
72.7665
  0
LINE
  8
0
 10
37.8763
 20
72.7665
 11
37.9574
 21
72.8145
  0
LINE
  8
0
 10
37.9574
 20
72.8145
 11
38.0413
 21
72.8572
  0
LINE
  8
0
 10
38.0413
 20
72.8572
 11
38.1278
 21
72.8947
  0
LINE
  8
0
 10
38.1278
 20
72.8947
 11
38.2165
 21
72.9266
  0
LINE
  8
0
 10
38.2165
 20
72.9266
 11
38.307
 21
72.9529
  0
LINE
  8
0
 10
38.307
 20
72.9529
 11
38.3989
 21
72.9734
  0
LINE
  8
0
 10
38.3989
 20
72.9734
 11
38.492
 21
72.9882
  0
LINE
  8
0
 10
38.492
 20
72.9882
 11
38.5858
 21
72.997
  0
LINE
  8
0
 10
38.5858
 20
72.997
 11
38.68
 21
73
  0
LINE
  8
0
 10
38.68
 20
73
 11
38.7742
 21
72.997
  0
LINE
  8
0
 10
38.7742
 20
72.997
 11
38.868
 21
72.9882
  0
LINE
  8
0
 10
38.868
 20
72.9882
 11
38.9611
 21
72.9734
  0
LINE
  8
0
 10
38.9611
 20
72.9734
 11
39.053
 21
72.9529
  0
LINE
  8
0
 10
39.053
 20
72.9529
 11
39.1435
 21
72.9266
  0
LINE
  8
0
 10
39.1435
 20
72.9266
 11
39.2322
 21
72.8947
  0
LINE
  8
0
 10
39.2322
 20
72.8947
 11
39.3187
 21
72.8572
  0
LINE
  8
0
 10
39.3187
 20
72.8572
 11
39.4026
 21
72.8145
  0
LINE
  8
0
 10
39.4026
 20
72.8145
 11
39.4837
 21
72.7665
  0
LINE
  8
0
 10
39.4837
 20
72.7665
 11
39.5617
 21
72.7135
  0
LINE
  8
0
 10
39.5617
 20
72.7135
 11
39.6361
 21
72.6558
  0
LINE
  8
0
 10
39.6361
 20
72.6558
 11
39.7068
 21
72.5934
  0
LINE
  8
0
 10
39.7068
 20
72.5934
 11
39.7735
 21
72.5268
  0
LINE
  8
0
 10
39.7735
 20
72.5268
 11
39.8358
 21
72.4561
  0
LINE
  8
0
 10
39.8358
 20
72.4561
 11
39.8935
 21
72.3817
  0
LINE
  8
0
 10
39.8935
 20
72.3817
 11
39.9465
 21
72.3037
  0
LINE
  8
0
 10
39.9465
 20
72.3037
 11
39.9945
 21
72.2226
  0
LINE
  8
0
 10
39.9945
 20
72.2226
 11
40.0372
 21
72.1387
  0
LINE
  8
0
 10
40.0372
 20
72.1387
 11
40.0747
 21
72.0522
  0
LINE
  8
0
 10
40.0747
 20
72.0522
 11
40.1066
 21
71.9635
  0
LINE
  8
0
 10
40.1066
 20
71.9635
 11
40.1329
 21
71.873
  0
LINE
  8
0
 10
40.1329
 20
71.873
 11
40.1534
 21
71.7811
  0
LINE
  8
0
 10
40.1534
 20
71.7811
 11
40.1682
 21
71.688
  0
LINE
  8
0
 10
40.1682
 20
71.688
 11
40.177
 21
71.5942
  0
LINE
  8
0
 10
40.177
 20
71.5942
 11
40.18
 21
71.5
  0
LINE
  8
0
 10
40.18
 20
71.5
 11
40.177
 21
71.4058
  0
LINE
  8
0
 10
40.177
 20
71.4058
 11
40.1682
 21
71.312
  0
LINE
  8
0
 10
40.1682
 20
71.312
 11
40.1534
 21
71.2189
  0
LINE
  8
0
 10
40.1534
 20
71.2189
 11
40.1329
 21
71.127
  0
LINE
  8
0
 10
40.1329
 20
71.127
 11
40.1066
 21
71.0365
  0
LINE
  8
0
 10
40.1066
 20
71.0365
 11
40.0747
 21
70.9478
  0
LINE
  8
0
 10
40.0747
 20
70.9478
 11
40.0372
 21
70.8613
  0
LINE
  8
0
 10
40.0372
 20
70.8613
 11
39.9945
 21
70.7774
  0
LINE
  8
0
 10
39.9945
 20
70.7774
 11
39.9465
 21
70.6963
  0
LINE
  8
0
 10
39.9465
 20
70.6963
 11
39.8935
 21
70.6183
  0
LINE
  8
0
 10
39.8935
 20
70.6183
 11
39.8358
 21
70.5439
  0
LINE
  8
0
 10
39.8358
 20
70.5439
 11
39.7735
 21
70.4732
  0
LINE
  8
0
 10
39.7735
 20
70.4732
 11
39.7068
 21
70.4065
  0
LINE
  8
0
 10
39.7068
 20
70.4065
 11
39.6361
 21
70.3442
  0
LINE
  8
0
 10
39.6361
 20
70.3442
 11
39.5617
 21
70.2865
  0
LINE
  8
0
 10
39.5617
 20
70.2865
 11
39.4837
 21
70.2335
  0
LINE
  8
0
 10
39.4837
 20
70.2335
 11
39.4026
 21
70.1855
  0
LINE
  8
0
 10
39.4026
 20
70.1855
 11
39.3187
 21
70.1428
  0
LINE
  8
0
 10
39.3187
 20
70.1428
 11
39.2322
 21
70.1053
  0
LINE
  8
0
 10
39.2322
 20
70.1053
 11
39.1435
 21
70.0734
  0
LINE
  8
0
 10
39.1435
 20
70.0734
 11
39.053
 21
70.0471
  0
LINE
  8
0
 10
39.053
 20
70.0471
 11
38.9611
 21
70.0266
  0
LINE
  8
0
 10
38.9611
 20
70.0266
 11
38.868
 21
70.0118
  0
LINE
  8
0
 10
38.868
 20
70.0118
 11
38.7742
 21
70.003
  0
LINE
  8
0
 10
38.7742
 20
70.003
 11
38.68
 21
70
  0
LINE
  8
0
 10
38.68
 20
70
 11
38.5858
 21
70.003
  0
LINE
  8
0
 10
71.2258
 20
70.003
 11
71.132
 21
70.0118
  0
LINE
  8
0
 10
71.132
 20
70.0118
 11
71.0389
 21
70.0266
  0
LINE
  8
0
 10
71.0389
 20
70.0266
 11
70.947
 21
70.0471
  0
LINE
  8
0
 10
70.947
 20
70.0471
 11
70.8565
 21
70.0734
  0
LINE
  8
0
 10
70.8565
 20
70.0734
 11
70.7678
 21
70.1053
  0
LINE
  8
0
 10
70.7678
 20
70.1053
 11
70.6813
 21
70.1428
  0
LINE
  8
0
 10
70.6813
 20
70.1428
 11
70.5974
 21
70.1855
  0
LINE
  8
0
 10
70.5974
 20
70.1855
 11
70.5163
 21
70.2335
  0
LINE
  8
0
 10
70.5163
 20
70.2335
 11
70.4383
 21
70.2865
  0
LINE
  8
0
 10
70.4383
 20
70.2865
 11
70.3639
 21
70.3442
  0
LINE
  8
0
 10
70.3639
 20
70.3442
 11
70.2932
 21
70.4065
  0
LINE
  8
0
 10
70.2932
 20
70.4065
 11
70.2265
 21
70.4732
  0
LINE
  8
0
 10
70.2265
 20
70.4732
 11
70.1642
 21
70.5439
  0
LINE
  8
0
 10
70.1642
 20
70.5439
 11
70.1065
 21
70.6183
  0
LINE
  8
0
 10
70.1065
 20
70.6183
 11
70.0535
 21
70.6963
  0
LINE
  8
0
 10
70.0535
 20
70.6963
 11
70.0055
 21
70.7774
  0
LINE
  8
0
 10
70.0055
 20
70.7774
 11
69.9628
 21
70.8613
  0
LINE
  8
0
 10
69.9628
 20
70.8613
 11
69.9253
 21
70.9478
  0
LINE
  8
0
 10
69.9253
 20
70.9478
 11
69.8934
 21
71.0365
  0
LINE
  8
0
 10
69.8934
 20
71.0365
 11
69.8671
 21
71.127
  0
LINE
  8
0
 10
69.8671
 20
71.127
 11
69.8466
 21
71.2189
  0
LINE
  8
0
 10
69.8466
 20
71.2189
 11
69.8318
 21
71.312
  0
LINE
  8
0
 10
69.8318
 20
71.312
 11
69.823
 21
71.4058
  0
LINE
  8
0
 10
69.823
 20
71.4058
 11
69.82
 21
71.5
  0
LINE
  8
0
 10
69.82
 20
71.5
 11
69.823
 21
71.5942
  0
LINE
  8
0
 10
69.823
 20
71.5942
 11
69.8318
 21
71.688
  0
LINE
  8
0
 10
69.8318
 20
71.688
 11
69.8466
 21
71.7811
  0
LINE
  8
0
 10
69.8466
 20
71.7811
 11
69.8671
 21
71.873
  0
LINE
  8
0
 10
69.8671
 20
71.873
 11
69.8934
 21
71.9635
  0
LINE
  8
0
 10
69.8934
 20
71.9635
 11
69.9253
 21
72.0522
  0
LINE
  8
0
 10
69.9253
 20
72.0522
 11
69.9628
 21
72.1387
  0
LINE
  8
0
 10
69.9628
 20
72.1387
 11
70.0055
 21
72.2226
  0
LINE
  8
0
 10
70.0055
 20
72.2226
 11
70.0535
 21
72.3037
  0
LINE
  8
0
 10
70.0535
 20
72.3037
 11
70.1065
 21
72.3817
  0
LINE
  8
0
 10
70.1065
 20
72.3817
 11
70.1642
 21
72.4561
  0
LINE
  8
0
 10
70.1642
 20
72.4561
 11
70.2265
 21
72.5268
  0
LINE
  8
0
 10
70.2265
 20
72.5268
 11
70.2932
 21
72.5934
  0
LINE
  8
0
 10
70.2932
 20
72.5934
 11
70.3639
 21
72.6558
  0
LINE
  8
0
 10
70.3639
 20
72.6558
 11
70.4383
 21
72.7135
  0
LINE
  8
0
 10
70.4383
 20
72.7135
 11
70.5163
 21
72.7665
  0
LINE
  8
0
 10
70.5163
 20
72.7665
 11
70.5974
 21
72.8145
  0
LINE
  8
0
 10
70.5974
 20
72.8145
 11
70.6813
 21
72.8572
  0
LINE
  8
0
 10
70.6813
 20
72.8572
 11
70.7678
 21
72.8947
  0
LINE
  8
0
 10
70.7678
 20
72.8947
 11
70.8565
 21
72.9266
  0
LINE
  8
0
 10
70.8565
 20
72.9266
 11
70.947
 21
72.9529
  0
LINE
  8
0
 10
70.947
 20
72.9529
 11
71.0389
 21
72.9734
  0
LINE
  8
0
 10
71.0389
 20
72.9734
 11
71.132
 21
72.9882
  0
LINE
  8
0
 10
71.132
 20
72.9882
 11
71.2258
 21
72.997
  0
LINE
  8
0
 10
71.2258
 20
72.997
 11
71.32
 21
73
  0
LINE
  8
0
 10
71.32
 20
73
 11
71.4142
 21
72.997
  0
LINE
  8
0
 10
71.4142
 20
72.997
 11
71.508
 21
72.9882
  0
LINE
  8
0
 10
71.508
 20
72.9882
 11
71.6011
 21
72.9734
  0
LINE
  8
0
 10
71.6011
 20
72.9734
 11
71.693
 21
72.9529
  0
LINE
  8
0
 10
71.693
 20
72.9529
 11
71.7835
 21
72.9266
  0
LINE
  8
0
 10
71.7835
 20
72.9266
 11
71.8722
 21
72.8947
  0
LINE
  8
0
 10
71.8722
 20
72.8947
 11
71.9587
 21
72.8572
  0
LINE
  8
0
 10
71.9587
 20
72.8572
 11
72.0426
 21
72.8145
  0
LINE
  8
0
 10
72.0426
 20
72.8145
 11
72.1237
 21
72.7665
  0
LINE
  8
0
 10
72.1237
 20
72.7665
 11
72.2017
 21
72.7135
  0
LINE
  8
0
 10
72.2017
 20
72.7135
 11
72.2761
 21
72.6558
  0
LINE
  8
0
 10
72.2761
 20
72.6558
 11
72.3468
 21
72.5934
  0
LINE
  8
0
 10
72.3468
 20
72.5934
 11
72.4135
 21
72.5268
  0
LINE
  8
0
 10
72.4135
 20
72.5268
 11
72.4758
 21
72.4561
  0
LINE
  8
0
 10
72.4758
 20
72.4561
 11
72.5335
 21
72.3817
  0
LINE
  8
0
 10
72.5335
 20
72.3817
 11
72.5865
 21
72.3037
  0
LINE
  8
0
 10
72.5865
 20
72.3037
 11
72.6345
 21
72.2226
  0
LINE
  8
0
 10
72.6345
 20
72.2226
 11
72.6772
 21
72.1387
  0
LINE
  8
0
 10
72.6772
 20
72.1387
 11
72.7147
 21
72.0522
  0
LINE
  8
0
 10
72.7147
 20
72.0522
 11
72.7466
 21
71.9635
  0
LINE
  8
0
 10
72.7466
 20
71.9635
 11
72.7729
 21
71.873
  0
LINE
  8
0
 10
72.7729
 20
71.873
 11
72.7934
 21
71.7811
  0
LINE
  8
0
 10
72.7934
 20
71.7811
 11
72.8082
 21
71.688
  0
LINE
  8
0
 10
72.8082
 20
71.688
 11
72.817
 21
71.5942
  0
LINE
  8
0
 10
72.817
 20
71.5942
 11
72.82
 21
71.5
  0
LINE
  8
0
 10
72.82
 20
71.5
 11
72.817
 21
71.4058
  0
LINE
  8
0
 10
72.817
 20
71.4058
 11
72.8082
 21
71.312
  0
LINE
  8
0
 10
72.8082
 20
71.312
 11
72.7934
 21
71.2189
  0
LINE
  8
0
 10
72.7934
 20
71.2189
 11
72.7729
 21
71.127
  0
LINE
  8
0
 10
72.7729
 20
71.127
 11
72.7466
 21
71.0365
  0
LINE
  8
0
 10
72.7466
 20
71.0365
 11
72.7147
 21
70.9478
  0
LINE
  8
0
 10
72.7147
 20
70.9478
 11
72.6772
 21
70.8613
  0
LINE
  8
0
 10
72.6772
 20
70.8613
 11
72.6345
 21
70.7774
  0
LINE
  8
0
 10
72.6345
 20
70.7774
 11
72.5865
 21
70.6963
  0
LINE
  8
0
 10
72.5865
 20
70.6963
 11
72.5335
 21
70.6183
  0
LINE
  8
0
 10
72.5335
 20
70.6183
 11
72.4758
 21
70.5439
  0
LINE
  8
0
 10
72.4758
 20
70.5439
 11
72.4135
 21
70.4732
  0
LINE
  8
0
 10
72.4135
 20
70.4732
 11
72.3468
 21
70.4065
  0
LINE
  8
0
 10
72.3468
 20
70.4065
 11
72.2761
 21
70.3442
  0
LINE
  8
0
 10
72.2761
 20
70.3442
 11
72.2017
 21
70.2865
  0
LINE
  8
0
 10
72.2017
 20
70.2865
 11
72.1237
 21
70.2335
  0
LINE
  8
0
 10
72.1237
 20
70.2335
 11
72.0426
 21
70.1855
  0
LINE
  8
0
 10
72.0426
 20
70.1855
 11
71.9587
 21
70.1428
  0
LINE
  8
0
 10
71.9587
 20
70.1428
 11
71.8722
 21
70.1053
  0
LINE
  8
0
 10
71.8722
 20
70.1053
 11
71.7835
 21
70.0734
  0
LINE
  8
0
 10
71.7835
 20
70.0734
 11
71.693
 21
70.0471
  0
LINE
  8
0
 10
71.693
 20
70.0471
 11
71.6011
 21
70.0266
  0
LINE
  8
0
 10
71.6011
 20
70.0266
 11
71.508
 21
70.0118
  0
LINE
  8
0
 10
71.508
 20
70.0118
 11
71.4142
 21
70.003
  0
LINE
  8
0
 10
71.4142
 20
70.003
 11
71.32
 21
70
  0
LINE
  8
0
 10
71.32
 20
70
 11
71.2258
 21
70.003
  0
LINE
  8
0
 10
54.8995
 20
59.2032
 11
54.7995
 21
59.2126
  0
LINE
  8
0
 10
54.7995
 20
59.2126
 11
54.7002
 21
59.2283
  0
LINE
  8
0
 10
54.7002
 20
59.2283
 11
54.6021
 21
59.2503
  0
LINE
  8
0
 10
54.6021
 20
59.2503
 11
54.5056
 21
59.2783
  0
LINE
  8
0
 10
54.5056
 20
59.2783
 11
54.411
 21
59.3123
  0
LINE
  8
0
 10
54.411
 20
59.3123
 11
54.3187
 21
59.3523
  0
LINE
  8
0
 10
54.3187
 20
59.3523
 11
54.2292
 21
59.3979
  0
LINE
  8
0
 10
54.2292
 20
59.3979
 11
54.1427
 21
59.4491
  0
LINE
  8
0
 10
54.1427
 20
59.4491
 11
54.0595
 21
59.5056
  0
LINE
  8
0
 10
54.0595
 20
59.5056
 11
53.9801
 21
59.5672
  0
LINE
  8
0
 10
53.9801
 20
59.5672
 11
53.9047
 21
59.6337
  0
LINE
  8
0
 10
53.9047
 20
59.6337
 11
53.8336
 21
59.7047
  0
LINE
  8
0
 10
53.8336
 20
59.7047
 11
53.7672
 21
59.7801
  0
LINE
  8
0
 10
53.7672
 20
59.7801
 11
53.7056
 21
59.8595
  0
LINE
  8
0
 10
53.7056
 20
59.8595
 11
53.6491
 21
59.9427
  0
LINE
  8
0
 10
53.6491
 20
59.9427
 11
53.5979
 21
60.0292
  0
LINE
  8
0
 10
53.5979
 20
60.0292
 11
53.5523
 21
60.1187
  0
LINE
  8
0
 10
53.5523
 20
60.1187
 11
53.5124
 21
60.211
  0
LINE
  8
0
 10
53.5124
 20
60.211
 11
53.4783
 21
60.3056
  0
LINE
  8
0
 10
53.4783
 20
60.3056
 11
53.4503
 21
60.4021
  0
LINE
  8
0
 10
53.4503
 20
60.4021
 11
53.4283
 21
60.5002
  0
LINE
  8
0
 10
53.4283
 20
60.5002
 11
53.4126
 21
60.5995
  0
LINE
  8
0
 10
53.4126
 20
60.5995
 11
53.4032
 21
60.6995
  0
LINE
  8
0
 10
53.4032
 20
60.6995
 11
53.4
 21
60.8
  0
LINE
  8
0
 10
53.4
 20
60.8
 11
53.4032
 21
60.9005
  0
LINE
  8
0
 10
53.4032
 20
60.9005
 11
53.4126
 21
61.0005
  0
LINE
  8
0
 10
53.4126
 20
61.0005
 11
53.4283
 21
61.0998
  0
LINE
  8
0
 10
53.4283
 20
61.0998
 11
53.4503
 21
61.1979
  0
LINE
  8
0
 10
53.4503
 20
61.1979
 11
53.4783
 21
61.2944
  0
LINE
  8
0
 10
53.4783
 20
61.2944
 11
53.5124
 21
61.389
  0
LINE
  8
0
 10
53.5124
 20
61.389
 11
53.5523
 21
61.4812
  0
LINE
  8
0
 10
53.5523
 20
61.4812
 11
53.5979
 21
61.5708
  0
LINE
  8
0
 10
53.5979
 20
61.5708
 11
53.6491
 21
61.6573
  0
LINE
  8
0
 10
53.6491
 20
61.6573
 11
53.7056
 21
61.7404
  0
LINE
  8
0
 10
53.7056
 20
61.7404
 11
53.7672
 21
61.8199
  0
LINE
  8
0
 10
53.7672
 20
61.8199
 11
53.8336
 21
61.8953
  0
LINE
  8
0
 10
53.8336
 20
61.8953
 11
53.9047
 21
61.9663
  0
LINE
  8
0
 10
53.9047
 20
61.9663
 11
53.9801
 21
62.0328
  0
LINE
  8
0
 10
53.9801
 20
62.0328
 11
54.0595
 21
62.0944
  0
LINE
  8
0
 10
54.0595
 20
62.0944
 11
54.1427
 21
62.1509
  0
LINE
  8
0
 10
54.1427
 20
62.1509
 11
54.2292
 21
62.2021
  0
LINE
  8
0
 10
54.2292
 20
62.2021
 11
54.3187
 21
62.2477
  0
LINE
  8
0
 10
54.3187
 20
62.2477
 11
54.411
 21
62.2876
  0
LINE
  8
0
 10
54.411
 20
62.2876
 11
54.5056
 21
62.3217
  0
LINE
  8
0
 10
54.5056
 20
62.3217
 11
54.6021
 21
62.3497
  0
LINE
  8
0
 10
54.6021
 20
62.3497
 11
54.7002
 21
62.3717
  0
LINE
  8
0
 10
54.7002
 20
62.3717
 11
54.7995
 21
62.3874
  0
LINE
  8
0
 10
54.7995
 20
62.3874
 11
54.8995
 21
62.3968
  0
LINE
  8
0
 10
54.8995
 20
62.3968
 11
55
 21
62.4
  0
LINE
  8
0
 10
55
 20
62.4
 11
55.1005
 21
62.3968
  0
LINE
  8
0
 10
55.1005
 20
62.3968
 11
55.2005
 21
62.3874
  0
LINE
  8
0
 10
55.2005
 20
62.3874
 11
55.2998
 21
62.3717
  0
LINE
  8
0
 10
55.2998
 20
62.3717
 11
55.3979
 21
62.3497
  0
LINE
  8
0
 10
55.3979
 20
62.3497
 11
55.4944
 21
62.3217
  0
LINE
  8
0
 10
55.4944
 20
62.3217
 11
55.589
 21
62.2876
  0
LINE
  8
0
 10
55.589
 20
62.2876
 11
55.6812
 21
62.2477
  0
LINE
  8
0
 10
55.6812
 20
62.2477
 11
55.7708
 21
62.2021
  0
LINE
  8
0
 10
55.7708
 20
62.2021
 11
55.8573
 21
62.1509
  0
LINE
  8
0
 10
55.8573
 20
62.1509
 11
55.9404
 21
62.0944
  0
LINE
  8
0
 10
55.9404
 20
62.0944
 11
56.0199
 21
62.0328
  0
LINE
  8
0
 10
56.0199
 20
62.0328
 11
56.0953
 21
61.9663
  0
LINE
  8
0
 10
56.0953
 20
61.9663
 11
56.1664
 21
61.8953
  0
LINE
  8
0
 10
56.1664
 20
61.8953
 11
56.2328
 21
61.8199
  0
LINE
  8
0
 10
56.2328
 20
61.8199
 11
56.2944
 21
61.7404
  0
LINE
  8
0
 10
56.2944
 20
61.7404
 11
56.3509
 21
61.6573
  0
LINE
  8
0
 10
56.3509
 20
61.6573
 11
56.4021
 21
61.5708
  0
LINE
  8
0
 10
56.4021
 20
61.5708
 11
56.4477
 21
61.4812
  0
LINE
  8
0
 10
56.4477
 20
61.4812
 11
56.4876
 21
61.389
  0
LINE
  8
0
 10
56.4876
 20
61.389
 11
56.5217
 21
61.2944
  0
LINE
  8
0
 10
56.5217
 20
61.2944
 11
56.5497
 21
61.1979
  0
LINE
  8
0
 10
56.5497
 20
61.1979
 11
56.5717
 21
61.0998
  0
LINE
  8
0
 10
56.5717
 20
61.0998
 11
56.5874
 21
61.0005
  0
LINE
  8
0
 10
56.5874
 20
61.0005
 11
56.5968
 21
60.9005
  0
LINE
  8
0
 10
56.5968
 20
60.9005
 11
56.6
 21
60.8
  0
LINE
  8
0
 10
56.6
 20
60.8
 11
56.5968
 21
60.6995
  0
LINE
  8
0
 10
56.5968
 20
60.6995
 11
56.5874
 21
60.5995
  0
LINE
  8
0
 10
56.5874
 20
60.5995
 11
56.5717
 21
60.5002
  0
LINE
  8
0
 10
56.5717
 20
60.5002
 11
56.5497
 21
60.4021
  0
LINE
  8
0
 10
56.5497
 20
60.4021
 11
56.5217
 21
60.3056
  0
LINE
  8
0
 10
56.5217
 20
60.3056
 11
56.4876
 21
60.211
  0
LINE
  8
0
 10
56.4876
 20
60.211
 11
56.4477
 21
60.1187
  0
LINE
  8
0
 10
56.4477
 20
60.1187
 11
56.4021
 21
60.0292
  0
LINE
  8
0
 10
56.4021
 20
60.0292
 11
56.3509
 21
59.9427
  0
LINE
  8
0
 10
56.3509
 20
59.9427
 11
56.2944
 21
59.8595
  0
LINE
  8
0
 10
56.2944
 20
59.8595
 11
56.2328
 21
59.7801
  0
LINE
  8
0
 10
56.2328
 20
59.7801
 11
56.1664
 21
59.7047
  0
LINE
  8
0
 10
56.1664
 20
59.7047
 11
56.0953
 21
59.6337
  0
LINE
  8
0
 10
56.0953
 20
59.6337
 11
56.0199
 21
59.5672
  0
LINE
  8
0
 10
56.0199
 20
59.5672
 11
55.9404
 21
59.5056
  0
LINE
  8
0
 10
55.9404
 20
59.5056
 11
55.8573
 21
59.4491
  0
LINE
  8
0
 10
55.8573
 20
59.4491
 11
55.7708
 21
59.3979
  0
LINE
  8
0
 10
55.7708
 20
59.3979
 11
55.6812
 21
59.3523
  0
LINE
  8
0
 10
55.6812
 20
59.3523
 11
55.589
 21
59.3123
  0
LINE
  8
0
 10
55.589
 20
59.3123
 11
55.4944
 21
59.2783
  0
LINE
  8
0
 10
55.4944
 20
59.2783
 11
55.3979
 21
59.2503
  0
LINE
  8
0
 10
55.3979
 20
59.2503
 11
55.2998
 21
59.2283
  0
LINE
  8
0
 10
55.2998
 20
59.2283
 11
55.2005
 21
59.2126
  0
LINE
  8
0
 10
55.2005
 20
59.2126
 11
55.1005
 21
59.2032
  0
LINE
  8
0
 10
55.1005
 20
59.2032
 11
55
 21
59.2
  0
LINE
  8
0
 10
55
 20
59.2
 11
54.8995
 21
59.2032
  0
LINE
  8
0
 10
54.774
 20
44.4071
 11
54.5488
 21
44.4284
  0
LINE
  8
0
 10
54.5488
 20
44.4284
 11
54.3254
 21
44.4638
  0
LINE
  8
0
 10
54.3254
 20
44.4638
 11
54.1047
 21
44.5131
  0
LINE
  8
0
 10
54.1047
 20
44.5131
 11
53.8875
 21
44.5762
  0
LINE
  8
0
 10
53.8875
 20
44.5762
 11
53.6747
 21
44.6528
  0
LINE
  8
0
 10
53.6747
 20
44.6528
 11
53.4672
 21
44.7426
  0
LINE
  8
0
 10
53.4672
 20
44.7426
 11
53.2657
 21
44.8453
  0
LINE
  8
0
 10
53.2657
 20
44.8453
 11
53.071
 21
44.9604
  0
LINE
  8
0
 10
53.071
 20
44.9604
 11
52.884
 21
45.0875
  0
LINE
  8
0
 10
52.884
 20
45.0875
 11
52.7053
 21
45.2262
  0
LINE
  8
0
 10
52.7053
 20
45.2262
 11
52.5356
 21
45.3757
  0
LINE
  8
0
 10
52.5356
 20
45.3757
 11
52.3757
 21
45.5356
  0
LINE
  8
0
 10
52.3757
 20
45.5356
 11
52.2262
 21
45.7053
  0
LINE
  8
0
 10
52.2262
 20
45.7053
 11
52.0875
 21
45.884
  0
LINE
  8
0
 10
52.0875
 20
45.884
 11
51.9604
 21
46.071
  0
LINE
  8
0
 10
51.9604
 20
46.071
 11
51.8453
 21
46.2657
  0
LINE
  8
0
 10
51.8453
 20
46.2657
 11
51.7426
 21
46.4672
  0
LINE
  8
0
 10
51.7426
 20
46.4672
 11
51.6528
 21
46.6747
  0
LINE
  8
0
 10
51.6528
 20
46.6747
 11
51.5762
 21
46.8875
  0
LINE
  8
0
 10
51.5762
 20
46.8875
 11
51.5131
 21
47.1047
  0
LINE
  8
0
 10
51.5131
 20
47.1047
 11
51.4638
 21
47.3254
  0
LINE
  8
0
 10
51.4638
 20
47.3254
 11
51.4284
 21
47.5488
  0
LINE
  8
0
 10
51.4284
 20
47.5488
 11
51.4071
 21
47.774
  0
LINE
  8
0
 10
51.4071
 20
47.774
 11
51.4
 21
48
  0
LINE
  8
0
 10
51.4
 20
48
 11
51.4071
 21
48.226
  0
LINE
  8
0
 10
51.4071
 20
48.226
 11
51.4284
 21
48.4512
  0
LINE
  8
0
 10
51.4284
 20
48.4512
 11
51.4638
 21
48.6746
  0
LINE
  8
0
 10
51.4638
 20
48.6746
 11
51.5131
 21
48.8953
  0
LINE
  8
0
 10
51.5131
 20
48.8953
 11
51.5762
 21
49.1125
  0
LINE
  8
0
 10
51.5762
 20
49.1125
 11
51.6528
 21
49.3252
  0
LINE
  8
0
 10
51.6528
 20
49.3252
 11
51.7426
 21
49.5328
  0
LINE
  8
0
 10
51.7426
 20
49.5328
 11
51.8453
 21
49.7343
  0
LINE
  8
0
 10
51.8453
 20
49.7343
 11
51.9604
 21
49.929
  0
LINE
  8
0
 10
51.9604
 20
49.929
 11
52.0875
 21
50.116
  0
LINE
  8
0
 10
52.0875
 20
50.116
 11
52.2262
 21
50.2947
  0
LINE
  8
0
 10
52.2262
 20
50.2947
 11
52.3757
 21
50.4644
  0
LINE
  8
0
 10
52.3757
 20
50.4644
 11
52.5356
 21
50.6243
  0
LINE
  8
0
 10
52.5356
 20
50.6243
 11
52.7053
 21
50.7738
  0
LINE
  8
0
 10
52.7053
 20
50.7738
 11
52.884
 21
50.9125
  0
LINE
  8
0
 10
52.884
 20
50.9125
 11
53.071
 21
51.0396
  0
LINE
  8
0
 10
53.071
 20
51.0396
 11
53.2657
 21
51.1547
  0
LINE
  8
0
 10
53.2657
 20
51.1547
 11
53.4672
 21
51.2574
  0
LINE
  8
0
 10
53.4672
 20
51.2574
 11
53.6747
 21
51.3472
  0
LINE
  8
0
 10
53.6747
 20
51.3472
 11
53.8875
 21
51.4238
  0
LINE
  8
0
 10
53.8875
 20
51.4238
 11
54.1047
 21
51.4869
  0
LINE
  8
0
 10
54.1047
 20
51.4869
 11
54.3254
 21
51.5362
  0
LINE
  8
0
 10
54.3254
 20
51.5362
 11
54.5488
 21
51.5716
  0
LINE
  8
0
 10
54.5488
 20
51.5716
 11
54.774
 21
51.5929
  0
LINE
  8
0
 10
54.774
 20
51.5929
 11
55
 21
51.6
  0
LINE
  8
0
 10
55
 20
51.6
 11
55.226
 21
51.5929
  0
LINE
  8
0
 10
55.226
 20
51.5929
 11
55.4512
 21
51.5716
  0
LINE
  8
0
 10
55.4512
 20
51.5716
 11
55.6746
 21
51.5362
  0
LINE
  8
0
 10
55.6746
 20
51.5362
 11
55.8953
 21
51.4869
  0
LINE
  8
0
 10
55.8953
 20
51.4869
 11
56.1125
 21
51.4238
  0
LINE
  8
0
 10
56.1125
 20
51.4238
 11
56.3252
 21
51.3472
  0
LINE
  8
0
 10
56.3252
 20
51.3472
 11
56.5328
 21
51.2574
  0
LINE
  8
0
 10
56.5328
 20
51.2574
 11
56.7343
 21
51.1547
  0
LINE
  8
0
 10
56.7343
 20
51.1547
 11
56.929
 21
51.0396
  0
LINE
  8
0
 10
56.929
 20
51.0396
 11
57.116
 21
50.9125
  0
LINE
  8
0
 10
57.116
 20
50.9125
 11
57.2947
 21
50.7738
  0
LINE
  8
0
 10
57.2947
 20
50.7738
 11
57.4644
 21
50.6243
  0
LINE
  8
0
 10
57.4644
 20
50.6243
 11
57.6243
 21
50.4644
  0
LINE
  8
0
 10
57.6243
 20
50.4644
 11
57.7738
 21
50.2947
  0
LINE
  8
0
 10
57.7738
 20
50.2947
 11
57.9125
 21
50.116
  0
LINE
  8
0
 10
57.9125
 20
50.116
 11
58.0396
 21
49.929
  0
LINE
  8
0
 10
58.0396
 20
49.929
 11
58.1547
 21
49.7343
  0
LINE
  8
0
 10
58.1547
 20
49.7343
 11
58.2574
 21
49.5328
  0
LINE
  8
0
 10
58.2574
 20
49.5328
 11
58.3472
 21
49.3252
  0
LINE
  8
0
 10
58.3472
 20
49.3252
 11
58.4238
 21
49.1125
  0
LINE
  8
0
 10
58.4238
 20
49.1125
 11
58.4869
 21
48.8953
  0
LINE
  8
0
 10
58.4869
 20
48.8953
 11
58.5362
 21
48.6746
  0
LINE
  8
0
 10
58.5362
 20
48.6746
 11
58.5716
 21
48.4512
  0
LINE
  8
0
 10
58.5716
 20
48.4512
 11
58.5929
 21
48.226
  0
LINE
  8
0
 10
58.5929
 20
48.226
 11
58.6
 21
48
  0
LINE
  8
0
 10
58.6
 20
48
 11
58.5929
 21
47.774
  0
LINE
  8
0
 10
58.5929
 20
47.774
 11
58.5716
 21
47.5488
  0
LINE
  8
0
 10
58.5716
 20
47.5488
 11
58.5362
 21
47.3254
  0
LINE
  8
0
 10
58.5362
 20
47.3254
 11
58.4869
 21
47.1047
  0
LINE
  8
0
 10
58.4869
 20
47.1047
 11
58.4238
 21
46.8875
  0
LINE
  8
0
 10
58.4238
 20
46.8875
 11
58.3472
 21
46.6747
  0
LINE
  8
0
 10
58.3472
 20
46.6747
 11
58.2574
 21
46.4672
  0
LINE
  8
0
 10
58.2574
 20
46.4672
 11
58.1547
 21
46.2657
  0
LINE
  8
0
 10
58.1547
 20
46.2657
 11
58.0396
 21
46.071
  0
LINE
  8
0
 10
58.0396
 20
46.071
 11
57.9125
 21
45.884
  0
LINE
  8
0
 10
57.9125
 20
45.884
 11
57.7738
 21
45.7053
  0
LINE
  8
0
 10
57.7738
 20
45.7053
 11
57.6243
 21
45.5356
  0
LINE
  8
0
 10
57.6243
 20
45.5356
 11
57.4644
 21
45.3757
  0
LINE
  8
0
 10
57.4644
 20
45.3757
 11
57.2947
 21
45.2262
  0
LINE
  8
0
 10
57.2947
 20
45.2262
 11
57.116
 21
45.0875
  0
LINE
  8
0
 10
57.116
 20
45.0875
 11
56.929
 21
44.9604
  0
LINE
  8
0
 10
56.929
 20
44.9604
 11
56.7343
 21
44.8453
  0
LINE
  8
0
 10
56.7343
 20
44.8453
 11
56.5328
 21
44.7426
  0
LINE
  8
0
 10
56.5328
 20
44.7426
 11
56.3252
 21
44.6528
  0
LINE
  8
0
 10
56.3252
 20
44.6528
 11
56.1125
 21
44.5762
  0
LINE
  8
0
 10
56.1125
 20
44.5762
 11
55.8953
 21
44.5131
  0
LINE
  8
0
 10
55.8953
 20
44.5131
 11
55.6746
 21
44.4638
  0
LINE
  8
0
 10
55.6746
 20
44.4638
 11
55.4512
 21
44.4284
  0
LINE
  8
0
 10
55.4512
 20
44.4284
 11
55.226
 21
44.4071
  0
LINE
  8
0
 10
55.226
 20
44.4071
 11
55
 21
44.4
  0
LINE
  8
0
 10
55
 20
44.4
 11
54.774
 21
44.4071
  0
LINE
  8
0
 10
54.8995
 20
33.6031
 11
54.7995
 21
33.6126
  0
LINE
  8
0
 10
54.7995
 20
33.6126
 11
54.7002
 21
33.6283
  0
LINE
  8
0
 10
54.7002
 20
33.6283
 11
54.6021
 21
33.6503
  0
LINE
  8
0
 10
54.6021
 20
33.6503
 11
54.5056
 21
33.6783
  0
LINE
  8
0
 10
54.5056
 20
33.6783
 11
54.411
 21
33.7124
  0
LINE
  8
0
 10
54.411
 20
33.7124
 11
54.3187
 21
33.7523
  0
LINE
  8
0
 10
54.3187
 20
33.7523
 11
54.2292
 21
33.7979
  0
LINE
  8
0
 10
54.2292
 20
33.7979
 11
54.1427
 21
33.8491
  0
LINE
  8
0
 10
54.1427
 20
33.8491
 11
54.0595
 21
33.9056
  0
LINE
  8
0
 10
54.0595
 20
33.9056
 11
53.9801
 21
33.9672
  0
LINE
  8
0
 10
53.9801
 20
33.9672
 11
53.9047
 21
34.0336
  0
LINE
  8
0
 10
53.9047
 20
34.0336
 11
53.8336
 21
34.1047
  0
LINE
  8
0
 10
53.8336
 20
34.1047
 11
53.7672
 21
34.1801
  0
LINE
  8
0
 10
53.7672
 20
34.1801
 11
53.7056
 21
34.2595
  0
LINE
  8
0
 10
53.7056
 20
34.2595
 11
53.6491
 21
34.3427
  0
LINE
  8
0
 10
53.6491
 20
34.3427
 11
53.5979
 21
34.4292
  0
LINE
  8
0
 10
53.5979
 20
34.4292
 11
53.5523
 21
34.5188
  0
LINE
  8
0
 10
53.5523
 20
34.5188
 11
53.5124
 21
34.611
  0
LINE
  8
0
 10
53.5124
 20
34.611
 11
53.4783
 21
34.7056
  0
LINE
  8
0
 10
53.4783
 20
34.7056
 11
53.4503
 21
34.8021
  0
LINE
  8
0
 10
53.4503
 20
34.8021
 11
53.4283
 21
34.9002
  0
LINE
  8
0
 10
53.4283
 20
34.9002
 11
53.4126
 21
34.9995
  0
LINE
  8
0
 10
53.4126
 20
34.9995
 11
53.4032
 21
35.0995
  0
LINE
  8
0
 10
53.4032
 20
35.0995
 11
53.4
 21
35.2
  0
LINE
  8
0
 10
53.4
 20
35.2
 11
53.4032
 21
35.3005
  0
LINE
  8
0
 10
53.4032
 20
35.3005
 11
53.4126
 21
35.4005
  0
LINE
  8
0
 10
53.4126
 20
35.4005
 11
53.4283
 21
35.4998
  0
LINE
  8
0
 10
53.4283
 20
35.4998
 11
53.4503
 21
35.5979
  0
LINE
  8
0
 10
53.4503
 20
35.5979
 11
53.4783
 21
35.6944
  0
LINE
  8
0
 10
53.4783
 20
35.6944
 11
53.5124
 21
35.789
  0
LINE
  8
0
 10
53.5124
 20
35.789
 11
53.5523
 21
35.8812
  0
LINE
  8
0
 10
53.5523
 20
35.8812
 11
53.5979
 21
35.9708
  0
LINE
  8
0
 10
53.5979
 20
35.9708
 11
53.6491
 21
36.0573
  0
LINE
  8
0
 10
53.6491
 20
36.0573
 11
53.7056
 21
36.1405
  0
LINE
  8
0
 10
53.7056
 20
36.1405
 11
53.7672
 21
36.2199
  0
LINE
  8
0
 10
53.7672
 20
36.2199
 11
53.8336
 21
36.2953
  0
LINE
  8
0
 10
53.8336
 20
36.2953
 11
53.9047
 21
36.3663
  0
LINE
  8
0
 10
53.9047
 20
36.3663
 11
53.9801
 21
36.4328
  0
LINE
  8
0
 10
53.9801
 20
36.4328
 11
54.0595
 21
36.4944
  0
LINE
  8
0
 10
54.0595
 20
36.4944
 11
54.1427
 21
36.5509
  0
LINE
  8
0
 10
54.1427
 20
36.5509
 11
54.2292
 21
36.6021
  0
LINE
  8
0
 10
54.2292
 20
36.6021
 11
54.3187
 21
36.6477
  0
LINE
  8
0
 10
54.3187
 20
36.6477
 11
54.411
 21
36.6876
  0
LINE
  8
0
 10
54.411
 20
36.6876
 11
54.5056
 21
36.7217
  0
LINE
  8
0
 10
54.5056
 20
36.7217
 11
54.6021
 21
36.7497
  0
LINE
  8
0
 10
54.6021
 20
36.7497
 11
54.7002
 21
36.7717
  0
LINE
  8
0
 10
54.7002
 20
36.7717
 11
54.7995
 21
36.7874
  0
LINE
  8
0
 10
54.7995
 20
36.7874
 11
54.8995
 21
36.7968
  0
LINE
  8
0
 10
54.8995
 20
36.7968
 11
55
 21
36.8
  0
LINE
  8
0
 10
55
 20
36.8
 11
55.1005
 21
36.7968
  0
LINE
  8
0
 10
55.1005
 20
36.7968
 11
55.2005
 21
36.7874
  0
LINE
  8
0
 10
55.2005
 20
36.7874
 11
55.2998
 21
36.7717
  0
LINE
  8
0
 10
55.2998
 20
36.7717
 11
55.3979
 21
36.7497
  0
LINE
  8
0
 10
55.3979
 20
36.7497
 11
55.4944
 21
36.7217
  0
LINE
  8
0
 10
55.4944
 20
36.7217
 11
55.589
 21
36.6876
  0
LINE
  8
0
 10
55.589
 20
36.6876
 11
55.6812
 21
36.6477
  0
LINE
  8
0
 10
55.6812
 20
36.6477
 11
55.7708
 21
36.6021
  0
LINE
  8
0
 10
55.7708
 20
36.6021
 11
55.8573
 21
36.5509
  0
LINE
  8
0
 10
55.8573
 20
36.5509
 11
55.9404
 21
36.4944
  0
LINE
  8
0
 10
55.9404
 20
36.4944
 11
56.0199
 21
36.4328
  0
LINE
  8
0
 10
56.0199
 20
36.4328
 11
56.0953
 21
36.3663
  0
LINE
  8
0
 10
56.0953
 20
36.3663
 11
56.1664
 21
36.2953
  0
LINE
  8
0
 10
56.1664
 20
36.2953
 11
56.2328
 21
36.2199
  0
LINE
  8
0
 10
56.2328
 20
36.2199
 11
56.2944
 21
36.1405
  0
LINE
  8
0
 10
56.2944
 20
36.1405
 11
56.3509
 21
36.0573
  0
LINE
  8
0
 10
56.3509
 20
36.0573
 11
56.4021
 21
35.9708
  0
LINE
  8
0
 10
56.4021
 20
35.9708
 11
56.4477
 21
35.8812
  0
LINE
  8
0
 10
56.4477
 20
35.8812
 11
56.4876
 21
35.789
  0
LINE
  8
0
 10
56.4876
 20
35.789
 11
56.5217
 21
35.6944
  0
LINE
  8
0
 10
56.5217
 20
35.6944
 11
56.5497
 21
35.5979
  0
LINE
  8
0
 10
56.5497
 20
35.5979
 11
56.5717
 21
35.4998
  0
LINE
  8
0
 10
56.5717
 20
35.4998
 11
56.5874
 21
35.4005
  0
LINE
  8
0
 10
56.5874
 20
35.4005
 11
56.5968
 21
35.3005
  0
LINE
  8
0
 10
56.5968
 20
35.3005
 11
56.6
 21
35.2
  0
LINE
  8
0
 10
56.6
 20
35.2
 11
56.5968
 21
35.0995
  0
LINE
  8
0
 10
56.5968
 20
35.0995
 11
56.5874
 21
34.9995
  0
LINE
  8
0
 10
56.5874
 20
34.9995
 11
56.5717
 21
34.9002
  0
LINE
  8
0
 10
56.5717
 20
34.9002
 11
56.5497
 21
34.8021
  0
LINE
  8
0
 10
56.5497
 20
34.8021
 11
56.5217
 21
34.7056
  0
LINE
  8
0
 10
56.5217
 20
34.7056
 11
56.4876
 21
34.611
  0
LINE
  8
0
 10
56.4876
 20
34.611
 11
56.4477
 21
34.5188
  0
LINE
  8
0
 10
56.4477
 20
34.5188
 11
56.4021
 21
34.4292
  0
LINE
  8
0
 10
56.4021
 20
34.4292
 11
56.3509
 21
34.3427
  0
LINE
  8
0
 10
56.3509
 20
34.3427
 11
56.2944
 21
34.2595
  0
LINE
  8
0
 10
56.2944
 20
34.2595
 11
56.2328
 21
34.1801
  0
LINE
  8
0
 10
56.2328
 20
34.1801
 11
56.1664
 21
34.1047
  0
LINE
  8
0
 10
56.1664
 20
34.1047
 11
56.0953
 21
34.0336
  0
LINE
  8
0
 10
56.0953
 20
34.0336
 11
56.0199
 21
33.9672
  0
LINE
  8
0
 10
56.0199
 20
33.9672
 11
55.9404
 21
33.9056
  0
LINE
  8
0
 10
55.9404
 20
33.9056
 11
55.8573
 21
33.8491
  0
LINE
  8
0
 10
55.8573
 20
33.8491
 11
55.7708
 21
33.7979
  0
LINE
  8
0
 10
55.7708
 20
33.7979
 11
55.6812
 21
33.7523
  0
LINE
  8
0
 10
55.6812
 20
33.7523
 11
55.589
 21
33.7124
  0
LINE
  8
0
 10
55.589
 20
33.7124
 11
55.4944
 21
33.6783
  0
LINE
  8
0
 10
55.4944
 20
33.6783
 11
55.3979
 21
33.6503
  0
LINE
  8
0
 10
55.3979
 20
33.6503
 11
55.2998
 21
33.6283
  0
LINE
  8
0
 10
55.2998
 20
33.6283
 11
55.2005
 21
33.6126
  0
LINE
  8
0
 10
55.2005
 20
33.6126
 11
55.1005
 21
33.6031
  0
LINE
  8
0
 10
55.1005
 20
33.6031
 11
55
 21
33.6
  0
LINE
  8
0
 10
55
 20
33.6
 11
54.8995
 21
33.6031
  0
LINE
  8
0
 10
45.15
 20
5.39999
 11
45.15
 21
16.5
  0
LINE
  8
0
 10
45.15
 20
16.5
 11
54.5
 21
16.5
  0
LINE
  8
0
 10
54.5
 20
16.5
 11
54.5
 21
5.39999
  0
LINE
  8
0
 10
54.5
 20
5.39999
 11
45.15
 21
5.39999
  0
ENDSEC
  0
SECTION
  2
OBJECTS
  0
DICTIONARY
  0
ENDSEC
  0
EOF
