  0
SECTION
  2
BLOCKS
  0
ENDSEC
  0
SECTION
  2
ENTITIES
  0
LINE
  8
0
 10
270
 20
200
 11
0
 21
200
  0
LINE
  8
0
 10
0
 20
200
 11
0
 21
0
  0
LINE
  8
0
 10
0
 20
0
 11
270
 21
0
  0
LINE
  8
0
 10
270
 20
0
 11
270
 21
200
  0
LINE
  8
0
 10
241.5
 20
98.2032
 11
241.399
 21
98.2126
  0
LINE
  8
0
 10
241.399
 20
98.2126
 11
241.3
 21
98.2283
  0
LINE
  8
0
 10
241.3
 20
98.2283
 11
241.202
 21
98.2503
  0
LINE
  8
0
 10
241.202
 20
98.2503
 11
241.106
 21
98.2783
  0
LINE
  8
0
 10
241.106
 20
98.2783
 11
241.011
 21
98.3123
  0
LINE
  8
0
 10
241.011
 20
98.3123
 11
240.919
 21
98.3523
  0
LINE
  8
0
 10
240.919
 20
98.3523
 11
240.829
 21
98.3979
  0
LINE
  8
0
 10
240.829
 20
98.3979
 11
240.743
 21
98.4491
  0
LINE
  8
0
 10
240.743
 20
98.4491
 11
240.66
 21
98.5056
  0
LINE
  8
0
 10
240.66
 20
98.5056
 11
240.58
 21
98.5672
  0
LINE
  8
0
 10
240.58
 20
98.5672
 11
240.505
 21
98.6337
  0
LINE
  8
0
 10
240.505
 20
98.6337
 11
240.434
 21
98.7047
  0
LINE
  8
0
 10
240.434
 20
98.7047
 11
240.367
 21
98.7801
  0
LINE
  8
0
 10
240.367
 20
98.7801
 11
240.306
 21
98.8595
  0
LINE
  8
0
 10
240.306
 20
98.8595
 11
240.249
 21
98.9427
  0
LINE
  8
0
 10
240.249
 20
98.9427
 11
240.198
 21
99.0292
  0
LINE
  8
0
 10
240.198
 20
99.0292
 11
240.152
 21
99.1187
  0
LINE
  8
0
 10
240.152
 20
99.1187
 11
240.112
 21
99.211
  0
LINE
  8
0
 10
240.112
 20
99.211
 11
240.078
 21
99.3056
  0
LINE
  8
0
 10
240.078
 20
99.3056
 11
240.05
 21
99.4021
  0
LINE
  8
0
 10
240.05
 20
99.4021
 11
240.028
 21
99.5002
  0
LINE
  8
0
 10
240.028
 20
99.5002
 11
240.013
 21
99.5995
  0
LINE
  8
0
 10
240.013
 20
99.5995
 11
240.003
 21
99.6995
  0
LINE
  8
0
 10
240.003
 20
99.6995
 11
240
 21
99.8
  0
LINE
  8
0
 10
240
 20
99.8
 11
240.003
 21
99.9005
  0
LINE
  8
0
 10
240.003
 20
99.9005
 11
240.013
 21
100.001
  0
LINE
  8
0
 10
240.013
 20
100.001
 11
240.028
 21
100.1
  0
LINE
  8
0
 10
240.028
 20
100.1
 11
240.05
 21
100.198
  0
LINE
  8
0
 10
240.05
 20
100.198
 11
240.078
 21
100.294
  0
LINE
  8
0
 10
240.078
 20
100.294
 11
240.112
 21
100.389
  0
LINE
  8
0
 10
240.112
 20
100.389
 11
240.152
 21
100.481
  0
LINE
  8
0
 10
240.152
 20
100.481
 11
240.198
 21
100.571
  0
LINE
  8
0
 10
240.198
 20
100.571
 11
240.249
 21
100.657
  0
LINE
  8
0
 10
240.249
 20
100.657
 11
240.306
 21
100.74
  0
LINE
  8
0
 10
240.306
 20
100.74
 11
240.367
 21
100.82
  0
LINE
  8
0
 10
240.367
 20
100.82
 11
240.434
 21
100.895
  0
LINE
  8
0
 10
240.434
 20
100.895
 11
240.505
 21
100.966
  0
LINE
  8
0
 10
240.505
 20
100.966
 11
240.58
 21
101.033
  0
LINE
  8
0
 10
240.58
 20
101.033
 11
240.66
 21
101.094
  0
LINE
  8
0
 10
240.66
 20
101.094
 11
240.743
 21
101.151
  0
LINE
  8
0
 10
240.743
 20
101.151
 11
240.829
 21
101.202
  0
LINE
  8
0
 10
240.829
 20
101.202
 11
240.919
 21
101.248
  0
LINE
  8
0
 10
240.919
 20
101.248
 11
241.011
 21
101.288
  0
LINE
  8
0
 10
241.011
 20
101.288
 11
241.106
 21
101.322
  0
LINE
  8
0
 10
241.106
 20
101.322
 11
241.202
 21
101.35
  0
LINE
  8
0
 10
241.202
 20
101.35
 11
241.3
 21
101.372
  0
LINE
  8
0
 10
241.3
 20
101.372
 11
241.399
 21
101.387
  0
LINE
  8
0
 10
241.399
 20
101.387
 11
241.5
 21
101.397
  0
LINE
  8
0
 10
241.5
 20
101.397
 11
241.6
 21
101.4
  0
LINE
  8
0
 10
241.6
 20
101.4
 11
241.7
 21
101.397
  0
LINE
  8
0
 10
241.7
 20
101.397
 11
241.801
 21
101.387
  0
LINE
  8
0
 10
241.801
 20
101.387
 11
241.9
 21
101.372
  0
LINE
  8
0
 10
241.9
 20
101.372
 11
241.998
 21
101.35
  0
LINE
  8
0
 10
241.998
 20
101.35
 11
242.094
 21
101.322
  0
LINE
  8
0
 10
242.094
 20
101.322
 11
242.189
 21
101.288
  0
LINE
  8
0
 10
242.189
 20
101.288
 11
242.281
 21
101.248
  0
LINE
  8
0
 10
242.281
 20
101.248
 11
242.371
 21
101.202
  0
LINE
  8
0
 10
242.371
 20
101.202
 11
242.457
 21
101.151
  0
LINE
  8
0
 10
242.457
 20
101.151
 11
242.54
 21
101.094
  0
LINE
  8
0
 10
242.54
 20
101.094
 11
242.62
 21
101.033
  0
LINE
  8
0
 10
242.62
 20
101.033
 11
242.695
 21
100.966
  0
LINE
  8
0
 10
242.695
 20
100.966
 11
242.766
 21
100.895
  0
LINE
  8
0
 10
242.766
 20
100.895
 11
242.833
 21
100.82
  0
LINE
  8
0
 10
242.833
 20
100.82
 11
242.894
 21
100.74
  0
LINE
  8
0
 10
242.894
 20
100.74
 11
242.951
 21
100.657
  0
LINE
  8
0
 10
242.951
 20
100.657
 11
243.002
 21
100.571
  0
LINE
  8
0
 10
243.002
 20
100.571
 11
243.048
 21
100.481
  0
LINE
  8
0
 10
243.048
 20
100.481
 11
243.088
 21
100.389
  0
LINE
  8
0
 10
243.088
 20
100.389
 11
243.122
 21
100.294
  0
LINE
  8
0
 10
243.122
 20
100.294
 11
243.15
 21
100.198
  0
LINE
  8
0
 10
243.15
 20
100.198
 11
243.172
 21
100.1
  0
LINE
  8
0
 10
243.172
 20
100.1
 11
243.187
 21
100.001
  0
LINE
  8
0
 10
243.187
 20
100.001
 11
243.197
 21
99.9005
  0
LINE
  8
0
 10
243.197
 20
99.9005
 11
243.2
 21
99.8
  0
LINE
  8
0
 10
243.2
 20
99.8
 11
243.197
 21
99.6995
  0
LINE
  8
0
 10
243.197
 20
99.6995
 11
243.187
 21
99.5995
  0
LINE
  8
0
 10
243.187
 20
99.5995
 11
243.172
 21
99.5002
  0
LINE
  8
0
 10
243.172
 20
99.5002
 11
243.15
 21
99.4021
  0
LINE
  8
0
 10
243.15
 20
99.4021
 11
243.122
 21
99.3056
  0
LINE
  8
0
 10
243.122
 20
99.3056
 11
243.088
 21
99.211
  0
LINE
  8
0
 10
243.088
 20
99.211
 11
243.048
 21
99.1187
  0
LINE
  8
0
 10
243.048
 20
99.1187
 11
243.002
 21
99.0292
  0
LINE
  8
0
 10
243.002
 20
99.0292
 11
242.951
 21
98.9427
  0
LINE
  8
0
 10
242.951
 20
98.9427
 11
242.894
 21
98.8595
  0
LINE
  8
0
 10
242.894
 20
98.8595
 11
242.833
 21
98.7801
  0
LINE
  8
0
 10
242.833
 20
98.7801
 11
242.766
 21
98.7047
  0
LINE
  8
0
 10
242.766
 20
98.7047
 11
242.695
 21
98.6337
  0
LINE
  8
0
 10
242.695
 20
98.6337
 11
242.62
 21
98.5672
  0
LINE
  8
0
 10
242.62
 20
98.5672
 11
242.54
 21
98.5056
  0
LINE
  8
0
 10
242.54
 20
98.5056
 11
242.457
 21
98.4491
  0
LINE
  8
0
 10
242.457
 20
98.4491
 11
242.371
 21
98.3979
  0
LINE
  8
0
 10
242.371
 20
98.3979
 11
242.281
 21
98.3523
  0
LINE
  8
0
 10
242.281
 20
98.3523
 11
242.189
 21
98.3123
  0
LINE
  8
0
 10
242.189
 20
98.3123
 11
242.094
 21
98.2783
  0
LINE
  8
0
 10
242.094
 20
98.2783
 11
241.998
 21
98.2503
  0
LINE
  8
0
 10
241.998
 20
98.2503
 11
241.9
 21
98.2283
  0
LINE
  8
0
 10
241.9
 20
98.2283
 11
241.801
 21
98.2126
  0
LINE
  8
0
 10
241.801
 20
98.2126
 11
241.7
 21
98.2032
  0
LINE
  8
0
 10
241.7
 20
98.2032
 11
241.6
 21
98.2
  0
LINE
  8
0
 10
241.6
 20
98.2
 11
241.5
 21
98.2032
  0
ENDSEC
  0
SECTION
  2
OBJECTS
  0
DICTIONARY
  0
ENDSEC
  0
EOF
