  0
SECTION
  2
BLOCKS
  0
ENDSEC
  0
SECTION
  2
ENTITIES
  0
LINE
  8
0
 10
270
 20
110
 11
0
 21
110
  0
LINE
  8
0
 10
0
 20
110
 11
0
 21
0
  0
LINE
  8
0
 10
0
 20
0
 11
270
 21
0
  0
LINE
  8
0
 10
270
 20
0
 11
270
 21
110
  0
LINE
  8
0
 10
235.134
 20
63.8507
 11
235.7
 21
64.1387
  0
LINE
  8
0
 10
235.7
 20
64.1387
 11
236.282
 21
64.3907
  0
LINE
  8
0
 10
236.282
 20
64.3907
 11
236.879
 21
64.6057
  0
LINE
  8
0
 10
236.879
 20
64.6057
 11
237.488
 21
64.7827
  0
LINE
  8
0
 10
237.488
 20
64.7827
 11
238.107
 21
64.9211
  0
LINE
  8
0
 10
238.107
 20
64.9211
 11
238.734
 21
65.0204
  0
LINE
  8
0
 10
238.734
 20
65.0204
 11
239.366
 21
65.0801
  0
LINE
  8
0
 10
239.366
 20
65.0801
 11
240
 21
65.1
  0
LINE
  8
0
 10
240
 20
65.1
 11
240.634
 21
65.0801
  0
LINE
  8
0
 10
240.634
 20
65.0801
 11
241.266
 21
65.0204
  0
LINE
  8
0
 10
241.266
 20
65.0204
 11
241.893
 21
64.9211
  0
LINE
  8
0
 10
241.893
 20
64.9211
 11
242.512
 21
64.7827
  0
LINE
  8
0
 10
242.512
 20
64.7827
 11
243.121
 21
64.6057
  0
LINE
  8
0
 10
243.121
 20
64.6057
 11
243.718
 21
64.3907
  0
LINE
  8
0
 10
243.718
 20
64.3907
 11
244.3
 21
64.1387
  0
LINE
  8
0
 10
244.3
 20
64.1387
 11
244.866
 21
63.8507
  0
LINE
  8
0
 10
244.866
 20
63.8507
 11
245.412
 21
63.5277
  0
LINE
  8
0
 10
245.412
 20
63.5277
 11
245.937
 21
63.1711
  0
LINE
  8
0
 10
245.937
 20
63.1711
 11
246.438
 21
62.7822
  0
LINE
  8
0
 10
246.438
 20
62.7822
 11
246.914
 21
62.3626
  0
LINE
  8
0
 10
246.914
 20
62.3626
 11
247.363
 21
61.9139
  0
LINE
  8
0
 10
247.363
 20
61.9139
 11
247.782
 21
61.438
  0
LINE
  8
0
 10
247.782
 20
61.438
 11
248.171
 21
60.9366
  0
LINE
  8
0
 10
248.171
 20
60.9366
 11
248.528
 21
60.4118
  0
LINE
  8
0
 10
248.528
 20
60.4118
 11
248.851
 21
59.8657
  0
LINE
  8
0
 10
248.851
 20
59.8657
 11
249.139
 21
59.3004
  0
LINE
  8
0
 10
249.139
 20
59.3004
 11
249.391
 21
58.718
  0
LINE
  8
0
 10
249.391
 20
58.718
 11
249.606
 21
58.1211
  0
LINE
  8
0
 10
249.606
 20
58.1211
 11
249.783
 21
57.5118
  0
LINE
  8
0
 10
249.783
 20
57.5118
 11
249.921
 21
56.8925
  0
LINE
  8
0
 10
249.921
 20
56.8925
 11
250.02
 21
56.2659
  0
LINE
  8
0
 10
250.02
 20
56.2659
 11
250.08
 21
55.6342
  0
LINE
  8
0
 10
250.08
 20
55.6342
 11
250.1
 21
55
  0
LINE
  8
0
 10
250.1
 20
55
 11
250.08
 21
54.3658
  0
LINE
  8
0
 10
250.08
 20
54.3658
 11
250.02
 21
53.7341
  0
LINE
  8
0
 10
250.02
 20
53.7341
 11
249.921
 21
53.1074
  0
LINE
  8
0
 10
249.921
 20
53.1074
 11
249.783
 21
52.4882
  0
LINE
  8
0
 10
249.783
 20
52.4882
 11
249.606
 21
51.8789
  0
LINE
  8
0
 10
249.606
 20
51.8789
 11
249.391
 21
51.2819
  0
LINE
  8
0
 10
249.391
 20
51.2819
 11
249.139
 21
50.6996
  0
LINE
  8
0
 10
249.139
 20
50.6996
 11
248.851
 21
50.1343
  0
LINE
  8
0
 10
248.851
 20
50.1343
 11
248.528
 21
49.5882
  0
LINE
  8
0
 10
248.528
 20
49.5882
 11
248.171
 21
49.0634
  0
LINE
  8
0
 10
248.171
 20
49.0634
 11
247.782
 21
48.562
  0
LINE
  8
0
 10
247.782
 20
48.562
 11
247.363
 21
48.0861
  0
LINE
  8
0
 10
247.363
 20
48.0861
 11
246.914
 21
47.6374
  0
LINE
  8
0
 10
246.914
 20
47.6374
 11
246.438
 21
47.2178
  0
LINE
  8
0
 10
246.438
 20
47.2178
 11
245.937
 21
46.8289
  0
LINE
  8
0
 10
245.937
 20
46.8289
 11
245.412
 21
46.4723
  0
LINE
  8
0
 10
245.412
 20
46.4723
 11
244.866
 21
46.1493
  0
LINE
  8
0
 10
244.866
 20
46.1493
 11
244.3
 21
45.8612
  0
LINE
  8
0
 10
244.3
 20
45.8612
 11
243.718
 21
45.6093
  0
LINE
  8
0
 10
243.718
 20
45.6093
 11
243.121
 21
45.3943
  0
LINE
  8
0
 10
243.121
 20
45.3943
 11
242.512
 21
45.2173
  0
LINE
  8
0
 10
242.512
 20
45.2173
 11
241.893
 21
45.0789
  0
LINE
  8
0
 10
241.893
 20
45.0789
 11
241.266
 21
44.9796
  0
LINE
  8
0
 10
241.266
 20
44.9796
 11
240.634
 21
44.9199
  0
LINE
  8
0
 10
240.634
 20
44.9199
 11
240
 21
44.9
  0
LINE
  8
0
 10
240
 20
44.9
 11
239.366
 21
44.9199
  0
LINE
  8
0
 10
239.366
 20
44.9199
 11
238.734
 21
44.9796
  0
LINE
  8
0
 10
238.734
 20
44.9796
 11
238.107
 21
45.0789
  0
LINE
  8
0
 10
238.107
 20
45.0789
 11
237.488
 21
45.2173
  0
LINE
  8
0
 10
237.488
 20
45.2173
 11
236.879
 21
45.3943
  0
LINE
  8
0
 10
236.879
 20
45.3943
 11
236.282
 21
45.6093
  0
LINE
  8
0
 10
236.282
 20
45.6093
 11
235.7
 21
45.8612
  0
LINE
  8
0
 10
235.7
 20
45.8612
 11
235.134
 21
46.1493
  0
LINE
  8
0
 10
235.134
 20
46.1493
 11
234.588
 21
46.4723
  0
LINE
  8
0
 10
234.588
 20
46.4723
 11
234.063
 21
46.8289
  0
LINE
  8
0
 10
234.063
 20
46.8289
 11
233.562
 21
47.2178
  0
LINE
  8
0
 10
233.562
 20
47.2178
 11
233.086
 21
47.6374
  0
LINE
  8
0
 10
233.086
 20
47.6374
 11
232.637
 21
48.0861
  0
LINE
  8
0
 10
232.637
 20
48.0861
 11
232.218
 21
48.562
  0
LINE
  8
0
 10
232.218
 20
48.562
 11
231.829
 21
49.0634
  0
LINE
  8
0
 10
231.829
 20
49.0634
 11
231.472
 21
49.5882
  0
LINE
  8
0
 10
231.472
 20
49.5882
 11
231.149
 21
50.1343
  0
LINE
  8
0
 10
231.149
 20
50.1343
 11
230.861
 21
50.6996
  0
LINE
  8
0
 10
230.861
 20
50.6996
 11
230.609
 21
51.2819
  0
LINE
  8
0
 10
230.609
 20
51.2819
 11
230.394
 21
51.8789
  0
LINE
  8
0
 10
230.394
 20
51.8789
 11
230.217
 21
52.4882
  0
LINE
  8
0
 10
230.217
 20
52.4882
 11
230.079
 21
53.1074
  0
LINE
  8
0
 10
230.079
 20
53.1074
 11
229.98
 21
53.7341
  0
LINE
  8
0
 10
229.98
 20
53.7341
 11
229.92
 21
54.3658
  0
LINE
  8
0
 10
229.92
 20
54.3658
 11
229.9
 21
55
  0
LINE
  8
0
 10
229.9
 20
55
 11
229.92
 21
55.6342
  0
LINE
  8
0
 10
229.92
 20
55.6342
 11
229.98
 21
56.2659
  0
LINE
  8
0
 10
229.98
 20
56.2659
 11
230.079
 21
56.8925
  0
LINE
  8
0
 10
230.079
 20
56.8925
 11
230.217
 21
57.5118
  0
LINE
  8
0
 10
230.217
 20
57.5118
 11
230.394
 21
58.1211
  0
LINE
  8
0
 10
230.394
 20
58.1211
 11
230.609
 21
58.718
  0
LINE
  8
0
 10
230.609
 20
58.718
 11
230.861
 21
59.3004
  0
LINE
  8
0
 10
230.861
 20
59.3004
 11
231.149
 21
59.8657
  0
LINE
  8
0
 10
231.149
 20
59.8657
 11
231.472
 21
60.4118
  0
LINE
  8
0
 10
231.472
 20
60.4118
 11
231.829
 21
60.9366
  0
LINE
  8
0
 10
231.829
 20
60.9366
 11
232.218
 21
61.438
  0
LINE
  8
0
 10
232.218
 20
61.438
 11
232.637
 21
61.9139
  0
LINE
  8
0
 10
232.637
 20
61.9139
 11
233.086
 21
62.3626
  0
LINE
  8
0
 10
233.086
 20
62.3626
 11
233.562
 21
62.7822
  0
LINE
  8
0
 10
233.562
 20
62.7822
 11
234.063
 21
63.1711
  0
LINE
  8
0
 10
234.063
 20
63.1711
 11
234.588
 21
63.5277
  0
LINE
  8
0
 10
234.588
 20
63.5277
 11
235.134
 21
63.8507
  0
LINE
  8
0
 10
164.588
 20
46.4723
 11
164.063
 21
46.8289
  0
LINE
  8
0
 10
164.063
 20
46.8289
 11
163.562
 21
47.2178
  0
LINE
  8
0
 10
163.562
 20
47.2178
 11
163.086
 21
47.6374
  0
LINE
  8
0
 10
163.086
 20
47.6374
 11
162.637
 21
48.0861
  0
LINE
  8
0
 10
162.637
 20
48.0861
 11
162.218
 21
48.562
  0
LINE
  8
0
 10
162.218
 20
48.562
 11
161.829
 21
49.0634
  0
LINE
  8
0
 10
161.829
 20
49.0634
 11
161.472
 21
49.5882
  0
LINE
  8
0
 10
161.472
 20
49.5882
 11
161.149
 21
50.1343
  0
LINE
  8
0
 10
161.149
 20
50.1343
 11
160.861
 21
50.6996
  0
LINE
  8
0
 10
160.861
 20
50.6996
 11
160.609
 21
51.2819
  0
LINE
  8
0
 10
160.609
 20
51.2819
 11
160.394
 21
51.8789
  0
LINE
  8
0
 10
160.394
 20
51.8789
 11
160.217
 21
52.4882
  0
LINE
  8
0
 10
160.217
 20
52.4882
 11
160.079
 21
53.1074
  0
LINE
  8
0
 10
160.079
 20
53.1074
 11
159.98
 21
53.7341
  0
LINE
  8
0
 10
159.98
 20
53.7341
 11
159.92
 21
54.3658
  0
LINE
  8
0
 10
159.92
 20
54.3658
 11
159.9
 21
55
  0
LINE
  8
0
 10
159.9
 20
55
 11
159.92
 21
55.6342
  0
LINE
  8
0
 10
159.92
 20
55.6342
 11
159.98
 21
56.2659
  0
LINE
  8
0
 10
159.98
 20
56.2659
 11
160.079
 21
56.8925
  0
LINE
  8
0
 10
160.079
 20
56.8925
 11
160.217
 21
57.5118
  0
LINE
  8
0
 10
160.217
 20
57.5118
 11
160.394
 21
58.1211
  0
LINE
  8
0
 10
160.394
 20
58.1211
 11
160.609
 21
58.718
  0
LINE
  8
0
 10
160.609
 20
58.718
 11
160.861
 21
59.3004
  0
LINE
  8
0
 10
160.861
 20
59.3004
 11
161.149
 21
59.8657
  0
LINE
  8
0
 10
161.149
 20
59.8657
 11
161.472
 21
60.4118
  0
LINE
  8
0
 10
161.472
 20
60.4118
 11
161.829
 21
60.9366
  0
LINE
  8
0
 10
161.829
 20
60.9366
 11
162.218
 21
61.438
  0
LINE
  8
0
 10
162.218
 20
61.438
 11
162.637
 21
61.9139
  0
LINE
  8
0
 10
162.637
 20
61.9139
 11
163.086
 21
62.3626
  0
LINE
  8
0
 10
163.086
 20
62.3626
 11
163.562
 21
62.7822
  0
LINE
  8
0
 10
163.562
 20
62.7822
 11
164.063
 21
63.1711
  0
LINE
  8
0
 10
164.063
 20
63.1711
 11
164.588
 21
63.5277
  0
LINE
  8
0
 10
164.588
 20
63.5277
 11
165.134
 21
63.8507
  0
LINE
  8
0
 10
165.134
 20
63.8507
 11
165.7
 21
64.1387
  0
LINE
  8
0
 10
165.7
 20
64.1387
 11
166.282
 21
64.3907
  0
LINE
  8
0
 10
166.282
 20
64.3907
 11
166.879
 21
64.6057
  0
LINE
  8
0
 10
166.879
 20
64.6057
 11
167.488
 21
64.7827
  0
LINE
  8
0
 10
167.488
 20
64.7827
 11
168.107
 21
64.9211
  0
LINE
  8
0
 10
168.107
 20
64.9211
 11
168.734
 21
65.0204
  0
LINE
  8
0
 10
168.734
 20
65.0204
 11
169.366
 21
65.0801
  0
LINE
  8
0
 10
169.366
 20
65.0801
 11
170
 21
65.1
  0
LINE
  8
0
 10
170
 20
65.1
 11
170.634
 21
65.0801
  0
LINE
  8
0
 10
170.634
 20
65.0801
 11
171.266
 21
65.0204
  0
LINE
  8
0
 10
171.266
 20
65.0204
 11
171.893
 21
64.9211
  0
LINE
  8
0
 10
171.893
 20
64.9211
 11
172.512
 21
64.7827
  0
LINE
  8
0
 10
172.512
 20
64.7827
 11
173.121
 21
64.6057
  0
LINE
  8
0
 10
173.121
 20
64.6057
 11
173.718
 21
64.3907
  0
LINE
  8
0
 10
173.718
 20
64.3907
 11
174.3
 21
64.1387
  0
LINE
  8
0
 10
174.3
 20
64.1387
 11
174.866
 21
63.8507
  0
LINE
  8
0
 10
174.866
 20
63.8507
 11
175.412
 21
63.5277
  0
LINE
  8
0
 10
175.412
 20
63.5277
 11
175.937
 21
63.1711
  0
LINE
  8
0
 10
175.937
 20
63.1711
 11
176.438
 21
62.7822
  0
LINE
  8
0
 10
176.438
 20
62.7822
 11
176.914
 21
62.3626
  0
LINE
  8
0
 10
176.914
 20
62.3626
 11
177.363
 21
61.9139
  0
LINE
  8
0
 10
177.363
 20
61.9139
 11
177.782
 21
61.438
  0
LINE
  8
0
 10
177.782
 20
61.438
 11
178.171
 21
60.9366
  0
LINE
  8
0
 10
178.171
 20
60.9366
 11
178.528
 21
60.4118
  0
LINE
  8
0
 10
178.528
 20
60.4118
 11
178.851
 21
59.8657
  0
LINE
  8
0
 10
178.851
 20
59.8657
 11
179.139
 21
59.3004
  0
LINE
  8
0
 10
179.139
 20
59.3004
 11
179.391
 21
58.718
  0
LINE
  8
0
 10
179.391
 20
58.718
 11
179.606
 21
58.1211
  0
LINE
  8
0
 10
179.606
 20
58.1211
 11
179.783
 21
57.5118
  0
LINE
  8
0
 10
179.783
 20
57.5118
 11
179.921
 21
56.8925
  0
LINE
  8
0
 10
179.921
 20
56.8925
 11
180.02
 21
56.2659
  0
LINE
  8
0
 10
180.02
 20
56.2659
 11
180.08
 21
55.6342
  0
LINE
  8
0
 10
180.08
 20
55.6342
 11
180.1
 21
55
  0
LINE
  8
0
 10
180.1
 20
55
 11
180.08
 21
54.3658
  0
LINE
  8
0
 10
180.08
 20
54.3658
 11
180.02
 21
53.7341
  0
LINE
  8
0
 10
180.02
 20
53.7341
 11
179.921
 21
53.1074
  0
LINE
  8
0
 10
179.921
 20
53.1074
 11
179.783
 21
52.4882
  0
LINE
  8
0
 10
179.783
 20
52.4882
 11
179.606
 21
51.8789
  0
LINE
  8
0
 10
179.606
 20
51.8789
 11
179.391
 21
51.2819
  0
LINE
  8
0
 10
179.391
 20
51.2819
 11
179.139
 21
50.6996
  0
LINE
  8
0
 10
179.139
 20
50.6996
 11
178.851
 21
50.1343
  0
LINE
  8
0
 10
178.851
 20
50.1343
 11
178.528
 21
49.5882
  0
LINE
  8
0
 10
178.528
 20
49.5882
 11
178.171
 21
49.0634
  0
LINE
  8
0
 10
178.171
 20
49.0634
 11
177.782
 21
48.562
  0
LINE
  8
0
 10
177.782
 20
48.562
 11
177.363
 21
48.0861
  0
LINE
  8
0
 10
177.363
 20
48.0861
 11
176.914
 21
47.6374
  0
LINE
  8
0
 10
176.914
 20
47.6374
 11
176.438
 21
47.2178
  0
LINE
  8
0
 10
176.438
 20
47.2178
 11
175.937
 21
46.8289
  0
LINE
  8
0
 10
175.937
 20
46.8289
 11
175.412
 21
46.4723
  0
LINE
  8
0
 10
175.412
 20
46.4723
 11
174.866
 21
46.1493
  0
LINE
  8
0
 10
174.866
 20
46.1493
 11
174.3
 21
45.8612
  0
LINE
  8
0
 10
174.3
 20
45.8612
 11
173.718
 21
45.6093
  0
LINE
  8
0
 10
173.718
 20
45.6093
 11
173.121
 21
45.3943
  0
LINE
  8
0
 10
173.121
 20
45.3943
 11
172.512
 21
45.2173
  0
LINE
  8
0
 10
172.512
 20
45.2173
 11
171.893
 21
45.0789
  0
LINE
  8
0
 10
171.893
 20
45.0789
 11
171.266
 21
44.9796
  0
LINE
  8
0
 10
171.266
 20
44.9796
 11
170.634
 21
44.9199
  0
LINE
  8
0
 10
170.634
 20
44.9199
 11
170
 21
44.9
  0
LINE
  8
0
 10
170
 20
44.9
 11
169.366
 21
44.9199
  0
LINE
  8
0
 10
169.366
 20
44.9199
 11
168.734
 21
44.9796
  0
LINE
  8
0
 10
168.734
 20
44.9796
 11
168.107
 21
45.0789
  0
LINE
  8
0
 10
168.107
 20
45.0789
 11
167.488
 21
45.2173
  0
LINE
  8
0
 10
167.488
 20
45.2173
 11
166.879
 21
45.3943
  0
LINE
  8
0
 10
166.879
 20
45.3943
 11
166.282
 21
45.6093
  0
LINE
  8
0
 10
166.282
 20
45.6093
 11
165.7
 21
45.8612
  0
LINE
  8
0
 10
165.7
 20
45.8612
 11
165.134
 21
46.1493
  0
LINE
  8
0
 10
165.134
 20
46.1493
 11
164.588
 21
46.4723
  0
LINE
  8
0
 10
29.3658
 20
44.9199
 11
28.7341
 21
44.9796
  0
LINE
  8
0
 10
28.7341
 20
44.9796
 11
28.1074
 21
45.0789
  0
LINE
  8
0
 10
28.1074
 20
45.0789
 11
27.4882
 21
45.2173
  0
LINE
  8
0
 10
27.4882
 20
45.2173
 11
26.8789
 21
45.3943
  0
LINE
  8
0
 10
26.8789
 20
45.3943
 11
26.2819
 21
45.6093
  0
LINE
  8
0
 10
26.2819
 20
45.6093
 11
25.6996
 21
45.8612
  0
LINE
  8
0
 10
25.6996
 20
45.8612
 11
25.1343
 21
46.1493
  0
LINE
  8
0
 10
25.1343
 20
46.1493
 11
24.5882
 21
46.4723
  0
LINE
  8
0
 10
24.5882
 20
46.4723
 11
24.0634
 21
46.8289
  0
LINE
  8
0
 10
24.0634
 20
46.8289
 11
23.562
 21
47.2178
  0
LINE
  8
0
 10
23.562
 20
47.2178
 11
23.0861
 21
47.6374
  0
LINE
  8
0
 10
23.0861
 20
47.6374
 11
22.6374
 21
48.0861
  0
LINE
  8
0
 10
22.6374
 20
48.0861
 11
22.2178
 21
48.562
  0
LINE
  8
0
 10
22.2178
 20
48.562
 11
21.8289
 21
49.0634
  0
LINE
  8
0
 10
21.8289
 20
49.0634
 11
21.4723
 21
49.5882
  0
LINE
  8
0
 10
21.4723
 20
49.5882
 11
21.1493
 21
50.1343
  0
LINE
  8
0
 10
21.1493
 20
50.1343
 11
20.8612
 21
50.6996
  0
LINE
  8
0
 10
20.8612
 20
50.6996
 11
20.6093
 21
51.2819
  0
LINE
  8
0
 10
20.6093
 20
51.2819
 11
20.3943
 21
51.8789
  0
LINE
  8
0
 10
20.3943
 20
51.8789
 11
20.2173
 21
52.4882
  0
LINE
  8
0
 10
20.2173
 20
52.4882
 11
20.0789
 21
53.1074
  0
LINE
  8
0
 10
20.0789
 20
53.1074
 11
19.9796
 21
53.7341
  0
LINE
  8
0
 10
19.9796
 20
53.7341
 11
19.9199
 21
54.3658
  0
LINE
  8
0
 10
19.9199
 20
54.3658
 11
19.9
 21
55
  0
LINE
  8
0
 10
19.9
 20
55
 11
19.9199
 21
55.6342
  0
LINE
  8
0
 10
19.9199
 20
55.6342
 11
19.9796
 21
56.2659
  0
LINE
  8
0
 10
19.9796
 20
56.2659
 11
20.0789
 21
56.8925
  0
LINE
  8
0
 10
20.0789
 20
56.8925
 11
20.2173
 21
57.5118
  0
LINE
  8
0
 10
20.2173
 20
57.5118
 11
20.3943
 21
58.1211
  0
LINE
  8
0
 10
20.3943
 20
58.1211
 11
20.6093
 21
58.718
  0
LINE
  8
0
 10
20.6093
 20
58.718
 11
20.8612
 21
59.3004
  0
LINE
  8
0
 10
20.8612
 20
59.3004
 11
21.1493
 21
59.8657
  0
LINE
  8
0
 10
21.1493
 20
59.8657
 11
21.4723
 21
60.4118
  0
LINE
  8
0
 10
21.4723
 20
60.4118
 11
21.8289
 21
60.9366
  0
LINE
  8
0
 10
21.8289
 20
60.9366
 11
22.2178
 21
61.438
  0
LINE
  8
0
 10
22.2178
 20
61.438
 11
22.6374
 21
61.9139
  0
LINE
  8
0
 10
22.6374
 20
61.9139
 11
23.0861
 21
62.3626
  0
LINE
  8
0
 10
23.0861
 20
62.3626
 11
23.562
 21
62.7822
  0
LINE
  8
0
 10
23.562
 20
62.7822
 11
24.0634
 21
63.1711
  0
LINE
  8
0
 10
24.0634
 20
63.1711
 11
24.5882
 21
63.5277
  0
LINE
  8
0
 10
24.5882
 20
63.5277
 11
25.1343
 21
63.8507
  0
LINE
  8
0
 10
25.1343
 20
63.8507
 11
25.6996
 21
64.1387
  0
LINE
  8
0
 10
25.6996
 20
64.1387
 11
26.2819
 21
64.3907
  0
LINE
  8
0
 10
26.2819
 20
64.3907
 11
26.8789
 21
64.6057
  0
LINE
  8
0
 10
26.8789
 20
64.6057
 11
27.4882
 21
64.7827
  0
LINE
  8
0
 10
27.4882
 20
64.7827
 11
28.1074
 21
64.9211
  0
LINE
  8
0
 10
28.1074
 20
64.9211
 11
28.7341
 21
65.0204
  0
LINE
  8
0
 10
28.7341
 20
65.0204
 11
29.3658
 21
65.0801
  0
LINE
  8
0
 10
29.3658
 20
65.0801
 11
30
 21
65.1
  0
LINE
  8
0
 10
30
 20
65.1
 11
30.6342
 21
65.0801
  0
LINE
  8
0
 10
30.6342
 20
65.0801
 11
31.2659
 21
65.0204
  0
LINE
  8
0
 10
31.2659
 20
65.0204
 11
31.8925
 21
64.9211
  0
LINE
  8
0
 10
31.8925
 20
64.9211
 11
32.5118
 21
64.7827
  0
LINE
  8
0
 10
32.5118
 20
64.7827
 11
33.1211
 21
64.6057
  0
LINE
  8
0
 10
33.1211
 20
64.6057
 11
33.718
 21
64.3907
  0
LINE
  8
0
 10
33.718
 20
64.3907
 11
34.3004
 21
64.1387
  0
LINE
  8
0
 10
34.3004
 20
64.1387
 11
34.8657
 21
63.8507
  0
LINE
  8
0
 10
34.8657
 20
63.8507
 11
35.4118
 21
63.5277
  0
LINE
  8
0
 10
35.4118
 20
63.5277
 11
35.9366
 21
63.1711
  0
LINE
  8
0
 10
35.9366
 20
63.1711
 11
36.438
 21
62.7822
  0
LINE
  8
0
 10
36.438
 20
62.7822
 11
36.9139
 21
62.3626
  0
LINE
  8
0
 10
36.9139
 20
62.3626
 11
37.3626
 21
61.9139
  0
LINE
  8
0
 10
37.3626
 20
61.9139
 11
37.7822
 21
61.438
  0
LINE
  8
0
 10
37.7822
 20
61.438
 11
38.1711
 21
60.9366
  0
LINE
  8
0
 10
38.1711
 20
60.9366
 11
38.5277
 21
60.4118
  0
LINE
  8
0
 10
38.5277
 20
60.4118
 11
38.8507
 21
59.8657
  0
LINE
  8
0
 10
38.8507
 20
59.8657
 11
39.1387
 21
59.3004
  0
LINE
  8
0
 10
39.1387
 20
59.3004
 11
39.3907
 21
58.718
  0
LINE
  8
0
 10
39.3907
 20
58.718
 11
39.6057
 21
58.1211
  0
LINE
  8
0
 10
39.6057
 20
58.1211
 11
39.7827
 21
57.5118
  0
LINE
  8
0
 10
39.7827
 20
57.5118
 11
39.9211
 21
56.8925
  0
LINE
  8
0
 10
39.9211
 20
56.8925
 11
40.0204
 21
56.2659
  0
LINE
  8
0
 10
40.0204
 20
56.2659
 11
40.0801
 21
55.6342
  0
LINE
  8
0
 10
40.0801
 20
55.6342
 11
40.1
 21
55
  0
LINE
  8
0
 10
40.1
 20
55
 11
40.0801
 21
54.3658
  0
LINE
  8
0
 10
40.0801
 20
54.3658
 11
40.0204
 21
53.7341
  0
LINE
  8
0
 10
40.0204
 20
53.7341
 11
39.9211
 21
53.1074
  0
LINE
  8
0
 10
39.9211
 20
53.1074
 11
39.7827
 21
52.4882
  0
LINE
  8
0
 10
39.7827
 20
52.4882
 11
39.6057
 21
51.8789
  0
LINE
  8
0
 10
39.6057
 20
51.8789
 11
39.3907
 21
51.2819
  0
LINE
  8
0
 10
39.3907
 20
51.2819
 11
39.1387
 21
50.6996
  0
LINE
  8
0
 10
39.1387
 20
50.6996
 11
38.8507
 21
50.1343
  0
LINE
  8
0
 10
38.8507
 20
50.1343
 11
38.5277
 21
49.5882
  0
LINE
  8
0
 10
38.5277
 20
49.5882
 11
38.1711
 21
49.0634
  0
LINE
  8
0
 10
38.1711
 20
49.0634
 11
37.7822
 21
48.562
  0
LINE
  8
0
 10
37.7822
 20
48.562
 11
37.3626
 21
48.0861
  0
LINE
  8
0
 10
37.3626
 20
48.0861
 11
36.9139
 21
47.6374
  0
LINE
  8
0
 10
36.9139
 20
47.6374
 11
36.438
 21
47.2178
  0
LINE
  8
0
 10
36.438
 20
47.2178
 11
35.9366
 21
46.8289
  0
LINE
  8
0
 10
35.9366
 20
46.8289
 11
35.4118
 21
46.4723
  0
LINE
  8
0
 10
35.4118
 20
46.4723
 11
34.8657
 21
46.1493
  0
LINE
  8
0
 10
34.8657
 20
46.1493
 11
34.3004
 21
45.8612
  0
LINE
  8
0
 10
34.3004
 20
45.8612
 11
33.718
 21
45.6093
  0
LINE
  8
0
 10
33.718
 20
45.6093
 11
33.1211
 21
45.3943
  0
LINE
  8
0
 10
33.1211
 20
45.3943
 11
32.5118
 21
45.2173
  0
LINE
  8
0
 10
32.5118
 20
45.2173
 11
31.8925
 21
45.0789
  0
LINE
  8
0
 10
31.8925
 20
45.0789
 11
31.2659
 21
44.9796
  0
LINE
  8
0
 10
31.2659
 20
44.9796
 11
30.6342
 21
44.9199
  0
LINE
  8
0
 10
30.6342
 20
44.9199
 11
30
 21
44.9
  0
LINE
  8
0
 10
30
 20
44.9
 11
29.3658
 21
44.9199
  0
LINE
  8
0
 10
64.3658
 20
44.9199
 11
63.7341
 21
44.9796
  0
LINE
  8
0
 10
63.7341
 20
44.9796
 11
63.1074
 21
45.0789
  0
LINE
  8
0
 10
63.1074
 20
45.0789
 11
62.4882
 21
45.2173
  0
LINE
  8
0
 10
62.4882
 20
45.2173
 11
61.8789
 21
45.3943
  0
LINE
  8
0
 10
61.8789
 20
45.3943
 11
61.2819
 21
45.6093
  0
LINE
  8
0
 10
61.2819
 20
45.6093
 11
60.6996
 21
45.8612
  0
LINE
  8
0
 10
60.6996
 20
45.8612
 11
60.1343
 21
46.1493
  0
LINE
  8
0
 10
60.1343
 20
46.1493
 11
59.5882
 21
46.4723
  0
LINE
  8
0
 10
59.5882
 20
46.4723
 11
59.0634
 21
46.8289
  0
LINE
  8
0
 10
59.0634
 20
46.8289
 11
58.562
 21
47.2178
  0
LINE
  8
0
 10
58.562
 20
47.2178
 11
58.0861
 21
47.6374
  0
LINE
  8
0
 10
58.0861
 20
47.6374
 11
57.6374
 21
48.0861
  0
LINE
  8
0
 10
57.6374
 20
48.0861
 11
57.2178
 21
48.562
  0
LINE
  8
0
 10
57.2178
 20
48.562
 11
56.8289
 21
49.0634
  0
LINE
  8
0
 10
56.8289
 20
49.0634
 11
56.4723
 21
49.5882
  0
LINE
  8
0
 10
56.4723
 20
49.5882
 11
56.1493
 21
50.1343
  0
LINE
  8
0
 10
56.1493
 20
50.1343
 11
55.8612
 21
50.6996
  0
LINE
  8
0
 10
55.8612
 20
50.6996
 11
55.6093
 21
51.2819
  0
LINE
  8
0
 10
55.6093
 20
51.2819
 11
55.3943
 21
51.8789
  0
LINE
  8
0
 10
55.3943
 20
51.8789
 11
55.2173
 21
52.4882
  0
LINE
  8
0
 10
55.2173
 20
52.4882
 11
55.0789
 21
53.1074
  0
LINE
  8
0
 10
55.0789
 20
53.1074
 11
54.9796
 21
53.7341
  0
LINE
  8
0
 10
54.9796
 20
53.7341
 11
54.9199
 21
54.3658
  0
LINE
  8
0
 10
54.9199
 20
54.3658
 11
54.9
 21
55
  0
LINE
  8
0
 10
54.9
 20
55
 11
54.9199
 21
55.6342
  0
LINE
  8
0
 10
54.9199
 20
55.6342
 11
54.9796
 21
56.2659
  0
LINE
  8
0
 10
54.9796
 20
56.2659
 11
55.0789
 21
56.8925
  0
LINE
  8
0
 10
55.0789
 20
56.8925
 11
55.2173
 21
57.5118
  0
LINE
  8
0
 10
55.2173
 20
57.5118
 11
55.3943
 21
58.1211
  0
LINE
  8
0
 10
55.3943
 20
58.1211
 11
55.6093
 21
58.718
  0
LINE
  8
0
 10
55.6093
 20
58.718
 11
55.8612
 21
59.3004
  0
LINE
  8
0
 10
55.8612
 20
59.3004
 11
56.1493
 21
59.8657
  0
LINE
  8
0
 10
56.1493
 20
59.8657
 11
56.4723
 21
60.4118
  0
LINE
  8
0
 10
56.4723
 20
60.4118
 11
56.8289
 21
60.9366
  0
LINE
  8
0
 10
56.8289
 20
60.9366
 11
57.2178
 21
61.438
  0
LINE
  8
0
 10
57.2178
 20
61.438
 11
57.6374
 21
61.9139
  0
LINE
  8
0
 10
57.6374
 20
61.9139
 11
58.0861
 21
62.3626
  0
LINE
  8
0
 10
58.0861
 20
62.3626
 11
58.562
 21
62.7822
  0
LINE
  8
0
 10
58.562
 20
62.7822
 11
59.0634
 21
63.1711
  0
LINE
  8
0
 10
59.0634
 20
63.1711
 11
59.5882
 21
63.5277
  0
LINE
  8
0
 10
59.5882
 20
63.5277
 11
60.1343
 21
63.8507
  0
LINE
  8
0
 10
60.1343
 20
63.8507
 11
60.6996
 21
64.1387
  0
LINE
  8
0
 10
60.6996
 20
64.1387
 11
61.2819
 21
64.3907
  0
LINE
  8
0
 10
61.2819
 20
64.3907
 11
61.8789
 21
64.6057
  0
LINE
  8
0
 10
61.8789
 20
64.6057
 11
62.4882
 21
64.7827
  0
LINE
  8
0
 10
62.4882
 20
64.7827
 11
63.1074
 21
64.9211
  0
LINE
  8
0
 10
63.1074
 20
64.9211
 11
63.7341
 21
65.0204
  0
LINE
  8
0
 10
63.7341
 20
65.0204
 11
64.3658
 21
65.0801
  0
LINE
  8
0
 10
64.3658
 20
65.0801
 11
65
 21
65.1
  0
LINE
  8
0
 10
65
 20
65.1
 11
65.6342
 21
65.0801
  0
LINE
  8
0
 10
65.6342
 20
65.0801
 11
66.2659
 21
65.0204
  0
LINE
  8
0
 10
66.2659
 20
65.0204
 11
66.8925
 21
64.9211
  0
LINE
  8
0
 10
66.8925
 20
64.9211
 11
67.5118
 21
64.7827
  0
LINE
  8
0
 10
67.5118
 20
64.7827
 11
68.1211
 21
64.6057
  0
LINE
  8
0
 10
68.1211
 20
64.6057
 11
68.718
 21
64.3907
  0
LINE
  8
0
 10
68.718
 20
64.3907
 11
69.3004
 21
64.1387
  0
LINE
  8
0
 10
69.3004
 20
64.1387
 11
69.8657
 21
63.8507
  0
LINE
  8
0
 10
69.8657
 20
63.8507
 11
70.4118
 21
63.5277
  0
LINE
  8
0
 10
70.4118
 20
63.5277
 11
70.9366
 21
63.1711
  0
LINE
  8
0
 10
70.9366
 20
63.1711
 11
71.438
 21
62.7822
  0
LINE
  8
0
 10
71.438
 20
62.7822
 11
71.9139
 21
62.3626
  0
LINE
  8
0
 10
71.9139
 20
62.3626
 11
72.3626
 21
61.9139
  0
LINE
  8
0
 10
72.3626
 20
61.9139
 11
72.7822
 21
61.438
  0
LINE
  8
0
 10
72.7822
 20
61.438
 11
73.1711
 21
60.9366
  0
LINE
  8
0
 10
73.1711
 20
60.9366
 11
73.5277
 21
60.4118
  0
LINE
  8
0
 10
73.5277
 20
60.4118
 11
73.8507
 21
59.8657
  0
LINE
  8
0
 10
73.8507
 20
59.8657
 11
74.1387
 21
59.3004
  0
LINE
  8
0
 10
74.1387
 20
59.3004
 11
74.3907
 21
58.718
  0
LINE
  8
0
 10
74.3907
 20
58.718
 11
74.6057
 21
58.1211
  0
LINE
  8
0
 10
74.6057
 20
58.1211
 11
74.7827
 21
57.5118
  0
LINE
  8
0
 10
74.7827
 20
57.5118
 11
74.9211
 21
56.8925
  0
LINE
  8
0
 10
74.9211
 20
56.8925
 11
75.0204
 21
56.2659
  0
LINE
  8
0
 10
75.0204
 20
56.2659
 11
75.0801
 21
55.6342
  0
LINE
  8
0
 10
75.0801
 20
55.6342
 11
75.1
 21
55
  0
LINE
  8
0
 10
75.1
 20
55
 11
75.0801
 21
54.3658
  0
LINE
  8
0
 10
75.0801
 20
54.3658
 11
75.0204
 21
53.7341
  0
LINE
  8
0
 10
75.0204
 20
53.7341
 11
74.9211
 21
53.1074
  0
LINE
  8
0
 10
74.9211
 20
53.1074
 11
74.7827
 21
52.4882
  0
LINE
  8
0
 10
74.7827
 20
52.4882
 11
74.6057
 21
51.8789
  0
LINE
  8
0
 10
74.6057
 20
51.8789
 11
74.3907
 21
51.2819
  0
LINE
  8
0
 10
74.3907
 20
51.2819
 11
74.1387
 21
50.6996
  0
LINE
  8
0
 10
74.1387
 20
50.6996
 11
73.8507
 21
50.1343
  0
LINE
  8
0
 10
73.8507
 20
50.1343
 11
73.5277
 21
49.5882
  0
LINE
  8
0
 10
73.5277
 20
49.5882
 11
73.1711
 21
49.0634
  0
LINE
  8
0
 10
73.1711
 20
49.0634
 11
72.7822
 21
48.562
  0
LINE
  8
0
 10
72.7822
 20
48.562
 11
72.3626
 21
48.0861
  0
LINE
  8
0
 10
72.3626
 20
48.0861
 11
71.9139
 21
47.6374
  0
LINE
  8
0
 10
71.9139
 20
47.6374
 11
71.438
 21
47.2178
  0
LINE
  8
0
 10
71.438
 20
47.2178
 11
70.9366
 21
46.8289
  0
LINE
  8
0
 10
70.9366
 20
46.8289
 11
70.4118
 21
46.4723
  0
LINE
  8
0
 10
70.4118
 20
46.4723
 11
69.8657
 21
46.1493
  0
LINE
  8
0
 10
69.8657
 20
46.1493
 11
69.3004
 21
45.8612
  0
LINE
  8
0
 10
69.3004
 20
45.8612
 11
68.718
 21
45.6093
  0
LINE
  8
0
 10
68.718
 20
45.6093
 11
68.1211
 21
45.3943
  0
LINE
  8
0
 10
68.1211
 20
45.3943
 11
67.5118
 21
45.2173
  0
LINE
  8
0
 10
67.5118
 20
45.2173
 11
66.8925
 21
45.0789
  0
LINE
  8
0
 10
66.8925
 20
45.0789
 11
66.2659
 21
44.9796
  0
LINE
  8
0
 10
66.2659
 20
44.9796
 11
65.6342
 21
44.9199
  0
LINE
  8
0
 10
65.6342
 20
44.9199
 11
65
 21
44.9
  0
LINE
  8
0
 10
65
 20
44.9
 11
64.3658
 21
44.9199
  0
LINE
  8
0
 10
99.3658
 20
44.9199
 11
98.7341
 21
44.9796
  0
LINE
  8
0
 10
98.7341
 20
44.9796
 11
98.1075
 21
45.0789
  0
LINE
  8
0
 10
98.1075
 20
45.0789
 11
97.4882
 21
45.2173
  0
LINE
  8
0
 10
97.4882
 20
45.2173
 11
96.8789
 21
45.3943
  0
LINE
  8
0
 10
96.8789
 20
45.3943
 11
96.2819
 21
45.6093
  0
LINE
  8
0
 10
96.2819
 20
45.6093
 11
95.6996
 21
45.8612
  0
LINE
  8
0
 10
95.6996
 20
45.8612
 11
95.1343
 21
46.1493
  0
LINE
  8
0
 10
95.1343
 20
46.1493
 11
94.5882
 21
46.4723
  0
LINE
  8
0
 10
94.5882
 20
46.4723
 11
94.0634
 21
46.8289
  0
LINE
  8
0
 10
94.0634
 20
46.8289
 11
93.562
 21
47.2178
  0
LINE
  8
0
 10
93.562
 20
47.2178
 11
93.0861
 21
47.6374
  0
LINE
  8
0
 10
93.0861
 20
47.6374
 11
92.6374
 21
48.0861
  0
LINE
  8
0
 10
92.6374
 20
48.0861
 11
92.2178
 21
48.562
  0
LINE
  8
0
 10
92.2178
 20
48.562
 11
91.8289
 21
49.0634
  0
LINE
  8
0
 10
91.8289
 20
49.0634
 11
91.4723
 21
49.5882
  0
LINE
  8
0
 10
91.4723
 20
49.5882
 11
91.1493
 21
50.1343
  0
LINE
  8
0
 10
91.1493
 20
50.1343
 11
90.8612
 21
50.6996
  0
LINE
  8
0
 10
90.8612
 20
50.6996
 11
90.6093
 21
51.2819
  0
LINE
  8
0
 10
90.6093
 20
51.2819
 11
90.3943
 21
51.8789
  0
LINE
  8
0
 10
90.3943
 20
51.8789
 11
90.2173
 21
52.4882
  0
LINE
  8
0
 10
90.2173
 20
52.4882
 11
90.0789
 21
53.1074
  0
LINE
  8
0
 10
90.0789
 20
53.1074
 11
89.9796
 21
53.7341
  0
LINE
  8
0
 10
89.9796
 20
53.7341
 11
89.9199
 21
54.3658
  0
LINE
  8
0
 10
89.9199
 20
54.3658
 11
89.9
 21
55
  0
LINE
  8
0
 10
89.9
 20
55
 11
89.9199
 21
55.6342
  0
LINE
  8
0
 10
89.9199
 20
55.6342
 11
89.9796
 21
56.2659
  0
LINE
  8
0
 10
89.9796
 20
56.2659
 11
90.0789
 21
56.8925
  0
LINE
  8
0
 10
90.0789
 20
56.8925
 11
90.2173
 21
57.5118
  0
LINE
  8
0
 10
90.2173
 20
57.5118
 11
90.3943
 21
58.1211
  0
LINE
  8
0
 10
90.3943
 20
58.1211
 11
90.6093
 21
58.718
  0
LINE
  8
0
 10
90.6093
 20
58.718
 11
90.8612
 21
59.3004
  0
LINE
  8
0
 10
90.8612
 20
59.3004
 11
91.1493
 21
59.8657
  0
LINE
  8
0
 10
91.1493
 20
59.8657
 11
91.4723
 21
60.4118
  0
LINE
  8
0
 10
91.4723
 20
60.4118
 11
91.8289
 21
60.9366
  0
LINE
  8
0
 10
91.8289
 20
60.9366
 11
92.2178
 21
61.438
  0
LINE
  8
0
 10
92.2178
 20
61.438
 11
92.6374
 21
61.9139
  0
LINE
  8
0
 10
92.6374
 20
61.9139
 11
93.0861
 21
62.3626
  0
LINE
  8
0
 10
93.0861
 20
62.3626
 11
93.562
 21
62.7822
  0
LINE
  8
0
 10
93.562
 20
62.7822
 11
94.0634
 21
63.1711
  0
LINE
  8
0
 10
94.0634
 20
63.1711
 11
94.5882
 21
63.5277
  0
LINE
  8
0
 10
94.5882
 20
63.5277
 11
95.1343
 21
63.8507
  0
LINE
  8
0
 10
95.1343
 20
63.8507
 11
95.6996
 21
64.1387
  0
LINE
  8
0
 10
95.6996
 20
64.1387
 11
96.2819
 21
64.3907
  0
LINE
  8
0
 10
96.2819
 20
64.3907
 11
96.8789
 21
64.6057
  0
LINE
  8
0
 10
96.8789
 20
64.6057
 11
97.4882
 21
64.7827
  0
LINE
  8
0
 10
97.4882
 20
64.7827
 11
98.1075
 21
64.9211
  0
LINE
  8
0
 10
98.1075
 20
64.9211
 11
98.7341
 21
65.0204
  0
LINE
  8
0
 10
98.7341
 20
65.0204
 11
99.3658
 21
65.0801
  0
LINE
  8
0
 10
99.3658
 20
65.0801
 11
100
 21
65.1
  0
LINE
  8
0
 10
100
 20
65.1
 11
100.634
 21
65.0801
  0
LINE
  8
0
 10
100.634
 20
65.0801
 11
101.266
 21
65.0204
  0
LINE
  8
0
 10
101.266
 20
65.0204
 11
101.893
 21
64.9211
  0
LINE
  8
0
 10
101.893
 20
64.9211
 11
102.512
 21
64.7827
  0
LINE
  8
0
 10
102.512
 20
64.7827
 11
103.121
 21
64.6057
  0
LINE
  8
0
 10
103.121
 20
64.6057
 11
103.718
 21
64.3907
  0
LINE
  8
0
 10
103.718
 20
64.3907
 11
104.3
 21
64.1387
  0
LINE
  8
0
 10
104.3
 20
64.1387
 11
104.866
 21
63.8507
  0
LINE
  8
0
 10
104.866
 20
63.8507
 11
105.412
 21
63.5277
  0
LINE
  8
0
 10
105.412
 20
63.5277
 11
105.937
 21
63.1711
  0
LINE
  8
0
 10
105.937
 20
63.1711
 11
106.438
 21
62.7822
  0
LINE
  8
0
 10
106.438
 20
62.7822
 11
106.914
 21
62.3626
  0
LINE
  8
0
 10
106.914
 20
62.3626
 11
107.363
 21
61.9139
  0
LINE
  8
0
 10
107.363
 20
61.9139
 11
107.782
 21
61.438
  0
LINE
  8
0
 10
107.782
 20
61.438
 11
108.171
 21
60.9366
  0
LINE
  8
0
 10
108.171
 20
60.9366
 11
108.528
 21
60.4118
  0
LINE
  8
0
 10
108.528
 20
60.4118
 11
108.851
 21
59.8657
  0
LINE
  8
0
 10
108.851
 20
59.8657
 11
109.139
 21
59.3004
  0
LINE
  8
0
 10
109.139
 20
59.3004
 11
109.391
 21
58.718
  0
LINE
  8
0
 10
109.391
 20
58.718
 11
109.606
 21
58.1211
  0
LINE
  8
0
 10
109.606
 20
58.1211
 11
109.783
 21
57.5118
  0
LINE
  8
0
 10
109.783
 20
57.5118
 11
109.921
 21
56.8925
  0
LINE
  8
0
 10
109.921
 20
56.8925
 11
110.02
 21
56.2659
  0
LINE
  8
0
 10
110.02
 20
56.2659
 11
110.08
 21
55.6342
  0
LINE
  8
0
 10
110.08
 20
55.6342
 11
110.1
 21
55
  0
LINE
  8
0
 10
110.1
 20
55
 11
110.08
 21
54.3658
  0
LINE
  8
0
 10
110.08
 20
54.3658
 11
110.02
 21
53.7341
  0
LINE
  8
0
 10
110.02
 20
53.7341
 11
109.921
 21
53.1074
  0
LINE
  8
0
 10
109.921
 20
53.1074
 11
109.783
 21
52.4882
  0
LINE
  8
0
 10
109.783
 20
52.4882
 11
109.606
 21
51.8789
  0
LINE
  8
0
 10
109.606
 20
51.8789
 11
109.391
 21
51.2819
  0
LINE
  8
0
 10
109.391
 20
51.2819
 11
109.139
 21
50.6996
  0
LINE
  8
0
 10
109.139
 20
50.6996
 11
108.851
 21
50.1343
  0
LINE
  8
0
 10
108.851
 20
50.1343
 11
108.528
 21
49.5882
  0
LINE
  8
0
 10
108.528
 20
49.5882
 11
108.171
 21
49.0634
  0
LINE
  8
0
 10
108.171
 20
49.0634
 11
107.782
 21
48.562
  0
LINE
  8
0
 10
107.782
 20
48.562
 11
107.363
 21
48.0861
  0
LINE
  8
0
 10
107.363
 20
48.0861
 11
106.914
 21
47.6374
  0
LINE
  8
0
 10
106.914
 20
47.6374
 11
106.438
 21
47.2178
  0
LINE
  8
0
 10
106.438
 20
47.2178
 11
105.937
 21
46.8289
  0
LINE
  8
0
 10
105.937
 20
46.8289
 11
105.412
 21
46.4723
  0
LINE
  8
0
 10
105.412
 20
46.4723
 11
104.866
 21
46.1493
  0
LINE
  8
0
 10
104.866
 20
46.1493
 11
104.3
 21
45.8612
  0
LINE
  8
0
 10
104.3
 20
45.8612
 11
103.718
 21
45.6093
  0
LINE
  8
0
 10
103.718
 20
45.6093
 11
103.121
 21
45.3943
  0
LINE
  8
0
 10
103.121
 20
45.3943
 11
102.512
 21
45.2173
  0
LINE
  8
0
 10
102.512
 20
45.2173
 11
101.893
 21
45.0789
  0
LINE
  8
0
 10
101.893
 20
45.0789
 11
101.266
 21
44.9796
  0
LINE
  8
0
 10
101.266
 20
44.9796
 11
100.634
 21
44.9199
  0
LINE
  8
0
 10
100.634
 20
44.9199
 11
100
 21
44.9
  0
LINE
  8
0
 10
100
 20
44.9
 11
99.3658
 21
44.9199
  0
LINE
  8
0
 10
211.438
 20
62.7822
 11
211.914
 21
62.3626
  0
LINE
  8
0
 10
211.914
 20
62.3626
 11
212.363
 21
61.9139
  0
LINE
  8
0
 10
212.363
 20
61.9139
 11
212.782
 21
61.438
  0
LINE
  8
0
 10
212.782
 20
61.438
 11
213.171
 21
60.9366
  0
LINE
  8
0
 10
213.171
 20
60.9366
 11
213.528
 21
60.4118
  0
LINE
  8
0
 10
213.528
 20
60.4118
 11
213.851
 21
59.8657
  0
LINE
  8
0
 10
213.851
 20
59.8657
 11
214.139
 21
59.3004
  0
LINE
  8
0
 10
214.139
 20
59.3004
 11
214.391
 21
58.718
  0
LINE
  8
0
 10
214.391
 20
58.718
 11
214.606
 21
58.1211
  0
LINE
  8
0
 10
214.606
 20
58.1211
 11
214.783
 21
57.5118
  0
LINE
  8
0
 10
214.783
 20
57.5118
 11
214.921
 21
56.8925
  0
LINE
  8
0
 10
214.921
 20
56.8925
 11
215.02
 21
56.2659
  0
LINE
  8
0
 10
215.02
 20
56.2659
 11
215.08
 21
55.6342
  0
LINE
  8
0
 10
215.08
 20
55.6342
 11
215.1
 21
55
  0
LINE
  8
0
 10
215.1
 20
55
 11
215.08
 21
54.3658
  0
LINE
  8
0
 10
215.08
 20
54.3658
 11
215.02
 21
53.7341
  0
LINE
  8
0
 10
215.02
 20
53.7341
 11
214.921
 21
53.1074
  0
LINE
  8
0
 10
214.921
 20
53.1074
 11
214.783
 21
52.4882
  0
LINE
  8
0
 10
214.783
 20
52.4882
 11
214.606
 21
51.8789
  0
LINE
  8
0
 10
214.606
 20
51.8789
 11
214.391
 21
51.2819
  0
LINE
  8
0
 10
214.391
 20
51.2819
 11
214.139
 21
50.6996
  0
LINE
  8
0
 10
214.139
 20
50.6996
 11
213.851
 21
50.1343
  0
LINE
  8
0
 10
213.851
 20
50.1343
 11
213.528
 21
49.5882
  0
LINE
  8
0
 10
213.528
 20
49.5882
 11
213.171
 21
49.0634
  0
LINE
  8
0
 10
213.171
 20
49.0634
 11
212.782
 21
48.562
  0
LINE
  8
0
 10
212.782
 20
48.562
 11
212.363
 21
48.0861
  0
LINE
  8
0
 10
212.363
 20
48.0861
 11
211.914
 21
47.6374
  0
LINE
  8
0
 10
211.914
 20
47.6374
 11
211.438
 21
47.2178
  0
LINE
  8
0
 10
211.438
 20
47.2178
 11
210.937
 21
46.8289
  0
LINE
  8
0
 10
210.937
 20
46.8289
 11
210.412
 21
46.4723
  0
LINE
  8
0
 10
210.412
 20
46.4723
 11
209.866
 21
46.1493
  0
LINE
  8
0
 10
209.866
 20
46.1493
 11
209.3
 21
45.8612
  0
LINE
  8
0
 10
209.3
 20
45.8612
 11
208.718
 21
45.6093
  0
LINE
  8
0
 10
208.718
 20
45.6093
 11
208.121
 21
45.3943
  0
LINE
  8
0
 10
208.121
 20
45.3943
 11
207.512
 21
45.2173
  0
LINE
  8
0
 10
207.512
 20
45.2173
 11
206.893
 21
45.0789
  0
LINE
  8
0
 10
206.893
 20
45.0789
 11
206.266
 21
44.9796
  0
LINE
  8
0
 10
206.266
 20
44.9796
 11
205.634
 21
44.9199
  0
LINE
  8
0
 10
205.634
 20
44.9199
 11
205
 21
44.9
  0
LINE
  8
0
 10
205
 20
44.9
 11
204.366
 21
44.9199
  0
LINE
  8
0
 10
204.366
 20
44.9199
 11
203.734
 21
44.9796
  0
LINE
  8
0
 10
203.734
 20
44.9796
 11
203.107
 21
45.0789
  0
LINE
  8
0
 10
203.107
 20
45.0789
 11
202.488
 21
45.2173
  0
LINE
  8
0
 10
202.488
 20
45.2173
 11
201.879
 21
45.3943
  0
LINE
  8
0
 10
201.879
 20
45.3943
 11
201.282
 21
45.6093
  0
LINE
  8
0
 10
201.282
 20
45.6093
 11
200.7
 21
45.8612
  0
LINE
  8
0
 10
200.7
 20
45.8612
 11
200.134
 21
46.1493
  0
LINE
  8
0
 10
200.134
 20
46.1493
 11
199.588
 21
46.4723
  0
LINE
  8
0
 10
199.588
 20
46.4723
 11
199.063
 21
46.8289
  0
LINE
  8
0
 10
199.063
 20
46.8289
 11
198.562
 21
47.2178
  0
LINE
  8
0
 10
198.562
 20
47.2178
 11
198.086
 21
47.6374
  0
LINE
  8
0
 10
198.086
 20
47.6374
 11
197.637
 21
48.0861
  0
LINE
  8
0
 10
197.637
 20
48.0861
 11
197.218
 21
48.562
  0
LINE
  8
0
 10
197.218
 20
48.562
 11
196.829
 21
49.0634
  0
LINE
  8
0
 10
196.829
 20
49.0634
 11
196.472
 21
49.5882
  0
LINE
  8
0
 10
196.472
 20
49.5882
 11
196.149
 21
50.1343
  0
LINE
  8
0
 10
196.149
 20
50.1343
 11
195.861
 21
50.6996
  0
LINE
  8
0
 10
195.861
 20
50.6996
 11
195.609
 21
51.2819
  0
LINE
  8
0
 10
195.609
 20
51.2819
 11
195.394
 21
51.8789
  0
LINE
  8
0
 10
195.394
 20
51.8789
 11
195.217
 21
52.4882
  0
LINE
  8
0
 10
195.217
 20
52.4882
 11
195.079
 21
53.1074
  0
LINE
  8
0
 10
195.079
 20
53.1074
 11
194.98
 21
53.7341
  0
LINE
  8
0
 10
194.98
 20
53.7341
 11
194.92
 21
54.3658
  0
LINE
  8
0
 10
194.92
 20
54.3658
 11
194.9
 21
55
  0
LINE
  8
0
 10
194.9
 20
55
 11
194.92
 21
55.6342
  0
LINE
  8
0
 10
194.92
 20
55.6342
 11
194.98
 21
56.2659
  0
LINE
  8
0
 10
194.98
 20
56.2659
 11
195.079
 21
56.8925
  0
LINE
  8
0
 10
195.079
 20
56.8925
 11
195.217
 21
57.5118
  0
LINE
  8
0
 10
195.217
 20
57.5118
 11
195.394
 21
58.1211
  0
LINE
  8
0
 10
195.394
 20
58.1211
 11
195.609
 21
58.718
  0
LINE
  8
0
 10
195.609
 20
58.718
 11
195.861
 21
59.3004
  0
LINE
  8
0
 10
195.861
 20
59.3004
 11
196.149
 21
59.8657
  0
LINE
  8
0
 10
196.149
 20
59.8657
 11
196.472
 21
60.4118
  0
LINE
  8
0
 10
196.472
 20
60.4118
 11
196.829
 21
60.9366
  0
LINE
  8
0
 10
196.829
 20
60.9366
 11
197.218
 21
61.438
  0
LINE
  8
0
 10
197.218
 20
61.438
 11
197.637
 21
61.9139
  0
LINE
  8
0
 10
197.637
 20
61.9139
 11
198.086
 21
62.3626
  0
LINE
  8
0
 10
198.086
 20
62.3626
 11
198.562
 21
62.7822
  0
LINE
  8
0
 10
198.562
 20
62.7822
 11
199.063
 21
63.1711
  0
LINE
  8
0
 10
199.063
 20
63.1711
 11
199.588
 21
63.5277
  0
LINE
  8
0
 10
199.588
 20
63.5277
 11
200.134
 21
63.8507
  0
LINE
  8
0
 10
200.134
 20
63.8507
 11
200.7
 21
64.1387
  0
LINE
  8
0
 10
200.7
 20
64.1387
 11
201.282
 21
64.3907
  0
LINE
  8
0
 10
201.282
 20
64.3907
 11
201.879
 21
64.6057
  0
LINE
  8
0
 10
201.879
 20
64.6057
 11
202.488
 21
64.7827
  0
LINE
  8
0
 10
202.488
 20
64.7827
 11
203.107
 21
64.9211
  0
LINE
  8
0
 10
203.107
 20
64.9211
 11
203.734
 21
65.0204
  0
LINE
  8
0
 10
203.734
 20
65.0204
 11
204.366
 21
65.0801
  0
LINE
  8
0
 10
204.366
 20
65.0801
 11
205
 21
65.1
  0
LINE
  8
0
 10
205
 20
65.1
 11
205.634
 21
65.0801
  0
LINE
  8
0
 10
205.634
 20
65.0801
 11
206.266
 21
65.0204
  0
LINE
  8
0
 10
206.266
 20
65.0204
 11
206.893
 21
64.9211
  0
LINE
  8
0
 10
206.893
 20
64.9211
 11
207.512
 21
64.7827
  0
LINE
  8
0
 10
207.512
 20
64.7827
 11
208.121
 21
64.6057
  0
LINE
  8
0
 10
208.121
 20
64.6057
 11
208.718
 21
64.3907
  0
LINE
  8
0
 10
208.718
 20
64.3907
 11
209.3
 21
64.1387
  0
LINE
  8
0
 10
209.3
 20
64.1387
 11
209.866
 21
63.8507
  0
LINE
  8
0
 10
209.866
 20
63.8507
 11
210.412
 21
63.5277
  0
LINE
  8
0
 10
210.412
 20
63.5277
 11
210.937
 21
63.1711
  0
LINE
  8
0
 10
210.937
 20
63.1711
 11
211.438
 21
62.7822
  0
LINE
  8
0
 10
138.121
 20
45.3943
 11
137.512
 21
45.2173
  0
LINE
  8
0
 10
137.512
 20
45.2173
 11
136.893
 21
45.0789
  0
LINE
  8
0
 10
136.893
 20
45.0789
 11
136.266
 21
44.9796
  0
LINE
  8
0
 10
136.266
 20
44.9796
 11
135.634
 21
44.9199
  0
LINE
  8
0
 10
135.634
 20
44.9199
 11
135
 21
44.9
  0
LINE
  8
0
 10
135
 20
44.9
 11
134.366
 21
44.9199
  0
LINE
  8
0
 10
134.366
 20
44.9199
 11
133.734
 21
44.9796
  0
LINE
  8
0
 10
133.734
 20
44.9796
 11
133.107
 21
45.0789
  0
LINE
  8
0
 10
133.107
 20
45.0789
 11
132.488
 21
45.2173
  0
LINE
  8
0
 10
132.488
 20
45.2173
 11
131.879
 21
45.3943
  0
LINE
  8
0
 10
131.879
 20
45.3943
 11
131.282
 21
45.6093
  0
LINE
  8
0
 10
131.282
 20
45.6093
 11
130.7
 21
45.8612
  0
LINE
  8
0
 10
130.7
 20
45.8612
 11
130.134
 21
46.1493
  0
LINE
  8
0
 10
130.134
 20
46.1493
 11
129.588
 21
46.4723
  0
LINE
  8
0
 10
129.588
 20
46.4723
 11
129.063
 21
46.8289
  0
LINE
  8
0
 10
129.063
 20
46.8289
 11
128.562
 21
47.2178
  0
LINE
  8
0
 10
128.562
 20
47.2178
 11
128.086
 21
47.6374
  0
LINE
  8
0
 10
128.086
 20
47.6374
 11
127.637
 21
48.0861
  0
LINE
  8
0
 10
127.637
 20
48.0861
 11
127.218
 21
48.562
  0
LINE
  8
0
 10
127.218
 20
48.562
 11
126.829
 21
49.0634
  0
LINE
  8
0
 10
126.829
 20
49.0634
 11
126.472
 21
49.5882
  0
LINE
  8
0
 10
126.472
 20
49.5882
 11
126.149
 21
50.1343
  0
LINE
  8
0
 10
126.149
 20
50.1343
 11
125.861
 21
50.6996
  0
LINE
  8
0
 10
125.861
 20
50.6996
 11
125.609
 21
51.2819
  0
LINE
  8
0
 10
125.609
 20
51.2819
 11
125.394
 21
51.8789
  0
LINE
  8
0
 10
125.394
 20
51.8789
 11
125.217
 21
52.4882
  0
LINE
  8
0
 10
125.217
 20
52.4882
 11
125.079
 21
53.1074
  0
LINE
  8
0
 10
125.079
 20
53.1074
 11
124.98
 21
53.7341
  0
LINE
  8
0
 10
124.98
 20
53.7341
 11
124.92
 21
54.3658
  0
LINE
  8
0
 10
124.92
 20
54.3658
 11
124.9
 21
55
  0
LINE
  8
0
 10
124.9
 20
55
 11
124.92
 21
55.6342
  0
LINE
  8
0
 10
124.92
 20
55.6342
 11
124.98
 21
56.2659
  0
LINE
  8
0
 10
124.98
 20
56.2659
 11
125.079
 21
56.8925
  0
LINE
  8
0
 10
125.079
 20
56.8925
 11
125.217
 21
57.5118
  0
LINE
  8
0
 10
125.217
 20
57.5118
 11
125.394
 21
58.1211
  0
LINE
  8
0
 10
125.394
 20
58.1211
 11
125.609
 21
58.718
  0
LINE
  8
0
 10
125.609
 20
58.718
 11
125.861
 21
59.3004
  0
LINE
  8
0
 10
125.861
 20
59.3004
 11
126.149
 21
59.8657
  0
LINE
  8
0
 10
126.149
 20
59.8657
 11
126.472
 21
60.4118
  0
LINE
  8
0
 10
126.472
 20
60.4118
 11
126.829
 21
60.9366
  0
LINE
  8
0
 10
126.829
 20
60.9366
 11
127.218
 21
61.438
  0
LINE
  8
0
 10
127.218
 20
61.438
 11
127.637
 21
61.9139
  0
LINE
  8
0
 10
127.637
 20
61.9139
 11
128.086
 21
62.3626
  0
LINE
  8
0
 10
128.086
 20
62.3626
 11
128.562
 21
62.7822
  0
LINE
  8
0
 10
128.562
 20
62.7822
 11
129.063
 21
63.1711
  0
LINE
  8
0
 10
129.063
 20
63.1711
 11
129.588
 21
63.5277
  0
LINE
  8
0
 10
129.588
 20
63.5277
 11
130.134
 21
63.8507
  0
LINE
  8
0
 10
130.134
 20
63.8507
 11
130.7
 21
64.1387
  0
LINE
  8
0
 10
130.7
 20
64.1387
 11
131.282
 21
64.3907
  0
LINE
  8
0
 10
131.282
 20
64.3907
 11
131.879
 21
64.6057
  0
LINE
  8
0
 10
131.879
 20
64.6057
 11
132.488
 21
64.7827
  0
LINE
  8
0
 10
132.488
 20
64.7827
 11
133.107
 21
64.9211
  0
LINE
  8
0
 10
133.107
 20
64.9211
 11
133.734
 21
65.0204
  0
LINE
  8
0
 10
133.734
 20
65.0204
 11
134.366
 21
65.0801
  0
LINE
  8
0
 10
134.366
 20
65.0801
 11
135
 21
65.1
  0
LINE
  8
0
 10
135
 20
65.1
 11
135.634
 21
65.0801
  0
LINE
  8
0
 10
135.634
 20
65.0801
 11
136.266
 21
65.0204
  0
LINE
  8
0
 10
136.266
 20
65.0204
 11
136.893
 21
64.9211
  0
LINE
  8
0
 10
136.893
 20
64.9211
 11
137.512
 21
64.7827
  0
LINE
  8
0
 10
137.512
 20
64.7827
 11
138.121
 21
64.6057
  0
LINE
  8
0
 10
138.121
 20
64.6057
 11
138.718
 21
64.3907
  0
LINE
  8
0
 10
138.718
 20
64.3907
 11
139.3
 21
64.1387
  0
LINE
  8
0
 10
139.3
 20
64.1387
 11
139.866
 21
63.8507
  0
LINE
  8
0
 10
139.866
 20
63.8507
 11
140.412
 21
63.5277
  0
LINE
  8
0
 10
140.412
 20
63.5277
 11
140.937
 21
63.1711
  0
LINE
  8
0
 10
140.937
 20
63.1711
 11
141.438
 21
62.7822
  0
LINE
  8
0
 10
141.438
 20
62.7822
 11
141.914
 21
62.3626
  0
LINE
  8
0
 10
141.914
 20
62.3626
 11
142.363
 21
61.9139
  0
LINE
  8
0
 10
142.363
 20
61.9139
 11
142.782
 21
61.438
  0
LINE
  8
0
 10
142.782
 20
61.438
 11
143.171
 21
60.9366
  0
LINE
  8
0
 10
143.171
 20
60.9366
 11
143.528
 21
60.4118
  0
LINE
  8
0
 10
143.528
 20
60.4118
 11
143.851
 21
59.8657
  0
LINE
  8
0
 10
143.851
 20
59.8657
 11
144.139
 21
59.3004
  0
LINE
  8
0
 10
144.139
 20
59.3004
 11
144.391
 21
58.718
  0
LINE
  8
0
 10
144.391
 20
58.718
 11
144.606
 21
58.1211
  0
LINE
  8
0
 10
144.606
 20
58.1211
 11
144.783
 21
57.5118
  0
LINE
  8
0
 10
144.783
 20
57.5118
 11
144.921
 21
56.8925
  0
LINE
  8
0
 10
144.921
 20
56.8925
 11
145.02
 21
56.2659
  0
LINE
  8
0
 10
145.02
 20
56.2659
 11
145.08
 21
55.6342
  0
LINE
  8
0
 10
145.08
 20
55.6342
 11
145.1
 21
55
  0
LINE
  8
0
 10
145.1
 20
55
 11
145.08
 21
54.3658
  0
LINE
  8
0
 10
145.08
 20
54.3658
 11
145.02
 21
53.7341
  0
LINE
  8
0
 10
145.02
 20
53.7341
 11
144.921
 21
53.1074
  0
LINE
  8
0
 10
144.921
 20
53.1074
 11
144.783
 21
52.4882
  0
LINE
  8
0
 10
144.783
 20
52.4882
 11
144.606
 21
51.8789
  0
LINE
  8
0
 10
144.606
 20
51.8789
 11
144.391
 21
51.2819
  0
LINE
  8
0
 10
144.391
 20
51.2819
 11
144.139
 21
50.6996
  0
LINE
  8
0
 10
144.139
 20
50.6996
 11
143.851
 21
50.1343
  0
LINE
  8
0
 10
143.851
 20
50.1343
 11
143.528
 21
49.5882
  0
LINE
  8
0
 10
143.528
 20
49.5882
 11
143.171
 21
49.0634
  0
LINE
  8
0
 10
143.171
 20
49.0634
 11
142.782
 21
48.562
  0
LINE
  8
0
 10
142.782
 20
48.562
 11
142.363
 21
48.0861
  0
LINE
  8
0
 10
142.363
 20
48.0861
 11
141.914
 21
47.6374
  0
LINE
  8
0
 10
141.914
 20
47.6374
 11
141.438
 21
47.2178
  0
LINE
  8
0
 10
141.438
 20
47.2178
 11
140.937
 21
46.8289
  0
LINE
  8
0
 10
140.937
 20
46.8289
 11
140.412
 21
46.4723
  0
LINE
  8
0
 10
140.412
 20
46.4723
 11
139.866
 21
46.1493
  0
LINE
  8
0
 10
139.866
 20
46.1493
 11
139.3
 21
45.8612
  0
LINE
  8
0
 10
139.3
 20
45.8612
 11
138.718
 21
45.6093
  0
LINE
  8
0
 10
138.718
 20
45.6093
 11
138.121
 21
45.3943
  0
ENDSEC
  0
SECTION
  2
OBJECTS
  0
DICTIONARY
  0
ENDSEC
  0
EOF
