  0
SECTION
  2
BLOCKS
  0
ENDSEC
  0
SECTION
  2
ENTITIES
  0
LINE
  8
0
 10
270
 20
235
 11
0
 21
235
  0
LINE
  8
0
 10
0
 20
235
 11
0
 21
0
  0
LINE
  8
0
 10
0
 20
0
 11
270
 21
0
  0
LINE
  8
0
 10
270
 20
0
 11
270
 21
235
  0
LINE
  8
0
 10
64.0581
 20
155.03
 11
63.12
 21
155.118
  0
LINE
  8
0
 10
63.12
 20
155.118
 11
62.1893
 21
155.266
  0
LINE
  8
0
 10
62.1893
 20
155.266
 11
61.2697
 21
155.471
  0
LINE
  8
0
 10
61.2697
 20
155.471
 11
60.3647
 21
155.734
  0
LINE
  8
0
 10
60.3647
 20
155.734
 11
59.4781
 21
156.053
  0
LINE
  8
0
 10
59.4781
 20
156.053
 11
58.6133
 21
156.428
  0
LINE
  8
0
 10
58.6133
 20
156.428
 11
57.7737
 21
156.855
  0
LINE
  8
0
 10
57.7737
 20
156.855
 11
56.9626
 21
157.335
  0
LINE
  8
0
 10
56.9626
 20
157.335
 11
56.1832
 21
157.865
  0
LINE
  8
0
 10
56.1832
 20
157.865
 11
55.4386
 21
158.442
  0
LINE
  8
0
 10
55.4386
 20
158.442
 11
54.7318
 21
159.065
  0
LINE
  8
0
 10
54.7318
 20
159.065
 11
54.0655
 21
159.732
  0
LINE
  8
0
 10
54.0655
 20
159.732
 11
53.4423
 21
160.439
  0
LINE
  8
0
 10
53.4423
 20
160.439
 11
52.8647
 21
161.183
  0
LINE
  8
0
 10
52.8647
 20
161.183
 11
52.3351
 21
161.963
  0
LINE
  8
0
 10
52.3351
 20
161.963
 11
51.8554
 21
162.774
  0
LINE
  8
0
 10
51.8554
 20
162.774
 11
51.4276
 21
163.613
  0
LINE
  8
0
 10
51.4276
 20
163.613
 11
51.0533
 21
164.478
  0
LINE
  8
0
 10
51.0533
 20
164.478
 11
50.7341
 21
165.365
  0
LINE
  8
0
 10
50.7341
 20
165.365
 11
50.4713
 21
166.27
  0
LINE
  8
0
 10
50.4713
 20
166.27
 11
50.2657
 21
167.189
  0
LINE
  8
0
 10
50.2657
 20
167.189
 11
50.1183
 21
168.12
  0
LINE
  8
0
 10
50.1183
 20
168.12
 11
50.0296
 21
169.058
  0
LINE
  8
0
 10
50.0296
 20
169.058
 11
50
 21
170
  0
LINE
  8
0
 10
50
 20
170
 11
50
 21
205
  0
LINE
  8
0
 10
50
 20
205
 11
50.0296
 21
205.942
  0
LINE
  8
0
 10
50.0296
 20
205.942
 11
50.1183
 21
206.88
  0
LINE
  8
0
 10
50.1183
 20
206.88
 11
50.2657
 21
207.811
  0
LINE
  8
0
 10
50.2657
 20
207.811
 11
50.4713
 21
208.73
  0
LINE
  8
0
 10
50.4713
 20
208.73
 11
50.7341
 21
209.635
  0
LINE
  8
0
 10
50.7341
 20
209.635
 11
51.0533
 21
210.522
  0
LINE
  8
0
 10
51.0533
 20
210.522
 11
51.4276
 21
211.387
  0
LINE
  8
0
 10
51.4276
 20
211.387
 11
51.8554
 21
212.226
  0
LINE
  8
0
 10
51.8554
 20
212.226
 11
52.3351
 21
213.037
  0
LINE
  8
0
 10
52.3351
 20
213.037
 11
52.8647
 21
213.817
  0
LINE
  8
0
 10
52.8647
 20
213.817
 11
53.4423
 21
214.561
  0
LINE
  8
0
 10
53.4423
 20
214.561
 11
54.0655
 21
215.268
  0
LINE
  8
0
 10
54.0655
 20
215.268
 11
54.7318
 21
215.935
  0
LINE
  8
0
 10
54.7318
 20
215.935
 11
55.4386
 21
216.558
  0
LINE
  8
0
 10
55.4386
 20
216.558
 11
56.1832
 21
217.135
  0
LINE
  8
0
 10
56.1832
 20
217.135
 11
56.9626
 21
217.665
  0
LINE
  8
0
 10
56.9626
 20
217.665
 11
57.7737
 21
218.145
  0
LINE
  8
0
 10
57.7737
 20
218.145
 11
58.6133
 21
218.572
  0
LINE
  8
0
 10
58.6133
 20
218.572
 11
59.4781
 21
218.947
  0
LINE
  8
0
 10
59.4781
 20
218.947
 11
60.3647
 21
219.266
  0
LINE
  8
0
 10
60.3647
 20
219.266
 11
61.2697
 21
219.529
  0
LINE
  8
0
 10
61.2697
 20
219.529
 11
62.1893
 21
219.734
  0
LINE
  8
0
 10
62.1893
 20
219.734
 11
63.12
 21
219.882
  0
LINE
  8
0
 10
63.12
 20
219.882
 11
64.0581
 21
219.97
  0
LINE
  8
0
 10
64.0581
 20
219.97
 11
65
 21
220
  0
LINE
  8
0
 10
65
 20
220
 11
65.9418
 21
219.97
  0
LINE
  8
0
 10
65.9418
 20
219.97
 11
66.88
 21
219.882
  0
LINE
  8
0
 10
66.88
 20
219.882
 11
67.8107
 21
219.734
  0
LINE
  8
0
 10
67.8107
 20
219.734
 11
68.7303
 21
219.529
  0
LINE
  8
0
 10
68.7303
 20
219.529
 11
69.6353
 21
219.266
  0
LINE
  8
0
 10
69.6353
 20
219.266
 11
70.5219
 21
218.947
  0
LINE
  8
0
 10
70.5219
 20
218.947
 11
71.3867
 21
218.572
  0
LINE
  8
0
 10
71.3867
 20
218.572
 11
72.2263
 21
218.145
  0
LINE
  8
0
 10
72.2263
 20
218.145
 11
73.0374
 21
217.665
  0
LINE
  8
0
 10
73.0374
 20
217.665
 11
73.8168
 21
217.135
  0
LINE
  8
0
 10
73.8168
 20
217.135
 11
74.5614
 21
216.558
  0
LINE
  8
0
 10
74.5614
 20
216.558
 11
75.2682
 21
215.935
  0
LINE
  8
0
 10
75.2682
 20
215.935
 11
75.9345
 21
215.268
  0
LINE
  8
0
 10
75.9345
 20
215.268
 11
76.5577
 21
214.561
  0
LINE
  8
0
 10
76.5577
 20
214.561
 11
77.1353
 21
213.817
  0
LINE
  8
0
 10
77.1353
 20
213.817
 11
77.6649
 21
213.037
  0
LINE
  8
0
 10
77.6649
 20
213.037
 11
78.1446
 21
212.226
  0
LINE
  8
0
 10
78.1446
 20
212.226
 11
78.5724
 21
211.387
  0
LINE
  8
0
 10
78.5724
 20
211.387
 11
78.9466
 21
210.522
  0
LINE
  8
0
 10
78.9466
 20
210.522
 11
79.2658
 21
209.635
  0
LINE
  8
0
 10
79.2658
 20
209.635
 11
79.5287
 21
208.73
  0
LINE
  8
0
 10
79.5287
 20
208.73
 11
79.7343
 21
207.811
  0
LINE
  8
0
 10
79.7343
 20
207.811
 11
79.8817
 21
206.88
  0
LINE
  8
0
 10
79.8817
 20
206.88
 11
79.9704
 21
205.942
  0
LINE
  8
0
 10
79.9704
 20
205.942
 11
80
 21
205
  0
LINE
  8
0
 10
80
 20
205
 11
80
 21
170
  0
LINE
  8
0
 10
80
 20
170
 11
79.9704
 21
169.058
  0
LINE
  8
0
 10
79.9704
 20
169.058
 11
79.8817
 21
168.12
  0
LINE
  8
0
 10
79.8817
 20
168.12
 11
79.7343
 21
167.189
  0
LINE
  8
0
 10
79.7343
 20
167.189
 11
79.5287
 21
166.27
  0
LINE
  8
0
 10
79.5287
 20
166.27
 11
79.2658
 21
165.365
  0
LINE
  8
0
 10
79.2658
 20
165.365
 11
78.9466
 21
164.478
  0
LINE
  8
0
 10
78.9466
 20
164.478
 11
78.5724
 21
163.613
  0
LINE
  8
0
 10
78.5724
 20
163.613
 11
78.1446
 21
162.774
  0
LINE
  8
0
 10
78.1446
 20
162.774
 11
77.6649
 21
161.963
  0
LINE
  8
0
 10
77.6649
 20
161.963
 11
77.1353
 21
161.183
  0
LINE
  8
0
 10
77.1353
 20
161.183
 11
76.5577
 21
160.439
  0
LINE
  8
0
 10
76.5577
 20
160.439
 11
75.9345
 21
159.732
  0
LINE
  8
0
 10
75.9345
 20
159.732
 11
75.2682
 21
159.065
  0
LINE
  8
0
 10
75.2682
 20
159.065
 11
74.5614
 21
158.442
  0
LINE
  8
0
 10
74.5614
 20
158.442
 11
73.8168
 21
157.865
  0
LINE
  8
0
 10
73.8168
 20
157.865
 11
73.0374
 21
157.335
  0
LINE
  8
0
 10
73.0374
 20
157.335
 11
72.2263
 21
156.855
  0
LINE
  8
0
 10
72.2263
 20
156.855
 11
71.3867
 21
156.428
  0
LINE
  8
0
 10
71.3867
 20
156.428
 11
70.5219
 21
156.053
  0
LINE
  8
0
 10
70.5219
 20
156.053
 11
69.6353
 21
155.734
  0
LINE
  8
0
 10
69.6353
 20
155.734
 11
68.7303
 21
155.471
  0
LINE
  8
0
 10
68.7303
 20
155.471
 11
67.8107
 21
155.266
  0
LINE
  8
0
 10
67.8107
 20
155.266
 11
66.88
 21
155.118
  0
LINE
  8
0
 10
66.88
 20
155.118
 11
65.9418
 21
155.03
  0
LINE
  8
0
 10
65.9418
 20
155.03
 11
65
 21
155
  0
LINE
  8
0
 10
65
 20
155
 11
64.0581
 21
155.03
  0
LINE
  8
0
 10
204.058
 20
155.03
 11
203.12
 21
155.118
  0
LINE
  8
0
 10
203.12
 20
155.118
 11
202.189
 21
155.266
  0
LINE
  8
0
 10
202.189
 20
155.266
 11
201.27
 21
155.471
  0
LINE
  8
0
 10
201.27
 20
155.471
 11
200.365
 21
155.734
  0
LINE
  8
0
 10
200.365
 20
155.734
 11
199.478
 21
156.053
  0
LINE
  8
0
 10
199.478
 20
156.053
 11
198.613
 21
156.428
  0
LINE
  8
0
 10
198.613
 20
156.428
 11
197.774
 21
156.855
  0
LINE
  8
0
 10
197.774
 20
156.855
 11
196.963
 21
157.335
  0
LINE
  8
0
 10
196.963
 20
157.335
 11
196.183
 21
157.865
  0
LINE
  8
0
 10
196.183
 20
157.865
 11
195.439
 21
158.442
  0
LINE
  8
0
 10
195.439
 20
158.442
 11
194.732
 21
159.065
  0
LINE
  8
0
 10
194.732
 20
159.065
 11
194.065
 21
159.732
  0
LINE
  8
0
 10
194.065
 20
159.732
 11
193.442
 21
160.439
  0
LINE
  8
0
 10
193.442
 20
160.439
 11
192.865
 21
161.183
  0
LINE
  8
0
 10
192.865
 20
161.183
 11
192.335
 21
161.963
  0
LINE
  8
0
 10
192.335
 20
161.963
 11
191.855
 21
162.774
  0
LINE
  8
0
 10
191.855
 20
162.774
 11
191.428
 21
163.613
  0
LINE
  8
0
 10
191.428
 20
163.613
 11
191.053
 21
164.478
  0
LINE
  8
0
 10
191.053
 20
164.478
 11
190.734
 21
165.365
  0
LINE
  8
0
 10
190.734
 20
165.365
 11
190.471
 21
166.27
  0
LINE
  8
0
 10
190.471
 20
166.27
 11
190.266
 21
167.189
  0
LINE
  8
0
 10
190.266
 20
167.189
 11
190.118
 21
168.12
  0
LINE
  8
0
 10
190.118
 20
168.12
 11
190.03
 21
169.058
  0
LINE
  8
0
 10
190.03
 20
169.058
 11
190
 21
170
  0
LINE
  8
0
 10
190
 20
170
 11
190
 21
205
  0
LINE
  8
0
 10
190
 20
205
 11
190.03
 21
205.942
  0
LINE
  8
0
 10
190.03
 20
205.942
 11
190.118
 21
206.88
  0
LINE
  8
0
 10
190.118
 20
206.88
 11
190.266
 21
207.811
  0
LINE
  8
0
 10
190.266
 20
207.811
 11
190.471
 21
208.73
  0
LINE
  8
0
 10
190.471
 20
208.73
 11
190.734
 21
209.635
  0
LINE
  8
0
 10
190.734
 20
209.635
 11
191.053
 21
210.522
  0
LINE
  8
0
 10
191.053
 20
210.522
 11
191.428
 21
211.387
  0
LINE
  8
0
 10
191.428
 20
211.387
 11
191.855
 21
212.226
  0
LINE
  8
0
 10
191.855
 20
212.226
 11
192.335
 21
213.037
  0
LINE
  8
0
 10
192.335
 20
213.037
 11
192.865
 21
213.817
  0
LINE
  8
0
 10
192.865
 20
213.817
 11
193.442
 21
214.561
  0
LINE
  8
0
 10
193.442
 20
214.561
 11
194.065
 21
215.268
  0
LINE
  8
0
 10
194.065
 20
215.268
 11
194.732
 21
215.935
  0
LINE
  8
0
 10
194.732
 20
215.935
 11
195.439
 21
216.558
  0
LINE
  8
0
 10
195.439
 20
216.558
 11
196.183
 21
217.135
  0
LINE
  8
0
 10
196.183
 20
217.135
 11
196.963
 21
217.665
  0
LINE
  8
0
 10
196.963
 20
217.665
 11
197.774
 21
218.145
  0
LINE
  8
0
 10
197.774
 20
218.145
 11
198.613
 21
218.572
  0
LINE
  8
0
 10
198.613
 20
218.572
 11
199.478
 21
218.947
  0
LINE
  8
0
 10
199.478
 20
218.947
 11
200.365
 21
219.266
  0
LINE
  8
0
 10
200.365
 20
219.266
 11
201.27
 21
219.529
  0
LINE
  8
0
 10
201.27
 20
219.529
 11
202.189
 21
219.734
  0
LINE
  8
0
 10
202.189
 20
219.734
 11
203.12
 21
219.882
  0
LINE
  8
0
 10
203.12
 20
219.882
 11
204.058
 21
219.97
  0
LINE
  8
0
 10
204.058
 20
219.97
 11
205
 21
220
  0
LINE
  8
0
 10
205
 20
220
 11
205.942
 21
219.97
  0
LINE
  8
0
 10
205.942
 20
219.97
 11
206.88
 21
219.882
  0
LINE
  8
0
 10
206.88
 20
219.882
 11
207.811
 21
219.734
  0
LINE
  8
0
 10
207.811
 20
219.734
 11
208.73
 21
219.529
  0
LINE
  8
0
 10
208.73
 20
219.529
 11
209.635
 21
219.266
  0
LINE
  8
0
 10
209.635
 20
219.266
 11
210.522
 21
218.947
  0
LINE
  8
0
 10
210.522
 20
218.947
 11
211.387
 21
218.572
  0
LINE
  8
0
 10
211.387
 20
218.572
 11
212.226
 21
218.145
  0
LINE
  8
0
 10
212.226
 20
218.145
 11
213.037
 21
217.665
  0
LINE
  8
0
 10
213.037
 20
217.665
 11
213.817
 21
217.135
  0
LINE
  8
0
 10
213.817
 20
217.135
 11
214.561
 21
216.558
  0
LINE
  8
0
 10
214.561
 20
216.558
 11
215.268
 21
215.935
  0
LINE
  8
0
 10
215.268
 20
215.935
 11
215.935
 21
215.268
  0
LINE
  8
0
 10
215.935
 20
215.268
 11
216.558
 21
214.561
  0
LINE
  8
0
 10
216.558
 20
214.561
 11
217.135
 21
213.817
  0
LINE
  8
0
 10
217.135
 20
213.817
 11
217.665
 21
213.037
  0
LINE
  8
0
 10
217.665
 20
213.037
 11
218.145
 21
212.226
  0
LINE
  8
0
 10
218.145
 20
212.226
 11
218.572
 21
211.387
  0
LINE
  8
0
 10
218.572
 20
211.387
 11
218.947
 21
210.522
  0
LINE
  8
0
 10
218.947
 20
210.522
 11
219.266
 21
209.635
  0
LINE
  8
0
 10
219.266
 20
209.635
 11
219.529
 21
208.73
  0
LINE
  8
0
 10
219.529
 20
208.73
 11
219.734
 21
207.811
  0
LINE
  8
0
 10
219.734
 20
207.811
 11
219.882
 21
206.88
  0
LINE
  8
0
 10
219.882
 20
206.88
 11
219.97
 21
205.942
  0
LINE
  8
0
 10
219.97
 20
205.942
 11
220
 21
205
  0
LINE
  8
0
 10
220
 20
205
 11
220
 21
170
  0
LINE
  8
0
 10
220
 20
170
 11
219.97
 21
169.058
  0
LINE
  8
0
 10
219.97
 20
169.058
 11
219.882
 21
168.12
  0
LINE
  8
0
 10
219.882
 20
168.12
 11
219.734
 21
167.189
  0
LINE
  8
0
 10
219.734
 20
167.189
 11
219.529
 21
166.27
  0
LINE
  8
0
 10
219.529
 20
166.27
 11
219.266
 21
165.365
  0
LINE
  8
0
 10
219.266
 20
165.365
 11
218.947
 21
164.478
  0
LINE
  8
0
 10
218.947
 20
164.478
 11
218.572
 21
163.613
  0
LINE
  8
0
 10
218.572
 20
163.613
 11
218.145
 21
162.774
  0
LINE
  8
0
 10
218.145
 20
162.774
 11
217.665
 21
161.963
  0
LINE
  8
0
 10
217.665
 20
161.963
 11
217.135
 21
161.183
  0
LINE
  8
0
 10
217.135
 20
161.183
 11
216.558
 21
160.439
  0
LINE
  8
0
 10
216.558
 20
160.439
 11
215.935
 21
159.732
  0
LINE
  8
0
 10
215.935
 20
159.732
 11
215.268
 21
159.065
  0
LINE
  8
0
 10
215.268
 20
159.065
 11
214.561
 21
158.442
  0
LINE
  8
0
 10
214.561
 20
158.442
 11
213.817
 21
157.865
  0
LINE
  8
0
 10
213.817
 20
157.865
 11
213.037
 21
157.335
  0
LINE
  8
0
 10
213.037
 20
157.335
 11
212.226
 21
156.855
  0
LINE
  8
0
 10
212.226
 20
156.855
 11
211.387
 21
156.428
  0
LINE
  8
0
 10
211.387
 20
156.428
 11
210.522
 21
156.053
  0
LINE
  8
0
 10
210.522
 20
156.053
 11
209.635
 21
155.734
  0
LINE
  8
0
 10
209.635
 20
155.734
 11
208.73
 21
155.471
  0
LINE
  8
0
 10
208.73
 20
155.471
 11
207.811
 21
155.266
  0
LINE
  8
0
 10
207.811
 20
155.266
 11
206.88
 21
155.118
  0
LINE
  8
0
 10
206.88
 20
155.118
 11
205.942
 21
155.03
  0
LINE
  8
0
 10
205.942
 20
155.03
 11
205
 21
155
  0
LINE
  8
0
 10
205
 20
155
 11
204.058
 21
155.03
  0
LINE
  8
0
 10
239.058
 20
85.0296
 11
238.12
 21
85.1183
  0
LINE
  8
0
 10
238.12
 20
85.1183
 11
237.189
 21
85.2657
  0
LINE
  8
0
 10
237.189
 20
85.2657
 11
236.27
 21
85.4713
  0
LINE
  8
0
 10
236.27
 20
85.4713
 11
235.365
 21
85.7341
  0
LINE
  8
0
 10
235.365
 20
85.7341
 11
234.478
 21
86.0533
  0
LINE
  8
0
 10
234.478
 20
86.0533
 11
233.613
 21
86.4276
  0
LINE
  8
0
 10
233.613
 20
86.4276
 11
232.774
 21
86.8554
  0
LINE
  8
0
 10
232.774
 20
86.8554
 11
231.963
 21
87.3351
  0
LINE
  8
0
 10
231.963
 20
87.3351
 11
231.183
 21
87.8647
  0
LINE
  8
0
 10
231.183
 20
87.8647
 11
230.439
 21
88.4423
  0
LINE
  8
0
 10
230.439
 20
88.4423
 11
229.732
 21
89.0655
  0
LINE
  8
0
 10
229.732
 20
89.0655
 11
229.065
 21
89.7318
  0
LINE
  8
0
 10
229.065
 20
89.7318
 11
228.442
 21
90.4386
  0
LINE
  8
0
 10
228.442
 20
90.4386
 11
227.865
 21
91.1832
  0
LINE
  8
0
 10
227.865
 20
91.1832
 11
227.335
 21
91.9626
  0
LINE
  8
0
 10
227.335
 20
91.9626
 11
226.855
 21
92.7737
  0
LINE
  8
0
 10
226.855
 20
92.7737
 11
226.428
 21
93.6133
  0
LINE
  8
0
 10
226.428
 20
93.6133
 11
226.053
 21
94.4781
  0
LINE
  8
0
 10
226.053
 20
94.4781
 11
225.734
 21
95.3647
  0
LINE
  8
0
 10
225.734
 20
95.3647
 11
225.471
 21
96.2697
  0
LINE
  8
0
 10
225.471
 20
96.2697
 11
225.266
 21
97.1893
  0
LINE
  8
0
 10
225.266
 20
97.1893
 11
225.118
 21
98.12
  0
LINE
  8
0
 10
225.118
 20
98.12
 11
225.03
 21
99.0581
  0
LINE
  8
0
 10
225.03
 20
99.0581
 11
225
 21
100
  0
LINE
  8
0
 10
225
 20
100
 11
225
 21
205
  0
LINE
  8
0
 10
225
 20
205
 11
225.03
 21
205.942
  0
LINE
  8
0
 10
225.03
 20
205.942
 11
225.118
 21
206.88
  0
LINE
  8
0
 10
225.118
 20
206.88
 11
225.266
 21
207.811
  0
LINE
  8
0
 10
225.266
 20
207.811
 11
225.471
 21
208.73
  0
LINE
  8
0
 10
225.471
 20
208.73
 11
225.734
 21
209.635
  0
LINE
  8
0
 10
225.734
 20
209.635
 11
226.053
 21
210.522
  0
LINE
  8
0
 10
226.053
 20
210.522
 11
226.428
 21
211.387
  0
LINE
  8
0
 10
226.428
 20
211.387
 11
226.855
 21
212.226
  0
LINE
  8
0
 10
226.855
 20
212.226
 11
227.335
 21
213.037
  0
LINE
  8
0
 10
227.335
 20
213.037
 11
227.865
 21
213.817
  0
LINE
  8
0
 10
227.865
 20
213.817
 11
228.442
 21
214.561
  0
LINE
  8
0
 10
228.442
 20
214.561
 11
229.065
 21
215.268
  0
LINE
  8
0
 10
229.065
 20
215.268
 11
229.732
 21
215.935
  0
LINE
  8
0
 10
229.732
 20
215.935
 11
230.439
 21
216.558
  0
LINE
  8
0
 10
230.439
 20
216.558
 11
231.183
 21
217.135
  0
LINE
  8
0
 10
231.183
 20
217.135
 11
231.963
 21
217.665
  0
LINE
  8
0
 10
231.963
 20
217.665
 11
232.774
 21
218.145
  0
LINE
  8
0
 10
232.774
 20
218.145
 11
233.613
 21
218.572
  0
LINE
  8
0
 10
233.613
 20
218.572
 11
234.478
 21
218.947
  0
LINE
  8
0
 10
234.478
 20
218.947
 11
235.365
 21
219.266
  0
LINE
  8
0
 10
235.365
 20
219.266
 11
236.27
 21
219.529
  0
LINE
  8
0
 10
236.27
 20
219.529
 11
237.189
 21
219.734
  0
LINE
  8
0
 10
237.189
 20
219.734
 11
238.12
 21
219.882
  0
LINE
  8
0
 10
238.12
 20
219.882
 11
239.058
 21
219.97
  0
LINE
  8
0
 10
239.058
 20
219.97
 11
240
 21
220
  0
LINE
  8
0
 10
240
 20
220
 11
240.942
 21
219.97
  0
LINE
  8
0
 10
240.942
 20
219.97
 11
241.88
 21
219.882
  0
LINE
  8
0
 10
241.88
 20
219.882
 11
242.811
 21
219.734
  0
LINE
  8
0
 10
242.811
 20
219.734
 11
243.73
 21
219.529
  0
LINE
  8
0
 10
243.73
 20
219.529
 11
244.635
 21
219.266
  0
LINE
  8
0
 10
244.635
 20
219.266
 11
245.522
 21
218.947
  0
LINE
  8
0
 10
245.522
 20
218.947
 11
246.387
 21
218.572
  0
LINE
  8
0
 10
246.387
 20
218.572
 11
247.226
 21
218.145
  0
LINE
  8
0
 10
247.226
 20
218.145
 11
248.037
 21
217.665
  0
LINE
  8
0
 10
248.037
 20
217.665
 11
248.817
 21
217.135
  0
LINE
  8
0
 10
248.817
 20
217.135
 11
249.561
 21
216.558
  0
LINE
  8
0
 10
249.561
 20
216.558
 11
250.268
 21
215.935
  0
LINE
  8
0
 10
250.268
 20
215.935
 11
250.935
 21
215.268
  0
LINE
  8
0
 10
250.935
 20
215.268
 11
251.558
 21
214.561
  0
LINE
  8
0
 10
251.558
 20
214.561
 11
252.135
 21
213.817
  0
LINE
  8
0
 10
252.135
 20
213.817
 11
252.665
 21
213.037
  0
LINE
  8
0
 10
252.665
 20
213.037
 11
253.145
 21
212.226
  0
LINE
  8
0
 10
253.145
 20
212.226
 11
253.572
 21
211.387
  0
LINE
  8
0
 10
253.572
 20
211.387
 11
253.947
 21
210.522
  0
LINE
  8
0
 10
253.947
 20
210.522
 11
254.266
 21
209.635
  0
LINE
  8
0
 10
254.266
 20
209.635
 11
254.529
 21
208.73
  0
LINE
  8
0
 10
254.529
 20
208.73
 11
254.734
 21
207.811
  0
LINE
  8
0
 10
254.734
 20
207.811
 11
254.882
 21
206.88
  0
LINE
  8
0
 10
254.882
 20
206.88
 11
254.97
 21
205.942
  0
LINE
  8
0
 10
254.97
 20
205.942
 11
255
 21
205
  0
LINE
  8
0
 10
255
 20
205
 11
255
 21
100
  0
LINE
  8
0
 10
255
 20
100
 11
254.97
 21
99.0581
  0
LINE
  8
0
 10
254.97
 20
99.0581
 11
254.882
 21
98.12
  0
LINE
  8
0
 10
254.882
 20
98.12
 11
254.734
 21
97.1893
  0
LINE
  8
0
 10
254.734
 20
97.1893
 11
254.529
 21
96.2697
  0
LINE
  8
0
 10
254.529
 20
96.2697
 11
254.266
 21
95.3647
  0
LINE
  8
0
 10
254.266
 20
95.3647
 11
253.947
 21
94.4781
  0
LINE
  8
0
 10
253.947
 20
94.4781
 11
253.572
 21
93.6133
  0
LINE
  8
0
 10
253.572
 20
93.6133
 11
253.145
 21
92.7737
  0
LINE
  8
0
 10
253.145
 20
92.7737
 11
252.665
 21
91.9626
  0
LINE
  8
0
 10
252.665
 20
91.9626
 11
252.135
 21
91.1832
  0
LINE
  8
0
 10
252.135
 20
91.1832
 11
251.558
 21
90.4386
  0
LINE
  8
0
 10
251.558
 20
90.4386
 11
250.935
 21
89.7318
  0
LINE
  8
0
 10
250.935
 20
89.7318
 11
250.268
 21
89.0655
  0
LINE
  8
0
 10
250.268
 20
89.0655
 11
249.561
 21
88.4423
  0
LINE
  8
0
 10
249.561
 20
88.4423
 11
248.817
 21
87.8647
  0
LINE
  8
0
 10
248.817
 20
87.8647
 11
248.037
 21
87.3351
  0
LINE
  8
0
 10
248.037
 20
87.3351
 11
247.226
 21
86.8554
  0
LINE
  8
0
 10
247.226
 20
86.8554
 11
246.387
 21
86.4276
  0
LINE
  8
0
 10
246.387
 20
86.4276
 11
245.522
 21
86.0533
  0
LINE
  8
0
 10
245.522
 20
86.0533
 11
244.635
 21
85.7341
  0
LINE
  8
0
 10
244.635
 20
85.7341
 11
243.73
 21
85.4713
  0
LINE
  8
0
 10
243.73
 20
85.4713
 11
242.811
 21
85.2657
  0
LINE
  8
0
 10
242.811
 20
85.2657
 11
241.88
 21
85.1183
  0
LINE
  8
0
 10
241.88
 20
85.1183
 11
240.942
 21
85.0296
  0
LINE
  8
0
 10
240.942
 20
85.0296
 11
240
 21
85
  0
LINE
  8
0
 10
240
 20
85
 11
239.058
 21
85.0296
  0
LINE
  8
0
 10
99.0581
 20
85.0296
 11
98.12
 21
85.1183
  0
LINE
  8
0
 10
98.12
 20
85.1183
 11
97.1893
 21
85.2657
  0
LINE
  8
0
 10
97.1893
 20
85.2657
 11
96.2697
 21
85.4713
  0
LINE
  8
0
 10
96.2697
 20
85.4713
 11
95.3647
 21
85.7341
  0
LINE
  8
0
 10
95.3647
 20
85.7341
 11
94.4781
 21
86.0533
  0
LINE
  8
0
 10
94.4781
 20
86.0533
 11
93.6133
 21
86.4276
  0
LINE
  8
0
 10
93.6133
 20
86.4276
 11
92.7737
 21
86.8554
  0
LINE
  8
0
 10
92.7737
 20
86.8554
 11
91.9626
 21
87.3351
  0
LINE
  8
0
 10
91.9626
 20
87.3351
 11
91.1832
 21
87.8647
  0
LINE
  8
0
 10
91.1832
 20
87.8647
 11
90.4386
 21
88.4423
  0
LINE
  8
0
 10
90.4386
 20
88.4423
 11
89.7318
 21
89.0655
  0
LINE
  8
0
 10
89.7318
 20
89.0655
 11
89.0655
 21
89.7318
  0
LINE
  8
0
 10
89.0655
 20
89.7318
 11
88.4423
 21
90.4386
  0
LINE
  8
0
 10
88.4423
 20
90.4386
 11
87.8647
 21
91.1832
  0
LINE
  8
0
 10
87.8647
 20
91.1832
 11
87.3351
 21
91.9626
  0
LINE
  8
0
 10
87.3351
 20
91.9626
 11
86.8554
 21
92.7737
  0
LINE
  8
0
 10
86.8554
 20
92.7737
 11
86.4276
 21
93.6133
  0
LINE
  8
0
 10
86.4276
 20
93.6133
 11
86.0533
 21
94.4781
  0
LINE
  8
0
 10
86.0533
 20
94.4781
 11
85.7341
 21
95.3647
  0
LINE
  8
0
 10
85.7341
 20
95.3647
 11
85.4713
 21
96.2697
  0
LINE
  8
0
 10
85.4713
 20
96.2697
 11
85.2657
 21
97.1893
  0
LINE
  8
0
 10
85.2657
 20
97.1893
 11
85.1183
 21
98.12
  0
LINE
  8
0
 10
85.1183
 20
98.12
 11
85.0296
 21
99.0581
  0
LINE
  8
0
 10
85.0296
 20
99.0581
 11
85
 21
100
  0
LINE
  8
0
 10
85
 20
100
 11
85
 21
205
  0
LINE
  8
0
 10
85
 20
205
 11
85.0296
 21
205.942
  0
LINE
  8
0
 10
85.0296
 20
205.942
 11
85.1183
 21
206.88
  0
LINE
  8
0
 10
85.1183
 20
206.88
 11
85.2657
 21
207.811
  0
LINE
  8
0
 10
85.2657
 20
207.811
 11
85.4713
 21
208.73
  0
LINE
  8
0
 10
85.4713
 20
208.73
 11
85.7341
 21
209.635
  0
LINE
  8
0
 10
85.7341
 20
209.635
 11
86.0533
 21
210.522
  0
LINE
  8
0
 10
86.0533
 20
210.522
 11
86.4276
 21
211.387
  0
LINE
  8
0
 10
86.4276
 20
211.387
 11
86.8554
 21
212.226
  0
LINE
  8
0
 10
86.8554
 20
212.226
 11
87.3351
 21
213.037
  0
LINE
  8
0
 10
87.3351
 20
213.037
 11
87.8647
 21
213.817
  0
LINE
  8
0
 10
87.8647
 20
213.817
 11
88.4423
 21
214.561
  0
LINE
  8
0
 10
88.4423
 20
214.561
 11
89.0655
 21
215.268
  0
LINE
  8
0
 10
89.0655
 20
215.268
 11
89.7318
 21
215.935
  0
LINE
  8
0
 10
89.7318
 20
215.935
 11
90.4386
 21
216.558
  0
LINE
  8
0
 10
90.4386
 20
216.558
 11
91.1832
 21
217.135
  0
LINE
  8
0
 10
91.1832
 20
217.135
 11
91.9626
 21
217.665
  0
LINE
  8
0
 10
91.9626
 20
217.665
 11
92.7737
 21
218.145
  0
LINE
  8
0
 10
92.7737
 20
218.145
 11
93.6133
 21
218.572
  0
LINE
  8
0
 10
93.6133
 20
218.572
 11
94.4781
 21
218.947
  0
LINE
  8
0
 10
94.4781
 20
218.947
 11
95.3647
 21
219.266
  0
LINE
  8
0
 10
95.3647
 20
219.266
 11
96.2697
 21
219.529
  0
LINE
  8
0
 10
96.2697
 20
219.529
 11
97.1893
 21
219.734
  0
LINE
  8
0
 10
97.1893
 20
219.734
 11
98.12
 21
219.882
  0
LINE
  8
0
 10
98.12
 20
219.882
 11
99.0581
 21
219.97
  0
LINE
  8
0
 10
99.0581
 20
219.97
 11
100
 21
220
  0
LINE
  8
0
 10
100
 20
220
 11
100.942
 21
219.97
  0
LINE
  8
0
 10
100.942
 20
219.97
 11
101.88
 21
219.882
  0
LINE
  8
0
 10
101.88
 20
219.882
 11
102.811
 21
219.734
  0
LINE
  8
0
 10
102.811
 20
219.734
 11
103.73
 21
219.529
  0
LINE
  8
0
 10
103.73
 20
219.529
 11
104.635
 21
219.266
  0
LINE
  8
0
 10
104.635
 20
219.266
 11
105.522
 21
218.947
  0
LINE
  8
0
 10
105.522
 20
218.947
 11
106.387
 21
218.572
  0
LINE
  8
0
 10
106.387
 20
218.572
 11
107.226
 21
218.145
  0
LINE
  8
0
 10
107.226
 20
218.145
 11
108.037
 21
217.665
  0
LINE
  8
0
 10
108.037
 20
217.665
 11
108.817
 21
217.135
  0
LINE
  8
0
 10
108.817
 20
217.135
 11
109.561
 21
216.558
  0
LINE
  8
0
 10
109.561
 20
216.558
 11
110.268
 21
215.935
  0
LINE
  8
0
 10
110.268
 20
215.935
 11
110.935
 21
215.268
  0
LINE
  8
0
 10
110.935
 20
215.268
 11
111.558
 21
214.561
  0
LINE
  8
0
 10
111.558
 20
214.561
 11
112.135
 21
213.817
  0
LINE
  8
0
 10
112.135
 20
213.817
 11
112.665
 21
213.037
  0
LINE
  8
0
 10
112.665
 20
213.037
 11
113.145
 21
212.226
  0
LINE
  8
0
 10
113.145
 20
212.226
 11
113.572
 21
211.387
  0
LINE
  8
0
 10
113.572
 20
211.387
 11
113.947
 21
210.522
  0
LINE
  8
0
 10
113.947
 20
210.522
 11
114.266
 21
209.635
  0
LINE
  8
0
 10
114.266
 20
209.635
 11
114.529
 21
208.73
  0
LINE
  8
0
 10
114.529
 20
208.73
 11
114.734
 21
207.811
  0
LINE
  8
0
 10
114.734
 20
207.811
 11
114.882
 21
206.88
  0
LINE
  8
0
 10
114.882
 20
206.88
 11
114.97
 21
205.942
  0
LINE
  8
0
 10
114.97
 20
205.942
 11
115
 21
205
  0
LINE
  8
0
 10
115
 20
205
 11
115
 21
100
  0
LINE
  8
0
 10
115
 20
100
 11
114.97
 21
99.0581
  0
LINE
  8
0
 10
114.97
 20
99.0581
 11
114.882
 21
98.12
  0
LINE
  8
0
 10
114.882
 20
98.12
 11
114.734
 21
97.1893
  0
LINE
  8
0
 10
114.734
 20
97.1893
 11
114.529
 21
96.2697
  0
LINE
  8
0
 10
114.529
 20
96.2697
 11
114.266
 21
95.3647
  0
LINE
  8
0
 10
114.266
 20
95.3647
 11
113.947
 21
94.4781
  0
LINE
  8
0
 10
113.947
 20
94.4781
 11
113.572
 21
93.6133
  0
LINE
  8
0
 10
113.572
 20
93.6133
 11
113.145
 21
92.7737
  0
LINE
  8
0
 10
113.145
 20
92.7737
 11
112.665
 21
91.9626
  0
LINE
  8
0
 10
112.665
 20
91.9626
 11
112.135
 21
91.1832
  0
LINE
  8
0
 10
112.135
 20
91.1832
 11
111.558
 21
90.4386
  0
LINE
  8
0
 10
111.558
 20
90.4386
 11
110.935
 21
89.7318
  0
LINE
  8
0
 10
110.935
 20
89.7318
 11
110.268
 21
89.0655
  0
LINE
  8
0
 10
110.268
 20
89.0655
 11
109.561
 21
88.4423
  0
LINE
  8
0
 10
109.561
 20
88.4423
 11
108.817
 21
87.8647
  0
LINE
  8
0
 10
108.817
 20
87.8647
 11
108.037
 21
87.3351
  0
LINE
  8
0
 10
108.037
 20
87.3351
 11
107.226
 21
86.8554
  0
LINE
  8
0
 10
107.226
 20
86.8554
 11
106.387
 21
86.4276
  0
LINE
  8
0
 10
106.387
 20
86.4276
 11
105.522
 21
86.0533
  0
LINE
  8
0
 10
105.522
 20
86.0533
 11
104.635
 21
85.7341
  0
LINE
  8
0
 10
104.635
 20
85.7341
 11
103.73
 21
85.4713
  0
LINE
  8
0
 10
103.73
 20
85.4713
 11
102.811
 21
85.2657
  0
LINE
  8
0
 10
102.811
 20
85.2657
 11
101.88
 21
85.1183
  0
LINE
  8
0
 10
101.88
 20
85.1183
 11
100.942
 21
85.0296
  0
LINE
  8
0
 10
100.942
 20
85.0296
 11
100
 21
85
  0
LINE
  8
0
 10
100
 20
85
 11
99.0581
 21
85.0296
  0
LINE
  8
0
 10
134.058
 20
155.03
 11
133.12
 21
155.118
  0
LINE
  8
0
 10
133.12
 20
155.118
 11
132.189
 21
155.266
  0
LINE
  8
0
 10
132.189
 20
155.266
 11
131.27
 21
155.471
  0
LINE
  8
0
 10
131.27
 20
155.471
 11
130.365
 21
155.734
  0
LINE
  8
0
 10
130.365
 20
155.734
 11
129.478
 21
156.053
  0
LINE
  8
0
 10
129.478
 20
156.053
 11
128.613
 21
156.428
  0
LINE
  8
0
 10
128.613
 20
156.428
 11
127.774
 21
156.855
  0
LINE
  8
0
 10
127.774
 20
156.855
 11
126.963
 21
157.335
  0
LINE
  8
0
 10
126.963
 20
157.335
 11
126.183
 21
157.865
  0
LINE
  8
0
 10
126.183
 20
157.865
 11
125.439
 21
158.442
  0
LINE
  8
0
 10
125.439
 20
158.442
 11
124.732
 21
159.065
  0
LINE
  8
0
 10
124.732
 20
159.065
 11
124.065
 21
159.732
  0
LINE
  8
0
 10
124.065
 20
159.732
 11
123.442
 21
160.439
  0
LINE
  8
0
 10
123.442
 20
160.439
 11
122.865
 21
161.183
  0
LINE
  8
0
 10
122.865
 20
161.183
 11
122.335
 21
161.963
  0
LINE
  8
0
 10
122.335
 20
161.963
 11
121.855
 21
162.774
  0
LINE
  8
0
 10
121.855
 20
162.774
 11
121.428
 21
163.613
  0
LINE
  8
0
 10
121.428
 20
163.613
 11
121.053
 21
164.478
  0
LINE
  8
0
 10
121.053
 20
164.478
 11
120.734
 21
165.365
  0
LINE
  8
0
 10
120.734
 20
165.365
 11
120.471
 21
166.27
  0
LINE
  8
0
 10
120.471
 20
166.27
 11
120.266
 21
167.189
  0
LINE
  8
0
 10
120.266
 20
167.189
 11
120.118
 21
168.12
  0
LINE
  8
0
 10
120.118
 20
168.12
 11
120.03
 21
169.058
  0
LINE
  8
0
 10
120.03
 20
169.058
 11
120
 21
170
  0
LINE
  8
0
 10
120
 20
170
 11
120
 21
205
  0
LINE
  8
0
 10
120
 20
205
 11
120.03
 21
205.942
  0
LINE
  8
0
 10
120.03
 20
205.942
 11
120.118
 21
206.88
  0
LINE
  8
0
 10
120.118
 20
206.88
 11
120.266
 21
207.811
  0
LINE
  8
0
 10
120.266
 20
207.811
 11
120.471
 21
208.73
  0
LINE
  8
0
 10
120.471
 20
208.73
 11
120.734
 21
209.635
  0
LINE
  8
0
 10
120.734
 20
209.635
 11
121.053
 21
210.522
  0
LINE
  8
0
 10
121.053
 20
210.522
 11
121.428
 21
211.387
  0
LINE
  8
0
 10
121.428
 20
211.387
 11
121.855
 21
212.226
  0
LINE
  8
0
 10
121.855
 20
212.226
 11
122.335
 21
213.037
  0
LINE
  8
0
 10
122.335
 20
213.037
 11
122.865
 21
213.817
  0
LINE
  8
0
 10
122.865
 20
213.817
 11
123.442
 21
214.561
  0
LINE
  8
0
 10
123.442
 20
214.561
 11
124.065
 21
215.268
  0
LINE
  8
0
 10
124.065
 20
215.268
 11
124.732
 21
215.935
  0
LINE
  8
0
 10
124.732
 20
215.935
 11
125.439
 21
216.558
  0
LINE
  8
0
 10
125.439
 20
216.558
 11
126.183
 21
217.135
  0
LINE
  8
0
 10
126.183
 20
217.135
 11
126.963
 21
217.665
  0
LINE
  8
0
 10
126.963
 20
217.665
 11
127.774
 21
218.145
  0
LINE
  8
0
 10
127.774
 20
218.145
 11
128.613
 21
218.572
  0
LINE
  8
0
 10
128.613
 20
218.572
 11
129.478
 21
218.947
  0
LINE
  8
0
 10
129.478
 20
218.947
 11
130.365
 21
219.266
  0
LINE
  8
0
 10
130.365
 20
219.266
 11
131.27
 21
219.529
  0
LINE
  8
0
 10
131.27
 20
219.529
 11
132.189
 21
219.734
  0
LINE
  8
0
 10
132.189
 20
219.734
 11
133.12
 21
219.882
  0
LINE
  8
0
 10
133.12
 20
219.882
 11
134.058
 21
219.97
  0
LINE
  8
0
 10
134.058
 20
219.97
 11
135
 21
220
  0
LINE
  8
0
 10
135
 20
220
 11
135.942
 21
219.97
  0
LINE
  8
0
 10
135.942
 20
219.97
 11
136.88
 21
219.882
  0
LINE
  8
0
 10
136.88
 20
219.882
 11
137.811
 21
219.734
  0
LINE
  8
0
 10
137.811
 20
219.734
 11
138.73
 21
219.529
  0
LINE
  8
0
 10
138.73
 20
219.529
 11
139.635
 21
219.266
  0
LINE
  8
0
 10
139.635
 20
219.266
 11
140.522
 21
218.947
  0
LINE
  8
0
 10
140.522
 20
218.947
 11
141.387
 21
218.572
  0
LINE
  8
0
 10
141.387
 20
218.572
 11
142.226
 21
218.145
  0
LINE
  8
0
 10
142.226
 20
218.145
 11
143.037
 21
217.665
  0
LINE
  8
0
 10
143.037
 20
217.665
 11
143.817
 21
217.135
  0
LINE
  8
0
 10
143.817
 20
217.135
 11
144.561
 21
216.558
  0
LINE
  8
0
 10
144.561
 20
216.558
 11
145.268
 21
215.935
  0
LINE
  8
0
 10
145.268
 20
215.935
 11
145.935
 21
215.268
  0
LINE
  8
0
 10
145.935
 20
215.268
 11
146.558
 21
214.561
  0
LINE
  8
0
 10
146.558
 20
214.561
 11
147.135
 21
213.817
  0
LINE
  8
0
 10
147.135
 20
213.817
 11
147.665
 21
213.037
  0
LINE
  8
0
 10
147.665
 20
213.037
 11
148.145
 21
212.226
  0
LINE
  8
0
 10
148.145
 20
212.226
 11
148.572
 21
211.387
  0
LINE
  8
0
 10
148.572
 20
211.387
 11
148.947
 21
210.522
  0
LINE
  8
0
 10
148.947
 20
210.522
 11
149.266
 21
209.635
  0
LINE
  8
0
 10
149.266
 20
209.635
 11
149.529
 21
208.73
  0
LINE
  8
0
 10
149.529
 20
208.73
 11
149.734
 21
207.811
  0
LINE
  8
0
 10
149.734
 20
207.811
 11
149.882
 21
206.88
  0
LINE
  8
0
 10
149.882
 20
206.88
 11
149.97
 21
205.942
  0
LINE
  8
0
 10
149.97
 20
205.942
 11
150
 21
205
  0
LINE
  8
0
 10
150
 20
205
 11
150
 21
170
  0
LINE
  8
0
 10
150
 20
170
 11
149.97
 21
169.058
  0
LINE
  8
0
 10
149.97
 20
169.058
 11
149.882
 21
168.12
  0
LINE
  8
0
 10
149.882
 20
168.12
 11
149.734
 21
167.189
  0
LINE
  8
0
 10
149.734
 20
167.189
 11
149.529
 21
166.27
  0
LINE
  8
0
 10
149.529
 20
166.27
 11
149.266
 21
165.365
  0
LINE
  8
0
 10
149.266
 20
165.365
 11
148.947
 21
164.478
  0
LINE
  8
0
 10
148.947
 20
164.478
 11
148.572
 21
163.613
  0
LINE
  8
0
 10
148.572
 20
163.613
 11
148.145
 21
162.774
  0
LINE
  8
0
 10
148.145
 20
162.774
 11
147.665
 21
161.963
  0
LINE
  8
0
 10
147.665
 20
161.963
 11
147.135
 21
161.183
  0
LINE
  8
0
 10
147.135
 20
161.183
 11
146.558
 21
160.439
  0
LINE
  8
0
 10
146.558
 20
160.439
 11
145.935
 21
159.732
  0
LINE
  8
0
 10
145.935
 20
159.732
 11
145.268
 21
159.065
  0
LINE
  8
0
 10
145.268
 20
159.065
 11
144.561
 21
158.442
  0
LINE
  8
0
 10
144.561
 20
158.442
 11
143.817
 21
157.865
  0
LINE
  8
0
 10
143.817
 20
157.865
 11
143.037
 21
157.335
  0
LINE
  8
0
 10
143.037
 20
157.335
 11
142.226
 21
156.855
  0
LINE
  8
0
 10
142.226
 20
156.855
 11
141.387
 21
156.428
  0
LINE
  8
0
 10
141.387
 20
156.428
 11
140.522
 21
156.053
  0
LINE
  8
0
 10
140.522
 20
156.053
 11
139.635
 21
155.734
  0
LINE
  8
0
 10
139.635
 20
155.734
 11
138.73
 21
155.471
  0
LINE
  8
0
 10
138.73
 20
155.471
 11
137.811
 21
155.266
  0
LINE
  8
0
 10
137.811
 20
155.266
 11
136.88
 21
155.118
  0
LINE
  8
0
 10
136.88
 20
155.118
 11
135.942
 21
155.03
  0
LINE
  8
0
 10
135.942
 20
155.03
 11
135
 21
155
  0
LINE
  8
0
 10
135
 20
155
 11
134.058
 21
155.03
  0
LINE
  8
0
 10
169.058
 20
85.0296
 11
168.12
 21
85.1183
  0
LINE
  8
0
 10
168.12
 20
85.1183
 11
167.189
 21
85.2657
  0
LINE
  8
0
 10
167.189
 20
85.2657
 11
166.27
 21
85.4713
  0
LINE
  8
0
 10
166.27
 20
85.4713
 11
165.365
 21
85.7341
  0
LINE
  8
0
 10
165.365
 20
85.7341
 11
164.478
 21
86.0533
  0
LINE
  8
0
 10
164.478
 20
86.0533
 11
163.613
 21
86.4276
  0
LINE
  8
0
 10
163.613
 20
86.4276
 11
162.774
 21
86.8554
  0
LINE
  8
0
 10
162.774
 20
86.8554
 11
161.963
 21
87.3351
  0
LINE
  8
0
 10
161.963
 20
87.3351
 11
161.183
 21
87.8647
  0
LINE
  8
0
 10
161.183
 20
87.8647
 11
160.439
 21
88.4423
  0
LINE
  8
0
 10
160.439
 20
88.4423
 11
159.732
 21
89.0655
  0
LINE
  8
0
 10
159.732
 20
89.0655
 11
159.065
 21
89.7318
  0
LINE
  8
0
 10
159.065
 20
89.7318
 11
158.442
 21
90.4386
  0
LINE
  8
0
 10
158.442
 20
90.4386
 11
157.865
 21
91.1832
  0
LINE
  8
0
 10
157.865
 20
91.1832
 11
157.335
 21
91.9626
  0
LINE
  8
0
 10
157.335
 20
91.9626
 11
156.855
 21
92.7737
  0
LINE
  8
0
 10
156.855
 20
92.7737
 11
156.428
 21
93.6133
  0
LINE
  8
0
 10
156.428
 20
93.6133
 11
156.053
 21
94.4781
  0
LINE
  8
0
 10
156.053
 20
94.4781
 11
155.734
 21
95.3647
  0
LINE
  8
0
 10
155.734
 20
95.3647
 11
155.471
 21
96.2697
  0
LINE
  8
0
 10
155.471
 20
96.2697
 11
155.266
 21
97.1893
  0
LINE
  8
0
 10
155.266
 20
97.1893
 11
155.118
 21
98.12
  0
LINE
  8
0
 10
155.118
 20
98.12
 11
155.03
 21
99.0581
  0
LINE
  8
0
 10
155.03
 20
99.0581
 11
155
 21
100
  0
LINE
  8
0
 10
155
 20
100
 11
155
 21
205
  0
LINE
  8
0
 10
155
 20
205
 11
155.03
 21
205.942
  0
LINE
  8
0
 10
155.03
 20
205.942
 11
155.118
 21
206.88
  0
LINE
  8
0
 10
155.118
 20
206.88
 11
155.266
 21
207.811
  0
LINE
  8
0
 10
155.266
 20
207.811
 11
155.471
 21
208.73
  0
LINE
  8
0
 10
155.471
 20
208.73
 11
155.734
 21
209.635
  0
LINE
  8
0
 10
155.734
 20
209.635
 11
156.053
 21
210.522
  0
LINE
  8
0
 10
156.053
 20
210.522
 11
156.428
 21
211.387
  0
LINE
  8
0
 10
156.428
 20
211.387
 11
156.855
 21
212.226
  0
LINE
  8
0
 10
156.855
 20
212.226
 11
157.335
 21
213.037
  0
LINE
  8
0
 10
157.335
 20
213.037
 11
157.865
 21
213.817
  0
LINE
  8
0
 10
157.865
 20
213.817
 11
158.442
 21
214.561
  0
LINE
  8
0
 10
158.442
 20
214.561
 11
159.065
 21
215.268
  0
LINE
  8
0
 10
159.065
 20
215.268
 11
159.732
 21
215.935
  0
LINE
  8
0
 10
159.732
 20
215.935
 11
160.439
 21
216.558
  0
LINE
  8
0
 10
160.439
 20
216.558
 11
161.183
 21
217.135
  0
LINE
  8
0
 10
161.183
 20
217.135
 11
161.963
 21
217.665
  0
LINE
  8
0
 10
161.963
 20
217.665
 11
162.774
 21
218.145
  0
LINE
  8
0
 10
162.774
 20
218.145
 11
163.613
 21
218.572
  0
LINE
  8
0
 10
163.613
 20
218.572
 11
164.478
 21
218.947
  0
LINE
  8
0
 10
164.478
 20
218.947
 11
165.365
 21
219.266
  0
LINE
  8
0
 10
165.365
 20
219.266
 11
166.27
 21
219.529
  0
LINE
  8
0
 10
166.27
 20
219.529
 11
167.189
 21
219.734
  0
LINE
  8
0
 10
167.189
 20
219.734
 11
168.12
 21
219.882
  0
LINE
  8
0
 10
168.12
 20
219.882
 11
169.058
 21
219.97
  0
LINE
  8
0
 10
169.058
 20
219.97
 11
170
 21
220
  0
LINE
  8
0
 10
170
 20
220
 11
170.942
 21
219.97
  0
LINE
  8
0
 10
170.942
 20
219.97
 11
171.88
 21
219.882
  0
LINE
  8
0
 10
171.88
 20
219.882
 11
172.811
 21
219.734
  0
LINE
  8
0
 10
172.811
 20
219.734
 11
173.73
 21
219.529
  0
LINE
  8
0
 10
173.73
 20
219.529
 11
174.635
 21
219.266
  0
LINE
  8
0
 10
174.635
 20
219.266
 11
175.522
 21
218.947
  0
LINE
  8
0
 10
175.522
 20
218.947
 11
176.387
 21
218.572
  0
LINE
  8
0
 10
176.387
 20
218.572
 11
177.226
 21
218.145
  0
LINE
  8
0
 10
177.226
 20
218.145
 11
178.037
 21
217.665
  0
LINE
  8
0
 10
178.037
 20
217.665
 11
178.817
 21
217.135
  0
LINE
  8
0
 10
178.817
 20
217.135
 11
179.561
 21
216.558
  0
LINE
  8
0
 10
179.561
 20
216.558
 11
180.268
 21
215.935
  0
LINE
  8
0
 10
180.268
 20
215.935
 11
180.935
 21
215.268
  0
LINE
  8
0
 10
180.935
 20
215.268
 11
181.558
 21
214.561
  0
LINE
  8
0
 10
181.558
 20
214.561
 11
182.135
 21
213.817
  0
LINE
  8
0
 10
182.135
 20
213.817
 11
182.665
 21
213.037
  0
LINE
  8
0
 10
182.665
 20
213.037
 11
183.145
 21
212.226
  0
LINE
  8
0
 10
183.145
 20
212.226
 11
183.572
 21
211.387
  0
LINE
  8
0
 10
183.572
 20
211.387
 11
183.947
 21
210.522
  0
LINE
  8
0
 10
183.947
 20
210.522
 11
184.266
 21
209.635
  0
LINE
  8
0
 10
184.266
 20
209.635
 11
184.529
 21
208.73
  0
LINE
  8
0
 10
184.529
 20
208.73
 11
184.734
 21
207.811
  0
LINE
  8
0
 10
184.734
 20
207.811
 11
184.882
 21
206.88
  0
LINE
  8
0
 10
184.882
 20
206.88
 11
184.97
 21
205.942
  0
LINE
  8
0
 10
184.97
 20
205.942
 11
185
 21
205
  0
LINE
  8
0
 10
185
 20
205
 11
185
 21
100
  0
LINE
  8
0
 10
185
 20
100
 11
184.97
 21
99.0581
  0
LINE
  8
0
 10
184.97
 20
99.0581
 11
184.882
 21
98.12
  0
LINE
  8
0
 10
184.882
 20
98.12
 11
184.734
 21
97.1893
  0
LINE
  8
0
 10
184.734
 20
97.1893
 11
184.529
 21
96.2697
  0
LINE
  8
0
 10
184.529
 20
96.2697
 11
184.266
 21
95.3647
  0
LINE
  8
0
 10
184.266
 20
95.3647
 11
183.947
 21
94.4781
  0
LINE
  8
0
 10
183.947
 20
94.4781
 11
183.572
 21
93.6133
  0
LINE
  8
0
 10
183.572
 20
93.6133
 11
183.145
 21
92.7737
  0
LINE
  8
0
 10
183.145
 20
92.7737
 11
182.665
 21
91.9626
  0
LINE
  8
0
 10
182.665
 20
91.9626
 11
182.135
 21
91.1832
  0
LINE
  8
0
 10
182.135
 20
91.1832
 11
181.558
 21
90.4386
  0
LINE
  8
0
 10
181.558
 20
90.4386
 11
180.935
 21
89.7318
  0
LINE
  8
0
 10
180.935
 20
89.7318
 11
180.268
 21
89.0655
  0
LINE
  8
0
 10
180.268
 20
89.0655
 11
179.561
 21
88.4423
  0
LINE
  8
0
 10
179.561
 20
88.4423
 11
178.817
 21
87.8647
  0
LINE
  8
0
 10
178.817
 20
87.8647
 11
178.037
 21
87.3351
  0
LINE
  8
0
 10
178.037
 20
87.3351
 11
177.226
 21
86.8554
  0
LINE
  8
0
 10
177.226
 20
86.8554
 11
176.387
 21
86.4276
  0
LINE
  8
0
 10
176.387
 20
86.4276
 11
175.522
 21
86.0533
  0
LINE
  8
0
 10
175.522
 20
86.0533
 11
174.635
 21
85.7341
  0
LINE
  8
0
 10
174.635
 20
85.7341
 11
173.73
 21
85.4713
  0
LINE
  8
0
 10
173.73
 20
85.4713
 11
172.811
 21
85.2657
  0
LINE
  8
0
 10
172.811
 20
85.2657
 11
171.88
 21
85.1183
  0
LINE
  8
0
 10
171.88
 20
85.1183
 11
170.942
 21
85.0296
  0
LINE
  8
0
 10
170.942
 20
85.0296
 11
170
 21
85
  0
LINE
  8
0
 10
170
 20
85
 11
169.058
 21
85.0296
  0
LINE
  8
0
 10
29.0581
 20
85.0296
 11
28.12
 21
85.1183
  0
LINE
  8
0
 10
28.12
 20
85.1183
 11
27.1893
 21
85.2657
  0
LINE
  8
0
 10
27.1893
 20
85.2657
 11
26.2696
 21
85.4713
  0
LINE
  8
0
 10
26.2696
 20
85.4713
 11
25.3647
 21
85.7341
  0
LINE
  8
0
 10
25.3647
 20
85.7341
 11
24.4781
 21
86.0533
  0
LINE
  8
0
 10
24.4781
 20
86.0533
 11
23.6133
 21
86.4276
  0
LINE
  8
0
 10
23.6133
 20
86.4276
 11
22.7737
 21
86.8554
  0
LINE
  8
0
 10
22.7737
 20
86.8554
 11
21.9626
 21
87.3351
  0
LINE
  8
0
 10
21.9626
 20
87.3351
 11
21.1832
 21
87.8647
  0
LINE
  8
0
 10
21.1832
 20
87.8647
 11
20.4386
 21
88.4423
  0
LINE
  8
0
 10
20.4386
 20
88.4423
 11
19.7318
 21
89.0655
  0
LINE
  8
0
 10
19.7318
 20
89.0655
 11
19.0655
 21
89.7318
  0
LINE
  8
0
 10
19.0655
 20
89.7318
 11
18.4423
 21
90.4386
  0
LINE
  8
0
 10
18.4423
 20
90.4386
 11
17.8647
 21
91.1832
  0
LINE
  8
0
 10
17.8647
 20
91.1832
 11
17.3351
 21
91.9626
  0
LINE
  8
0
 10
17.3351
 20
91.9626
 11
16.8554
 21
92.7737
  0
LINE
  8
0
 10
16.8554
 20
92.7737
 11
16.4276
 21
93.6133
  0
LINE
  8
0
 10
16.4276
 20
93.6133
 11
16.0533
 21
94.4781
  0
LINE
  8
0
 10
16.0533
 20
94.4781
 11
15.7341
 21
95.3647
  0
LINE
  8
0
 10
15.7341
 20
95.3647
 11
15.4713
 21
96.2697
  0
LINE
  8
0
 10
15.4713
 20
96.2697
 11
15.2657
 21
97.1893
  0
LINE
  8
0
 10
15.2657
 20
97.1893
 11
15.1183
 21
98.12
  0
LINE
  8
0
 10
15.1183
 20
98.12
 11
15.0296
 21
99.0581
  0
LINE
  8
0
 10
15.0296
 20
99.0581
 11
15
 21
100
  0
LINE
  8
0
 10
15
 20
100
 11
15
 21
205
  0
LINE
  8
0
 10
15
 20
205
 11
15.0296
 21
205.942
  0
LINE
  8
0
 10
15.0296
 20
205.942
 11
15.1183
 21
206.88
  0
LINE
  8
0
 10
15.1183
 20
206.88
 11
15.2657
 21
207.811
  0
LINE
  8
0
 10
15.2657
 20
207.811
 11
15.4713
 21
208.73
  0
LINE
  8
0
 10
15.4713
 20
208.73
 11
15.7341
 21
209.635
  0
LINE
  8
0
 10
15.7341
 20
209.635
 11
16.0533
 21
210.522
  0
LINE
  8
0
 10
16.0533
 20
210.522
 11
16.4276
 21
211.387
  0
LINE
  8
0
 10
16.4276
 20
211.387
 11
16.8554
 21
212.226
  0
LINE
  8
0
 10
16.8554
 20
212.226
 11
17.3351
 21
213.037
  0
LINE
  8
0
 10
17.3351
 20
213.037
 11
17.8647
 21
213.817
  0
LINE
  8
0
 10
17.8647
 20
213.817
 11
18.4423
 21
214.561
  0
LINE
  8
0
 10
18.4423
 20
214.561
 11
19.0655
 21
215.268
  0
LINE
  8
0
 10
19.0655
 20
215.268
 11
19.7318
 21
215.935
  0
LINE
  8
0
 10
19.7318
 20
215.935
 11
20.4386
 21
216.558
  0
LINE
  8
0
 10
20.4386
 20
216.558
 11
21.1832
 21
217.135
  0
LINE
  8
0
 10
21.1832
 20
217.135
 11
21.9626
 21
217.665
  0
LINE
  8
0
 10
21.9626
 20
217.665
 11
22.7737
 21
218.145
  0
LINE
  8
0
 10
22.7737
 20
218.145
 11
23.6133
 21
218.572
  0
LINE
  8
0
 10
23.6133
 20
218.572
 11
24.4781
 21
218.947
  0
LINE
  8
0
 10
24.4781
 20
218.947
 11
25.3647
 21
219.266
  0
LINE
  8
0
 10
25.3647
 20
219.266
 11
26.2696
 21
219.529
  0
LINE
  8
0
 10
26.2696
 20
219.529
 11
27.1893
 21
219.734
  0
LINE
  8
0
 10
27.1893
 20
219.734
 11
28.12
 21
219.882
  0
LINE
  8
0
 10
28.12
 20
219.882
 11
29.0581
 21
219.97
  0
LINE
  8
0
 10
29.0581
 20
219.97
 11
30
 21
220
  0
LINE
  8
0
 10
30
 20
220
 11
30.9418
 21
219.97
  0
LINE
  8
0
 10
30.9418
 20
219.97
 11
31.88
 21
219.882
  0
LINE
  8
0
 10
31.88
 20
219.882
 11
32.8107
 21
219.734
  0
LINE
  8
0
 10
32.8107
 20
219.734
 11
33.7303
 21
219.529
  0
LINE
  8
0
 10
33.7303
 20
219.529
 11
34.6353
 21
219.266
  0
LINE
  8
0
 10
34.6353
 20
219.266
 11
35.5219
 21
218.947
  0
LINE
  8
0
 10
35.5219
 20
218.947
 11
36.3867
 21
218.572
  0
LINE
  8
0
 10
36.3867
 20
218.572
 11
37.2263
 21
218.145
  0
LINE
  8
0
 10
37.2263
 20
218.145
 11
38.0374
 21
217.665
  0
LINE
  8
0
 10
38.0374
 20
217.665
 11
38.8168
 21
217.135
  0
LINE
  8
0
 10
38.8168
 20
217.135
 11
39.5614
 21
216.558
  0
LINE
  8
0
 10
39.5614
 20
216.558
 11
40.2682
 21
215.935
  0
LINE
  8
0
 10
40.2682
 20
215.935
 11
40.9345
 21
215.268
  0
LINE
  8
0
 10
40.9345
 20
215.268
 11
41.5577
 21
214.561
  0
LINE
  8
0
 10
41.5577
 20
214.561
 11
42.1353
 21
213.817
  0
LINE
  8
0
 10
42.1353
 20
213.817
 11
42.6649
 21
213.037
  0
LINE
  8
0
 10
42.6649
 20
213.037
 11
43.1446
 21
212.226
  0
LINE
  8
0
 10
43.1446
 20
212.226
 11
43.5724
 21
211.387
  0
LINE
  8
0
 10
43.5724
 20
211.387
 11
43.9466
 21
210.522
  0
LINE
  8
0
 10
43.9466
 20
210.522
 11
44.2658
 21
209.635
  0
LINE
  8
0
 10
44.2658
 20
209.635
 11
44.5287
 21
208.73
  0
LINE
  8
0
 10
44.5287
 20
208.73
 11
44.7343
 21
207.811
  0
LINE
  8
0
 10
44.7343
 20
207.811
 11
44.8817
 21
206.88
  0
LINE
  8
0
 10
44.8817
 20
206.88
 11
44.9704
 21
205.942
  0
LINE
  8
0
 10
44.9704
 20
205.942
 11
45
 21
205
  0
LINE
  8
0
 10
45
 20
205
 11
45
 21
100
  0
LINE
  8
0
 10
45
 20
100
 11
44.9704
 21
99.0581
  0
LINE
  8
0
 10
44.9704
 20
99.0581
 11
44.8817
 21
98.12
  0
LINE
  8
0
 10
44.8817
 20
98.12
 11
44.7343
 21
97.1893
  0
LINE
  8
0
 10
44.7343
 20
97.1893
 11
44.5287
 21
96.2697
  0
LINE
  8
0
 10
44.5287
 20
96.2697
 11
44.2658
 21
95.3647
  0
LINE
  8
0
 10
44.2658
 20
95.3647
 11
43.9466
 21
94.4781
  0
LINE
  8
0
 10
43.9466
 20
94.4781
 11
43.5724
 21
93.6133
  0
LINE
  8
0
 10
43.5724
 20
93.6133
 11
43.1446
 21
92.7737
  0
LINE
  8
0
 10
43.1446
 20
92.7737
 11
42.6649
 21
91.9626
  0
LINE
  8
0
 10
42.6649
 20
91.9626
 11
42.1353
 21
91.1832
  0
LINE
  8
0
 10
42.1353
 20
91.1832
 11
41.5577
 21
90.4386
  0
LINE
  8
0
 10
41.5577
 20
90.4386
 11
40.9345
 21
89.7318
  0
LINE
  8
0
 10
40.9345
 20
89.7318
 11
40.2682
 21
89.0655
  0
LINE
  8
0
 10
40.2682
 20
89.0655
 11
39.5614
 21
88.4423
  0
LINE
  8
0
 10
39.5614
 20
88.4423
 11
38.8168
 21
87.8647
  0
LINE
  8
0
 10
38.8168
 20
87.8647
 11
38.0374
 21
87.3351
  0
LINE
  8
0
 10
38.0374
 20
87.3351
 11
37.2263
 21
86.8554
  0
LINE
  8
0
 10
37.2263
 20
86.8554
 11
36.3867
 21
86.4276
  0
LINE
  8
0
 10
36.3867
 20
86.4276
 11
35.5219
 21
86.0533
  0
LINE
  8
0
 10
35.5219
 20
86.0533
 11
34.6353
 21
85.7341
  0
LINE
  8
0
 10
34.6353
 20
85.7341
 11
33.7303
 21
85.4713
  0
LINE
  8
0
 10
33.7303
 20
85.4713
 11
32.8107
 21
85.2657
  0
LINE
  8
0
 10
32.8107
 20
85.2657
 11
31.88
 21
85.1183
  0
LINE
  8
0
 10
31.88
 20
85.1183
 11
30.9418
 21
85.0296
  0
LINE
  8
0
 10
30.9418
 20
85.0296
 11
30
 21
85
  0
LINE
  8
0
 10
30
 20
85
 11
29.0581
 21
85.0296
  0
LINE
  8
0
 10
64.0581
 20
15.0296
 11
63.12
 21
15.1183
  0
LINE
  8
0
 10
63.12
 20
15.1183
 11
62.1893
 21
15.2657
  0
LINE
  8
0
 10
62.1893
 20
15.2657
 11
61.2697
 21
15.4713
  0
LINE
  8
0
 10
61.2697
 20
15.4713
 11
60.3647
 21
15.7341
  0
LINE
  8
0
 10
60.3647
 20
15.7341
 11
59.4781
 21
16.0533
  0
LINE
  8
0
 10
59.4781
 20
16.0533
 11
58.6133
 21
16.4276
  0
LINE
  8
0
 10
58.6133
 20
16.4276
 11
57.7737
 21
16.8554
  0
LINE
  8
0
 10
57.7737
 20
16.8554
 11
56.9626
 21
17.3351
  0
LINE
  8
0
 10
56.9626
 20
17.3351
 11
56.1832
 21
17.8647
  0
LINE
  8
0
 10
56.1832
 20
17.8647
 11
55.4386
 21
18.4423
  0
LINE
  8
0
 10
55.4386
 20
18.4423
 11
54.7318
 21
19.0655
  0
LINE
  8
0
 10
54.7318
 20
19.0655
 11
54.0655
 21
19.7318
  0
LINE
  8
0
 10
54.0655
 20
19.7318
 11
53.4423
 21
20.4386
  0
LINE
  8
0
 10
53.4423
 20
20.4386
 11
52.8647
 21
21.1832
  0
LINE
  8
0
 10
52.8647
 20
21.1832
 11
52.3351
 21
21.9626
  0
LINE
  8
0
 10
52.3351
 20
21.9626
 11
51.8554
 21
22.7737
  0
LINE
  8
0
 10
51.8554
 20
22.7737
 11
51.4276
 21
23.6133
  0
LINE
  8
0
 10
51.4276
 20
23.6133
 11
51.0533
 21
24.4781
  0
LINE
  8
0
 10
51.0533
 20
24.4781
 11
50.7341
 21
25.3647
  0
LINE
  8
0
 10
50.7341
 20
25.3647
 11
50.4713
 21
26.2696
  0
LINE
  8
0
 10
50.4713
 20
26.2696
 11
50.2657
 21
27.1893
  0
LINE
  8
0
 10
50.2657
 20
27.1893
 11
50.1183
 21
28.12
  0
LINE
  8
0
 10
50.1183
 20
28.12
 11
50.0296
 21
29.0581
  0
LINE
  8
0
 10
50.0296
 20
29.0581
 11
50
 21
30
  0
LINE
  8
0
 10
50
 20
30
 11
50
 21
135
  0
LINE
  8
0
 10
50
 20
135
 11
50.0296
 21
135.942
  0
LINE
  8
0
 10
50.0296
 20
135.942
 11
50.1183
 21
136.88
  0
LINE
  8
0
 10
50.1183
 20
136.88
 11
50.2657
 21
137.811
  0
LINE
  8
0
 10
50.2657
 20
137.811
 11
50.4713
 21
138.73
  0
LINE
  8
0
 10
50.4713
 20
138.73
 11
50.7341
 21
139.635
  0
LINE
  8
0
 10
50.7341
 20
139.635
 11
51.0533
 21
140.522
  0
LINE
  8
0
 10
51.0533
 20
140.522
 11
51.4276
 21
141.387
  0
LINE
  8
0
 10
51.4276
 20
141.387
 11
51.8554
 21
142.226
  0
LINE
  8
0
 10
51.8554
 20
142.226
 11
52.3351
 21
143.037
  0
LINE
  8
0
 10
52.3351
 20
143.037
 11
52.8647
 21
143.817
  0
LINE
  8
0
 10
52.8647
 20
143.817
 11
53.4423
 21
144.561
  0
LINE
  8
0
 10
53.4423
 20
144.561
 11
54.0655
 21
145.268
  0
LINE
  8
0
 10
54.0655
 20
145.268
 11
54.7318
 21
145.935
  0
LINE
  8
0
 10
54.7318
 20
145.935
 11
55.4386
 21
146.558
  0
LINE
  8
0
 10
55.4386
 20
146.558
 11
56.1832
 21
147.135
  0
LINE
  8
0
 10
56.1832
 20
147.135
 11
56.9626
 21
147.665
  0
LINE
  8
0
 10
56.9626
 20
147.665
 11
57.7737
 21
148.145
  0
LINE
  8
0
 10
57.7737
 20
148.145
 11
58.6133
 21
148.572
  0
LINE
  8
0
 10
58.6133
 20
148.572
 11
59.4781
 21
148.947
  0
LINE
  8
0
 10
59.4781
 20
148.947
 11
60.3647
 21
149.266
  0
LINE
  8
0
 10
60.3647
 20
149.266
 11
61.2697
 21
149.529
  0
LINE
  8
0
 10
61.2697
 20
149.529
 11
62.1893
 21
149.734
  0
LINE
  8
0
 10
62.1893
 20
149.734
 11
63.12
 21
149.882
  0
LINE
  8
0
 10
63.12
 20
149.882
 11
64.0581
 21
149.97
  0
LINE
  8
0
 10
64.0581
 20
149.97
 11
65
 21
150
  0
LINE
  8
0
 10
65
 20
150
 11
65.9418
 21
149.97
  0
LINE
  8
0
 10
65.9418
 20
149.97
 11
66.88
 21
149.882
  0
LINE
  8
0
 10
66.88
 20
149.882
 11
67.8107
 21
149.734
  0
LINE
  8
0
 10
67.8107
 20
149.734
 11
68.7303
 21
149.529
  0
LINE
  8
0
 10
68.7303
 20
149.529
 11
69.6353
 21
149.266
  0
LINE
  8
0
 10
69.6353
 20
149.266
 11
70.5219
 21
148.947
  0
LINE
  8
0
 10
70.5219
 20
148.947
 11
71.3867
 21
148.572
  0
LINE
  8
0
 10
71.3867
 20
148.572
 11
72.2263
 21
148.145
  0
LINE
  8
0
 10
72.2263
 20
148.145
 11
73.0374
 21
147.665
  0
LINE
  8
0
 10
73.0374
 20
147.665
 11
73.8168
 21
147.135
  0
LINE
  8
0
 10
73.8168
 20
147.135
 11
74.5614
 21
146.558
  0
LINE
  8
0
 10
74.5614
 20
146.558
 11
75.2682
 21
145.935
  0
LINE
  8
0
 10
75.2682
 20
145.935
 11
75.9345
 21
145.268
  0
LINE
  8
0
 10
75.9345
 20
145.268
 11
76.5577
 21
144.561
  0
LINE
  8
0
 10
76.5577
 20
144.561
 11
77.1353
 21
143.817
  0
LINE
  8
0
 10
77.1353
 20
143.817
 11
77.6649
 21
143.037
  0
LINE
  8
0
 10
77.6649
 20
143.037
 11
78.1446
 21
142.226
  0
LINE
  8
0
 10
78.1446
 20
142.226
 11
78.5724
 21
141.387
  0
LINE
  8
0
 10
78.5724
 20
141.387
 11
78.9466
 21
140.522
  0
LINE
  8
0
 10
78.9466
 20
140.522
 11
79.2658
 21
139.635
  0
LINE
  8
0
 10
79.2658
 20
139.635
 11
79.5287
 21
138.73
  0
LINE
  8
0
 10
79.5287
 20
138.73
 11
79.7343
 21
137.811
  0
LINE
  8
0
 10
79.7343
 20
137.811
 11
79.8817
 21
136.88
  0
LINE
  8
0
 10
79.8817
 20
136.88
 11
79.9704
 21
135.942
  0
LINE
  8
0
 10
79.9704
 20
135.942
 11
80
 21
135
  0
LINE
  8
0
 10
80
 20
135
 11
80
 21
30
  0
LINE
  8
0
 10
80
 20
30
 11
79.9704
 21
29.0581
  0
LINE
  8
0
 10
79.9704
 20
29.0581
 11
79.8817
 21
28.12
  0
LINE
  8
0
 10
79.8817
 20
28.12
 11
79.7343
 21
27.1893
  0
LINE
  8
0
 10
79.7343
 20
27.1893
 11
79.5287
 21
26.2696
  0
LINE
  8
0
 10
79.5287
 20
26.2696
 11
79.2658
 21
25.3647
  0
LINE
  8
0
 10
79.2658
 20
25.3647
 11
78.9466
 21
24.4781
  0
LINE
  8
0
 10
78.9466
 20
24.4781
 11
78.5724
 21
23.6133
  0
LINE
  8
0
 10
78.5724
 20
23.6133
 11
78.1446
 21
22.7737
  0
LINE
  8
0
 10
78.1446
 20
22.7737
 11
77.6649
 21
21.9626
  0
LINE
  8
0
 10
77.6649
 20
21.9626
 11
77.1353
 21
21.1832
  0
LINE
  8
0
 10
77.1353
 20
21.1832
 11
76.5577
 21
20.4386
  0
LINE
  8
0
 10
76.5577
 20
20.4386
 11
75.9345
 21
19.7318
  0
LINE
  8
0
 10
75.9345
 20
19.7318
 11
75.2682
 21
19.0655
  0
LINE
  8
0
 10
75.2682
 20
19.0655
 11
74.5614
 21
18.4423
  0
LINE
  8
0
 10
74.5614
 20
18.4423
 11
73.8168
 21
17.8647
  0
LINE
  8
0
 10
73.8168
 20
17.8647
 11
73.0374
 21
17.3351
  0
LINE
  8
0
 10
73.0374
 20
17.3351
 11
72.2263
 21
16.8554
  0
LINE
  8
0
 10
72.2263
 20
16.8554
 11
71.3867
 21
16.4276
  0
LINE
  8
0
 10
71.3867
 20
16.4276
 11
70.5219
 21
16.0533
  0
LINE
  8
0
 10
70.5219
 20
16.0533
 11
69.6353
 21
15.7341
  0
LINE
  8
0
 10
69.6353
 20
15.7341
 11
68.7303
 21
15.4713
  0
LINE
  8
0
 10
68.7303
 20
15.4713
 11
67.8107
 21
15.2657
  0
LINE
  8
0
 10
67.8107
 20
15.2657
 11
66.88
 21
15.1183
  0
LINE
  8
0
 10
66.88
 20
15.1183
 11
65.9418
 21
15.0296
  0
LINE
  8
0
 10
65.9418
 20
15.0296
 11
65
 21
15
  0
LINE
  8
0
 10
65
 20
15
 11
64.0581
 21
15.0296
  0
LINE
  8
0
 10
204.058
 20
15.0296
 11
203.12
 21
15.1183
  0
LINE
  8
0
 10
203.12
 20
15.1183
 11
202.189
 21
15.2657
  0
LINE
  8
0
 10
202.189
 20
15.2657
 11
201.27
 21
15.4713
  0
LINE
  8
0
 10
201.27
 20
15.4713
 11
200.365
 21
15.7341
  0
LINE
  8
0
 10
200.365
 20
15.7341
 11
199.478
 21
16.0533
  0
LINE
  8
0
 10
199.478
 20
16.0533
 11
198.613
 21
16.4276
  0
LINE
  8
0
 10
198.613
 20
16.4276
 11
197.774
 21
16.8554
  0
LINE
  8
0
 10
197.774
 20
16.8554
 11
196.963
 21
17.3351
  0
LINE
  8
0
 10
196.963
 20
17.3351
 11
196.183
 21
17.8647
  0
LINE
  8
0
 10
196.183
 20
17.8647
 11
195.439
 21
18.4423
  0
LINE
  8
0
 10
195.439
 20
18.4423
 11
194.732
 21
19.0655
  0
LINE
  8
0
 10
194.732
 20
19.0655
 11
194.065
 21
19.7318
  0
LINE
  8
0
 10
194.065
 20
19.7318
 11
193.442
 21
20.4386
  0
LINE
  8
0
 10
193.442
 20
20.4386
 11
192.865
 21
21.1832
  0
LINE
  8
0
 10
192.865
 20
21.1832
 11
192.335
 21
21.9626
  0
LINE
  8
0
 10
192.335
 20
21.9626
 11
191.855
 21
22.7737
  0
LINE
  8
0
 10
191.855
 20
22.7737
 11
191.428
 21
23.6133
  0
LINE
  8
0
 10
191.428
 20
23.6133
 11
191.053
 21
24.4781
  0
LINE
  8
0
 10
191.053
 20
24.4781
 11
190.734
 21
25.3647
  0
LINE
  8
0
 10
190.734
 20
25.3647
 11
190.471
 21
26.2696
  0
LINE
  8
0
 10
190.471
 20
26.2696
 11
190.266
 21
27.1893
  0
LINE
  8
0
 10
190.266
 20
27.1893
 11
190.118
 21
28.12
  0
LINE
  8
0
 10
190.118
 20
28.12
 11
190.03
 21
29.0581
  0
LINE
  8
0
 10
190.03
 20
29.0581
 11
190
 21
30
  0
LINE
  8
0
 10
190
 20
30
 11
190
 21
135
  0
LINE
  8
0
 10
190
 20
135
 11
190.03
 21
135.942
  0
LINE
  8
0
 10
190.03
 20
135.942
 11
190.118
 21
136.88
  0
LINE
  8
0
 10
190.118
 20
136.88
 11
190.266
 21
137.811
  0
LINE
  8
0
 10
190.266
 20
137.811
 11
190.471
 21
138.73
  0
LINE
  8
0
 10
190.471
 20
138.73
 11
190.734
 21
139.635
  0
LINE
  8
0
 10
190.734
 20
139.635
 11
191.053
 21
140.522
  0
LINE
  8
0
 10
191.053
 20
140.522
 11
191.428
 21
141.387
  0
LINE
  8
0
 10
191.428
 20
141.387
 11
191.855
 21
142.226
  0
LINE
  8
0
 10
191.855
 20
142.226
 11
192.335
 21
143.037
  0
LINE
  8
0
 10
192.335
 20
143.037
 11
192.865
 21
143.817
  0
LINE
  8
0
 10
192.865
 20
143.817
 11
193.442
 21
144.561
  0
LINE
  8
0
 10
193.442
 20
144.561
 11
194.065
 21
145.268
  0
LINE
  8
0
 10
194.065
 20
145.268
 11
194.732
 21
145.935
  0
LINE
  8
0
 10
194.732
 20
145.935
 11
195.439
 21
146.558
  0
LINE
  8
0
 10
195.439
 20
146.558
 11
196.183
 21
147.135
  0
LINE
  8
0
 10
196.183
 20
147.135
 11
196.963
 21
147.665
  0
LINE
  8
0
 10
196.963
 20
147.665
 11
197.774
 21
148.145
  0
LINE
  8
0
 10
197.774
 20
148.145
 11
198.613
 21
148.572
  0
LINE
  8
0
 10
198.613
 20
148.572
 11
199.478
 21
148.947
  0
LINE
  8
0
 10
199.478
 20
148.947
 11
200.365
 21
149.266
  0
LINE
  8
0
 10
200.365
 20
149.266
 11
201.27
 21
149.529
  0
LINE
  8
0
 10
201.27
 20
149.529
 11
202.189
 21
149.734
  0
LINE
  8
0
 10
202.189
 20
149.734
 11
203.12
 21
149.882
  0
LINE
  8
0
 10
203.12
 20
149.882
 11
204.058
 21
149.97
  0
LINE
  8
0
 10
204.058
 20
149.97
 11
205
 21
150
  0
LINE
  8
0
 10
205
 20
150
 11
205.942
 21
149.97
  0
LINE
  8
0
 10
205.942
 20
149.97
 11
206.88
 21
149.882
  0
LINE
  8
0
 10
206.88
 20
149.882
 11
207.811
 21
149.734
  0
LINE
  8
0
 10
207.811
 20
149.734
 11
208.73
 21
149.529
  0
LINE
  8
0
 10
208.73
 20
149.529
 11
209.635
 21
149.266
  0
LINE
  8
0
 10
209.635
 20
149.266
 11
210.522
 21
148.947
  0
LINE
  8
0
 10
210.522
 20
148.947
 11
211.387
 21
148.572
  0
LINE
  8
0
 10
211.387
 20
148.572
 11
212.226
 21
148.145
  0
LINE
  8
0
 10
212.226
 20
148.145
 11
213.037
 21
147.665
  0
LINE
  8
0
 10
213.037
 20
147.665
 11
213.817
 21
147.135
  0
LINE
  8
0
 10
213.817
 20
147.135
 11
214.561
 21
146.558
  0
LINE
  8
0
 10
214.561
 20
146.558
 11
215.268
 21
145.935
  0
LINE
  8
0
 10
215.268
 20
145.935
 11
215.935
 21
145.268
  0
LINE
  8
0
 10
215.935
 20
145.268
 11
216.558
 21
144.561
  0
LINE
  8
0
 10
216.558
 20
144.561
 11
217.135
 21
143.817
  0
LINE
  8
0
 10
217.135
 20
143.817
 11
217.665
 21
143.037
  0
LINE
  8
0
 10
217.665
 20
143.037
 11
218.145
 21
142.226
  0
LINE
  8
0
 10
218.145
 20
142.226
 11
218.572
 21
141.387
  0
LINE
  8
0
 10
218.572
 20
141.387
 11
218.947
 21
140.522
  0
LINE
  8
0
 10
218.947
 20
140.522
 11
219.266
 21
139.635
  0
LINE
  8
0
 10
219.266
 20
139.635
 11
219.529
 21
138.73
  0
LINE
  8
0
 10
219.529
 20
138.73
 11
219.734
 21
137.811
  0
LINE
  8
0
 10
219.734
 20
137.811
 11
219.882
 21
136.88
  0
LINE
  8
0
 10
219.882
 20
136.88
 11
219.97
 21
135.942
  0
LINE
  8
0
 10
219.97
 20
135.942
 11
220
 21
135
  0
LINE
  8
0
 10
220
 20
135
 11
220
 21
30
  0
LINE
  8
0
 10
220
 20
30
 11
219.97
 21
29.0581
  0
LINE
  8
0
 10
219.97
 20
29.0581
 11
219.882
 21
28.12
  0
LINE
  8
0
 10
219.882
 20
28.12
 11
219.734
 21
27.1893
  0
LINE
  8
0
 10
219.734
 20
27.1893
 11
219.529
 21
26.2696
  0
LINE
  8
0
 10
219.529
 20
26.2696
 11
219.266
 21
25.3647
  0
LINE
  8
0
 10
219.266
 20
25.3647
 11
218.947
 21
24.4781
  0
LINE
  8
0
 10
218.947
 20
24.4781
 11
218.572
 21
23.6133
  0
LINE
  8
0
 10
218.572
 20
23.6133
 11
218.145
 21
22.7737
  0
LINE
  8
0
 10
218.145
 20
22.7737
 11
217.665
 21
21.9626
  0
LINE
  8
0
 10
217.665
 20
21.9626
 11
217.135
 21
21.1832
  0
LINE
  8
0
 10
217.135
 20
21.1832
 11
216.558
 21
20.4386
  0
LINE
  8
0
 10
216.558
 20
20.4386
 11
215.935
 21
19.7318
  0
LINE
  8
0
 10
215.935
 20
19.7318
 11
215.268
 21
19.0655
  0
LINE
  8
0
 10
215.268
 20
19.0655
 11
214.561
 21
18.4423
  0
LINE
  8
0
 10
214.561
 20
18.4423
 11
213.817
 21
17.8647
  0
LINE
  8
0
 10
213.817
 20
17.8647
 11
213.037
 21
17.3351
  0
LINE
  8
0
 10
213.037
 20
17.3351
 11
212.226
 21
16.8554
  0
LINE
  8
0
 10
212.226
 20
16.8554
 11
211.387
 21
16.4276
  0
LINE
  8
0
 10
211.387
 20
16.4276
 11
210.522
 21
16.0533
  0
LINE
  8
0
 10
210.522
 20
16.0533
 11
209.635
 21
15.7341
  0
LINE
  8
0
 10
209.635
 20
15.7341
 11
208.73
 21
15.4713
  0
LINE
  8
0
 10
208.73
 20
15.4713
 11
207.811
 21
15.2657
  0
LINE
  8
0
 10
207.811
 20
15.2657
 11
206.88
 21
15.1183
  0
LINE
  8
0
 10
206.88
 20
15.1183
 11
205.942
 21
15.0296
  0
LINE
  8
0
 10
205.942
 20
15.0296
 11
205
 21
15
  0
LINE
  8
0
 10
205
 20
15
 11
204.058
 21
15.0296
  0
LINE
  8
0
 10
134.058
 20
15.0296
 11
133.12
 21
15.1183
  0
LINE
  8
0
 10
133.12
 20
15.1183
 11
132.189
 21
15.2657
  0
LINE
  8
0
 10
132.189
 20
15.2657
 11
131.27
 21
15.4713
  0
LINE
  8
0
 10
131.27
 20
15.4713
 11
130.365
 21
15.7341
  0
LINE
  8
0
 10
130.365
 20
15.7341
 11
129.478
 21
16.0533
  0
LINE
  8
0
 10
129.478
 20
16.0533
 11
128.613
 21
16.4276
  0
LINE
  8
0
 10
128.613
 20
16.4276
 11
127.774
 21
16.8554
  0
LINE
  8
0
 10
127.774
 20
16.8554
 11
126.963
 21
17.3351
  0
LINE
  8
0
 10
126.963
 20
17.3351
 11
126.183
 21
17.8647
  0
LINE
  8
0
 10
126.183
 20
17.8647
 11
125.439
 21
18.4423
  0
LINE
  8
0
 10
125.439
 20
18.4423
 11
124.732
 21
19.0655
  0
LINE
  8
0
 10
124.732
 20
19.0655
 11
124.065
 21
19.7318
  0
LINE
  8
0
 10
124.065
 20
19.7318
 11
123.442
 21
20.4386
  0
LINE
  8
0
 10
123.442
 20
20.4386
 11
122.865
 21
21.1832
  0
LINE
  8
0
 10
122.865
 20
21.1832
 11
122.335
 21
21.9626
  0
LINE
  8
0
 10
122.335
 20
21.9626
 11
121.855
 21
22.7737
  0
LINE
  8
0
 10
121.855
 20
22.7737
 11
121.428
 21
23.6133
  0
LINE
  8
0
 10
121.428
 20
23.6133
 11
121.053
 21
24.4781
  0
LINE
  8
0
 10
121.053
 20
24.4781
 11
120.734
 21
25.3647
  0
LINE
  8
0
 10
120.734
 20
25.3647
 11
120.471
 21
26.2696
  0
LINE
  8
0
 10
120.471
 20
26.2696
 11
120.266
 21
27.1893
  0
LINE
  8
0
 10
120.266
 20
27.1893
 11
120.118
 21
28.12
  0
LINE
  8
0
 10
120.118
 20
28.12
 11
120.03
 21
29.0581
  0
LINE
  8
0
 10
120.03
 20
29.0581
 11
120
 21
30
  0
LINE
  8
0
 10
120
 20
30
 11
120
 21
135
  0
LINE
  8
0
 10
120
 20
135
 11
120.03
 21
135.942
  0
LINE
  8
0
 10
120.03
 20
135.942
 11
120.118
 21
136.88
  0
LINE
  8
0
 10
120.118
 20
136.88
 11
120.266
 21
137.811
  0
LINE
  8
0
 10
120.266
 20
137.811
 11
120.471
 21
138.73
  0
LINE
  8
0
 10
120.471
 20
138.73
 11
120.734
 21
139.635
  0
LINE
  8
0
 10
120.734
 20
139.635
 11
121.053
 21
140.522
  0
LINE
  8
0
 10
121.053
 20
140.522
 11
121.428
 21
141.387
  0
LINE
  8
0
 10
121.428
 20
141.387
 11
121.855
 21
142.226
  0
LINE
  8
0
 10
121.855
 20
142.226
 11
122.335
 21
143.037
  0
LINE
  8
0
 10
122.335
 20
143.037
 11
122.865
 21
143.817
  0
LINE
  8
0
 10
122.865
 20
143.817
 11
123.442
 21
144.561
  0
LINE
  8
0
 10
123.442
 20
144.561
 11
124.065
 21
145.268
  0
LINE
  8
0
 10
124.065
 20
145.268
 11
124.732
 21
145.935
  0
LINE
  8
0
 10
124.732
 20
145.935
 11
125.439
 21
146.558
  0
LINE
  8
0
 10
125.439
 20
146.558
 11
126.183
 21
147.135
  0
LINE
  8
0
 10
126.183
 20
147.135
 11
126.963
 21
147.665
  0
LINE
  8
0
 10
126.963
 20
147.665
 11
127.774
 21
148.145
  0
LINE
  8
0
 10
127.774
 20
148.145
 11
128.613
 21
148.572
  0
LINE
  8
0
 10
128.613
 20
148.572
 11
129.478
 21
148.947
  0
LINE
  8
0
 10
129.478
 20
148.947
 11
130.365
 21
149.266
  0
LINE
  8
0
 10
130.365
 20
149.266
 11
131.27
 21
149.529
  0
LINE
  8
0
 10
131.27
 20
149.529
 11
132.189
 21
149.734
  0
LINE
  8
0
 10
132.189
 20
149.734
 11
133.12
 21
149.882
  0
LINE
  8
0
 10
133.12
 20
149.882
 11
134.058
 21
149.97
  0
LINE
  8
0
 10
134.058
 20
149.97
 11
135
 21
150
  0
LINE
  8
0
 10
135
 20
150
 11
135.942
 21
149.97
  0
LINE
  8
0
 10
135.942
 20
149.97
 11
136.88
 21
149.882
  0
LINE
  8
0
 10
136.88
 20
149.882
 11
137.811
 21
149.734
  0
LINE
  8
0
 10
137.811
 20
149.734
 11
138.73
 21
149.529
  0
LINE
  8
0
 10
138.73
 20
149.529
 11
139.635
 21
149.266
  0
LINE
  8
0
 10
139.635
 20
149.266
 11
140.522
 21
148.947
  0
LINE
  8
0
 10
140.522
 20
148.947
 11
141.387
 21
148.572
  0
LINE
  8
0
 10
141.387
 20
148.572
 11
142.226
 21
148.145
  0
LINE
  8
0
 10
142.226
 20
148.145
 11
143.037
 21
147.665
  0
LINE
  8
0
 10
143.037
 20
147.665
 11
143.817
 21
147.135
  0
LINE
  8
0
 10
143.817
 20
147.135
 11
144.561
 21
146.558
  0
LINE
  8
0
 10
144.561
 20
146.558
 11
145.268
 21
145.935
  0
LINE
  8
0
 10
145.268
 20
145.935
 11
145.935
 21
145.268
  0
LINE
  8
0
 10
145.935
 20
145.268
 11
146.558
 21
144.561
  0
LINE
  8
0
 10
146.558
 20
144.561
 11
147.135
 21
143.817
  0
LINE
  8
0
 10
147.135
 20
143.817
 11
147.665
 21
143.037
  0
LINE
  8
0
 10
147.665
 20
143.037
 11
148.145
 21
142.226
  0
LINE
  8
0
 10
148.145
 20
142.226
 11
148.572
 21
141.387
  0
LINE
  8
0
 10
148.572
 20
141.387
 11
148.947
 21
140.522
  0
LINE
  8
0
 10
148.947
 20
140.522
 11
149.266
 21
139.635
  0
LINE
  8
0
 10
149.266
 20
139.635
 11
149.529
 21
138.73
  0
LINE
  8
0
 10
149.529
 20
138.73
 11
149.734
 21
137.811
  0
LINE
  8
0
 10
149.734
 20
137.811
 11
149.882
 21
136.88
  0
LINE
  8
0
 10
149.882
 20
136.88
 11
149.97
 21
135.942
  0
LINE
  8
0
 10
149.97
 20
135.942
 11
150
 21
135
  0
LINE
  8
0
 10
150
 20
135
 11
150
 21
30
  0
LINE
  8
0
 10
150
 20
30
 11
149.97
 21
29.0581
  0
LINE
  8
0
 10
149.97
 20
29.0581
 11
149.882
 21
28.12
  0
LINE
  8
0
 10
149.882
 20
28.12
 11
149.734
 21
27.1893
  0
LINE
  8
0
 10
149.734
 20
27.1893
 11
149.529
 21
26.2696
  0
LINE
  8
0
 10
149.529
 20
26.2696
 11
149.266
 21
25.3647
  0
LINE
  8
0
 10
149.266
 20
25.3647
 11
148.947
 21
24.4781
  0
LINE
  8
0
 10
148.947
 20
24.4781
 11
148.572
 21
23.6133
  0
LINE
  8
0
 10
148.572
 20
23.6133
 11
148.145
 21
22.7737
  0
LINE
  8
0
 10
148.145
 20
22.7737
 11
147.665
 21
21.9626
  0
LINE
  8
0
 10
147.665
 20
21.9626
 11
147.135
 21
21.1832
  0
LINE
  8
0
 10
147.135
 20
21.1832
 11
146.558
 21
20.4386
  0
LINE
  8
0
 10
146.558
 20
20.4386
 11
145.935
 21
19.7318
  0
LINE
  8
0
 10
145.935
 20
19.7318
 11
145.268
 21
19.0655
  0
LINE
  8
0
 10
145.268
 20
19.0655
 11
144.561
 21
18.4423
  0
LINE
  8
0
 10
144.561
 20
18.4423
 11
143.817
 21
17.8647
  0
LINE
  8
0
 10
143.817
 20
17.8647
 11
143.037
 21
17.3351
  0
LINE
  8
0
 10
143.037
 20
17.3351
 11
142.226
 21
16.8554
  0
LINE
  8
0
 10
142.226
 20
16.8554
 11
141.387
 21
16.4276
  0
LINE
  8
0
 10
141.387
 20
16.4276
 11
140.522
 21
16.0533
  0
LINE
  8
0
 10
140.522
 20
16.0533
 11
139.635
 21
15.7341
  0
LINE
  8
0
 10
139.635
 20
15.7341
 11
138.73
 21
15.4713
  0
LINE
  8
0
 10
138.73
 20
15.4713
 11
137.811
 21
15.2657
  0
LINE
  8
0
 10
137.811
 20
15.2657
 11
136.88
 21
15.1183
  0
LINE
  8
0
 10
136.88
 20
15.1183
 11
135.942
 21
15.0296
  0
LINE
  8
0
 10
135.942
 20
15.0296
 11
135
 21
15
  0
LINE
  8
0
 10
135
 20
15
 11
134.058
 21
15.0296
  0
LINE
  8
0
 10
29.0581
 20
15.0296
 11
28.12
 21
15.1183
  0
LINE
  8
0
 10
28.12
 20
15.1183
 11
27.1893
 21
15.2657
  0
LINE
  8
0
 10
27.1893
 20
15.2657
 11
26.2696
 21
15.4713
  0
LINE
  8
0
 10
26.2696
 20
15.4713
 11
25.3647
 21
15.7341
  0
LINE
  8
0
 10
25.3647
 20
15.7341
 11
24.4781
 21
16.0533
  0
LINE
  8
0
 10
24.4781
 20
16.0533
 11
23.6133
 21
16.4276
  0
LINE
  8
0
 10
23.6133
 20
16.4276
 11
22.7737
 21
16.8554
  0
LINE
  8
0
 10
22.7737
 20
16.8554
 11
21.9626
 21
17.3351
  0
LINE
  8
0
 10
21.9626
 20
17.3351
 11
21.1832
 21
17.8647
  0
LINE
  8
0
 10
21.1832
 20
17.8647
 11
20.4386
 21
18.4423
  0
LINE
  8
0
 10
20.4386
 20
18.4423
 11
19.7318
 21
19.0655
  0
LINE
  8
0
 10
19.7318
 20
19.0655
 11
19.0655
 21
19.7318
  0
LINE
  8
0
 10
19.0655
 20
19.7318
 11
18.4423
 21
20.4386
  0
LINE
  8
0
 10
18.4423
 20
20.4386
 11
17.8647
 21
21.1832
  0
LINE
  8
0
 10
17.8647
 20
21.1832
 11
17.3351
 21
21.9626
  0
LINE
  8
0
 10
17.3351
 20
21.9626
 11
16.8554
 21
22.7737
  0
LINE
  8
0
 10
16.8554
 20
22.7737
 11
16.4276
 21
23.6133
  0
LINE
  8
0
 10
16.4276
 20
23.6133
 11
16.0533
 21
24.4781
  0
LINE
  8
0
 10
16.0533
 20
24.4781
 11
15.7341
 21
25.3647
  0
LINE
  8
0
 10
15.7341
 20
25.3647
 11
15.4713
 21
26.2696
  0
LINE
  8
0
 10
15.4713
 20
26.2696
 11
15.2657
 21
27.1893
  0
LINE
  8
0
 10
15.2657
 20
27.1893
 11
15.1183
 21
28.12
  0
LINE
  8
0
 10
15.1183
 20
28.12
 11
15.0296
 21
29.0581
  0
LINE
  8
0
 10
15.0296
 20
29.0581
 11
15
 21
30
  0
LINE
  8
0
 10
15
 20
30
 11
15
 21
65
  0
LINE
  8
0
 10
15
 20
65
 11
15.0296
 21
65.9418
  0
LINE
  8
0
 10
15.0296
 20
65.9418
 11
15.1183
 21
66.88
  0
LINE
  8
0
 10
15.1183
 20
66.88
 11
15.2657
 21
67.8107
  0
LINE
  8
0
 10
15.2657
 20
67.8107
 11
15.4713
 21
68.7303
  0
LINE
  8
0
 10
15.4713
 20
68.7303
 11
15.7341
 21
69.6353
  0
LINE
  8
0
 10
15.7341
 20
69.6353
 11
16.0533
 21
70.5219
  0
LINE
  8
0
 10
16.0533
 20
70.5219
 11
16.4276
 21
71.3867
  0
LINE
  8
0
 10
16.4276
 20
71.3867
 11
16.8554
 21
72.2263
  0
LINE
  8
0
 10
16.8554
 20
72.2263
 11
17.3351
 21
73.0374
  0
LINE
  8
0
 10
17.3351
 20
73.0374
 11
17.8647
 21
73.8168
  0
LINE
  8
0
 10
17.8647
 20
73.8168
 11
18.4423
 21
74.5614
  0
LINE
  8
0
 10
18.4423
 20
74.5614
 11
19.0655
 21
75.2682
  0
LINE
  8
0
 10
19.0655
 20
75.2682
 11
19.7318
 21
75.9345
  0
LINE
  8
0
 10
19.7318
 20
75.9345
 11
20.4386
 21
76.5577
  0
LINE
  8
0
 10
20.4386
 20
76.5577
 11
21.1832
 21
77.1353
  0
LINE
  8
0
 10
21.1832
 20
77.1353
 11
21.9626
 21
77.6649
  0
LINE
  8
0
 10
21.9626
 20
77.6649
 11
22.7737
 21
78.1446
  0
LINE
  8
0
 10
22.7737
 20
78.1446
 11
23.6133
 21
78.5724
  0
LINE
  8
0
 10
23.6133
 20
78.5724
 11
24.4781
 21
78.9466
  0
LINE
  8
0
 10
24.4781
 20
78.9466
 11
25.3647
 21
79.2658
  0
LINE
  8
0
 10
25.3647
 20
79.2658
 11
26.2696
 21
79.5287
  0
LINE
  8
0
 10
26.2696
 20
79.5287
 11
27.1893
 21
79.7343
  0
LINE
  8
0
 10
27.1893
 20
79.7343
 11
28.12
 21
79.8817
  0
LINE
  8
0
 10
28.12
 20
79.8817
 11
29.0581
 21
79.9704
  0
LINE
  8
0
 10
29.0581
 20
79.9704
 11
30
 21
80
  0
LINE
  8
0
 10
30
 20
80
 11
30.9418
 21
79.9704
  0
LINE
  8
0
 10
30.9418
 20
79.9704
 11
31.88
 21
79.8817
  0
LINE
  8
0
 10
31.88
 20
79.8817
 11
32.8107
 21
79.7343
  0
LINE
  8
0
 10
32.8107
 20
79.7343
 11
33.7303
 21
79.5287
  0
LINE
  8
0
 10
33.7303
 20
79.5287
 11
34.6353
 21
79.2658
  0
LINE
  8
0
 10
34.6353
 20
79.2658
 11
35.5219
 21
78.9466
  0
LINE
  8
0
 10
35.5219
 20
78.9466
 11
36.3867
 21
78.5724
  0
LINE
  8
0
 10
36.3867
 20
78.5724
 11
37.2263
 21
78.1446
  0
LINE
  8
0
 10
37.2263
 20
78.1446
 11
38.0374
 21
77.6649
  0
LINE
  8
0
 10
38.0374
 20
77.6649
 11
38.8168
 21
77.1353
  0
LINE
  8
0
 10
38.8168
 20
77.1353
 11
39.5614
 21
76.5577
  0
LINE
  8
0
 10
39.5614
 20
76.5577
 11
40.2682
 21
75.9345
  0
LINE
  8
0
 10
40.2682
 20
75.9345
 11
40.9345
 21
75.2682
  0
LINE
  8
0
 10
40.9345
 20
75.2682
 11
41.5577
 21
74.5614
  0
LINE
  8
0
 10
41.5577
 20
74.5614
 11
42.1353
 21
73.8168
  0
LINE
  8
0
 10
42.1353
 20
73.8168
 11
42.6649
 21
73.0374
  0
LINE
  8
0
 10
42.6649
 20
73.0374
 11
43.1446
 21
72.2263
  0
LINE
  8
0
 10
43.1446
 20
72.2263
 11
43.5724
 21
71.3867
  0
LINE
  8
0
 10
43.5724
 20
71.3867
 11
43.9466
 21
70.5219
  0
LINE
  8
0
 10
43.9466
 20
70.5219
 11
44.2658
 21
69.6353
  0
LINE
  8
0
 10
44.2658
 20
69.6353
 11
44.5287
 21
68.7303
  0
LINE
  8
0
 10
44.5287
 20
68.7303
 11
44.7343
 21
67.8107
  0
LINE
  8
0
 10
44.7343
 20
67.8107
 11
44.8817
 21
66.88
  0
LINE
  8
0
 10
44.8817
 20
66.88
 11
44.9704
 21
65.9418
  0
LINE
  8
0
 10
44.9704
 20
65.9418
 11
45
 21
65
  0
LINE
  8
0
 10
45
 20
65
 11
45
 21
30
  0
LINE
  8
0
 10
45
 20
30
 11
44.9704
 21
29.0581
  0
LINE
  8
0
 10
44.9704
 20
29.0581
 11
44.8817
 21
28.12
  0
LINE
  8
0
 10
44.8817
 20
28.12
 11
44.7343
 21
27.1893
  0
LINE
  8
0
 10
44.7343
 20
27.1893
 11
44.5287
 21
26.2696
  0
LINE
  8
0
 10
44.5287
 20
26.2696
 11
44.2658
 21
25.3647
  0
LINE
  8
0
 10
44.2658
 20
25.3647
 11
43.9466
 21
24.4781
  0
LINE
  8
0
 10
43.9466
 20
24.4781
 11
43.5724
 21
23.6133
  0
LINE
  8
0
 10
43.5724
 20
23.6133
 11
43.1446
 21
22.7737
  0
LINE
  8
0
 10
43.1446
 20
22.7737
 11
42.6649
 21
21.9626
  0
LINE
  8
0
 10
42.6649
 20
21.9626
 11
42.1353
 21
21.1832
  0
LINE
  8
0
 10
42.1353
 20
21.1832
 11
41.5577
 21
20.4386
  0
LINE
  8
0
 10
41.5577
 20
20.4386
 11
40.9345
 21
19.7318
  0
LINE
  8
0
 10
40.9345
 20
19.7318
 11
40.2682
 21
19.0655
  0
LINE
  8
0
 10
40.2682
 20
19.0655
 11
39.5614
 21
18.4423
  0
LINE
  8
0
 10
39.5614
 20
18.4423
 11
38.8168
 21
17.8647
  0
LINE
  8
0
 10
38.8168
 20
17.8647
 11
38.0374
 21
17.3351
  0
LINE
  8
0
 10
38.0374
 20
17.3351
 11
37.2263
 21
16.8554
  0
LINE
  8
0
 10
37.2263
 20
16.8554
 11
36.3867
 21
16.4276
  0
LINE
  8
0
 10
36.3867
 20
16.4276
 11
35.5219
 21
16.0533
  0
LINE
  8
0
 10
35.5219
 20
16.0533
 11
34.6353
 21
15.7341
  0
LINE
  8
0
 10
34.6353
 20
15.7341
 11
33.7303
 21
15.4713
  0
LINE
  8
0
 10
33.7303
 20
15.4713
 11
32.8107
 21
15.2657
  0
LINE
  8
0
 10
32.8107
 20
15.2657
 11
31.88
 21
15.1183
  0
LINE
  8
0
 10
31.88
 20
15.1183
 11
30.9418
 21
15.0296
  0
LINE
  8
0
 10
30.9418
 20
15.0296
 11
30
 21
15
  0
LINE
  8
0
 10
30
 20
15
 11
29.0581
 21
15.0296
  0
LINE
  8
0
 10
99.0581
 20
15.0296
 11
98.12
 21
15.1183
  0
LINE
  8
0
 10
98.12
 20
15.1183
 11
97.1893
 21
15.2657
  0
LINE
  8
0
 10
97.1893
 20
15.2657
 11
96.2697
 21
15.4713
  0
LINE
  8
0
 10
96.2697
 20
15.4713
 11
95.3647
 21
15.7341
  0
LINE
  8
0
 10
95.3647
 20
15.7341
 11
94.4781
 21
16.0533
  0
LINE
  8
0
 10
94.4781
 20
16.0533
 11
93.6133
 21
16.4276
  0
LINE
  8
0
 10
93.6133
 20
16.4276
 11
92.7737
 21
16.8554
  0
LINE
  8
0
 10
92.7737
 20
16.8554
 11
91.9626
 21
17.3351
  0
LINE
  8
0
 10
91.9626
 20
17.3351
 11
91.1832
 21
17.8647
  0
LINE
  8
0
 10
91.1832
 20
17.8647
 11
90.4386
 21
18.4423
  0
LINE
  8
0
 10
90.4386
 20
18.4423
 11
89.7318
 21
19.0655
  0
LINE
  8
0
 10
89.7318
 20
19.0655
 11
89.0655
 21
19.7318
  0
LINE
  8
0
 10
89.0655
 20
19.7318
 11
88.4423
 21
20.4386
  0
LINE
  8
0
 10
88.4423
 20
20.4386
 11
87.8647
 21
21.1832
  0
LINE
  8
0
 10
87.8647
 20
21.1832
 11
87.3351
 21
21.9626
  0
LINE
  8
0
 10
87.3351
 20
21.9626
 11
86.8554
 21
22.7737
  0
LINE
  8
0
 10
86.8554
 20
22.7737
 11
86.4276
 21
23.6133
  0
LINE
  8
0
 10
86.4276
 20
23.6133
 11
86.0533
 21
24.4781
  0
LINE
  8
0
 10
86.0533
 20
24.4781
 11
85.7341
 21
25.3647
  0
LINE
  8
0
 10
85.7341
 20
25.3647
 11
85.4713
 21
26.2696
  0
LINE
  8
0
 10
85.4713
 20
26.2696
 11
85.2657
 21
27.1893
  0
LINE
  8
0
 10
85.2657
 20
27.1893
 11
85.1183
 21
28.12
  0
LINE
  8
0
 10
85.1183
 20
28.12
 11
85.0296
 21
29.0581
  0
LINE
  8
0
 10
85.0296
 20
29.0581
 11
85
 21
30
  0
LINE
  8
0
 10
85
 20
30
 11
85
 21
65
  0
LINE
  8
0
 10
85
 20
65
 11
85.0296
 21
65.9418
  0
LINE
  8
0
 10
85.0296
 20
65.9418
 11
85.1183
 21
66.88
  0
LINE
  8
0
 10
85.1183
 20
66.88
 11
85.2657
 21
67.8107
  0
LINE
  8
0
 10
85.2657
 20
67.8107
 11
85.4713
 21
68.7303
  0
LINE
  8
0
 10
85.4713
 20
68.7303
 11
85.7341
 21
69.6353
  0
LINE
  8
0
 10
85.7341
 20
69.6353
 11
86.0533
 21
70.5219
  0
LINE
  8
0
 10
86.0533
 20
70.5219
 11
86.4276
 21
71.3867
  0
LINE
  8
0
 10
86.4276
 20
71.3867
 11
86.8554
 21
72.2263
  0
LINE
  8
0
 10
86.8554
 20
72.2263
 11
87.3351
 21
73.0374
  0
LINE
  8
0
 10
87.3351
 20
73.0374
 11
87.8647
 21
73.8168
  0
LINE
  8
0
 10
87.8647
 20
73.8168
 11
88.4423
 21
74.5614
  0
LINE
  8
0
 10
88.4423
 20
74.5614
 11
89.0655
 21
75.2682
  0
LINE
  8
0
 10
89.0655
 20
75.2682
 11
89.7318
 21
75.9345
  0
LINE
  8
0
 10
89.7318
 20
75.9345
 11
90.4386
 21
76.5577
  0
LINE
  8
0
 10
90.4386
 20
76.5577
 11
91.1832
 21
77.1353
  0
LINE
  8
0
 10
91.1832
 20
77.1353
 11
91.9626
 21
77.6649
  0
LINE
  8
0
 10
91.9626
 20
77.6649
 11
92.7737
 21
78.1446
  0
LINE
  8
0
 10
92.7737
 20
78.1446
 11
93.6133
 21
78.5724
  0
LINE
  8
0
 10
93.6133
 20
78.5724
 11
94.4781
 21
78.9466
  0
LINE
  8
0
 10
94.4781
 20
78.9466
 11
95.3647
 21
79.2658
  0
LINE
  8
0
 10
95.3647
 20
79.2658
 11
96.2697
 21
79.5287
  0
LINE
  8
0
 10
96.2697
 20
79.5287
 11
97.1893
 21
79.7343
  0
LINE
  8
0
 10
97.1893
 20
79.7343
 11
98.12
 21
79.8817
  0
LINE
  8
0
 10
98.12
 20
79.8817
 11
99.0581
 21
79.9704
  0
LINE
  8
0
 10
99.0581
 20
79.9704
 11
100
 21
80
  0
LINE
  8
0
 10
100
 20
80
 11
100.942
 21
79.9704
  0
LINE
  8
0
 10
100.942
 20
79.9704
 11
101.88
 21
79.8817
  0
LINE
  8
0
 10
101.88
 20
79.8817
 11
102.811
 21
79.7343
  0
LINE
  8
0
 10
102.811
 20
79.7343
 11
103.73
 21
79.5287
  0
LINE
  8
0
 10
103.73
 20
79.5287
 11
104.635
 21
79.2658
  0
LINE
  8
0
 10
104.635
 20
79.2658
 11
105.522
 21
78.9466
  0
LINE
  8
0
 10
105.522
 20
78.9466
 11
106.387
 21
78.5724
  0
LINE
  8
0
 10
106.387
 20
78.5724
 11
107.226
 21
78.1446
  0
LINE
  8
0
 10
107.226
 20
78.1446
 11
108.037
 21
77.6649
  0
LINE
  8
0
 10
108.037
 20
77.6649
 11
108.817
 21
77.1353
  0
LINE
  8
0
 10
108.817
 20
77.1353
 11
109.561
 21
76.5577
  0
LINE
  8
0
 10
109.561
 20
76.5577
 11
110.268
 21
75.9345
  0
LINE
  8
0
 10
110.268
 20
75.9345
 11
110.935
 21
75.2682
  0
LINE
  8
0
 10
110.935
 20
75.2682
 11
111.558
 21
74.5614
  0
LINE
  8
0
 10
111.558
 20
74.5614
 11
112.135
 21
73.8168
  0
LINE
  8
0
 10
112.135
 20
73.8168
 11
112.665
 21
73.0374
  0
LINE
  8
0
 10
112.665
 20
73.0374
 11
113.145
 21
72.2263
  0
LINE
  8
0
 10
113.145
 20
72.2263
 11
113.572
 21
71.3867
  0
LINE
  8
0
 10
113.572
 20
71.3867
 11
113.947
 21
70.5219
  0
LINE
  8
0
 10
113.947
 20
70.5219
 11
114.266
 21
69.6353
  0
LINE
  8
0
 10
114.266
 20
69.6353
 11
114.529
 21
68.7303
  0
LINE
  8
0
 10
114.529
 20
68.7303
 11
114.734
 21
67.8107
  0
LINE
  8
0
 10
114.734
 20
67.8107
 11
114.882
 21
66.88
  0
LINE
  8
0
 10
114.882
 20
66.88
 11
114.97
 21
65.9418
  0
LINE
  8
0
 10
114.97
 20
65.9418
 11
115
 21
65
  0
LINE
  8
0
 10
115
 20
65
 11
115
 21
30
  0
LINE
  8
0
 10
115
 20
30
 11
114.97
 21
29.0581
  0
LINE
  8
0
 10
114.97
 20
29.0581
 11
114.882
 21
28.12
  0
LINE
  8
0
 10
114.882
 20
28.12
 11
114.734
 21
27.1893
  0
LINE
  8
0
 10
114.734
 20
27.1893
 11
114.529
 21
26.2696
  0
LINE
  8
0
 10
114.529
 20
26.2696
 11
114.266
 21
25.3647
  0
LINE
  8
0
 10
114.266
 20
25.3647
 11
113.947
 21
24.4781
  0
LINE
  8
0
 10
113.947
 20
24.4781
 11
113.572
 21
23.6133
  0
LINE
  8
0
 10
113.572
 20
23.6133
 11
113.145
 21
22.7737
  0
LINE
  8
0
 10
113.145
 20
22.7737
 11
112.665
 21
21.9626
  0
LINE
  8
0
 10
112.665
 20
21.9626
 11
112.135
 21
21.1832
  0
LINE
  8
0
 10
112.135
 20
21.1832
 11
111.558
 21
20.4386
  0
LINE
  8
0
 10
111.558
 20
20.4386
 11
110.935
 21
19.7318
  0
LINE
  8
0
 10
110.935
 20
19.7318
 11
110.268
 21
19.0655
  0
LINE
  8
0
 10
110.268
 20
19.0655
 11
109.561
 21
18.4423
  0
LINE
  8
0
 10
109.561
 20
18.4423
 11
108.817
 21
17.8647
  0
LINE
  8
0
 10
108.817
 20
17.8647
 11
108.037
 21
17.3351
  0
LINE
  8
0
 10
108.037
 20
17.3351
 11
107.226
 21
16.8554
  0
LINE
  8
0
 10
107.226
 20
16.8554
 11
106.387
 21
16.4276
  0
LINE
  8
0
 10
106.387
 20
16.4276
 11
105.522
 21
16.0533
  0
LINE
  8
0
 10
105.522
 20
16.0533
 11
104.635
 21
15.7341
  0
LINE
  8
0
 10
104.635
 20
15.7341
 11
103.73
 21
15.4713
  0
LINE
  8
0
 10
103.73
 20
15.4713
 11
102.811
 21
15.2657
  0
LINE
  8
0
 10
102.811
 20
15.2657
 11
101.88
 21
15.1183
  0
LINE
  8
0
 10
101.88
 20
15.1183
 11
100.942
 21
15.0296
  0
LINE
  8
0
 10
100.942
 20
15.0296
 11
100
 21
15
  0
LINE
  8
0
 10
100
 20
15
 11
99.0581
 21
15.0296
  0
LINE
  8
0
 10
169.058
 20
15.0296
 11
168.12
 21
15.1183
  0
LINE
  8
0
 10
168.12
 20
15.1183
 11
167.189
 21
15.2657
  0
LINE
  8
0
 10
167.189
 20
15.2657
 11
166.27
 21
15.4713
  0
LINE
  8
0
 10
166.27
 20
15.4713
 11
165.365
 21
15.7341
  0
LINE
  8
0
 10
165.365
 20
15.7341
 11
164.478
 21
16.0533
  0
LINE
  8
0
 10
164.478
 20
16.0533
 11
163.613
 21
16.4276
  0
LINE
  8
0
 10
163.613
 20
16.4276
 11
162.774
 21
16.8554
  0
LINE
  8
0
 10
162.774
 20
16.8554
 11
161.963
 21
17.3351
  0
LINE
  8
0
 10
161.963
 20
17.3351
 11
161.183
 21
17.8647
  0
LINE
  8
0
 10
161.183
 20
17.8647
 11
160.439
 21
18.4423
  0
LINE
  8
0
 10
160.439
 20
18.4423
 11
159.732
 21
19.0655
  0
LINE
  8
0
 10
159.732
 20
19.0655
 11
159.065
 21
19.7318
  0
LINE
  8
0
 10
159.065
 20
19.7318
 11
158.442
 21
20.4386
  0
LINE
  8
0
 10
158.442
 20
20.4386
 11
157.865
 21
21.1832
  0
LINE
  8
0
 10
157.865
 20
21.1832
 11
157.335
 21
21.9626
  0
LINE
  8
0
 10
157.335
 20
21.9626
 11
156.855
 21
22.7737
  0
LINE
  8
0
 10
156.855
 20
22.7737
 11
156.428
 21
23.6133
  0
LINE
  8
0
 10
156.428
 20
23.6133
 11
156.053
 21
24.4781
  0
LINE
  8
0
 10
156.053
 20
24.4781
 11
155.734
 21
25.3647
  0
LINE
  8
0
 10
155.734
 20
25.3647
 11
155.471
 21
26.2696
  0
LINE
  8
0
 10
155.471
 20
26.2696
 11
155.266
 21
27.1893
  0
LINE
  8
0
 10
155.266
 20
27.1893
 11
155.118
 21
28.12
  0
LINE
  8
0
 10
155.118
 20
28.12
 11
155.03
 21
29.0581
  0
LINE
  8
0
 10
155.03
 20
29.0581
 11
155
 21
30
  0
LINE
  8
0
 10
155
 20
30
 11
155
 21
65
  0
LINE
  8
0
 10
155
 20
65
 11
155.03
 21
65.9418
  0
LINE
  8
0
 10
155.03
 20
65.9418
 11
155.118
 21
66.88
  0
LINE
  8
0
 10
155.118
 20
66.88
 11
155.266
 21
67.8107
  0
LINE
  8
0
 10
155.266
 20
67.8107
 11
155.471
 21
68.7303
  0
LINE
  8
0
 10
155.471
 20
68.7303
 11
155.734
 21
69.6353
  0
LINE
  8
0
 10
155.734
 20
69.6353
 11
156.053
 21
70.5219
  0
LINE
  8
0
 10
156.053
 20
70.5219
 11
156.428
 21
71.3867
  0
LINE
  8
0
 10
156.428
 20
71.3867
 11
156.855
 21
72.2263
  0
LINE
  8
0
 10
156.855
 20
72.2263
 11
157.335
 21
73.0374
  0
LINE
  8
0
 10
157.335
 20
73.0374
 11
157.865
 21
73.8168
  0
LINE
  8
0
 10
157.865
 20
73.8168
 11
158.442
 21
74.5614
  0
LINE
  8
0
 10
158.442
 20
74.5614
 11
159.065
 21
75.2682
  0
LINE
  8
0
 10
159.065
 20
75.2682
 11
159.732
 21
75.9345
  0
LINE
  8
0
 10
159.732
 20
75.9345
 11
160.439
 21
76.5577
  0
LINE
  8
0
 10
160.439
 20
76.5577
 11
161.183
 21
77.1353
  0
LINE
  8
0
 10
161.183
 20
77.1353
 11
161.963
 21
77.6649
  0
LINE
  8
0
 10
161.963
 20
77.6649
 11
162.774
 21
78.1446
  0
LINE
  8
0
 10
162.774
 20
78.1446
 11
163.613
 21
78.5724
  0
LINE
  8
0
 10
163.613
 20
78.5724
 11
164.478
 21
78.9466
  0
LINE
  8
0
 10
164.478
 20
78.9466
 11
165.365
 21
79.2658
  0
LINE
  8
0
 10
165.365
 20
79.2658
 11
166.27
 21
79.5287
  0
LINE
  8
0
 10
166.27
 20
79.5287
 11
167.189
 21
79.7343
  0
LINE
  8
0
 10
167.189
 20
79.7343
 11
168.12
 21
79.8817
  0
LINE
  8
0
 10
168.12
 20
79.8817
 11
169.058
 21
79.9704
  0
LINE
  8
0
 10
169.058
 20
79.9704
 11
170
 21
80
  0
LINE
  8
0
 10
170
 20
80
 11
170.942
 21
79.9704
  0
LINE
  8
0
 10
170.942
 20
79.9704
 11
171.88
 21
79.8817
  0
LINE
  8
0
 10
171.88
 20
79.8817
 11
172.811
 21
79.7343
  0
LINE
  8
0
 10
172.811
 20
79.7343
 11
173.73
 21
79.5287
  0
LINE
  8
0
 10
173.73
 20
79.5287
 11
174.635
 21
79.2658
  0
LINE
  8
0
 10
174.635
 20
79.2658
 11
175.522
 21
78.9466
  0
LINE
  8
0
 10
175.522
 20
78.9466
 11
176.387
 21
78.5724
  0
LINE
  8
0
 10
176.387
 20
78.5724
 11
177.226
 21
78.1446
  0
LINE
  8
0
 10
177.226
 20
78.1446
 11
178.037
 21
77.6649
  0
LINE
  8
0
 10
178.037
 20
77.6649
 11
178.817
 21
77.1353
  0
LINE
  8
0
 10
178.817
 20
77.1353
 11
179.561
 21
76.5577
  0
LINE
  8
0
 10
179.561
 20
76.5577
 11
180.268
 21
75.9345
  0
LINE
  8
0
 10
180.268
 20
75.9345
 11
180.935
 21
75.2682
  0
LINE
  8
0
 10
180.935
 20
75.2682
 11
181.558
 21
74.5614
  0
LINE
  8
0
 10
181.558
 20
74.5614
 11
182.135
 21
73.8168
  0
LINE
  8
0
 10
182.135
 20
73.8168
 11
182.665
 21
73.0374
  0
LINE
  8
0
 10
182.665
 20
73.0374
 11
183.145
 21
72.2263
  0
LINE
  8
0
 10
183.145
 20
72.2263
 11
183.572
 21
71.3867
  0
LINE
  8
0
 10
183.572
 20
71.3867
 11
183.947
 21
70.5219
  0
LINE
  8
0
 10
183.947
 20
70.5219
 11
184.266
 21
69.6353
  0
LINE
  8
0
 10
184.266
 20
69.6353
 11
184.529
 21
68.7303
  0
LINE
  8
0
 10
184.529
 20
68.7303
 11
184.734
 21
67.8107
  0
LINE
  8
0
 10
184.734
 20
67.8107
 11
184.882
 21
66.88
  0
LINE
  8
0
 10
184.882
 20
66.88
 11
184.97
 21
65.9418
  0
LINE
  8
0
 10
184.97
 20
65.9418
 11
185
 21
65
  0
LINE
  8
0
 10
185
 20
65
 11
185
 21
30
  0
LINE
  8
0
 10
185
 20
30
 11
184.97
 21
29.0581
  0
LINE
  8
0
 10
184.97
 20
29.0581
 11
184.882
 21
28.12
  0
LINE
  8
0
 10
184.882
 20
28.12
 11
184.734
 21
27.1893
  0
LINE
  8
0
 10
184.734
 20
27.1893
 11
184.529
 21
26.2696
  0
LINE
  8
0
 10
184.529
 20
26.2696
 11
184.266
 21
25.3647
  0
LINE
  8
0
 10
184.266
 20
25.3647
 11
183.947
 21
24.4781
  0
LINE
  8
0
 10
183.947
 20
24.4781
 11
183.572
 21
23.6133
  0
LINE
  8
0
 10
183.572
 20
23.6133
 11
183.145
 21
22.7737
  0
LINE
  8
0
 10
183.145
 20
22.7737
 11
182.665
 21
21.9626
  0
LINE
  8
0
 10
182.665
 20
21.9626
 11
182.135
 21
21.1832
  0
LINE
  8
0
 10
182.135
 20
21.1832
 11
181.558
 21
20.4386
  0
LINE
  8
0
 10
181.558
 20
20.4386
 11
180.935
 21
19.7318
  0
LINE
  8
0
 10
180.935
 20
19.7318
 11
180.268
 21
19.0655
  0
LINE
  8
0
 10
180.268
 20
19.0655
 11
179.561
 21
18.4423
  0
LINE
  8
0
 10
179.561
 20
18.4423
 11
178.817
 21
17.8647
  0
LINE
  8
0
 10
178.817
 20
17.8647
 11
178.037
 21
17.3351
  0
LINE
  8
0
 10
178.037
 20
17.3351
 11
177.226
 21
16.8554
  0
LINE
  8
0
 10
177.226
 20
16.8554
 11
176.387
 21
16.4276
  0
LINE
  8
0
 10
176.387
 20
16.4276
 11
175.522
 21
16.0533
  0
LINE
  8
0
 10
175.522
 20
16.0533
 11
174.635
 21
15.7341
  0
LINE
  8
0
 10
174.635
 20
15.7341
 11
173.73
 21
15.4713
  0
LINE
  8
0
 10
173.73
 20
15.4713
 11
172.811
 21
15.2657
  0
LINE
  8
0
 10
172.811
 20
15.2657
 11
171.88
 21
15.1183
  0
LINE
  8
0
 10
171.88
 20
15.1183
 11
170.942
 21
15.0296
  0
LINE
  8
0
 10
170.942
 20
15.0296
 11
170
 21
15
  0
LINE
  8
0
 10
170
 20
15
 11
169.058
 21
15.0296
  0
LINE
  8
0
 10
239.058
 20
15.0296
 11
238.12
 21
15.1183
  0
LINE
  8
0
 10
238.12
 20
15.1183
 11
237.189
 21
15.2657
  0
LINE
  8
0
 10
237.189
 20
15.2657
 11
236.27
 21
15.4713
  0
LINE
  8
0
 10
236.27
 20
15.4713
 11
235.365
 21
15.7341
  0
LINE
  8
0
 10
235.365
 20
15.7341
 11
234.478
 21
16.0533
  0
LINE
  8
0
 10
234.478
 20
16.0533
 11
233.613
 21
16.4276
  0
LINE
  8
0
 10
233.613
 20
16.4276
 11
232.774
 21
16.8554
  0
LINE
  8
0
 10
232.774
 20
16.8554
 11
231.963
 21
17.3351
  0
LINE
  8
0
 10
231.963
 20
17.3351
 11
231.183
 21
17.8647
  0
LINE
  8
0
 10
231.183
 20
17.8647
 11
230.439
 21
18.4423
  0
LINE
  8
0
 10
230.439
 20
18.4423
 11
229.732
 21
19.0655
  0
LINE
  8
0
 10
229.732
 20
19.0655
 11
229.065
 21
19.7318
  0
LINE
  8
0
 10
229.065
 20
19.7318
 11
228.442
 21
20.4386
  0
LINE
  8
0
 10
228.442
 20
20.4386
 11
227.865
 21
21.1832
  0
LINE
  8
0
 10
227.865
 20
21.1832
 11
227.335
 21
21.9626
  0
LINE
  8
0
 10
227.335
 20
21.9626
 11
226.855
 21
22.7737
  0
LINE
  8
0
 10
226.855
 20
22.7737
 11
226.428
 21
23.6133
  0
LINE
  8
0
 10
226.428
 20
23.6133
 11
226.053
 21
24.4781
  0
LINE
  8
0
 10
226.053
 20
24.4781
 11
225.734
 21
25.3647
  0
LINE
  8
0
 10
225.734
 20
25.3647
 11
225.471
 21
26.2696
  0
LINE
  8
0
 10
225.471
 20
26.2696
 11
225.266
 21
27.1893
  0
LINE
  8
0
 10
225.266
 20
27.1893
 11
225.118
 21
28.12
  0
LINE
  8
0
 10
225.118
 20
28.12
 11
225.03
 21
29.0581
  0
LINE
  8
0
 10
225.03
 20
29.0581
 11
225
 21
30
  0
LINE
  8
0
 10
225
 20
30
 11
225
 21
65
  0
LINE
  8
0
 10
225
 20
65
 11
225.03
 21
65.9418
  0
LINE
  8
0
 10
225.03
 20
65.9418
 11
225.118
 21
66.88
  0
LINE
  8
0
 10
225.118
 20
66.88
 11
225.266
 21
67.8107
  0
LINE
  8
0
 10
225.266
 20
67.8107
 11
225.471
 21
68.7303
  0
LINE
  8
0
 10
225.471
 20
68.7303
 11
225.734
 21
69.6353
  0
LINE
  8
0
 10
225.734
 20
69.6353
 11
226.053
 21
70.5219
  0
LINE
  8
0
 10
226.053
 20
70.5219
 11
226.428
 21
71.3867
  0
LINE
  8
0
 10
226.428
 20
71.3867
 11
226.855
 21
72.2263
  0
LINE
  8
0
 10
226.855
 20
72.2263
 11
227.335
 21
73.0374
  0
LINE
  8
0
 10
227.335
 20
73.0374
 11
227.865
 21
73.8168
  0
LINE
  8
0
 10
227.865
 20
73.8168
 11
228.442
 21
74.5614
  0
LINE
  8
0
 10
228.442
 20
74.5614
 11
229.065
 21
75.2682
  0
LINE
  8
0
 10
229.065
 20
75.2682
 11
229.732
 21
75.9345
  0
LINE
  8
0
 10
229.732
 20
75.9345
 11
230.439
 21
76.5577
  0
LINE
  8
0
 10
230.439
 20
76.5577
 11
231.183
 21
77.1353
  0
LINE
  8
0
 10
231.183
 20
77.1353
 11
231.963
 21
77.6649
  0
LINE
  8
0
 10
231.963
 20
77.6649
 11
232.774
 21
78.1446
  0
LINE
  8
0
 10
232.774
 20
78.1446
 11
233.613
 21
78.5724
  0
LINE
  8
0
 10
233.613
 20
78.5724
 11
234.478
 21
78.9466
  0
LINE
  8
0
 10
234.478
 20
78.9466
 11
235.365
 21
79.2658
  0
LINE
  8
0
 10
235.365
 20
79.2658
 11
236.27
 21
79.5287
  0
LINE
  8
0
 10
236.27
 20
79.5287
 11
237.189
 21
79.7343
  0
LINE
  8
0
 10
237.189
 20
79.7343
 11
238.12
 21
79.8817
  0
LINE
  8
0
 10
238.12
 20
79.8817
 11
239.058
 21
79.9704
  0
LINE
  8
0
 10
239.058
 20
79.9704
 11
240
 21
80
  0
LINE
  8
0
 10
240
 20
80
 11
240.942
 21
79.9704
  0
LINE
  8
0
 10
240.942
 20
79.9704
 11
241.88
 21
79.8817
  0
LINE
  8
0
 10
241.88
 20
79.8817
 11
242.811
 21
79.7343
  0
LINE
  8
0
 10
242.811
 20
79.7343
 11
243.73
 21
79.5287
  0
LINE
  8
0
 10
243.73
 20
79.5287
 11
244.635
 21
79.2658
  0
LINE
  8
0
 10
244.635
 20
79.2658
 11
245.522
 21
78.9466
  0
LINE
  8
0
 10
245.522
 20
78.9466
 11
246.387
 21
78.5724
  0
LINE
  8
0
 10
246.387
 20
78.5724
 11
247.226
 21
78.1446
  0
LINE
  8
0
 10
247.226
 20
78.1446
 11
248.037
 21
77.6649
  0
LINE
  8
0
 10
248.037
 20
77.6649
 11
248.817
 21
77.1353
  0
LINE
  8
0
 10
248.817
 20
77.1353
 11
249.561
 21
76.5577
  0
LINE
  8
0
 10
249.561
 20
76.5577
 11
250.268
 21
75.9345
  0
LINE
  8
0
 10
250.268
 20
75.9345
 11
250.935
 21
75.2682
  0
LINE
  8
0
 10
250.935
 20
75.2682
 11
251.558
 21
74.5614
  0
LINE
  8
0
 10
251.558
 20
74.5614
 11
252.135
 21
73.8168
  0
LINE
  8
0
 10
252.135
 20
73.8168
 11
252.665
 21
73.0374
  0
LINE
  8
0
 10
252.665
 20
73.0374
 11
253.145
 21
72.2263
  0
LINE
  8
0
 10
253.145
 20
72.2263
 11
253.572
 21
71.3867
  0
LINE
  8
0
 10
253.572
 20
71.3867
 11
253.947
 21
70.5219
  0
LINE
  8
0
 10
253.947
 20
70.5219
 11
254.266
 21
69.6353
  0
LINE
  8
0
 10
254.266
 20
69.6353
 11
254.529
 21
68.7303
  0
LINE
  8
0
 10
254.529
 20
68.7303
 11
254.734
 21
67.8107
  0
LINE
  8
0
 10
254.734
 20
67.8107
 11
254.882
 21
66.88
  0
LINE
  8
0
 10
254.882
 20
66.88
 11
254.97
 21
65.9418
  0
LINE
  8
0
 10
254.97
 20
65.9418
 11
255
 21
65
  0
LINE
  8
0
 10
255
 20
65
 11
255
 21
30
  0
LINE
  8
0
 10
255
 20
30
 11
254.97
 21
29.0581
  0
LINE
  8
0
 10
254.97
 20
29.0581
 11
254.882
 21
28.12
  0
LINE
  8
0
 10
254.882
 20
28.12
 11
254.734
 21
27.1893
  0
LINE
  8
0
 10
254.734
 20
27.1893
 11
254.529
 21
26.2696
  0
LINE
  8
0
 10
254.529
 20
26.2696
 11
254.266
 21
25.3647
  0
LINE
  8
0
 10
254.266
 20
25.3647
 11
253.947
 21
24.4781
  0
LINE
  8
0
 10
253.947
 20
24.4781
 11
253.572
 21
23.6133
  0
LINE
  8
0
 10
253.572
 20
23.6133
 11
253.145
 21
22.7737
  0
LINE
  8
0
 10
253.145
 20
22.7737
 11
252.665
 21
21.9626
  0
LINE
  8
0
 10
252.665
 20
21.9626
 11
252.135
 21
21.1832
  0
LINE
  8
0
 10
252.135
 20
21.1832
 11
251.558
 21
20.4386
  0
LINE
  8
0
 10
251.558
 20
20.4386
 11
250.935
 21
19.7318
  0
LINE
  8
0
 10
250.935
 20
19.7318
 11
250.268
 21
19.0655
  0
LINE
  8
0
 10
250.268
 20
19.0655
 11
249.561
 21
18.4423
  0
LINE
  8
0
 10
249.561
 20
18.4423
 11
248.817
 21
17.8647
  0
LINE
  8
0
 10
248.817
 20
17.8647
 11
248.037
 21
17.3351
  0
LINE
  8
0
 10
248.037
 20
17.3351
 11
247.226
 21
16.8554
  0
LINE
  8
0
 10
247.226
 20
16.8554
 11
246.387
 21
16.4276
  0
LINE
  8
0
 10
246.387
 20
16.4276
 11
245.522
 21
16.0533
  0
LINE
  8
0
 10
245.522
 20
16.0533
 11
244.635
 21
15.7341
  0
LINE
  8
0
 10
244.635
 20
15.7341
 11
243.73
 21
15.4713
  0
LINE
  8
0
 10
243.73
 20
15.4713
 11
242.811
 21
15.2657
  0
LINE
  8
0
 10
242.811
 20
15.2657
 11
241.88
 21
15.1183
  0
LINE
  8
0
 10
241.88
 20
15.1183
 11
240.942
 21
15.0296
  0
LINE
  8
0
 10
240.942
 20
15.0296
 11
240
 21
15
  0
LINE
  8
0
 10
240
 20
15
 11
239.058
 21
15.0296
  0
ENDSEC
  0
SECTION
  2
OBJECTS
  0
DICTIONARY
  0
ENDSEC
  0
EOF
