  0
SECTION
  2
BLOCKS
  0
ENDSEC
  0
SECTION
  2
ENTITIES
  0
LINE
  8
0
 10
98
 20
260.8
 11
0
 21
260.8
  0
LINE
  8
0
 10
0
 20
260.8
 11
0
 21
0
  0
LINE
  8
0
 10
0
 20
0
 11
98
 21
0
  0
LINE
  8
0
 10
98
 20
0
 11
98
 21
260.8
  0
LINE
  8
0
 10
48.1209
 20
195.328
 11
47.2453
 21
195.41
  0
LINE
  8
0
 10
47.2453
 20
195.41
 11
46.3767
 21
195.548
  0
LINE
  8
0
 10
46.3767
 20
195.548
 11
45.5183
 21
195.74
  0
LINE
  8
0
 10
45.5183
 20
195.74
 11
44.6738
 21
195.985
  0
LINE
  8
0
 10
44.6738
 20
195.985
 11
43.8463
 21
196.283
  0
LINE
  8
0
 10
43.8463
 20
196.283
 11
43.0391
 21
196.632
  0
LINE
  8
0
 10
43.0391
 20
196.632
 11
42.2554
 21
197.032
  0
LINE
  8
0
 10
42.2554
 20
197.032
 11
41.4984
 21
197.479
  0
LINE
  8
0
 10
41.4984
 20
197.479
 11
40.771
 21
197.974
  0
LINE
  8
0
 10
40.771
 20
197.974
 11
40.0761
 21
198.513
  0
LINE
  8
0
 10
40.0761
 20
198.513
 11
39.4163
 21
199.094
  0
LINE
  8
0
 10
39.4163
 20
199.094
 11
38.7944
 21
199.716
  0
LINE
  8
0
 10
38.7944
 20
199.716
 11
38.2128
 21
200.376
  0
LINE
  8
0
 10
38.2128
 20
200.376
 11
37.6738
 21
201.071
  0
LINE
  8
0
 10
37.6738
 20
201.071
 11
37.1794
 21
201.798
  0
LINE
  8
0
 10
37.1794
 20
201.798
 11
36.7317
 21
202.555
  0
LINE
  8
0
 10
36.7317
 20
202.555
 11
36.3324
 21
203.339
  0
LINE
  8
0
 10
36.3324
 20
203.339
 11
35.9831
 21
204.146
  0
LINE
  8
0
 10
35.9831
 20
204.146
 11
35.6852
 21
204.974
  0
LINE
  8
0
 10
35.6852
 20
204.974
 11
35.4398
 21
205.818
  0
LINE
  8
0
 10
35.4398
 20
205.818
 11
35.248
 21
206.677
  0
LINE
  8
0
 10
35.248
 20
206.677
 11
35.1104
 21
207.545
  0
LINE
  8
0
 10
35.1104
 20
207.545
 11
35.0276
 21
208.421
  0
LINE
  8
0
 10
35.0276
 20
208.421
 11
35
 21
209.3
  0
LINE
  8
0
 10
35
 20
209.3
 11
35.0276
 21
210.179
  0
LINE
  8
0
 10
35.0276
 20
210.179
 11
35.1104
 21
211.055
  0
LINE
  8
0
 10
35.1104
 20
211.055
 11
35.248
 21
211.923
  0
LINE
  8
0
 10
35.248
 20
211.923
 11
35.4398
 21
212.782
  0
LINE
  8
0
 10
35.4398
 20
212.782
 11
35.6852
 21
213.626
  0
LINE
  8
0
 10
35.6852
 20
213.626
 11
35.9831
 21
214.454
  0
LINE
  8
0
 10
35.9831
 20
214.454
 11
36.3324
 21
215.261
  0
LINE
  8
0
 10
36.3324
 20
215.261
 11
36.7317
 21
216.045
  0
LINE
  8
0
 10
36.7317
 20
216.045
 11
37.1794
 21
216.802
  0
LINE
  8
0
 10
37.1794
 20
216.802
 11
37.6738
 21
217.529
  0
LINE
  8
0
 10
37.6738
 20
217.529
 11
38.2128
 21
218.224
  0
LINE
  8
0
 10
38.2128
 20
218.224
 11
38.7944
 21
218.884
  0
LINE
  8
0
 10
38.7944
 20
218.884
 11
39.4163
 21
219.506
  0
LINE
  8
0
 10
39.4163
 20
219.506
 11
40.0761
 21
220.087
  0
LINE
  8
0
 10
40.0761
 20
220.087
 11
40.771
 21
220.626
  0
LINE
  8
0
 10
40.771
 20
220.626
 11
41.4984
 21
221.121
  0
LINE
  8
0
 10
41.4984
 20
221.121
 11
42.2554
 21
221.568
  0
LINE
  8
0
 10
42.2554
 20
221.568
 11
43.0391
 21
221.968
  0
LINE
  8
0
 10
43.0391
 20
221.968
 11
43.8463
 21
222.317
  0
LINE
  8
0
 10
43.8463
 20
222.317
 11
44.6738
 21
222.615
  0
LINE
  8
0
 10
44.6738
 20
222.615
 11
45.5183
 21
222.86
  0
LINE
  8
0
 10
45.5183
 20
222.86
 11
46.3767
 21
223.052
  0
LINE
  8
0
 10
46.3767
 20
223.052
 11
47.2453
 21
223.19
  0
LINE
  8
0
 10
47.2453
 20
223.19
 11
48.1209
 21
223.272
  0
LINE
  8
0
 10
48.1209
 20
223.272
 11
49
 21
223.3
  0
LINE
  8
0
 10
49
 20
223.3
 11
49.8791
 21
223.272
  0
LINE
  8
0
 10
49.8791
 20
223.272
 11
50.7547
 21
223.19
  0
LINE
  8
0
 10
50.7547
 20
223.19
 11
51.6233
 21
223.052
  0
LINE
  8
0
 10
51.6233
 20
223.052
 11
52.4817
 21
222.86
  0
LINE
  8
0
 10
52.4817
 20
222.86
 11
53.3262
 21
222.615
  0
LINE
  8
0
 10
53.3262
 20
222.615
 11
54.1537
 21
222.317
  0
LINE
  8
0
 10
54.1537
 20
222.317
 11
54.9609
 21
221.968
  0
LINE
  8
0
 10
54.9609
 20
221.968
 11
55.7446
 21
221.568
  0
LINE
  8
0
 10
55.7446
 20
221.568
 11
56.5016
 21
221.121
  0
LINE
  8
0
 10
56.5016
 20
221.121
 11
57.229
 21
220.626
  0
LINE
  8
0
 10
57.229
 20
220.626
 11
57.9239
 21
220.087
  0
LINE
  8
0
 10
57.9239
 20
220.087
 11
58.5836
 21
219.506
  0
LINE
  8
0
 10
58.5836
 20
219.506
 11
59.2056
 21
218.884
  0
LINE
  8
0
 10
59.2056
 20
218.884
 11
59.7872
 21
218.224
  0
LINE
  8
0
 10
59.7872
 20
218.224
 11
60.3262
 21
217.529
  0
LINE
  8
0
 10
60.3262
 20
217.529
 11
60.8206
 21
216.802
  0
LINE
  8
0
 10
60.8206
 20
216.802
 11
61.2683
 21
216.045
  0
LINE
  8
0
 10
61.2683
 20
216.045
 11
61.6676
 21
215.261
  0
LINE
  8
0
 10
61.6676
 20
215.261
 11
62.0169
 21
214.454
  0
LINE
  8
0
 10
62.0169
 20
214.454
 11
62.3148
 21
213.626
  0
LINE
  8
0
 10
62.3148
 20
213.626
 11
62.5602
 21
212.782
  0
LINE
  8
0
 10
62.5602
 20
212.782
 11
62.752
 21
211.923
  0
LINE
  8
0
 10
62.752
 20
211.923
 11
62.8896
 21
211.055
  0
LINE
  8
0
 10
62.8896
 20
211.055
 11
62.9724
 21
210.179
  0
LINE
  8
0
 10
62.9724
 20
210.179
 11
63
 21
209.3
  0
LINE
  8
0
 10
63
 20
209.3
 11
62.9724
 21
208.421
  0
LINE
  8
0
 10
62.9724
 20
208.421
 11
62.8896
 21
207.545
  0
LINE
  8
0
 10
62.8896
 20
207.545
 11
62.752
 21
206.677
  0
LINE
  8
0
 10
62.752
 20
206.677
 11
62.5602
 21
205.818
  0
LINE
  8
0
 10
62.5602
 20
205.818
 11
62.3148
 21
204.974
  0
LINE
  8
0
 10
62.3148
 20
204.974
 11
62.0169
 21
204.146
  0
LINE
  8
0
 10
62.0169
 20
204.146
 11
61.6676
 21
203.339
  0
LINE
  8
0
 10
61.6676
 20
203.339
 11
61.2683
 21
202.555
  0
LINE
  8
0
 10
61.2683
 20
202.555
 11
60.8206
 21
201.798
  0
LINE
  8
0
 10
60.8206
 20
201.798
 11
60.3262
 21
201.071
  0
LINE
  8
0
 10
60.3262
 20
201.071
 11
59.7872
 21
200.376
  0
LINE
  8
0
 10
59.7872
 20
200.376
 11
59.2056
 21
199.716
  0
LINE
  8
0
 10
59.2056
 20
199.716
 11
58.5836
 21
199.094
  0
LINE
  8
0
 10
58.5836
 20
199.094
 11
57.9239
 21
198.513
  0
LINE
  8
0
 10
57.9239
 20
198.513
 11
57.229
 21
197.974
  0
LINE
  8
0
 10
57.229
 20
197.974
 11
56.5016
 21
197.479
  0
LINE
  8
0
 10
56.5016
 20
197.479
 11
55.7446
 21
197.032
  0
LINE
  8
0
 10
55.7446
 20
197.032
 11
54.9609
 21
196.632
  0
LINE
  8
0
 10
54.9609
 20
196.632
 11
54.1537
 21
196.283
  0
LINE
  8
0
 10
54.1537
 20
196.283
 11
53.3262
 21
195.985
  0
LINE
  8
0
 10
53.3262
 20
195.985
 11
52.4817
 21
195.74
  0
LINE
  8
0
 10
52.4817
 20
195.74
 11
51.6233
 21
195.548
  0
LINE
  8
0
 10
51.6233
 20
195.548
 11
50.7547
 21
195.41
  0
LINE
  8
0
 10
50.7547
 20
195.41
 11
49.8791
 21
195.328
  0
LINE
  8
0
 10
49.8791
 20
195.328
 11
49
 21
195.3
  0
LINE
  8
0
 10
49
 20
195.3
 11
48.1209
 21
195.328
  0
LINE
  8
0
 10
48.1209
 20
157.028
 11
47.2453
 21
157.11
  0
LINE
  8
0
 10
47.2453
 20
157.11
 11
46.3767
 21
157.248
  0
LINE
  8
0
 10
46.3767
 20
157.248
 11
45.5183
 21
157.44
  0
LINE
  8
0
 10
45.5183
 20
157.44
 11
44.6738
 21
157.685
  0
LINE
  8
0
 10
44.6738
 20
157.685
 11
43.8463
 21
157.983
  0
LINE
  8
0
 10
43.8463
 20
157.983
 11
43.0391
 21
158.332
  0
LINE
  8
0
 10
43.0391
 20
158.332
 11
42.2554
 21
158.732
  0
LINE
  8
0
 10
42.2554
 20
158.732
 11
41.4984
 21
159.179
  0
LINE
  8
0
 10
41.4984
 20
159.179
 11
40.771
 21
159.674
  0
LINE
  8
0
 10
40.771
 20
159.674
 11
40.0761
 21
160.213
  0
LINE
  8
0
 10
40.0761
 20
160.213
 11
39.4163
 21
160.794
  0
LINE
  8
0
 10
39.4163
 20
160.794
 11
38.7944
 21
161.416
  0
LINE
  8
0
 10
38.7944
 20
161.416
 11
38.2128
 21
162.076
  0
LINE
  8
0
 10
38.2128
 20
162.076
 11
37.6738
 21
162.771
  0
LINE
  8
0
 10
37.6738
 20
162.771
 11
37.1794
 21
163.498
  0
LINE
  8
0
 10
37.1794
 20
163.498
 11
36.7317
 21
164.255
  0
LINE
  8
0
 10
36.7317
 20
164.255
 11
36.3324
 21
165.039
  0
LINE
  8
0
 10
36.3324
 20
165.039
 11
35.9831
 21
165.846
  0
LINE
  8
0
 10
35.9831
 20
165.846
 11
35.6852
 21
166.674
  0
LINE
  8
0
 10
35.6852
 20
166.674
 11
35.4398
 21
167.518
  0
LINE
  8
0
 10
35.4398
 20
167.518
 11
35.248
 21
168.377
  0
LINE
  8
0
 10
35.248
 20
168.377
 11
35.1104
 21
169.245
  0
LINE
  8
0
 10
35.1104
 20
169.245
 11
35.0276
 21
170.121
  0
LINE
  8
0
 10
35.0276
 20
170.121
 11
35
 21
171
  0
LINE
  8
0
 10
35
 20
171
 11
35.0276
 21
171.879
  0
LINE
  8
0
 10
35.0276
 20
171.879
 11
35.1104
 21
172.755
  0
LINE
  8
0
 10
35.1104
 20
172.755
 11
35.248
 21
173.623
  0
LINE
  8
0
 10
35.248
 20
173.623
 11
35.4398
 21
174.482
  0
LINE
  8
0
 10
35.4398
 20
174.482
 11
35.6852
 21
175.326
  0
LINE
  8
0
 10
35.6852
 20
175.326
 11
35.9831
 21
176.154
  0
LINE
  8
0
 10
35.9831
 20
176.154
 11
36.3324
 21
176.961
  0
LINE
  8
0
 10
36.3324
 20
176.961
 11
36.7317
 21
177.745
  0
LINE
  8
0
 10
36.7317
 20
177.745
 11
37.1794
 21
178.502
  0
LINE
  8
0
 10
37.1794
 20
178.502
 11
37.6738
 21
179.229
  0
LINE
  8
0
 10
37.6738
 20
179.229
 11
38.2128
 21
179.924
  0
LINE
  8
0
 10
38.2128
 20
179.924
 11
38.7944
 21
180.584
  0
LINE
  8
0
 10
38.7944
 20
180.584
 11
39.4163
 21
181.206
  0
LINE
  8
0
 10
39.4163
 20
181.206
 11
40.0761
 21
181.787
  0
LINE
  8
0
 10
40.0761
 20
181.787
 11
40.771
 21
182.326
  0
LINE
  8
0
 10
40.771
 20
182.326
 11
41.4984
 21
182.821
  0
LINE
  8
0
 10
41.4984
 20
182.821
 11
42.2554
 21
183.268
  0
LINE
  8
0
 10
42.2554
 20
183.268
 11
43.0391
 21
183.668
  0
LINE
  8
0
 10
43.0391
 20
183.668
 11
43.8463
 21
184.017
  0
LINE
  8
0
 10
43.8463
 20
184.017
 11
44.6738
 21
184.315
  0
LINE
  8
0
 10
44.6738
 20
184.315
 11
45.5183
 21
184.56
  0
LINE
  8
0
 10
45.5183
 20
184.56
 11
46.3767
 21
184.752
  0
LINE
  8
0
 10
46.3767
 20
184.752
 11
47.2453
 21
184.89
  0
LINE
  8
0
 10
47.2453
 20
184.89
 11
48.1209
 21
184.972
  0
LINE
  8
0
 10
48.1209
 20
184.972
 11
49
 21
185
  0
LINE
  8
0
 10
49
 20
185
 11
49.8791
 21
184.972
  0
LINE
  8
0
 10
49.8791
 20
184.972
 11
50.7547
 21
184.89
  0
LINE
  8
0
 10
50.7547
 20
184.89
 11
51.6233
 21
184.752
  0
LINE
  8
0
 10
51.6233
 20
184.752
 11
52.4817
 21
184.56
  0
LINE
  8
0
 10
52.4817
 20
184.56
 11
53.3262
 21
184.315
  0
LINE
  8
0
 10
53.3262
 20
184.315
 11
54.1537
 21
184.017
  0
LINE
  8
0
 10
54.1537
 20
184.017
 11
54.9609
 21
183.668
  0
LINE
  8
0
 10
54.9609
 20
183.668
 11
55.7446
 21
183.268
  0
LINE
  8
0
 10
55.7446
 20
183.268
 11
56.5016
 21
182.821
  0
LINE
  8
0
 10
56.5016
 20
182.821
 11
57.229
 21
182.326
  0
LINE
  8
0
 10
57.229
 20
182.326
 11
57.9239
 21
181.787
  0
LINE
  8
0
 10
57.9239
 20
181.787
 11
58.5836
 21
181.206
  0
LINE
  8
0
 10
58.5836
 20
181.206
 11
59.2056
 21
180.584
  0
LINE
  8
0
 10
59.2056
 20
180.584
 11
59.7872
 21
179.924
  0
LINE
  8
0
 10
59.7872
 20
179.924
 11
60.3262
 21
179.229
  0
LINE
  8
0
 10
60.3262
 20
179.229
 11
60.8206
 21
178.502
  0
LINE
  8
0
 10
60.8206
 20
178.502
 11
61.2683
 21
177.745
  0
LINE
  8
0
 10
61.2683
 20
177.745
 11
61.6676
 21
176.961
  0
LINE
  8
0
 10
61.6676
 20
176.961
 11
62.0169
 21
176.154
  0
LINE
  8
0
 10
62.0169
 20
176.154
 11
62.3148
 21
175.326
  0
LINE
  8
0
 10
62.3148
 20
175.326
 11
62.5602
 21
174.482
  0
LINE
  8
0
 10
62.5602
 20
174.482
 11
62.752
 21
173.623
  0
LINE
  8
0
 10
62.752
 20
173.623
 11
62.8896
 21
172.755
  0
LINE
  8
0
 10
62.8896
 20
172.755
 11
62.9724
 21
171.879
  0
LINE
  8
0
 10
62.9724
 20
171.879
 11
63
 21
171
  0
LINE
  8
0
 10
63
 20
171
 11
62.9724
 21
170.121
  0
LINE
  8
0
 10
62.9724
 20
170.121
 11
62.8896
 21
169.245
  0
LINE
  8
0
 10
62.8896
 20
169.245
 11
62.752
 21
168.377
  0
LINE
  8
0
 10
62.752
 20
168.377
 11
62.5602
 21
167.518
  0
LINE
  8
0
 10
62.5602
 20
167.518
 11
62.3148
 21
166.674
  0
LINE
  8
0
 10
62.3148
 20
166.674
 11
62.0169
 21
165.846
  0
LINE
  8
0
 10
62.0169
 20
165.846
 11
61.6676
 21
165.039
  0
LINE
  8
0
 10
61.6676
 20
165.039
 11
61.2683
 21
164.255
  0
LINE
  8
0
 10
61.2683
 20
164.255
 11
60.8206
 21
163.498
  0
LINE
  8
0
 10
60.8206
 20
163.498
 11
60.3262
 21
162.771
  0
LINE
  8
0
 10
60.3262
 20
162.771
 11
59.7872
 21
162.076
  0
LINE
  8
0
 10
59.7872
 20
162.076
 11
59.2056
 21
161.416
  0
LINE
  8
0
 10
59.2056
 20
161.416
 11
58.5836
 21
160.794
  0
LINE
  8
0
 10
58.5836
 20
160.794
 11
57.9239
 21
160.213
  0
LINE
  8
0
 10
57.9239
 20
160.213
 11
57.229
 21
159.674
  0
LINE
  8
0
 10
57.229
 20
159.674
 11
56.5016
 21
159.179
  0
LINE
  8
0
 10
56.5016
 20
159.179
 11
55.7446
 21
158.732
  0
LINE
  8
0
 10
55.7446
 20
158.732
 11
54.9609
 21
158.332
  0
LINE
  8
0
 10
54.9609
 20
158.332
 11
54.1537
 21
157.983
  0
LINE
  8
0
 10
54.1537
 20
157.983
 11
53.3262
 21
157.685
  0
LINE
  8
0
 10
53.3262
 20
157.685
 11
52.4817
 21
157.44
  0
LINE
  8
0
 10
52.4817
 20
157.44
 11
51.6233
 21
157.248
  0
LINE
  8
0
 10
51.6233
 20
157.248
 11
50.7547
 21
157.11
  0
LINE
  8
0
 10
50.7547
 20
157.11
 11
49.8791
 21
157.028
  0
LINE
  8
0
 10
49.8791
 20
157.028
 11
49
 21
157
  0
LINE
  8
0
 10
49
 20
157
 11
48.1209
 21
157.028
  0
LINE
  8
0
 10
65.2258
 20
140.403
 11
65.132
 21
140.412
  0
LINE
  8
0
 10
65.132
 20
140.412
 11
65.0389
 21
140.427
  0
LINE
  8
0
 10
65.0389
 20
140.427
 11
64.947
 21
140.447
  0
LINE
  8
0
 10
64.947
 20
140.447
 11
64.8565
 21
140.473
  0
LINE
  8
0
 10
64.8565
 20
140.473
 11
64.7678
 21
140.505
  0
LINE
  8
0
 10
64.7678
 20
140.505
 11
64.6813
 21
140.543
  0
LINE
  8
0
 10
64.6813
 20
140.543
 11
64.5974
 21
140.586
  0
LINE
  8
0
 10
64.5974
 20
140.586
 11
64.5163
 21
140.634
  0
LINE
  8
0
 10
64.5163
 20
140.634
 11
64.4383
 21
140.686
  0
LINE
  8
0
 10
64.4383
 20
140.686
 11
64.3639
 21
140.744
  0
LINE
  8
0
 10
64.3639
 20
140.744
 11
64.2932
 21
140.807
  0
LINE
  8
0
 10
64.2932
 20
140.807
 11
64.2265
 21
140.873
  0
LINE
  8
0
 10
64.2265
 20
140.873
 11
64.1642
 21
140.944
  0
LINE
  8
0
 10
64.1642
 20
140.944
 11
64.1065
 21
141.018
  0
LINE
  8
0
 10
64.1065
 20
141.018
 11
64.0535
 21
141.096
  0
LINE
  8
0
 10
64.0535
 20
141.096
 11
64.0055
 21
141.177
  0
LINE
  8
0
 10
64.0055
 20
141.177
 11
63.9628
 21
141.261
  0
LINE
  8
0
 10
63.9628
 20
141.261
 11
63.9253
 21
141.348
  0
LINE
  8
0
 10
63.9253
 20
141.348
 11
63.8934
 21
141.436
  0
LINE
  8
0
 10
63.8934
 20
141.436
 11
63.8671
 21
141.527
  0
LINE
  8
0
 10
63.8671
 20
141.527
 11
63.8466
 21
141.619
  0
LINE
  8
0
 10
63.8466
 20
141.619
 11
63.8318
 21
141.712
  0
LINE
  8
0
 10
63.8318
 20
141.712
 11
63.823
 21
141.806
  0
LINE
  8
0
 10
63.823
 20
141.806
 11
63.82
 21
141.9
  0
LINE
  8
0
 10
63.82
 20
141.9
 11
63.823
 21
141.994
  0
LINE
  8
0
 10
63.823
 20
141.994
 11
63.8318
 21
142.088
  0
LINE
  8
0
 10
63.8318
 20
142.088
 11
63.8466
 21
142.181
  0
LINE
  8
0
 10
63.8466
 20
142.181
 11
63.8671
 21
142.273
  0
LINE
  8
0
 10
63.8671
 20
142.273
 11
63.8934
 21
142.364
  0
LINE
  8
0
 10
63.8934
 20
142.364
 11
63.9253
 21
142.452
  0
LINE
  8
0
 10
63.9253
 20
142.452
 11
63.9628
 21
142.539
  0
LINE
  8
0
 10
63.9628
 20
142.539
 11
64.0055
 21
142.623
  0
LINE
  8
0
 10
64.0055
 20
142.623
 11
64.0535
 21
142.704
  0
LINE
  8
0
 10
64.0535
 20
142.704
 11
64.1065
 21
142.782
  0
LINE
  8
0
 10
64.1065
 20
142.782
 11
64.1642
 21
142.856
  0
LINE
  8
0
 10
64.1642
 20
142.856
 11
64.2265
 21
142.927
  0
LINE
  8
0
 10
64.2265
 20
142.927
 11
64.2932
 21
142.993
  0
LINE
  8
0
 10
64.2932
 20
142.993
 11
64.3639
 21
143.056
  0
LINE
  8
0
 10
64.3639
 20
143.056
 11
64.4383
 21
143.114
  0
LINE
  8
0
 10
64.4383
 20
143.114
 11
64.5163
 21
143.166
  0
LINE
  8
0
 10
64.5163
 20
143.166
 11
64.5974
 21
143.214
  0
LINE
  8
0
 10
64.5974
 20
143.214
 11
64.6813
 21
143.257
  0
LINE
  8
0
 10
64.6813
 20
143.257
 11
64.7678
 21
143.295
  0
LINE
  8
0
 10
64.7678
 20
143.295
 11
64.8565
 21
143.327
  0
LINE
  8
0
 10
64.8565
 20
143.327
 11
64.947
 21
143.353
  0
LINE
  8
0
 10
64.947
 20
143.353
 11
65.0389
 21
143.373
  0
LINE
  8
0
 10
65.0389
 20
143.373
 11
65.132
 21
143.388
  0
LINE
  8
0
 10
65.132
 20
143.388
 11
65.2258
 21
143.397
  0
LINE
  8
0
 10
65.2258
 20
143.397
 11
65.32
 21
143.4
  0
LINE
  8
0
 10
65.32
 20
143.4
 11
65.4142
 21
143.397
  0
LINE
  8
0
 10
65.4142
 20
143.397
 11
65.508
 21
143.388
  0
LINE
  8
0
 10
65.508
 20
143.388
 11
65.6011
 21
143.373
  0
LINE
  8
0
 10
65.6011
 20
143.373
 11
65.693
 21
143.353
  0
LINE
  8
0
 10
65.693
 20
143.353
 11
65.7835
 21
143.327
  0
LINE
  8
0
 10
65.7835
 20
143.327
 11
65.8722
 21
143.295
  0
LINE
  8
0
 10
65.8722
 20
143.295
 11
65.9587
 21
143.257
  0
LINE
  8
0
 10
65.9587
 20
143.257
 11
66.0426
 21
143.214
  0
LINE
  8
0
 10
66.0426
 20
143.214
 11
66.1237
 21
143.166
  0
LINE
  8
0
 10
66.1237
 20
143.166
 11
66.2017
 21
143.114
  0
LINE
  8
0
 10
66.2017
 20
143.114
 11
66.2761
 21
143.056
  0
LINE
  8
0
 10
66.2761
 20
143.056
 11
66.3468
 21
142.993
  0
LINE
  8
0
 10
66.3468
 20
142.993
 11
66.4135
 21
142.927
  0
LINE
  8
0
 10
66.4135
 20
142.927
 11
66.4758
 21
142.856
  0
LINE
  8
0
 10
66.4758
 20
142.856
 11
66.5335
 21
142.782
  0
LINE
  8
0
 10
66.5335
 20
142.782
 11
66.5865
 21
142.704
  0
LINE
  8
0
 10
66.5865
 20
142.704
 11
66.6345
 21
142.623
  0
LINE
  8
0
 10
66.6345
 20
142.623
 11
66.6772
 21
142.539
  0
LINE
  8
0
 10
66.6772
 20
142.539
 11
66.7147
 21
142.452
  0
LINE
  8
0
 10
66.7147
 20
142.452
 11
66.7466
 21
142.364
  0
LINE
  8
0
 10
66.7466
 20
142.364
 11
66.7729
 21
142.273
  0
LINE
  8
0
 10
66.7729
 20
142.273
 11
66.7934
 21
142.181
  0
LINE
  8
0
 10
66.7934
 20
142.181
 11
66.8082
 21
142.088
  0
LINE
  8
0
 10
66.8082
 20
142.088
 11
66.817
 21
141.994
  0
LINE
  8
0
 10
66.817
 20
141.994
 11
66.82
 21
141.9
  0
LINE
  8
0
 10
66.82
 20
141.9
 11
66.817
 21
141.806
  0
LINE
  8
0
 10
66.817
 20
141.806
 11
66.8082
 21
141.712
  0
LINE
  8
0
 10
66.8082
 20
141.712
 11
66.7934
 21
141.619
  0
LINE
  8
0
 10
66.7934
 20
141.619
 11
66.7729
 21
141.527
  0
LINE
  8
0
 10
66.7729
 20
141.527
 11
66.7466
 21
141.436
  0
LINE
  8
0
 10
66.7466
 20
141.436
 11
66.7147
 21
141.348
  0
LINE
  8
0
 10
66.7147
 20
141.348
 11
66.6772
 21
141.261
  0
LINE
  8
0
 10
66.6772
 20
141.261
 11
66.6345
 21
141.177
  0
LINE
  8
0
 10
66.6345
 20
141.177
 11
66.5865
 21
141.096
  0
LINE
  8
0
 10
66.5865
 20
141.096
 11
66.5335
 21
141.018
  0
LINE
  8
0
 10
66.5335
 20
141.018
 11
66.4758
 21
140.944
  0
LINE
  8
0
 10
66.4758
 20
140.944
 11
66.4135
 21
140.873
  0
LINE
  8
0
 10
66.4135
 20
140.873
 11
66.3468
 21
140.807
  0
LINE
  8
0
 10
66.3468
 20
140.807
 11
66.2761
 21
140.744
  0
LINE
  8
0
 10
66.2761
 20
140.744
 11
66.2017
 21
140.686
  0
LINE
  8
0
 10
66.2017
 20
140.686
 11
66.1237
 21
140.634
  0
LINE
  8
0
 10
66.1237
 20
140.634
 11
66.0426
 21
140.586
  0
LINE
  8
0
 10
66.0426
 20
140.586
 11
65.9587
 21
140.543
  0
LINE
  8
0
 10
65.9587
 20
140.543
 11
65.8722
 21
140.505
  0
LINE
  8
0
 10
65.8722
 20
140.505
 11
65.7835
 21
140.473
  0
LINE
  8
0
 10
65.7835
 20
140.473
 11
65.693
 21
140.447
  0
LINE
  8
0
 10
65.693
 20
140.447
 11
65.6011
 21
140.427
  0
LINE
  8
0
 10
65.6011
 20
140.427
 11
65.508
 21
140.412
  0
LINE
  8
0
 10
65.508
 20
140.412
 11
65.4142
 21
140.403
  0
LINE
  8
0
 10
65.4142
 20
140.403
 11
65.32
 21
140.4
  0
LINE
  8
0
 10
65.32
 20
140.4
 11
65.2258
 21
140.403
  0
LINE
  8
0
 10
32.5858
 20
140.403
 11
32.492
 21
140.412
  0
LINE
  8
0
 10
32.492
 20
140.412
 11
32.3989
 21
140.427
  0
LINE
  8
0
 10
32.3989
 20
140.427
 11
32.307
 21
140.447
  0
LINE
  8
0
 10
32.307
 20
140.447
 11
32.2165
 21
140.473
  0
LINE
  8
0
 10
32.2165
 20
140.473
 11
32.1278
 21
140.505
  0
LINE
  8
0
 10
32.1278
 20
140.505
 11
32.0413
 21
140.543
  0
LINE
  8
0
 10
32.0413
 20
140.543
 11
31.9574
 21
140.586
  0
LINE
  8
0
 10
31.9574
 20
140.586
 11
31.8763
 21
140.634
  0
LINE
  8
0
 10
31.8763
 20
140.634
 11
31.7983
 21
140.686
  0
LINE
  8
0
 10
31.7983
 20
140.686
 11
31.7239
 21
140.744
  0
LINE
  8
0
 10
31.7239
 20
140.744
 11
31.6532
 21
140.807
  0
LINE
  8
0
 10
31.6532
 20
140.807
 11
31.5865
 21
140.873
  0
LINE
  8
0
 10
31.5865
 20
140.873
 11
31.5242
 21
140.944
  0
LINE
  8
0
 10
31.5242
 20
140.944
 11
31.4665
 21
141.018
  0
LINE
  8
0
 10
31.4665
 20
141.018
 11
31.4135
 21
141.096
  0
LINE
  8
0
 10
31.4135
 20
141.096
 11
31.3655
 21
141.177
  0
LINE
  8
0
 10
31.3655
 20
141.177
 11
31.3228
 21
141.261
  0
LINE
  8
0
 10
31.3228
 20
141.261
 11
31.2853
 21
141.348
  0
LINE
  8
0
 10
31.2853
 20
141.348
 11
31.2534
 21
141.436
  0
LINE
  8
0
 10
31.2534
 20
141.436
 11
31.2271
 21
141.527
  0
LINE
  8
0
 10
31.2271
 20
141.527
 11
31.2066
 21
141.619
  0
LINE
  8
0
 10
31.2066
 20
141.619
 11
31.1918
 21
141.712
  0
LINE
  8
0
 10
31.1918
 20
141.712
 11
31.183
 21
141.806
  0
LINE
  8
0
 10
31.183
 20
141.806
 11
31.18
 21
141.9
  0
LINE
  8
0
 10
31.18
 20
141.9
 11
31.183
 21
141.994
  0
LINE
  8
0
 10
31.183
 20
141.994
 11
31.1918
 21
142.088
  0
LINE
  8
0
 10
31.1918
 20
142.088
 11
31.2066
 21
142.181
  0
LINE
  8
0
 10
31.2066
 20
142.181
 11
31.2271
 21
142.273
  0
LINE
  8
0
 10
31.2271
 20
142.273
 11
31.2534
 21
142.364
  0
LINE
  8
0
 10
31.2534
 20
142.364
 11
31.2853
 21
142.452
  0
LINE
  8
0
 10
31.2853
 20
142.452
 11
31.3228
 21
142.539
  0
LINE
  8
0
 10
31.3228
 20
142.539
 11
31.3655
 21
142.623
  0
LINE
  8
0
 10
31.3655
 20
142.623
 11
31.4135
 21
142.704
  0
LINE
  8
0
 10
31.4135
 20
142.704
 11
31.4665
 21
142.782
  0
LINE
  8
0
 10
31.4665
 20
142.782
 11
31.5242
 21
142.856
  0
LINE
  8
0
 10
31.5242
 20
142.856
 11
31.5865
 21
142.927
  0
LINE
  8
0
 10
31.5865
 20
142.927
 11
31.6532
 21
142.993
  0
LINE
  8
0
 10
31.6532
 20
142.993
 11
31.7239
 21
143.056
  0
LINE
  8
0
 10
31.7239
 20
143.056
 11
31.7983
 21
143.114
  0
LINE
  8
0
 10
31.7983
 20
143.114
 11
31.8763
 21
143.166
  0
LINE
  8
0
 10
31.8763
 20
143.166
 11
31.9574
 21
143.214
  0
LINE
  8
0
 10
31.9574
 20
143.214
 11
32.0413
 21
143.257
  0
LINE
  8
0
 10
32.0413
 20
143.257
 11
32.1278
 21
143.295
  0
LINE
  8
0
 10
32.1278
 20
143.295
 11
32.2165
 21
143.327
  0
LINE
  8
0
 10
32.2165
 20
143.327
 11
32.307
 21
143.353
  0
LINE
  8
0
 10
32.307
 20
143.353
 11
32.3989
 21
143.373
  0
LINE
  8
0
 10
32.3989
 20
143.373
 11
32.492
 21
143.388
  0
LINE
  8
0
 10
32.492
 20
143.388
 11
32.5858
 21
143.397
  0
LINE
  8
0
 10
32.5858
 20
143.397
 11
32.68
 21
143.4
  0
LINE
  8
0
 10
32.68
 20
143.4
 11
32.7742
 21
143.397
  0
LINE
  8
0
 10
32.7742
 20
143.397
 11
32.868
 21
143.388
  0
LINE
  8
0
 10
32.868
 20
143.388
 11
32.9611
 21
143.373
  0
LINE
  8
0
 10
32.9611
 20
143.373
 11
33.053
 21
143.353
  0
LINE
  8
0
 10
33.053
 20
143.353
 11
33.1435
 21
143.327
  0
LINE
  8
0
 10
33.1435
 20
143.327
 11
33.2322
 21
143.295
  0
LINE
  8
0
 10
33.2322
 20
143.295
 11
33.3187
 21
143.257
  0
LINE
  8
0
 10
33.3187
 20
143.257
 11
33.4026
 21
143.214
  0
LINE
  8
0
 10
33.4026
 20
143.214
 11
33.4837
 21
143.166
  0
LINE
  8
0
 10
33.4837
 20
143.166
 11
33.5617
 21
143.114
  0
LINE
  8
0
 10
33.5617
 20
143.114
 11
33.6361
 21
143.056
  0
LINE
  8
0
 10
33.6361
 20
143.056
 11
33.7068
 21
142.993
  0
LINE
  8
0
 10
33.7068
 20
142.993
 11
33.7735
 21
142.927
  0
LINE
  8
0
 10
33.7735
 20
142.927
 11
33.8358
 21
142.856
  0
LINE
  8
0
 10
33.8358
 20
142.856
 11
33.8935
 21
142.782
  0
LINE
  8
0
 10
33.8935
 20
142.782
 11
33.9465
 21
142.704
  0
LINE
  8
0
 10
33.9465
 20
142.704
 11
33.9945
 21
142.623
  0
LINE
  8
0
 10
33.9945
 20
142.623
 11
34.0372
 21
142.539
  0
LINE
  8
0
 10
34.0372
 20
142.539
 11
34.0747
 21
142.452
  0
LINE
  8
0
 10
34.0747
 20
142.452
 11
34.1066
 21
142.364
  0
LINE
  8
0
 10
34.1066
 20
142.364
 11
34.1329
 21
142.273
  0
LINE
  8
0
 10
34.1329
 20
142.273
 11
34.1534
 21
142.181
  0
LINE
  8
0
 10
34.1534
 20
142.181
 11
34.1682
 21
142.088
  0
LINE
  8
0
 10
34.1682
 20
142.088
 11
34.177
 21
141.994
  0
LINE
  8
0
 10
34.177
 20
141.994
 11
34.18
 21
141.9
  0
LINE
  8
0
 10
34.18
 20
141.9
 11
34.177
 21
141.806
  0
LINE
  8
0
 10
34.177
 20
141.806
 11
34.1682
 21
141.712
  0
LINE
  8
0
 10
34.1682
 20
141.712
 11
34.1534
 21
141.619
  0
LINE
  8
0
 10
34.1534
 20
141.619
 11
34.1329
 21
141.527
  0
LINE
  8
0
 10
34.1329
 20
141.527
 11
34.1066
 21
141.436
  0
LINE
  8
0
 10
34.1066
 20
141.436
 11
34.0747
 21
141.348
  0
LINE
  8
0
 10
34.0747
 20
141.348
 11
34.0372
 21
141.261
  0
LINE
  8
0
 10
34.0372
 20
141.261
 11
33.9945
 21
141.177
  0
LINE
  8
0
 10
33.9945
 20
141.177
 11
33.9465
 21
141.096
  0
LINE
  8
0
 10
33.9465
 20
141.096
 11
33.8935
 21
141.018
  0
LINE
  8
0
 10
33.8935
 20
141.018
 11
33.8358
 21
140.944
  0
LINE
  8
0
 10
33.8358
 20
140.944
 11
33.7735
 21
140.873
  0
LINE
  8
0
 10
33.7735
 20
140.873
 11
33.7068
 21
140.807
  0
LINE
  8
0
 10
33.7068
 20
140.807
 11
33.6361
 21
140.744
  0
LINE
  8
0
 10
33.6361
 20
140.744
 11
33.5617
 21
140.686
  0
LINE
  8
0
 10
33.5617
 20
140.686
 11
33.4837
 21
140.634
  0
LINE
  8
0
 10
33.4837
 20
140.634
 11
33.4026
 21
140.586
  0
LINE
  8
0
 10
33.4026
 20
140.586
 11
33.3187
 21
140.543
  0
LINE
  8
0
 10
33.3187
 20
140.543
 11
33.2322
 21
140.505
  0
LINE
  8
0
 10
33.2322
 20
140.505
 11
33.1435
 21
140.473
  0
LINE
  8
0
 10
33.1435
 20
140.473
 11
33.053
 21
140.447
  0
LINE
  8
0
 10
33.053
 20
140.447
 11
32.9611
 21
140.427
  0
LINE
  8
0
 10
32.9611
 20
140.427
 11
32.868
 21
140.412
  0
LINE
  8
0
 10
32.868
 20
140.412
 11
32.7742
 21
140.403
  0
LINE
  8
0
 10
32.7742
 20
140.403
 11
32.68
 21
140.4
  0
LINE
  8
0
 10
32.68
 20
140.4
 11
32.5858
 21
140.403
  0
LINE
  8
0
 10
48.1492
 20
81.0267
 11
47.3017
 21
81.1068
  0
LINE
  8
0
 10
47.3017
 20
81.1068
 11
46.461
 21
81.24
  0
LINE
  8
0
 10
46.461
 20
81.24
 11
45.6302
 21
81.4257
  0
LINE
  8
0
 10
45.6302
 20
81.4257
 11
44.8128
 21
81.6632
  0
LINE
  8
0
 10
44.8128
 20
81.6632
 11
44.0119
 21
81.9515
  0
LINE
  8
0
 10
44.0119
 20
81.9515
 11
43.2307
 21
82.2896
  0
LINE
  8
0
 10
43.2307
 20
82.2896
 11
42.4722
 21
82.676
  0
LINE
  8
0
 10
42.4722
 20
82.676
 11
41.7395
 21
83.1094
  0
LINE
  8
0
 10
41.7395
 20
83.1094
 11
41.0355
 21
83.5878
  0
LINE
  8
0
 10
41.0355
 20
83.5878
 11
40.3629
 21
84.1095
  0
LINE
  8
0
 10
40.3629
 20
84.1095
 11
39.7244
 21
84.6725
  0
LINE
  8
0
 10
39.7244
 20
84.6725
 11
39.1225
 21
85.2744
  0
LINE
  8
0
 10
39.1225
 20
85.2744
 11
38.5595
 21
85.9129
  0
LINE
  8
0
 10
38.5595
 20
85.9129
 11
38.0378
 21
86.5855
  0
LINE
  8
0
 10
38.0378
 20
86.5855
 11
37.5594
 21
87.2895
  0
LINE
  8
0
 10
37.5594
 20
87.2895
 11
37.126
 21
88.0222
  0
LINE
  8
0
 10
37.126
 20
88.0222
 11
36.7396
 21
88.7807
  0
LINE
  8
0
 10
36.7396
 20
88.7807
 11
36.4015
 21
89.5619
  0
LINE
  8
0
 10
36.4015
 20
89.5619
 11
36.1132
 21
90.3628
  0
LINE
  8
0
 10
36.1132
 20
90.3628
 11
35.8757
 21
91.1803
  0
LINE
  8
0
 10
35.8757
 20
91.1803
 11
35.69
 21
92.011
  0
LINE
  8
0
 10
35.69
 20
92.011
 11
35.5568
 21
92.8517
  0
LINE
  8
0
 10
35.5568
 20
92.8517
 11
35.4767
 21
93.6992
  0
LINE
  8
0
 10
35.4767
 20
93.6992
 11
35.45
 21
94.55
  0
LINE
  8
0
 10
35.45
 20
94.55
 11
35.45
 21
105.75
  0
LINE
  8
0
 10
35.45
 20
105.75
 11
35.4767
 21
106.601
  0
LINE
  8
0
 10
35.4767
 20
106.601
 11
35.5568
 21
107.448
  0
LINE
  8
0
 10
35.5568
 20
107.448
 11
35.69
 21
108.289
  0
LINE
  8
0
 10
35.69
 20
108.289
 11
35.8757
 21
109.12
  0
LINE
  8
0
 10
35.8757
 20
109.12
 11
36.1132
 21
109.937
  0
LINE
  8
0
 10
36.1132
 20
109.937
 11
36.4015
 21
110.738
  0
LINE
  8
0
 10
36.4015
 20
110.738
 11
36.7396
 21
111.519
  0
LINE
  8
0
 10
36.7396
 20
111.519
 11
37.126
 21
112.278
  0
LINE
  8
0
 10
37.126
 20
112.278
 11
37.5594
 21
113.01
  0
LINE
  8
0
 10
37.5594
 20
113.01
 11
38.0378
 21
113.714
  0
LINE
  8
0
 10
38.0378
 20
113.714
 11
38.5595
 21
114.387
  0
LINE
  8
0
 10
38.5595
 20
114.387
 11
39.1225
 21
115.026
  0
LINE
  8
0
 10
39.1225
 20
115.026
 11
39.7244
 21
115.628
  0
LINE
  8
0
 10
39.7244
 20
115.628
 11
40.3629
 21
116.19
  0
LINE
  8
0
 10
40.3629
 20
116.19
 11
41.0355
 21
116.712
  0
LINE
  8
0
 10
41.0355
 20
116.712
 11
41.7395
 21
117.191
  0
LINE
  8
0
 10
41.7395
 20
117.191
 11
42.4722
 21
117.624
  0
LINE
  8
0
 10
42.4722
 20
117.624
 11
43.2307
 21
118.01
  0
LINE
  8
0
 10
43.2307
 20
118.01
 11
44.0119
 21
118.348
  0
LINE
  8
0
 10
44.0119
 20
118.348
 11
44.8128
 21
118.637
  0
LINE
  8
0
 10
44.8128
 20
118.637
 11
45.6302
 21
118.874
  0
LINE
  8
0
 10
45.6302
 20
118.874
 11
46.461
 21
119.06
  0
LINE
  8
0
 10
46.461
 20
119.06
 11
47.3017
 21
119.193
  0
LINE
  8
0
 10
47.3017
 20
119.193
 11
48.1492
 21
119.273
  0
LINE
  8
0
 10
48.1492
 20
119.273
 11
49
 21
119.3
  0
LINE
  8
0
 10
49
 20
119.3
 11
49.8508
 21
119.273
  0
LINE
  8
0
 10
49.8508
 20
119.273
 11
50.6983
 21
119.193
  0
LINE
  8
0
 10
50.6983
 20
119.193
 11
51.539
 21
119.06
  0
LINE
  8
0
 10
51.539
 20
119.06
 11
52.3697
 21
118.874
  0
LINE
  8
0
 10
52.3697
 20
118.874
 11
53.1872
 21
118.637
  0
LINE
  8
0
 10
53.1872
 20
118.637
 11
53.9881
 21
118.348
  0
LINE
  8
0
 10
53.9881
 20
118.348
 11
54.7693
 21
118.01
  0
LINE
  8
0
 10
54.7693
 20
118.01
 11
55.5278
 21
117.624
  0
LINE
  8
0
 10
55.5278
 20
117.624
 11
56.2605
 21
117.191
  0
LINE
  8
0
 10
56.2605
 20
117.191
 11
56.9645
 21
116.712
  0
LINE
  8
0
 10
56.9645
 20
116.712
 11
57.6371
 21
116.19
  0
LINE
  8
0
 10
57.6371
 20
116.19
 11
58.2756
 21
115.628
  0
LINE
  8
0
 10
58.2756
 20
115.628
 11
58.8775
 21
115.026
  0
LINE
  8
0
 10
58.8775
 20
115.026
 11
59.4404
 21
114.387
  0
LINE
  8
0
 10
59.4404
 20
114.387
 11
59.9622
 21
113.714
  0
LINE
  8
0
 10
59.9622
 20
113.714
 11
60.4406
 21
113.01
  0
LINE
  8
0
 10
60.4406
 20
113.01
 11
60.8739
 21
112.278
  0
LINE
  8
0
 10
60.8739
 20
112.278
 11
61.2604
 21
111.519
  0
LINE
  8
0
 10
61.2604
 20
111.519
 11
61.5985
 21
110.738
  0
LINE
  8
0
 10
61.5985
 20
110.738
 11
61.8868
 21
109.937
  0
LINE
  8
0
 10
61.8868
 20
109.937
 11
62.1243
 21
109.12
  0
LINE
  8
0
 10
62.1243
 20
109.12
 11
62.31
 21
108.289
  0
LINE
  8
0
 10
62.31
 20
108.289
 11
62.4431
 21
107.448
  0
LINE
  8
0
 10
62.4431
 20
107.448
 11
62.5233
 21
106.601
  0
LINE
  8
0
 10
62.5233
 20
106.601
 11
62.55
 21
105.75
  0
LINE
  8
0
 10
62.55
 20
105.75
 11
62.55
 21
94.55
  0
LINE
  8
0
 10
62.55
 20
94.55
 11
62.5233
 21
93.6992
  0
LINE
  8
0
 10
62.5233
 20
93.6992
 11
62.4431
 21
92.8517
  0
LINE
  8
0
 10
62.4431
 20
92.8517
 11
62.31
 21
92.011
  0
LINE
  8
0
 10
62.31
 20
92.011
 11
62.1243
 21
91.1803
  0
LINE
  8
0
 10
62.1243
 20
91.1803
 11
61.8868
 21
90.3628
  0
LINE
  8
0
 10
61.8868
 20
90.3628
 11
61.5985
 21
89.5619
  0
LINE
  8
0
 10
61.5985
 20
89.5619
 11
61.2604
 21
88.7807
  0
LINE
  8
0
 10
61.2604
 20
88.7807
 11
60.8739
 21
88.0222
  0
LINE
  8
0
 10
60.8739
 20
88.0222
 11
60.4406
 21
87.2895
  0
LINE
  8
0
 10
60.4406
 20
87.2895
 11
59.9622
 21
86.5855
  0
LINE
  8
0
 10
59.9622
 20
86.5855
 11
59.4404
 21
85.9129
  0
LINE
  8
0
 10
59.4404
 20
85.9129
 11
58.8775
 21
85.2744
  0
LINE
  8
0
 10
58.8775
 20
85.2744
 11
58.2756
 21
84.6725
  0
LINE
  8
0
 10
58.2756
 20
84.6725
 11
57.6371
 21
84.1095
  0
LINE
  8
0
 10
57.6371
 20
84.1095
 11
56.9645
 21
83.5878
  0
LINE
  8
0
 10
56.9645
 20
83.5878
 11
56.2605
 21
83.1094
  0
LINE
  8
0
 10
56.2605
 20
83.1094
 11
55.5278
 21
82.676
  0
LINE
  8
0
 10
55.5278
 20
82.676
 11
54.7693
 21
82.2896
  0
LINE
  8
0
 10
54.7693
 20
82.2896
 11
53.9881
 21
81.9515
  0
LINE
  8
0
 10
53.9881
 20
81.9515
 11
53.1872
 21
81.6632
  0
LINE
  8
0
 10
53.1872
 20
81.6632
 11
52.3697
 21
81.4257
  0
LINE
  8
0
 10
52.3697
 20
81.4257
 11
51.539
 21
81.24
  0
LINE
  8
0
 10
51.539
 20
81.24
 11
50.6983
 21
81.1068
  0
LINE
  8
0
 10
50.6983
 20
81.1068
 11
49.8508
 21
81.0267
  0
LINE
  8
0
 10
49.8508
 20
81.0267
 11
49
 21
81
  0
LINE
  8
0
 10
49
 20
81
 11
48.1492
 21
81.0267
  0
LINE
  8
0
 10
65.2258
 20
69.003
 11
65.132
 21
69.0118
  0
LINE
  8
0
 10
65.132
 20
69.0118
 11
65.0389
 21
69.0266
  0
LINE
  8
0
 10
65.0389
 20
69.0266
 11
64.947
 21
69.0471
  0
LINE
  8
0
 10
64.947
 20
69.0471
 11
64.8565
 21
69.0734
  0
LINE
  8
0
 10
64.8565
 20
69.0734
 11
64.7678
 21
69.1053
  0
LINE
  8
0
 10
64.7678
 20
69.1053
 11
64.6813
 21
69.1428
  0
LINE
  8
0
 10
64.6813
 20
69.1428
 11
64.5974
 21
69.1855
  0
LINE
  8
0
 10
64.5974
 20
69.1855
 11
64.5163
 21
69.2335
  0
LINE
  8
0
 10
64.5163
 20
69.2335
 11
64.4383
 21
69.2865
  0
LINE
  8
0
 10
64.4383
 20
69.2865
 11
64.3639
 21
69.3442
  0
LINE
  8
0
 10
64.3639
 20
69.3442
 11
64.2932
 21
69.4065
  0
LINE
  8
0
 10
64.2932
 20
69.4065
 11
64.2265
 21
69.4732
  0
LINE
  8
0
 10
64.2265
 20
69.4732
 11
64.1642
 21
69.5439
  0
LINE
  8
0
 10
64.1642
 20
69.5439
 11
64.1065
 21
69.6183
  0
LINE
  8
0
 10
64.1065
 20
69.6183
 11
64.0535
 21
69.6963
  0
LINE
  8
0
 10
64.0535
 20
69.6963
 11
64.0055
 21
69.7774
  0
LINE
  8
0
 10
64.0055
 20
69.7774
 11
63.9628
 21
69.8613
  0
LINE
  8
0
 10
63.9628
 20
69.8613
 11
63.9253
 21
69.9478
  0
LINE
  8
0
 10
63.9253
 20
69.9478
 11
63.8934
 21
70.0365
  0
LINE
  8
0
 10
63.8934
 20
70.0365
 11
63.8671
 21
70.127
  0
LINE
  8
0
 10
63.8671
 20
70.127
 11
63.8466
 21
70.2189
  0
LINE
  8
0
 10
63.8466
 20
70.2189
 11
63.8318
 21
70.312
  0
LINE
  8
0
 10
63.8318
 20
70.312
 11
63.823
 21
70.4058
  0
LINE
  8
0
 10
63.823
 20
70.4058
 11
63.82
 21
70.5
  0
LINE
  8
0
 10
63.82
 20
70.5
 11
63.823
 21
70.5942
  0
LINE
  8
0
 10
63.823
 20
70.5942
 11
63.8318
 21
70.688
  0
LINE
  8
0
 10
63.8318
 20
70.688
 11
63.8466
 21
70.7811
  0
LINE
  8
0
 10
63.8466
 20
70.7811
 11
63.8671
 21
70.873
  0
LINE
  8
0
 10
63.8671
 20
70.873
 11
63.8934
 21
70.9635
  0
LINE
  8
0
 10
63.8934
 20
70.9635
 11
63.9253
 21
71.0522
  0
LINE
  8
0
 10
63.9253
 20
71.0522
 11
63.9628
 21
71.1387
  0
LINE
  8
0
 10
63.9628
 20
71.1387
 11
64.0055
 21
71.2226
  0
LINE
  8
0
 10
64.0055
 20
71.2226
 11
64.0535
 21
71.3037
  0
LINE
  8
0
 10
64.0535
 20
71.3037
 11
64.1065
 21
71.3817
  0
LINE
  8
0
 10
64.1065
 20
71.3817
 11
64.1642
 21
71.4561
  0
LINE
  8
0
 10
64.1642
 20
71.4561
 11
64.2265
 21
71.5268
  0
LINE
  8
0
 10
64.2265
 20
71.5268
 11
64.2932
 21
71.5934
  0
LINE
  8
0
 10
64.2932
 20
71.5934
 11
64.3639
 21
71.6558
  0
LINE
  8
0
 10
64.3639
 20
71.6558
 11
64.4383
 21
71.7135
  0
LINE
  8
0
 10
64.4383
 20
71.7135
 11
64.5163
 21
71.7665
  0
LINE
  8
0
 10
64.5163
 20
71.7665
 11
64.5974
 21
71.8145
  0
LINE
  8
0
 10
64.5974
 20
71.8145
 11
64.6813
 21
71.8572
  0
LINE
  8
0
 10
64.6813
 20
71.8572
 11
64.7678
 21
71.8947
  0
LINE
  8
0
 10
64.7678
 20
71.8947
 11
64.8565
 21
71.9266
  0
LINE
  8
0
 10
64.8565
 20
71.9266
 11
64.947
 21
71.9529
  0
LINE
  8
0
 10
64.947
 20
71.9529
 11
65.0389
 21
71.9734
  0
LINE
  8
0
 10
65.0389
 20
71.9734
 11
65.132
 21
71.9882
  0
LINE
  8
0
 10
65.132
 20
71.9882
 11
65.2258
 21
71.997
  0
LINE
  8
0
 10
65.2258
 20
71.997
 11
65.32
 21
72
  0
LINE
  8
0
 10
65.32
 20
72
 11
65.4142
 21
71.997
  0
LINE
  8
0
 10
65.4142
 20
71.997
 11
65.508
 21
71.9882
  0
LINE
  8
0
 10
65.508
 20
71.9882
 11
65.6011
 21
71.9734
  0
LINE
  8
0
 10
65.6011
 20
71.9734
 11
65.693
 21
71.9529
  0
LINE
  8
0
 10
65.693
 20
71.9529
 11
65.7835
 21
71.9266
  0
LINE
  8
0
 10
65.7835
 20
71.9266
 11
65.8722
 21
71.8947
  0
LINE
  8
0
 10
65.8722
 20
71.8947
 11
65.9587
 21
71.8572
  0
LINE
  8
0
 10
65.9587
 20
71.8572
 11
66.0426
 21
71.8145
  0
LINE
  8
0
 10
66.0426
 20
71.8145
 11
66.1237
 21
71.7665
  0
LINE
  8
0
 10
66.1237
 20
71.7665
 11
66.2017
 21
71.7135
  0
LINE
  8
0
 10
66.2017
 20
71.7135
 11
66.2761
 21
71.6558
  0
LINE
  8
0
 10
66.2761
 20
71.6558
 11
66.3468
 21
71.5934
  0
LINE
  8
0
 10
66.3468
 20
71.5934
 11
66.4135
 21
71.5268
  0
LINE
  8
0
 10
66.4135
 20
71.5268
 11
66.4758
 21
71.4561
  0
LINE
  8
0
 10
66.4758
 20
71.4561
 11
66.5335
 21
71.3817
  0
LINE
  8
0
 10
66.5335
 20
71.3817
 11
66.5865
 21
71.3037
  0
LINE
  8
0
 10
66.5865
 20
71.3037
 11
66.6345
 21
71.2226
  0
LINE
  8
0
 10
66.6345
 20
71.2226
 11
66.6772
 21
71.1387
  0
LINE
  8
0
 10
66.6772
 20
71.1387
 11
66.7147
 21
71.0522
  0
LINE
  8
0
 10
66.7147
 20
71.0522
 11
66.7466
 21
70.9635
  0
LINE
  8
0
 10
66.7466
 20
70.9635
 11
66.7729
 21
70.873
  0
LINE
  8
0
 10
66.7729
 20
70.873
 11
66.7934
 21
70.7811
  0
LINE
  8
0
 10
66.7934
 20
70.7811
 11
66.8082
 21
70.688
  0
LINE
  8
0
 10
66.8082
 20
70.688
 11
66.817
 21
70.5942
  0
LINE
  8
0
 10
66.817
 20
70.5942
 11
66.82
 21
70.5
  0
LINE
  8
0
 10
66.82
 20
70.5
 11
66.817
 21
70.4058
  0
LINE
  8
0
 10
66.817
 20
70.4058
 11
66.8082
 21
70.312
  0
LINE
  8
0
 10
66.8082
 20
70.312
 11
66.7934
 21
70.2189
  0
LINE
  8
0
 10
66.7934
 20
70.2189
 11
66.7729
 21
70.127
  0
LINE
  8
0
 10
66.7729
 20
70.127
 11
66.7466
 21
70.0365
  0
LINE
  8
0
 10
66.7466
 20
70.0365
 11
66.7147
 21
69.9478
  0
LINE
  8
0
 10
66.7147
 20
69.9478
 11
66.6772
 21
69.8613
  0
LINE
  8
0
 10
66.6772
 20
69.8613
 11
66.6345
 21
69.7774
  0
LINE
  8
0
 10
66.6345
 20
69.7774
 11
66.5865
 21
69.6963
  0
LINE
  8
0
 10
66.5865
 20
69.6963
 11
66.5335
 21
69.6183
  0
LINE
  8
0
 10
66.5335
 20
69.6183
 11
66.4758
 21
69.5439
  0
LINE
  8
0
 10
66.4758
 20
69.5439
 11
66.4135
 21
69.4732
  0
LINE
  8
0
 10
66.4135
 20
69.4732
 11
66.3468
 21
69.4065
  0
LINE
  8
0
 10
66.3468
 20
69.4065
 11
66.2761
 21
69.3442
  0
LINE
  8
0
 10
66.2761
 20
69.3442
 11
66.2017
 21
69.2865
  0
LINE
  8
0
 10
66.2017
 20
69.2865
 11
66.1237
 21
69.2335
  0
LINE
  8
0
 10
66.1237
 20
69.2335
 11
66.0426
 21
69.1855
  0
LINE
  8
0
 10
66.0426
 20
69.1855
 11
65.9587
 21
69.1428
  0
LINE
  8
0
 10
65.9587
 20
69.1428
 11
65.8722
 21
69.1053
  0
LINE
  8
0
 10
65.8722
 20
69.1053
 11
65.7835
 21
69.0734
  0
LINE
  8
0
 10
65.7835
 20
69.0734
 11
65.693
 21
69.0471
  0
LINE
  8
0
 10
65.693
 20
69.0471
 11
65.6011
 21
69.0266
  0
LINE
  8
0
 10
65.6011
 20
69.0266
 11
65.508
 21
69.0118
  0
LINE
  8
0
 10
65.508
 20
69.0118
 11
65.4142
 21
69.003
  0
LINE
  8
0
 10
65.4142
 20
69.003
 11
65.32
 21
69
  0
LINE
  8
0
 10
65.32
 20
69
 11
65.2258
 21
69.003
  0
LINE
  8
0
 10
32.5858
 20
69.003
 11
32.492
 21
69.0118
  0
LINE
  8
0
 10
32.492
 20
69.0118
 11
32.3989
 21
69.0266
  0
LINE
  8
0
 10
32.3989
 20
69.0266
 11
32.307
 21
69.0471
  0
LINE
  8
0
 10
32.307
 20
69.0471
 11
32.2165
 21
69.0734
  0
LINE
  8
0
 10
32.2165
 20
69.0734
 11
32.1278
 21
69.1053
  0
LINE
  8
0
 10
32.1278
 20
69.1053
 11
32.0413
 21
69.1428
  0
LINE
  8
0
 10
32.0413
 20
69.1428
 11
31.9574
 21
69.1855
  0
LINE
  8
0
 10
31.9574
 20
69.1855
 11
31.8763
 21
69.2335
  0
LINE
  8
0
 10
31.8763
 20
69.2335
 11
31.7983
 21
69.2865
  0
LINE
  8
0
 10
31.7983
 20
69.2865
 11
31.7239
 21
69.3442
  0
LINE
  8
0
 10
31.7239
 20
69.3442
 11
31.6532
 21
69.4065
  0
LINE
  8
0
 10
31.6532
 20
69.4065
 11
31.5865
 21
69.4732
  0
LINE
  8
0
 10
31.5865
 20
69.4732
 11
31.5242
 21
69.5439
  0
LINE
  8
0
 10
31.5242
 20
69.5439
 11
31.4665
 21
69.6183
  0
LINE
  8
0
 10
31.4665
 20
69.6183
 11
31.4135
 21
69.6963
  0
LINE
  8
0
 10
31.4135
 20
69.6963
 11
31.3655
 21
69.7774
  0
LINE
  8
0
 10
31.3655
 20
69.7774
 11
31.3228
 21
69.8613
  0
LINE
  8
0
 10
31.3228
 20
69.8613
 11
31.2853
 21
69.9478
  0
LINE
  8
0
 10
31.2853
 20
69.9478
 11
31.2534
 21
70.0365
  0
LINE
  8
0
 10
31.2534
 20
70.0365
 11
31.2271
 21
70.127
  0
LINE
  8
0
 10
31.2271
 20
70.127
 11
31.2066
 21
70.2189
  0
LINE
  8
0
 10
31.2066
 20
70.2189
 11
31.1918
 21
70.312
  0
LINE
  8
0
 10
31.1918
 20
70.312
 11
31.183
 21
70.4058
  0
LINE
  8
0
 10
31.183
 20
70.4058
 11
31.18
 21
70.5
  0
LINE
  8
0
 10
31.18
 20
70.5
 11
31.183
 21
70.5942
  0
LINE
  8
0
 10
31.183
 20
70.5942
 11
31.1918
 21
70.688
  0
LINE
  8
0
 10
31.1918
 20
70.688
 11
31.2066
 21
70.7811
  0
LINE
  8
0
 10
31.2066
 20
70.7811
 11
31.2271
 21
70.873
  0
LINE
  8
0
 10
31.2271
 20
70.873
 11
31.2534
 21
70.9635
  0
LINE
  8
0
 10
31.2534
 20
70.9635
 11
31.2853
 21
71.0522
  0
LINE
  8
0
 10
31.2853
 20
71.0522
 11
31.3228
 21
71.1387
  0
LINE
  8
0
 10
31.3228
 20
71.1387
 11
31.3655
 21
71.2226
  0
LINE
  8
0
 10
31.3655
 20
71.2226
 11
31.4135
 21
71.3037
  0
LINE
  8
0
 10
31.4135
 20
71.3037
 11
31.4665
 21
71.3817
  0
LINE
  8
0
 10
31.4665
 20
71.3817
 11
31.5242
 21
71.4561
  0
LINE
  8
0
 10
31.5242
 20
71.4561
 11
31.5865
 21
71.5268
  0
LINE
  8
0
 10
31.5865
 20
71.5268
 11
31.6532
 21
71.5934
  0
LINE
  8
0
 10
31.6532
 20
71.5934
 11
31.7239
 21
71.6558
  0
LINE
  8
0
 10
31.7239
 20
71.6558
 11
31.7983
 21
71.7135
  0
LINE
  8
0
 10
31.7983
 20
71.7135
 11
31.8763
 21
71.7665
  0
LINE
  8
0
 10
31.8763
 20
71.7665
 11
31.9574
 21
71.8145
  0
LINE
  8
0
 10
31.9574
 20
71.8145
 11
32.0413
 21
71.8572
  0
LINE
  8
0
 10
32.0413
 20
71.8572
 11
32.1278
 21
71.8947
  0
LINE
  8
0
 10
32.1278
 20
71.8947
 11
32.2165
 21
71.9266
  0
LINE
  8
0
 10
32.2165
 20
71.9266
 11
32.307
 21
71.9529
  0
LINE
  8
0
 10
32.307
 20
71.9529
 11
32.3989
 21
71.9734
  0
LINE
  8
0
 10
32.3989
 20
71.9734
 11
32.492
 21
71.9882
  0
LINE
  8
0
 10
32.492
 20
71.9882
 11
32.5858
 21
71.997
  0
LINE
  8
0
 10
32.5858
 20
71.997
 11
32.68
 21
72
  0
LINE
  8
0
 10
32.68
 20
72
 11
32.7742
 21
71.997
  0
LINE
  8
0
 10
32.7742
 20
71.997
 11
32.868
 21
71.9882
  0
LINE
  8
0
 10
32.868
 20
71.9882
 11
32.9611
 21
71.9734
  0
LINE
  8
0
 10
32.9611
 20
71.9734
 11
33.053
 21
71.9529
  0
LINE
  8
0
 10
33.053
 20
71.9529
 11
33.1435
 21
71.9266
  0
LINE
  8
0
 10
33.1435
 20
71.9266
 11
33.2322
 21
71.8947
  0
LINE
  8
0
 10
33.2322
 20
71.8947
 11
33.3187
 21
71.8572
  0
LINE
  8
0
 10
33.3187
 20
71.8572
 11
33.4026
 21
71.8145
  0
LINE
  8
0
 10
33.4026
 20
71.8145
 11
33.4837
 21
71.7665
  0
LINE
  8
0
 10
33.4837
 20
71.7665
 11
33.5617
 21
71.7135
  0
LINE
  8
0
 10
33.5617
 20
71.7135
 11
33.6361
 21
71.6558
  0
LINE
  8
0
 10
33.6361
 20
71.6558
 11
33.7068
 21
71.5934
  0
LINE
  8
0
 10
33.7068
 20
71.5934
 11
33.7735
 21
71.5268
  0
LINE
  8
0
 10
33.7735
 20
71.5268
 11
33.8358
 21
71.4561
  0
LINE
  8
0
 10
33.8358
 20
71.4561
 11
33.8935
 21
71.3817
  0
LINE
  8
0
 10
33.8935
 20
71.3817
 11
33.9465
 21
71.3037
  0
LINE
  8
0
 10
33.9465
 20
71.3037
 11
33.9945
 21
71.2226
  0
LINE
  8
0
 10
33.9945
 20
71.2226
 11
34.0372
 21
71.1387
  0
LINE
  8
0
 10
34.0372
 20
71.1387
 11
34.0747
 21
71.0522
  0
LINE
  8
0
 10
34.0747
 20
71.0522
 11
34.1066
 21
70.9635
  0
LINE
  8
0
 10
34.1066
 20
70.9635
 11
34.1329
 21
70.873
  0
LINE
  8
0
 10
34.1329
 20
70.873
 11
34.1534
 21
70.7811
  0
LINE
  8
0
 10
34.1534
 20
70.7811
 11
34.1682
 21
70.688
  0
LINE
  8
0
 10
34.1682
 20
70.688
 11
34.177
 21
70.5942
  0
LINE
  8
0
 10
34.177
 20
70.5942
 11
34.18
 21
70.5
  0
LINE
  8
0
 10
34.18
 20
70.5
 11
34.177
 21
70.4058
  0
LINE
  8
0
 10
34.177
 20
70.4058
 11
34.1682
 21
70.312
  0
LINE
  8
0
 10
34.1682
 20
70.312
 11
34.1534
 21
70.2189
  0
LINE
  8
0
 10
34.1534
 20
70.2189
 11
34.1329
 21
70.127
  0
LINE
  8
0
 10
34.1329
 20
70.127
 11
34.1066
 21
70.0365
  0
LINE
  8
0
 10
34.1066
 20
70.0365
 11
34.0747
 21
69.9478
  0
LINE
  8
0
 10
34.0747
 20
69.9478
 11
34.0372
 21
69.8613
  0
LINE
  8
0
 10
34.0372
 20
69.8613
 11
33.9945
 21
69.7774
  0
LINE
  8
0
 10
33.9945
 20
69.7774
 11
33.9465
 21
69.6963
  0
LINE
  8
0
 10
33.9465
 20
69.6963
 11
33.8935
 21
69.6183
  0
LINE
  8
0
 10
33.8935
 20
69.6183
 11
33.8358
 21
69.5439
  0
LINE
  8
0
 10
33.8358
 20
69.5439
 11
33.7735
 21
69.4732
  0
LINE
  8
0
 10
33.7735
 20
69.4732
 11
33.7068
 21
69.4065
  0
LINE
  8
0
 10
33.7068
 20
69.4065
 11
33.6361
 21
69.3442
  0
LINE
  8
0
 10
33.6361
 20
69.3442
 11
33.5617
 21
69.2865
  0
LINE
  8
0
 10
33.5617
 20
69.2865
 11
33.4837
 21
69.2335
  0
LINE
  8
0
 10
33.4837
 20
69.2335
 11
33.4026
 21
69.1855
  0
LINE
  8
0
 10
33.4026
 20
69.1855
 11
33.3187
 21
69.1428
  0
LINE
  8
0
 10
33.3187
 20
69.1428
 11
33.2322
 21
69.1053
  0
LINE
  8
0
 10
33.2322
 20
69.1053
 11
33.1435
 21
69.0734
  0
LINE
  8
0
 10
33.1435
 20
69.0734
 11
33.053
 21
69.0471
  0
LINE
  8
0
 10
33.053
 20
69.0471
 11
32.9611
 21
69.0266
  0
LINE
  8
0
 10
32.9611
 20
69.0266
 11
32.868
 21
69.0118
  0
LINE
  8
0
 10
32.868
 20
69.0118
 11
32.7742
 21
69.003
  0
LINE
  8
0
 10
32.7742
 20
69.003
 11
32.68
 21
69
  0
LINE
  8
0
 10
32.68
 20
69
 11
32.5858
 21
69.003
  0
LINE
  8
0
 10
48.8995
 20
58.2032
 11
48.7995
 21
58.2126
  0
LINE
  8
0
 10
48.7995
 20
58.2126
 11
48.7002
 21
58.2283
  0
LINE
  8
0
 10
48.7002
 20
58.2283
 11
48.6021
 21
58.2503
  0
LINE
  8
0
 10
48.6021
 20
58.2503
 11
48.5056
 21
58.2783
  0
LINE
  8
0
 10
48.5056
 20
58.2783
 11
48.411
 21
58.3123
  0
LINE
  8
0
 10
48.411
 20
58.3123
 11
48.3187
 21
58.3523
  0
LINE
  8
0
 10
48.3187
 20
58.3523
 11
48.2292
 21
58.3979
  0
LINE
  8
0
 10
48.2292
 20
58.3979
 11
48.1427
 21
58.4491
  0
LINE
  8
0
 10
48.1427
 20
58.4491
 11
48.0595
 21
58.5056
  0
LINE
  8
0
 10
48.0595
 20
58.5056
 11
47.9801
 21
58.5672
  0
LINE
  8
0
 10
47.9801
 20
58.5672
 11
47.9047
 21
58.6337
  0
LINE
  8
0
 10
47.9047
 20
58.6337
 11
47.8336
 21
58.7047
  0
LINE
  8
0
 10
47.8336
 20
58.7047
 11
47.7672
 21
58.7801
  0
LINE
  8
0
 10
47.7672
 20
58.7801
 11
47.7056
 21
58.8595
  0
LINE
  8
0
 10
47.7056
 20
58.8595
 11
47.6491
 21
58.9427
  0
LINE
  8
0
 10
47.6491
 20
58.9427
 11
47.5979
 21
59.0292
  0
LINE
  8
0
 10
47.5979
 20
59.0292
 11
47.5523
 21
59.1187
  0
LINE
  8
0
 10
47.5523
 20
59.1187
 11
47.5124
 21
59.211
  0
LINE
  8
0
 10
47.5124
 20
59.211
 11
47.4783
 21
59.3056
  0
LINE
  8
0
 10
47.4783
 20
59.3056
 11
47.4503
 21
59.4021
  0
LINE
  8
0
 10
47.4503
 20
59.4021
 11
47.4283
 21
59.5002
  0
LINE
  8
0
 10
47.4283
 20
59.5002
 11
47.4126
 21
59.5995
  0
LINE
  8
0
 10
47.4126
 20
59.5995
 11
47.4032
 21
59.6995
  0
LINE
  8
0
 10
47.4032
 20
59.6995
 11
47.4
 21
59.8
  0
LINE
  8
0
 10
47.4
 20
59.8
 11
47.4032
 21
59.9005
  0
LINE
  8
0
 10
47.4032
 20
59.9005
 11
47.4126
 21
60.0005
  0
LINE
  8
0
 10
47.4126
 20
60.0005
 11
47.4283
 21
60.0998
  0
LINE
  8
0
 10
47.4283
 20
60.0998
 11
47.4503
 21
60.1979
  0
LINE
  8
0
 10
47.4503
 20
60.1979
 11
47.4783
 21
60.2944
  0
LINE
  8
0
 10
47.4783
 20
60.2944
 11
47.5124
 21
60.389
  0
LINE
  8
0
 10
47.5124
 20
60.389
 11
47.5523
 21
60.4812
  0
LINE
  8
0
 10
47.5523
 20
60.4812
 11
47.5979
 21
60.5708
  0
LINE
  8
0
 10
47.5979
 20
60.5708
 11
47.6491
 21
60.6573
  0
LINE
  8
0
 10
47.6491
 20
60.6573
 11
47.7056
 21
60.7404
  0
LINE
  8
0
 10
47.7056
 20
60.7404
 11
47.7672
 21
60.8199
  0
LINE
  8
0
 10
47.7672
 20
60.8199
 11
47.8336
 21
60.8953
  0
LINE
  8
0
 10
47.8336
 20
60.8953
 11
47.9047
 21
60.9663
  0
LINE
  8
0
 10
47.9047
 20
60.9663
 11
47.9801
 21
61.0328
  0
LINE
  8
0
 10
47.9801
 20
61.0328
 11
48.0595
 21
61.0944
  0
LINE
  8
0
 10
48.0595
 20
61.0944
 11
48.1427
 21
61.1509
  0
LINE
  8
0
 10
48.1427
 20
61.1509
 11
48.2292
 21
61.2021
  0
LINE
  8
0
 10
48.2292
 20
61.2021
 11
48.3187
 21
61.2477
  0
LINE
  8
0
 10
48.3187
 20
61.2477
 11
48.411
 21
61.2876
  0
LINE
  8
0
 10
48.411
 20
61.2876
 11
48.5056
 21
61.3217
  0
LINE
  8
0
 10
48.5056
 20
61.3217
 11
48.6021
 21
61.3497
  0
LINE
  8
0
 10
48.6021
 20
61.3497
 11
48.7002
 21
61.3717
  0
LINE
  8
0
 10
48.7002
 20
61.3717
 11
48.7995
 21
61.3874
  0
LINE
  8
0
 10
48.7995
 20
61.3874
 11
48.8995
 21
61.3968
  0
LINE
  8
0
 10
48.8995
 20
61.3968
 11
49
 21
61.4
  0
LINE
  8
0
 10
49
 20
61.4
 11
49.1005
 21
61.3968
  0
LINE
  8
0
 10
49.1005
 20
61.3968
 11
49.2005
 21
61.3874
  0
LINE
  8
0
 10
49.2005
 20
61.3874
 11
49.2998
 21
61.3717
  0
LINE
  8
0
 10
49.2998
 20
61.3717
 11
49.3979
 21
61.3497
  0
LINE
  8
0
 10
49.3979
 20
61.3497
 11
49.4944
 21
61.3217
  0
LINE
  8
0
 10
49.4944
 20
61.3217
 11
49.589
 21
61.2876
  0
LINE
  8
0
 10
49.589
 20
61.2876
 11
49.6812
 21
61.2477
  0
LINE
  8
0
 10
49.6812
 20
61.2477
 11
49.7708
 21
61.2021
  0
LINE
  8
0
 10
49.7708
 20
61.2021
 11
49.8573
 21
61.1509
  0
LINE
  8
0
 10
49.8573
 20
61.1509
 11
49.9404
 21
61.0944
  0
LINE
  8
0
 10
49.9404
 20
61.0944
 11
50.0199
 21
61.0328
  0
LINE
  8
0
 10
50.0199
 20
61.0328
 11
50.0953
 21
60.9663
  0
LINE
  8
0
 10
50.0953
 20
60.9663
 11
50.1664
 21
60.8953
  0
LINE
  8
0
 10
50.1664
 20
60.8953
 11
50.2328
 21
60.8199
  0
LINE
  8
0
 10
50.2328
 20
60.8199
 11
50.2944
 21
60.7404
  0
LINE
  8
0
 10
50.2944
 20
60.7404
 11
50.3509
 21
60.6573
  0
LINE
  8
0
 10
50.3509
 20
60.6573
 11
50.4021
 21
60.5708
  0
LINE
  8
0
 10
50.4021
 20
60.5708
 11
50.4477
 21
60.4812
  0
LINE
  8
0
 10
50.4477
 20
60.4812
 11
50.4876
 21
60.389
  0
LINE
  8
0
 10
50.4876
 20
60.389
 11
50.5217
 21
60.2944
  0
LINE
  8
0
 10
50.5217
 20
60.2944
 11
50.5497
 21
60.1979
  0
LINE
  8
0
 10
50.5497
 20
60.1979
 11
50.5717
 21
60.0998
  0
LINE
  8
0
 10
50.5717
 20
60.0998
 11
50.5874
 21
60.0005
  0
LINE
  8
0
 10
50.5874
 20
60.0005
 11
50.5968
 21
59.9005
  0
LINE
  8
0
 10
50.5968
 20
59.9005
 11
50.6
 21
59.8
  0
LINE
  8
0
 10
50.6
 20
59.8
 11
50.5968
 21
59.6995
  0
LINE
  8
0
 10
50.5968
 20
59.6995
 11
50.5874
 21
59.5995
  0
LINE
  8
0
 10
50.5874
 20
59.5995
 11
50.5717
 21
59.5002
  0
LINE
  8
0
 10
50.5717
 20
59.5002
 11
50.5497
 21
59.4021
  0
LINE
  8
0
 10
50.5497
 20
59.4021
 11
50.5217
 21
59.3056
  0
LINE
  8
0
 10
50.5217
 20
59.3056
 11
50.4876
 21
59.211
  0
LINE
  8
0
 10
50.4876
 20
59.211
 11
50.4477
 21
59.1187
  0
LINE
  8
0
 10
50.4477
 20
59.1187
 11
50.4021
 21
59.0292
  0
LINE
  8
0
 10
50.4021
 20
59.0292
 11
50.3509
 21
58.9427
  0
LINE
  8
0
 10
50.3509
 20
58.9427
 11
50.2944
 21
58.8595
  0
LINE
  8
0
 10
50.2944
 20
58.8595
 11
50.2328
 21
58.7801
  0
LINE
  8
0
 10
50.2328
 20
58.7801
 11
50.1664
 21
58.7047
  0
LINE
  8
0
 10
50.1664
 20
58.7047
 11
50.0953
 21
58.6337
  0
LINE
  8
0
 10
50.0953
 20
58.6337
 11
50.0199
 21
58.5672
  0
LINE
  8
0
 10
50.0199
 20
58.5672
 11
49.9404
 21
58.5056
  0
LINE
  8
0
 10
49.9404
 20
58.5056
 11
49.8573
 21
58.4491
  0
LINE
  8
0
 10
49.8573
 20
58.4491
 11
49.7708
 21
58.3979
  0
LINE
  8
0
 10
49.7708
 20
58.3979
 11
49.6812
 21
58.3523
  0
LINE
  8
0
 10
49.6812
 20
58.3523
 11
49.589
 21
58.3123
  0
LINE
  8
0
 10
49.589
 20
58.3123
 11
49.4944
 21
58.2783
  0
LINE
  8
0
 10
49.4944
 20
58.2783
 11
49.3979
 21
58.2503
  0
LINE
  8
0
 10
49.3979
 20
58.2503
 11
49.2998
 21
58.2283
  0
LINE
  8
0
 10
49.2998
 20
58.2283
 11
49.2005
 21
58.2126
  0
LINE
  8
0
 10
49.2005
 20
58.2126
 11
49.1005
 21
58.2032
  0
LINE
  8
0
 10
49.1005
 20
58.2032
 11
49
 21
58.2
  0
LINE
  8
0
 10
49
 20
58.2
 11
48.8995
 21
58.2032
  0
LINE
  8
0
 10
48.774
 20
43.4071
 11
48.5488
 21
43.4284
  0
LINE
  8
0
 10
48.5488
 20
43.4284
 11
48.3254
 21
43.4638
  0
LINE
  8
0
 10
48.3254
 20
43.4638
 11
48.1047
 21
43.5131
  0
LINE
  8
0
 10
48.1047
 20
43.5131
 11
47.8875
 21
43.5762
  0
LINE
  8
0
 10
47.8875
 20
43.5762
 11
47.6747
 21
43.6528
  0
LINE
  8
0
 10
47.6747
 20
43.6528
 11
47.4672
 21
43.7426
  0
LINE
  8
0
 10
47.4672
 20
43.7426
 11
47.2657
 21
43.8453
  0
LINE
  8
0
 10
47.2657
 20
43.8453
 11
47.071
 21
43.9604
  0
LINE
  8
0
 10
47.071
 20
43.9604
 11
46.884
 21
44.0875
  0
LINE
  8
0
 10
46.884
 20
44.0875
 11
46.7053
 21
44.2262
  0
LINE
  8
0
 10
46.7053
 20
44.2262
 11
46.5356
 21
44.3757
  0
LINE
  8
0
 10
46.5356
 20
44.3757
 11
46.3757
 21
44.5356
  0
LINE
  8
0
 10
46.3757
 20
44.5356
 11
46.2262
 21
44.7053
  0
LINE
  8
0
 10
46.2262
 20
44.7053
 11
46.0875
 21
44.884
  0
LINE
  8
0
 10
46.0875
 20
44.884
 11
45.9604
 21
45.071
  0
LINE
  8
0
 10
45.9604
 20
45.071
 11
45.8453
 21
45.2657
  0
LINE
  8
0
 10
45.8453
 20
45.2657
 11
45.7426
 21
45.4672
  0
LINE
  8
0
 10
45.7426
 20
45.4672
 11
45.6528
 21
45.6747
  0
LINE
  8
0
 10
45.6528
 20
45.6747
 11
45.5762
 21
45.8875
  0
LINE
  8
0
 10
45.5762
 20
45.8875
 11
45.5131
 21
46.1047
  0
LINE
  8
0
 10
45.5131
 20
46.1047
 11
45.4638
 21
46.3254
  0
LINE
  8
0
 10
45.4638
 20
46.3254
 11
45.4284
 21
46.5488
  0
LINE
  8
0
 10
45.4284
 20
46.5488
 11
45.4071
 21
46.774
  0
LINE
  8
0
 10
45.4071
 20
46.774
 11
45.4
 21
47
  0
LINE
  8
0
 10
45.4
 20
47
 11
45.4071
 21
47.226
  0
LINE
  8
0
 10
45.4071
 20
47.226
 11
45.4284
 21
47.4512
  0
LINE
  8
0
 10
45.4284
 20
47.4512
 11
45.4638
 21
47.6746
  0
LINE
  8
0
 10
45.4638
 20
47.6746
 11
45.5131
 21
47.8953
  0
LINE
  8
0
 10
45.5131
 20
47.8953
 11
45.5762
 21
48.1125
  0
LINE
  8
0
 10
45.5762
 20
48.1125
 11
45.6528
 21
48.3252
  0
LINE
  8
0
 10
45.6528
 20
48.3252
 11
45.7426
 21
48.5328
  0
LINE
  8
0
 10
45.7426
 20
48.5328
 11
45.8453
 21
48.7343
  0
LINE
  8
0
 10
45.8453
 20
48.7343
 11
45.9604
 21
48.929
  0
LINE
  8
0
 10
45.9604
 20
48.929
 11
46.0875
 21
49.116
  0
LINE
  8
0
 10
46.0875
 20
49.116
 11
46.2262
 21
49.2947
  0
LINE
  8
0
 10
46.2262
 20
49.2947
 11
46.3757
 21
49.4644
  0
LINE
  8
0
 10
46.3757
 20
49.4644
 11
46.5356
 21
49.6243
  0
LINE
  8
0
 10
46.5356
 20
49.6243
 11
46.7053
 21
49.7738
  0
LINE
  8
0
 10
46.7053
 20
49.7738
 11
46.884
 21
49.9125
  0
LINE
  8
0
 10
46.884
 20
49.9125
 11
47.071
 21
50.0396
  0
LINE
  8
0
 10
47.071
 20
50.0396
 11
47.2657
 21
50.1547
  0
LINE
  8
0
 10
47.2657
 20
50.1547
 11
47.4672
 21
50.2574
  0
LINE
  8
0
 10
47.4672
 20
50.2574
 11
47.6747
 21
50.3472
  0
LINE
  8
0
 10
47.6747
 20
50.3472
 11
47.8875
 21
50.4238
  0
LINE
  8
0
 10
47.8875
 20
50.4238
 11
48.1047
 21
50.4869
  0
LINE
  8
0
 10
48.1047
 20
50.4869
 11
48.3254
 21
50.5362
  0
LINE
  8
0
 10
48.3254
 20
50.5362
 11
48.5488
 21
50.5716
  0
LINE
  8
0
 10
48.5488
 20
50.5716
 11
48.774
 21
50.5929
  0
LINE
  8
0
 10
48.774
 20
50.5929
 11
49
 21
50.6
  0
LINE
  8
0
 10
49
 20
50.6
 11
49.226
 21
50.5929
  0
LINE
  8
0
 10
49.226
 20
50.5929
 11
49.4512
 21
50.5716
  0
LINE
  8
0
 10
49.4512
 20
50.5716
 11
49.6746
 21
50.5362
  0
LINE
  8
0
 10
49.6746
 20
50.5362
 11
49.8953
 21
50.4869
  0
LINE
  8
0
 10
49.8953
 20
50.4869
 11
50.1125
 21
50.4238
  0
LINE
  8
0
 10
50.1125
 20
50.4238
 11
50.3252
 21
50.3472
  0
LINE
  8
0
 10
50.3252
 20
50.3472
 11
50.5328
 21
50.2574
  0
LINE
  8
0
 10
50.5328
 20
50.2574
 11
50.7343
 21
50.1547
  0
LINE
  8
0
 10
50.7343
 20
50.1547
 11
50.929
 21
50.0396
  0
LINE
  8
0
 10
50.929
 20
50.0396
 11
51.116
 21
49.9125
  0
LINE
  8
0
 10
51.116
 20
49.9125
 11
51.2947
 21
49.7738
  0
LINE
  8
0
 10
51.2947
 20
49.7738
 11
51.4644
 21
49.6243
  0
LINE
  8
0
 10
51.4644
 20
49.6243
 11
51.6243
 21
49.4644
  0
LINE
  8
0
 10
51.6243
 20
49.4644
 11
51.7738
 21
49.2947
  0
LINE
  8
0
 10
51.7738
 20
49.2947
 11
51.9125
 21
49.116
  0
LINE
  8
0
 10
51.9125
 20
49.116
 11
52.0396
 21
48.929
  0
LINE
  8
0
 10
52.0396
 20
48.929
 11
52.1547
 21
48.7343
  0
LINE
  8
0
 10
52.1547
 20
48.7343
 11
52.2574
 21
48.5328
  0
LINE
  8
0
 10
52.2574
 20
48.5328
 11
52.3472
 21
48.3252
  0
LINE
  8
0
 10
52.3472
 20
48.3252
 11
52.4238
 21
48.1125
  0
LINE
  8
0
 10
52.4238
 20
48.1125
 11
52.4869
 21
47.8953
  0
LINE
  8
0
 10
52.4869
 20
47.8953
 11
52.5362
 21
47.6746
  0
LINE
  8
0
 10
52.5362
 20
47.6746
 11
52.5716
 21
47.4512
  0
LINE
  8
0
 10
52.5716
 20
47.4512
 11
52.5929
 21
47.226
  0
LINE
  8
0
 10
52.5929
 20
47.226
 11
52.6
 21
47
  0
LINE
  8
0
 10
52.6
 20
47
 11
52.5929
 21
46.774
  0
LINE
  8
0
 10
52.5929
 20
46.774
 11
52.5716
 21
46.5488
  0
LINE
  8
0
 10
52.5716
 20
46.5488
 11
52.5362
 21
46.3254
  0
LINE
  8
0
 10
52.5362
 20
46.3254
 11
52.4869
 21
46.1047
  0
LINE
  8
0
 10
52.4869
 20
46.1047
 11
52.4238
 21
45.8875
  0
LINE
  8
0
 10
52.4238
 20
45.8875
 11
52.3472
 21
45.6747
  0
LINE
  8
0
 10
52.3472
 20
45.6747
 11
52.2574
 21
45.4672
  0
LINE
  8
0
 10
52.2574
 20
45.4672
 11
52.1547
 21
45.2657
  0
LINE
  8
0
 10
52.1547
 20
45.2657
 11
52.0396
 21
45.071
  0
LINE
  8
0
 10
52.0396
 20
45.071
 11
51.9125
 21
44.884
  0
LINE
  8
0
 10
51.9125
 20
44.884
 11
51.7738
 21
44.7053
  0
LINE
  8
0
 10
51.7738
 20
44.7053
 11
51.6243
 21
44.5356
  0
LINE
  8
0
 10
51.6243
 20
44.5356
 11
51.4644
 21
44.3757
  0
LINE
  8
0
 10
51.4644
 20
44.3757
 11
51.2947
 21
44.2262
  0
LINE
  8
0
 10
51.2947
 20
44.2262
 11
51.116
 21
44.0875
  0
LINE
  8
0
 10
51.116
 20
44.0875
 11
50.929
 21
43.9604
  0
LINE
  8
0
 10
50.929
 20
43.9604
 11
50.7343
 21
43.8453
  0
LINE
  8
0
 10
50.7343
 20
43.8453
 11
50.5328
 21
43.7426
  0
LINE
  8
0
 10
50.5328
 20
43.7426
 11
50.3252
 21
43.6528
  0
LINE
  8
0
 10
50.3252
 20
43.6528
 11
50.1125
 21
43.5762
  0
LINE
  8
0
 10
50.1125
 20
43.5762
 11
49.8953
 21
43.5131
  0
LINE
  8
0
 10
49.8953
 20
43.5131
 11
49.6746
 21
43.4638
  0
LINE
  8
0
 10
49.6746
 20
43.4638
 11
49.4512
 21
43.4284
  0
LINE
  8
0
 10
49.4512
 20
43.4284
 11
49.226
 21
43.4071
  0
LINE
  8
0
 10
49.226
 20
43.4071
 11
49
 21
43.4
  0
LINE
  8
0
 10
49
 20
43.4
 11
48.774
 21
43.4071
  0
LINE
  8
0
 10
48.8995
 20
32.6031
 11
48.7995
 21
32.6126
  0
LINE
  8
0
 10
48.7995
 20
32.6126
 11
48.7002
 21
32.6283
  0
LINE
  8
0
 10
48.7002
 20
32.6283
 11
48.6021
 21
32.6503
  0
LINE
  8
0
 10
48.6021
 20
32.6503
 11
48.5056
 21
32.6783
  0
LINE
  8
0
 10
48.5056
 20
32.6783
 11
48.411
 21
32.7124
  0
LINE
  8
0
 10
48.411
 20
32.7124
 11
48.3187
 21
32.7523
  0
LINE
  8
0
 10
48.3187
 20
32.7523
 11
48.2292
 21
32.7979
  0
LINE
  8
0
 10
48.2292
 20
32.7979
 11
48.1427
 21
32.8491
  0
LINE
  8
0
 10
48.1427
 20
32.8491
 11
48.0595
 21
32.9056
  0
LINE
  8
0
 10
48.0595
 20
32.9056
 11
47.9801
 21
32.9672
  0
LINE
  8
0
 10
47.9801
 20
32.9672
 11
47.9047
 21
33.0336
  0
LINE
  8
0
 10
47.9047
 20
33.0336
 11
47.8336
 21
33.1047
  0
LINE
  8
0
 10
47.8336
 20
33.1047
 11
47.7672
 21
33.1801
  0
LINE
  8
0
 10
47.7672
 20
33.1801
 11
47.7056
 21
33.2595
  0
LINE
  8
0
 10
47.7056
 20
33.2595
 11
47.6491
 21
33.3427
  0
LINE
  8
0
 10
47.6491
 20
33.3427
 11
47.5979
 21
33.4292
  0
LINE
  8
0
 10
47.5979
 20
33.4292
 11
47.5523
 21
33.5188
  0
LINE
  8
0
 10
47.5523
 20
33.5188
 11
47.5124
 21
33.611
  0
LINE
  8
0
 10
47.5124
 20
33.611
 11
47.4783
 21
33.7056
  0
LINE
  8
0
 10
47.4783
 20
33.7056
 11
47.4503
 21
33.8021
  0
LINE
  8
0
 10
47.4503
 20
33.8021
 11
47.4283
 21
33.9002
  0
LINE
  8
0
 10
47.4283
 20
33.9002
 11
47.4126
 21
33.9995
  0
LINE
  8
0
 10
47.4126
 20
33.9995
 11
47.4032
 21
34.0995
  0
LINE
  8
0
 10
47.4032
 20
34.0995
 11
47.4
 21
34.2
  0
LINE
  8
0
 10
47.4
 20
34.2
 11
47.4032
 21
34.3005
  0
LINE
  8
0
 10
47.4032
 20
34.3005
 11
47.4126
 21
34.4005
  0
LINE
  8
0
 10
47.4126
 20
34.4005
 11
47.4283
 21
34.4998
  0
LINE
  8
0
 10
47.4283
 20
34.4998
 11
47.4503
 21
34.5979
  0
LINE
  8
0
 10
47.4503
 20
34.5979
 11
47.4783
 21
34.6944
  0
LINE
  8
0
 10
47.4783
 20
34.6944
 11
47.5124
 21
34.789
  0
LINE
  8
0
 10
47.5124
 20
34.789
 11
47.5523
 21
34.8812
  0
LINE
  8
0
 10
47.5523
 20
34.8812
 11
47.5979
 21
34.9708
  0
LINE
  8
0
 10
47.5979
 20
34.9708
 11
47.6491
 21
35.0573
  0
LINE
  8
0
 10
47.6491
 20
35.0573
 11
47.7056
 21
35.1405
  0
LINE
  8
0
 10
47.7056
 20
35.1405
 11
47.7672
 21
35.2199
  0
LINE
  8
0
 10
47.7672
 20
35.2199
 11
47.8336
 21
35.2953
  0
LINE
  8
0
 10
47.8336
 20
35.2953
 11
47.9047
 21
35.3663
  0
LINE
  8
0
 10
47.9047
 20
35.3663
 11
47.9801
 21
35.4328
  0
LINE
  8
0
 10
47.9801
 20
35.4328
 11
48.0595
 21
35.4944
  0
LINE
  8
0
 10
48.0595
 20
35.4944
 11
48.1427
 21
35.5509
  0
LINE
  8
0
 10
48.1427
 20
35.5509
 11
48.2292
 21
35.6021
  0
LINE
  8
0
 10
48.2292
 20
35.6021
 11
48.3187
 21
35.6477
  0
LINE
  8
0
 10
48.3187
 20
35.6477
 11
48.411
 21
35.6876
  0
LINE
  8
0
 10
48.411
 20
35.6876
 11
48.5056
 21
35.7217
  0
LINE
  8
0
 10
48.5056
 20
35.7217
 11
48.6021
 21
35.7497
  0
LINE
  8
0
 10
48.6021
 20
35.7497
 11
48.7002
 21
35.7717
  0
LINE
  8
0
 10
48.7002
 20
35.7717
 11
48.7995
 21
35.7874
  0
LINE
  8
0
 10
48.7995
 20
35.7874
 11
48.8995
 21
35.7968
  0
LINE
  8
0
 10
48.8995
 20
35.7968
 11
49
 21
35.8
  0
LINE
  8
0
 10
49
 20
35.8
 11
49.1005
 21
35.7968
  0
LINE
  8
0
 10
49.1005
 20
35.7968
 11
49.2005
 21
35.7874
  0
LINE
  8
0
 10
49.2005
 20
35.7874
 11
49.2998
 21
35.7717
  0
LINE
  8
0
 10
49.2998
 20
35.7717
 11
49.3979
 21
35.7497
  0
LINE
  8
0
 10
49.3979
 20
35.7497
 11
49.4944
 21
35.7217
  0
LINE
  8
0
 10
49.4944
 20
35.7217
 11
49.589
 21
35.6876
  0
LINE
  8
0
 10
49.589
 20
35.6876
 11
49.6812
 21
35.6477
  0
LINE
  8
0
 10
49.6812
 20
35.6477
 11
49.7708
 21
35.6021
  0
LINE
  8
0
 10
49.7708
 20
35.6021
 11
49.8573
 21
35.5509
  0
LINE
  8
0
 10
49.8573
 20
35.5509
 11
49.9404
 21
35.4944
  0
LINE
  8
0
 10
49.9404
 20
35.4944
 11
50.0199
 21
35.4328
  0
LINE
  8
0
 10
50.0199
 20
35.4328
 11
50.0953
 21
35.3663
  0
LINE
  8
0
 10
50.0953
 20
35.3663
 11
50.1664
 21
35.2953
  0
LINE
  8
0
 10
50.1664
 20
35.2953
 11
50.2328
 21
35.2199
  0
LINE
  8
0
 10
50.2328
 20
35.2199
 11
50.2944
 21
35.1405
  0
LINE
  8
0
 10
50.2944
 20
35.1405
 11
50.3509
 21
35.0573
  0
LINE
  8
0
 10
50.3509
 20
35.0573
 11
50.4021
 21
34.9708
  0
LINE
  8
0
 10
50.4021
 20
34.9708
 11
50.4477
 21
34.8812
  0
LINE
  8
0
 10
50.4477
 20
34.8812
 11
50.4876
 21
34.789
  0
LINE
  8
0
 10
50.4876
 20
34.789
 11
50.5217
 21
34.6944
  0
LINE
  8
0
 10
50.5217
 20
34.6944
 11
50.5497
 21
34.5979
  0
LINE
  8
0
 10
50.5497
 20
34.5979
 11
50.5717
 21
34.4998
  0
LINE
  8
0
 10
50.5717
 20
34.4998
 11
50.5874
 21
34.4005
  0
LINE
  8
0
 10
50.5874
 20
34.4005
 11
50.5968
 21
34.3005
  0
LINE
  8
0
 10
50.5968
 20
34.3005
 11
50.6
 21
34.2
  0
LINE
  8
0
 10
50.6
 20
34.2
 11
50.5968
 21
34.0995
  0
LINE
  8
0
 10
50.5968
 20
34.0995
 11
50.5874
 21
33.9995
  0
LINE
  8
0
 10
50.5874
 20
33.9995
 11
50.5717
 21
33.9002
  0
LINE
  8
0
 10
50.5717
 20
33.9002
 11
50.5497
 21
33.8021
  0
LINE
  8
0
 10
50.5497
 20
33.8021
 11
50.5217
 21
33.7056
  0
LINE
  8
0
 10
50.5217
 20
33.7056
 11
50.4876
 21
33.611
  0
LINE
  8
0
 10
50.4876
 20
33.611
 11
50.4477
 21
33.5188
  0
LINE
  8
0
 10
50.4477
 20
33.5188
 11
50.4021
 21
33.4292
  0
LINE
  8
0
 10
50.4021
 20
33.4292
 11
50.3509
 21
33.3427
  0
LINE
  8
0
 10
50.3509
 20
33.3427
 11
50.2944
 21
33.2595
  0
LINE
  8
0
 10
50.2944
 20
33.2595
 11
50.2328
 21
33.1801
  0
LINE
  8
0
 10
50.2328
 20
33.1801
 11
50.1664
 21
33.1047
  0
LINE
  8
0
 10
50.1664
 20
33.1047
 11
50.0953
 21
33.0336
  0
LINE
  8
0
 10
50.0953
 20
33.0336
 11
50.0199
 21
32.9672
  0
LINE
  8
0
 10
50.0199
 20
32.9672
 11
49.9404
 21
32.9056
  0
LINE
  8
0
 10
49.9404
 20
32.9056
 11
49.8573
 21
32.8491
  0
LINE
  8
0
 10
49.8573
 20
32.8491
 11
49.7708
 21
32.7979
  0
LINE
  8
0
 10
49.7708
 20
32.7979
 11
49.6812
 21
32.7523
  0
LINE
  8
0
 10
49.6812
 20
32.7523
 11
49.589
 21
32.7124
  0
LINE
  8
0
 10
49.589
 20
32.7124
 11
49.4944
 21
32.6783
  0
LINE
  8
0
 10
49.4944
 20
32.6783
 11
49.3979
 21
32.6503
  0
LINE
  8
0
 10
49.3979
 20
32.6503
 11
49.2998
 21
32.6283
  0
LINE
  8
0
 10
49.2998
 20
32.6283
 11
49.2005
 21
32.6126
  0
LINE
  8
0
 10
49.2005
 20
32.6126
 11
49.1005
 21
32.6031
  0
LINE
  8
0
 10
49.1005
 20
32.6031
 11
49
 21
32.6
  0
LINE
  8
0
 10
49
 20
32.6
 11
48.8995
 21
32.6031
  0
LINE
  8
0
 10
39.15
 20
4.39999
 11
39.15
 21
15.5
  0
LINE
  8
0
 10
39.15
 20
15.5
 11
48.5
 21
15.5
  0
LINE
  8
0
 10
48.5
 20
15.5
 11
48.5
 21
4.39999
  0
LINE
  8
0
 10
48.5
 20
4.39999
 11
39.15
 21
4.39999
  0
ENDSEC
  0
SECTION
  2
OBJECTS
  0
DICTIONARY
  0
ENDSEC
  0
EOF
