  0
SECTION
  2
BLOCKS
  0
ENDSEC
  0
SECTION
  2
ENTITIES
  0
LINE
  8
0
 10
98
 20
260.8
 11
0
 21
260.8
  0
LINE
  8
0
 10
0
 20
260.8
 11
0
 21
0
  0
LINE
  8
0
 10
0
 20
0
 11
98
 21
0
  0
LINE
  8
0
 10
98
 20
0
 11
98
 21
260.8
  0
LINE
  8
0
 10
65.2258
 20
140.403
 11
65.132
 21
140.412
  0
LINE
  8
0
 10
65.132
 20
140.412
 11
65.0389
 21
140.427
  0
LINE
  8
0
 10
65.0389
 20
140.427
 11
64.947
 21
140.447
  0
LINE
  8
0
 10
64.947
 20
140.447
 11
64.8565
 21
140.473
  0
LINE
  8
0
 10
64.8565
 20
140.473
 11
64.7678
 21
140.505
  0
LINE
  8
0
 10
64.7678
 20
140.505
 11
64.6813
 21
140.543
  0
LINE
  8
0
 10
64.6813
 20
140.543
 11
64.5974
 21
140.586
  0
LINE
  8
0
 10
64.5974
 20
140.586
 11
64.5163
 21
140.634
  0
LINE
  8
0
 10
64.5163
 20
140.634
 11
64.4383
 21
140.686
  0
LINE
  8
0
 10
64.4383
 20
140.686
 11
64.3639
 21
140.744
  0
LINE
  8
0
 10
64.3639
 20
140.744
 11
64.2932
 21
140.807
  0
LINE
  8
0
 10
64.2932
 20
140.807
 11
64.2265
 21
140.873
  0
LINE
  8
0
 10
64.2265
 20
140.873
 11
64.1642
 21
140.944
  0
LINE
  8
0
 10
64.1642
 20
140.944
 11
64.1065
 21
141.018
  0
LINE
  8
0
 10
64.1065
 20
141.018
 11
64.0535
 21
141.096
  0
LINE
  8
0
 10
64.0535
 20
141.096
 11
64.0055
 21
141.177
  0
LINE
  8
0
 10
64.0055
 20
141.177
 11
63.9628
 21
141.261
  0
LINE
  8
0
 10
63.9628
 20
141.261
 11
63.9253
 21
141.348
  0
LINE
  8
0
 10
63.9253
 20
141.348
 11
63.8934
 21
141.436
  0
LINE
  8
0
 10
63.8934
 20
141.436
 11
63.8671
 21
141.527
  0
LINE
  8
0
 10
63.8671
 20
141.527
 11
63.8466
 21
141.619
  0
LINE
  8
0
 10
63.8466
 20
141.619
 11
63.8318
 21
141.712
  0
LINE
  8
0
 10
63.8318
 20
141.712
 11
63.823
 21
141.806
  0
LINE
  8
0
 10
63.823
 20
141.806
 11
63.82
 21
141.9
  0
LINE
  8
0
 10
63.82
 20
141.9
 11
63.823
 21
141.994
  0
LINE
  8
0
 10
63.823
 20
141.994
 11
63.8318
 21
142.088
  0
LINE
  8
0
 10
63.8318
 20
142.088
 11
63.8466
 21
142.181
  0
LINE
  8
0
 10
63.8466
 20
142.181
 11
63.8671
 21
142.273
  0
LINE
  8
0
 10
63.8671
 20
142.273
 11
63.8934
 21
142.364
  0
LINE
  8
0
 10
63.8934
 20
142.364
 11
63.9253
 21
142.452
  0
LINE
  8
0
 10
63.9253
 20
142.452
 11
63.9628
 21
142.539
  0
LINE
  8
0
 10
63.9628
 20
142.539
 11
64.0055
 21
142.623
  0
LINE
  8
0
 10
64.0055
 20
142.623
 11
64.0535
 21
142.704
  0
LINE
  8
0
 10
64.0535
 20
142.704
 11
64.1065
 21
142.782
  0
LINE
  8
0
 10
64.1065
 20
142.782
 11
64.1642
 21
142.856
  0
LINE
  8
0
 10
64.1642
 20
142.856
 11
64.2265
 21
142.927
  0
LINE
  8
0
 10
64.2265
 20
142.927
 11
64.2932
 21
142.993
  0
LINE
  8
0
 10
64.2932
 20
142.993
 11
64.3639
 21
143.056
  0
LINE
  8
0
 10
64.3639
 20
143.056
 11
64.4383
 21
143.114
  0
LINE
  8
0
 10
64.4383
 20
143.114
 11
64.5163
 21
143.166
  0
LINE
  8
0
 10
64.5163
 20
143.166
 11
64.5974
 21
143.214
  0
LINE
  8
0
 10
64.5974
 20
143.214
 11
64.6813
 21
143.257
  0
LINE
  8
0
 10
64.6813
 20
143.257
 11
64.7678
 21
143.295
  0
LINE
  8
0
 10
64.7678
 20
143.295
 11
64.8565
 21
143.327
  0
LINE
  8
0
 10
64.8565
 20
143.327
 11
64.947
 21
143.353
  0
LINE
  8
0
 10
64.947
 20
143.353
 11
65.0389
 21
143.373
  0
LINE
  8
0
 10
65.0389
 20
143.373
 11
65.132
 21
143.388
  0
LINE
  8
0
 10
65.132
 20
143.388
 11
65.2258
 21
143.397
  0
LINE
  8
0
 10
65.2258
 20
143.397
 11
65.32
 21
143.4
  0
LINE
  8
0
 10
65.32
 20
143.4
 11
65.4142
 21
143.397
  0
LINE
  8
0
 10
65.4142
 20
143.397
 11
65.508
 21
143.388
  0
LINE
  8
0
 10
65.508
 20
143.388
 11
65.6011
 21
143.373
  0
LINE
  8
0
 10
65.6011
 20
143.373
 11
65.693
 21
143.353
  0
LINE
  8
0
 10
65.693
 20
143.353
 11
65.7835
 21
143.327
  0
LINE
  8
0
 10
65.7835
 20
143.327
 11
65.8722
 21
143.295
  0
LINE
  8
0
 10
65.8722
 20
143.295
 11
65.9587
 21
143.257
  0
LINE
  8
0
 10
65.9587
 20
143.257
 11
66.0426
 21
143.214
  0
LINE
  8
0
 10
66.0426
 20
143.214
 11
66.1237
 21
143.166
  0
LINE
  8
0
 10
66.1237
 20
143.166
 11
66.2017
 21
143.114
  0
LINE
  8
0
 10
66.2017
 20
143.114
 11
66.2761
 21
143.056
  0
LINE
  8
0
 10
66.2761
 20
143.056
 11
66.3468
 21
142.993
  0
LINE
  8
0
 10
66.3468
 20
142.993
 11
66.4135
 21
142.927
  0
LINE
  8
0
 10
66.4135
 20
142.927
 11
66.4758
 21
142.856
  0
LINE
  8
0
 10
66.4758
 20
142.856
 11
66.5335
 21
142.782
  0
LINE
  8
0
 10
66.5335
 20
142.782
 11
66.5865
 21
142.704
  0
LINE
  8
0
 10
66.5865
 20
142.704
 11
66.6345
 21
142.623
  0
LINE
  8
0
 10
66.6345
 20
142.623
 11
66.6772
 21
142.539
  0
LINE
  8
0
 10
66.6772
 20
142.539
 11
66.7147
 21
142.452
  0
LINE
  8
0
 10
66.7147
 20
142.452
 11
66.7466
 21
142.364
  0
LINE
  8
0
 10
66.7466
 20
142.364
 11
66.7729
 21
142.273
  0
LINE
  8
0
 10
66.7729
 20
142.273
 11
66.7934
 21
142.181
  0
LINE
  8
0
 10
66.7934
 20
142.181
 11
66.8082
 21
142.088
  0
LINE
  8
0
 10
66.8082
 20
142.088
 11
66.817
 21
141.994
  0
LINE
  8
0
 10
66.817
 20
141.994
 11
66.82
 21
141.9
  0
LINE
  8
0
 10
66.82
 20
141.9
 11
66.817
 21
141.806
  0
LINE
  8
0
 10
66.817
 20
141.806
 11
66.8082
 21
141.712
  0
LINE
  8
0
 10
66.8082
 20
141.712
 11
66.7934
 21
141.619
  0
LINE
  8
0
 10
66.7934
 20
141.619
 11
66.7729
 21
141.527
  0
LINE
  8
0
 10
66.7729
 20
141.527
 11
66.7466
 21
141.436
  0
LINE
  8
0
 10
66.7466
 20
141.436
 11
66.7147
 21
141.348
  0
LINE
  8
0
 10
66.7147
 20
141.348
 11
66.6772
 21
141.261
  0
LINE
  8
0
 10
66.6772
 20
141.261
 11
66.6345
 21
141.177
  0
LINE
  8
0
 10
66.6345
 20
141.177
 11
66.5865
 21
141.096
  0
LINE
  8
0
 10
66.5865
 20
141.096
 11
66.5335
 21
141.018
  0
LINE
  8
0
 10
66.5335
 20
141.018
 11
66.4758
 21
140.944
  0
LINE
  8
0
 10
66.4758
 20
140.944
 11
66.4135
 21
140.873
  0
LINE
  8
0
 10
66.4135
 20
140.873
 11
66.3468
 21
140.807
  0
LINE
  8
0
 10
66.3468
 20
140.807
 11
66.2761
 21
140.744
  0
LINE
  8
0
 10
66.2761
 20
140.744
 11
66.2017
 21
140.686
  0
LINE
  8
0
 10
66.2017
 20
140.686
 11
66.1237
 21
140.634
  0
LINE
  8
0
 10
66.1237
 20
140.634
 11
66.0426
 21
140.586
  0
LINE
  8
0
 10
66.0426
 20
140.586
 11
65.9587
 21
140.543
  0
LINE
  8
0
 10
65.9587
 20
140.543
 11
65.8722
 21
140.505
  0
LINE
  8
0
 10
65.8722
 20
140.505
 11
65.7835
 21
140.473
  0
LINE
  8
0
 10
65.7835
 20
140.473
 11
65.693
 21
140.447
  0
LINE
  8
0
 10
65.693
 20
140.447
 11
65.6011
 21
140.427
  0
LINE
  8
0
 10
65.6011
 20
140.427
 11
65.508
 21
140.412
  0
LINE
  8
0
 10
65.508
 20
140.412
 11
65.4142
 21
140.403
  0
LINE
  8
0
 10
65.4142
 20
140.403
 11
65.32
 21
140.4
  0
LINE
  8
0
 10
65.32
 20
140.4
 11
65.2258
 21
140.403
  0
LINE
  8
0
 10
32.5858
 20
140.403
 11
32.492
 21
140.412
  0
LINE
  8
0
 10
32.492
 20
140.412
 11
32.3989
 21
140.427
  0
LINE
  8
0
 10
32.3989
 20
140.427
 11
32.307
 21
140.447
  0
LINE
  8
0
 10
32.307
 20
140.447
 11
32.2165
 21
140.473
  0
LINE
  8
0
 10
32.2165
 20
140.473
 11
32.1278
 21
140.505
  0
LINE
  8
0
 10
32.1278
 20
140.505
 11
32.0413
 21
140.543
  0
LINE
  8
0
 10
32.0413
 20
140.543
 11
31.9574
 21
140.586
  0
LINE
  8
0
 10
31.9574
 20
140.586
 11
31.8763
 21
140.634
  0
LINE
  8
0
 10
31.8763
 20
140.634
 11
31.7983
 21
140.686
  0
LINE
  8
0
 10
31.7983
 20
140.686
 11
31.7239
 21
140.744
  0
LINE
  8
0
 10
31.7239
 20
140.744
 11
31.6532
 21
140.807
  0
LINE
  8
0
 10
31.6532
 20
140.807
 11
31.5865
 21
140.873
  0
LINE
  8
0
 10
31.5865
 20
140.873
 11
31.5242
 21
140.944
  0
LINE
  8
0
 10
31.5242
 20
140.944
 11
31.4665
 21
141.018
  0
LINE
  8
0
 10
31.4665
 20
141.018
 11
31.4135
 21
141.096
  0
LINE
  8
0
 10
31.4135
 20
141.096
 11
31.3655
 21
141.177
  0
LINE
  8
0
 10
31.3655
 20
141.177
 11
31.3228
 21
141.261
  0
LINE
  8
0
 10
31.3228
 20
141.261
 11
31.2853
 21
141.348
  0
LINE
  8
0
 10
31.2853
 20
141.348
 11
31.2534
 21
141.436
  0
LINE
  8
0
 10
31.2534
 20
141.436
 11
31.2271
 21
141.527
  0
LINE
  8
0
 10
31.2271
 20
141.527
 11
31.2066
 21
141.619
  0
LINE
  8
0
 10
31.2066
 20
141.619
 11
31.1918
 21
141.712
  0
LINE
  8
0
 10
31.1918
 20
141.712
 11
31.183
 21
141.806
  0
LINE
  8
0
 10
31.183
 20
141.806
 11
31.18
 21
141.9
  0
LINE
  8
0
 10
31.18
 20
141.9
 11
31.183
 21
141.994
  0
LINE
  8
0
 10
31.183
 20
141.994
 11
31.1918
 21
142.088
  0
LINE
  8
0
 10
31.1918
 20
142.088
 11
31.2066
 21
142.181
  0
LINE
  8
0
 10
31.2066
 20
142.181
 11
31.2271
 21
142.273
  0
LINE
  8
0
 10
31.2271
 20
142.273
 11
31.2534
 21
142.364
  0
LINE
  8
0
 10
31.2534
 20
142.364
 11
31.2853
 21
142.452
  0
LINE
  8
0
 10
31.2853
 20
142.452
 11
31.3228
 21
142.539
  0
LINE
  8
0
 10
31.3228
 20
142.539
 11
31.3655
 21
142.623
  0
LINE
  8
0
 10
31.3655
 20
142.623
 11
31.4135
 21
142.704
  0
LINE
  8
0
 10
31.4135
 20
142.704
 11
31.4665
 21
142.782
  0
LINE
  8
0
 10
31.4665
 20
142.782
 11
31.5242
 21
142.856
  0
LINE
  8
0
 10
31.5242
 20
142.856
 11
31.5865
 21
142.927
  0
LINE
  8
0
 10
31.5865
 20
142.927
 11
31.6532
 21
142.993
  0
LINE
  8
0
 10
31.6532
 20
142.993
 11
31.7239
 21
143.056
  0
LINE
  8
0
 10
31.7239
 20
143.056
 11
31.7983
 21
143.114
  0
LINE
  8
0
 10
31.7983
 20
143.114
 11
31.8763
 21
143.166
  0
LINE
  8
0
 10
31.8763
 20
143.166
 11
31.9574
 21
143.214
  0
LINE
  8
0
 10
31.9574
 20
143.214
 11
32.0413
 21
143.257
  0
LINE
  8
0
 10
32.0413
 20
143.257
 11
32.1278
 21
143.295
  0
LINE
  8
0
 10
32.1278
 20
143.295
 11
32.2165
 21
143.327
  0
LINE
  8
0
 10
32.2165
 20
143.327
 11
32.307
 21
143.353
  0
LINE
  8
0
 10
32.307
 20
143.353
 11
32.3989
 21
143.373
  0
LINE
  8
0
 10
32.3989
 20
143.373
 11
32.492
 21
143.388
  0
LINE
  8
0
 10
32.492
 20
143.388
 11
32.5858
 21
143.397
  0
LINE
  8
0
 10
32.5858
 20
143.397
 11
32.68
 21
143.4
  0
LINE
  8
0
 10
32.68
 20
143.4
 11
32.7742
 21
143.397
  0
LINE
  8
0
 10
32.7742
 20
143.397
 11
32.868
 21
143.388
  0
LINE
  8
0
 10
32.868
 20
143.388
 11
32.9611
 21
143.373
  0
LINE
  8
0
 10
32.9611
 20
143.373
 11
33.053
 21
143.353
  0
LINE
  8
0
 10
33.053
 20
143.353
 11
33.1435
 21
143.327
  0
LINE
  8
0
 10
33.1435
 20
143.327
 11
33.2322
 21
143.295
  0
LINE
  8
0
 10
33.2322
 20
143.295
 11
33.3187
 21
143.257
  0
LINE
  8
0
 10
33.3187
 20
143.257
 11
33.4026
 21
143.214
  0
LINE
  8
0
 10
33.4026
 20
143.214
 11
33.4837
 21
143.166
  0
LINE
  8
0
 10
33.4837
 20
143.166
 11
33.5617
 21
143.114
  0
LINE
  8
0
 10
33.5617
 20
143.114
 11
33.6361
 21
143.056
  0
LINE
  8
0
 10
33.6361
 20
143.056
 11
33.7068
 21
142.993
  0
LINE
  8
0
 10
33.7068
 20
142.993
 11
33.7735
 21
142.927
  0
LINE
  8
0
 10
33.7735
 20
142.927
 11
33.8358
 21
142.856
  0
LINE
  8
0
 10
33.8358
 20
142.856
 11
33.8935
 21
142.782
  0
LINE
  8
0
 10
33.8935
 20
142.782
 11
33.9465
 21
142.704
  0
LINE
  8
0
 10
33.9465
 20
142.704
 11
33.9945
 21
142.623
  0
LINE
  8
0
 10
33.9945
 20
142.623
 11
34.0372
 21
142.539
  0
LINE
  8
0
 10
34.0372
 20
142.539
 11
34.0747
 21
142.452
  0
LINE
  8
0
 10
34.0747
 20
142.452
 11
34.1066
 21
142.364
  0
LINE
  8
0
 10
34.1066
 20
142.364
 11
34.1329
 21
142.273
  0
LINE
  8
0
 10
34.1329
 20
142.273
 11
34.1534
 21
142.181
  0
LINE
  8
0
 10
34.1534
 20
142.181
 11
34.1682
 21
142.088
  0
LINE
  8
0
 10
34.1682
 20
142.088
 11
34.177
 21
141.994
  0
LINE
  8
0
 10
34.177
 20
141.994
 11
34.18
 21
141.9
  0
LINE
  8
0
 10
34.18
 20
141.9
 11
34.177
 21
141.806
  0
LINE
  8
0
 10
34.177
 20
141.806
 11
34.1682
 21
141.712
  0
LINE
  8
0
 10
34.1682
 20
141.712
 11
34.1534
 21
141.619
  0
LINE
  8
0
 10
34.1534
 20
141.619
 11
34.1329
 21
141.527
  0
LINE
  8
0
 10
34.1329
 20
141.527
 11
34.1066
 21
141.436
  0
LINE
  8
0
 10
34.1066
 20
141.436
 11
34.0747
 21
141.348
  0
LINE
  8
0
 10
34.0747
 20
141.348
 11
34.0372
 21
141.261
  0
LINE
  8
0
 10
34.0372
 20
141.261
 11
33.9945
 21
141.177
  0
LINE
  8
0
 10
33.9945
 20
141.177
 11
33.9465
 21
141.096
  0
LINE
  8
0
 10
33.9465
 20
141.096
 11
33.8935
 21
141.018
  0
LINE
  8
0
 10
33.8935
 20
141.018
 11
33.8358
 21
140.944
  0
LINE
  8
0
 10
33.8358
 20
140.944
 11
33.7735
 21
140.873
  0
LINE
  8
0
 10
33.7735
 20
140.873
 11
33.7068
 21
140.807
  0
LINE
  8
0
 10
33.7068
 20
140.807
 11
33.6361
 21
140.744
  0
LINE
  8
0
 10
33.6361
 20
140.744
 11
33.5617
 21
140.686
  0
LINE
  8
0
 10
33.5617
 20
140.686
 11
33.4837
 21
140.634
  0
LINE
  8
0
 10
33.4837
 20
140.634
 11
33.4026
 21
140.586
  0
LINE
  8
0
 10
33.4026
 20
140.586
 11
33.3187
 21
140.543
  0
LINE
  8
0
 10
33.3187
 20
140.543
 11
33.2322
 21
140.505
  0
LINE
  8
0
 10
33.2322
 20
140.505
 11
33.1435
 21
140.473
  0
LINE
  8
0
 10
33.1435
 20
140.473
 11
33.053
 21
140.447
  0
LINE
  8
0
 10
33.053
 20
140.447
 11
32.9611
 21
140.427
  0
LINE
  8
0
 10
32.9611
 20
140.427
 11
32.868
 21
140.412
  0
LINE
  8
0
 10
32.868
 20
140.412
 11
32.7742
 21
140.403
  0
LINE
  8
0
 10
32.7742
 20
140.403
 11
32.68
 21
140.4
  0
LINE
  8
0
 10
32.68
 20
140.4
 11
32.5858
 21
140.403
  0
LINE
  8
0
 10
48.1492
 20
81.0267
 11
47.3017
 21
81.1068
  0
LINE
  8
0
 10
47.3017
 20
81.1068
 11
46.461
 21
81.24
  0
LINE
  8
0
 10
46.461
 20
81.24
 11
45.6302
 21
81.4257
  0
LINE
  8
0
 10
45.6302
 20
81.4257
 11
44.8128
 21
81.6632
  0
LINE
  8
0
 10
44.8128
 20
81.6632
 11
44.0119
 21
81.9515
  0
LINE
  8
0
 10
44.0119
 20
81.9515
 11
43.2307
 21
82.2896
  0
LINE
  8
0
 10
43.2307
 20
82.2896
 11
42.4722
 21
82.676
  0
LINE
  8
0
 10
42.4722
 20
82.676
 11
41.7395
 21
83.1094
  0
LINE
  8
0
 10
41.7395
 20
83.1094
 11
41.0355
 21
83.5878
  0
LINE
  8
0
 10
41.0355
 20
83.5878
 11
40.3629
 21
84.1095
  0
LINE
  8
0
 10
40.3629
 20
84.1095
 11
39.7244
 21
84.6725
  0
LINE
  8
0
 10
39.7244
 20
84.6725
 11
39.1225
 21
85.2744
  0
LINE
  8
0
 10
39.1225
 20
85.2744
 11
38.5595
 21
85.9129
  0
LINE
  8
0
 10
38.5595
 20
85.9129
 11
38.0378
 21
86.5855
  0
LINE
  8
0
 10
38.0378
 20
86.5855
 11
37.5594
 21
87.2895
  0
LINE
  8
0
 10
37.5594
 20
87.2895
 11
37.126
 21
88.0222
  0
LINE
  8
0
 10
37.126
 20
88.0222
 11
36.7396
 21
88.7807
  0
LINE
  8
0
 10
36.7396
 20
88.7807
 11
36.4015
 21
89.5619
  0
LINE
  8
0
 10
36.4015
 20
89.5619
 11
36.1132
 21
90.3628
  0
LINE
  8
0
 10
36.1132
 20
90.3628
 11
35.8757
 21
91.1803
  0
LINE
  8
0
 10
35.8757
 20
91.1803
 11
35.69
 21
92.011
  0
LINE
  8
0
 10
35.69
 20
92.011
 11
35.5568
 21
92.8517
  0
LINE
  8
0
 10
35.5568
 20
92.8517
 11
35.4767
 21
93.6992
  0
LINE
  8
0
 10
35.4767
 20
93.6992
 11
35.45
 21
94.55
  0
LINE
  8
0
 10
35.45
 20
94.55
 11
35.45
 21
105.75
  0
LINE
  8
0
 10
35.45
 20
105.75
 11
35.4767
 21
106.601
  0
LINE
  8
0
 10
35.4767
 20
106.601
 11
35.5568
 21
107.448
  0
LINE
  8
0
 10
35.5568
 20
107.448
 11
35.69
 21
108.289
  0
LINE
  8
0
 10
35.69
 20
108.289
 11
35.8757
 21
109.12
  0
LINE
  8
0
 10
35.8757
 20
109.12
 11
36.1132
 21
109.937
  0
LINE
  8
0
 10
36.1132
 20
109.937
 11
36.4015
 21
110.738
  0
LINE
  8
0
 10
36.4015
 20
110.738
 11
36.7396
 21
111.519
  0
LINE
  8
0
 10
36.7396
 20
111.519
 11
37.126
 21
112.278
  0
LINE
  8
0
 10
37.126
 20
112.278
 11
37.5594
 21
113.01
  0
LINE
  8
0
 10
37.5594
 20
113.01
 11
38.0378
 21
113.714
  0
LINE
  8
0
 10
38.0378
 20
113.714
 11
38.5595
 21
114.387
  0
LINE
  8
0
 10
38.5595
 20
114.387
 11
39.1225
 21
115.026
  0
LINE
  8
0
 10
39.1225
 20
115.026
 11
39.7244
 21
115.628
  0
LINE
  8
0
 10
39.7244
 20
115.628
 11
40.3629
 21
116.19
  0
LINE
  8
0
 10
40.3629
 20
116.19
 11
41.0355
 21
116.712
  0
LINE
  8
0
 10
41.0355
 20
116.712
 11
41.7395
 21
117.191
  0
LINE
  8
0
 10
41.7395
 20
117.191
 11
42.4722
 21
117.624
  0
LINE
  8
0
 10
42.4722
 20
117.624
 11
43.2307
 21
118.01
  0
LINE
  8
0
 10
43.2307
 20
118.01
 11
44.0119
 21
118.348
  0
LINE
  8
0
 10
44.0119
 20
118.348
 11
44.8128
 21
118.637
  0
LINE
  8
0
 10
44.8128
 20
118.637
 11
45.6302
 21
118.874
  0
LINE
  8
0
 10
45.6302
 20
118.874
 11
46.461
 21
119.06
  0
LINE
  8
0
 10
46.461
 20
119.06
 11
47.3017
 21
119.193
  0
LINE
  8
0
 10
47.3017
 20
119.193
 11
48.1492
 21
119.273
  0
LINE
  8
0
 10
48.1492
 20
119.273
 11
49
 21
119.3
  0
LINE
  8
0
 10
49
 20
119.3
 11
49.8508
 21
119.273
  0
LINE
  8
0
 10
49.8508
 20
119.273
 11
50.6983
 21
119.193
  0
LINE
  8
0
 10
50.6983
 20
119.193
 11
51.539
 21
119.06
  0
LINE
  8
0
 10
51.539
 20
119.06
 11
52.3697
 21
118.874
  0
LINE
  8
0
 10
52.3697
 20
118.874
 11
53.1872
 21
118.637
  0
LINE
  8
0
 10
53.1872
 20
118.637
 11
53.9881
 21
118.348
  0
LINE
  8
0
 10
53.9881
 20
118.348
 11
54.7693
 21
118.01
  0
LINE
  8
0
 10
54.7693
 20
118.01
 11
55.5278
 21
117.624
  0
LINE
  8
0
 10
55.5278
 20
117.624
 11
56.2605
 21
117.191
  0
LINE
  8
0
 10
56.2605
 20
117.191
 11
56.9645
 21
116.712
  0
LINE
  8
0
 10
56.9645
 20
116.712
 11
57.6371
 21
116.19
  0
LINE
  8
0
 10
57.6371
 20
116.19
 11
58.2756
 21
115.628
  0
LINE
  8
0
 10
58.2756
 20
115.628
 11
58.8775
 21
115.026
  0
LINE
  8
0
 10
58.8775
 20
115.026
 11
59.4404
 21
114.387
  0
LINE
  8
0
 10
59.4404
 20
114.387
 11
59.9622
 21
113.714
  0
LINE
  8
0
 10
59.9622
 20
113.714
 11
60.4406
 21
113.01
  0
LINE
  8
0
 10
60.4406
 20
113.01
 11
60.8739
 21
112.278
  0
LINE
  8
0
 10
60.8739
 20
112.278
 11
61.2604
 21
111.519
  0
LINE
  8
0
 10
61.2604
 20
111.519
 11
61.5985
 21
110.738
  0
LINE
  8
0
 10
61.5985
 20
110.738
 11
61.8868
 21
109.937
  0
LINE
  8
0
 10
61.8868
 20
109.937
 11
62.1243
 21
109.12
  0
LINE
  8
0
 10
62.1243
 20
109.12
 11
62.31
 21
108.289
  0
LINE
  8
0
 10
62.31
 20
108.289
 11
62.4431
 21
107.448
  0
LINE
  8
0
 10
62.4431
 20
107.448
 11
62.5233
 21
106.601
  0
LINE
  8
0
 10
62.5233
 20
106.601
 11
62.55
 21
105.75
  0
LINE
  8
0
 10
62.55
 20
105.75
 11
62.55
 21
94.55
  0
LINE
  8
0
 10
62.55
 20
94.55
 11
62.5233
 21
93.6992
  0
LINE
  8
0
 10
62.5233
 20
93.6992
 11
62.4431
 21
92.8517
  0
LINE
  8
0
 10
62.4431
 20
92.8517
 11
62.31
 21
92.011
  0
LINE
  8
0
 10
62.31
 20
92.011
 11
62.1243
 21
91.1803
  0
LINE
  8
0
 10
62.1243
 20
91.1803
 11
61.8868
 21
90.3628
  0
LINE
  8
0
 10
61.8868
 20
90.3628
 11
61.5985
 21
89.5619
  0
LINE
  8
0
 10
61.5985
 20
89.5619
 11
61.2604
 21
88.7807
  0
LINE
  8
0
 10
61.2604
 20
88.7807
 11
60.8739
 21
88.0222
  0
LINE
  8
0
 10
60.8739
 20
88.0222
 11
60.4406
 21
87.2895
  0
LINE
  8
0
 10
60.4406
 20
87.2895
 11
59.9622
 21
86.5855
  0
LINE
  8
0
 10
59.9622
 20
86.5855
 11
59.4404
 21
85.9129
  0
LINE
  8
0
 10
59.4404
 20
85.9129
 11
58.8775
 21
85.2744
  0
LINE
  8
0
 10
58.8775
 20
85.2744
 11
58.2756
 21
84.6725
  0
LINE
  8
0
 10
58.2756
 20
84.6725
 11
57.6371
 21
84.1095
  0
LINE
  8
0
 10
57.6371
 20
84.1095
 11
56.9645
 21
83.5878
  0
LINE
  8
0
 10
56.9645
 20
83.5878
 11
56.2605
 21
83.1094
  0
LINE
  8
0
 10
56.2605
 20
83.1094
 11
55.5278
 21
82.676
  0
LINE
  8
0
 10
55.5278
 20
82.676
 11
54.7693
 21
82.2896
  0
LINE
  8
0
 10
54.7693
 20
82.2896
 11
53.9881
 21
81.9515
  0
LINE
  8
0
 10
53.9881
 20
81.9515
 11
53.1872
 21
81.6632
  0
LINE
  8
0
 10
53.1872
 20
81.6632
 11
52.3697
 21
81.4257
  0
LINE
  8
0
 10
52.3697
 20
81.4257
 11
51.539
 21
81.24
  0
LINE
  8
0
 10
51.539
 20
81.24
 11
50.6983
 21
81.1068
  0
LINE
  8
0
 10
50.6983
 20
81.1068
 11
49.8508
 21
81.0267
  0
LINE
  8
0
 10
49.8508
 20
81.0267
 11
49
 21
81
  0
LINE
  8
0
 10
49
 20
81
 11
48.1492
 21
81.0267
  0
LINE
  8
0
 10
65.2258
 20
69.003
 11
65.132
 21
69.0118
  0
LINE
  8
0
 10
65.132
 20
69.0118
 11
65.0389
 21
69.0266
  0
LINE
  8
0
 10
65.0389
 20
69.0266
 11
64.947
 21
69.0471
  0
LINE
  8
0
 10
64.947
 20
69.0471
 11
64.8565
 21
69.0734
  0
LINE
  8
0
 10
64.8565
 20
69.0734
 11
64.7678
 21
69.1053
  0
LINE
  8
0
 10
64.7678
 20
69.1053
 11
64.6813
 21
69.1428
  0
LINE
  8
0
 10
64.6813
 20
69.1428
 11
64.5974
 21
69.1855
  0
LINE
  8
0
 10
64.5974
 20
69.1855
 11
64.5163
 21
69.2335
  0
LINE
  8
0
 10
64.5163
 20
69.2335
 11
64.4383
 21
69.2865
  0
LINE
  8
0
 10
64.4383
 20
69.2865
 11
64.3639
 21
69.3442
  0
LINE
  8
0
 10
64.3639
 20
69.3442
 11
64.2932
 21
69.4065
  0
LINE
  8
0
 10
64.2932
 20
69.4065
 11
64.2265
 21
69.4732
  0
LINE
  8
0
 10
64.2265
 20
69.4732
 11
64.1642
 21
69.5439
  0
LINE
  8
0
 10
64.1642
 20
69.5439
 11
64.1065
 21
69.6183
  0
LINE
  8
0
 10
64.1065
 20
69.6183
 11
64.0535
 21
69.6963
  0
LINE
  8
0
 10
64.0535
 20
69.6963
 11
64.0055
 21
69.7774
  0
LINE
  8
0
 10
64.0055
 20
69.7774
 11
63.9628
 21
69.8613
  0
LINE
  8
0
 10
63.9628
 20
69.8613
 11
63.9253
 21
69.9478
  0
LINE
  8
0
 10
63.9253
 20
69.9478
 11
63.8934
 21
70.0365
  0
LINE
  8
0
 10
63.8934
 20
70.0365
 11
63.8671
 21
70.127
  0
LINE
  8
0
 10
63.8671
 20
70.127
 11
63.8466
 21
70.2189
  0
LINE
  8
0
 10
63.8466
 20
70.2189
 11
63.8318
 21
70.312
  0
LINE
  8
0
 10
63.8318
 20
70.312
 11
63.823
 21
70.4058
  0
LINE
  8
0
 10
63.823
 20
70.4058
 11
63.82
 21
70.5
  0
LINE
  8
0
 10
63.82
 20
70.5
 11
63.823
 21
70.5942
  0
LINE
  8
0
 10
63.823
 20
70.5942
 11
63.8318
 21
70.688
  0
LINE
  8
0
 10
63.8318
 20
70.688
 11
63.8466
 21
70.7811
  0
LINE
  8
0
 10
63.8466
 20
70.7811
 11
63.8671
 21
70.873
  0
LINE
  8
0
 10
63.8671
 20
70.873
 11
63.8934
 21
70.9635
  0
LINE
  8
0
 10
63.8934
 20
70.9635
 11
63.9253
 21
71.0522
  0
LINE
  8
0
 10
63.9253
 20
71.0522
 11
63.9628
 21
71.1387
  0
LINE
  8
0
 10
63.9628
 20
71.1387
 11
64.0055
 21
71.2226
  0
LINE
  8
0
 10
64.0055
 20
71.2226
 11
64.0535
 21
71.3037
  0
LINE
  8
0
 10
64.0535
 20
71.3037
 11
64.1065
 21
71.3817
  0
LINE
  8
0
 10
64.1065
 20
71.3817
 11
64.1642
 21
71.4561
  0
LINE
  8
0
 10
64.1642
 20
71.4561
 11
64.2265
 21
71.5268
  0
LINE
  8
0
 10
64.2265
 20
71.5268
 11
64.2932
 21
71.5934
  0
LINE
  8
0
 10
64.2932
 20
71.5934
 11
64.3639
 21
71.6558
  0
LINE
  8
0
 10
64.3639
 20
71.6558
 11
64.4383
 21
71.7135
  0
LINE
  8
0
 10
64.4383
 20
71.7135
 11
64.5163
 21
71.7665
  0
LINE
  8
0
 10
64.5163
 20
71.7665
 11
64.5974
 21
71.8145
  0
LINE
  8
0
 10
64.5974
 20
71.8145
 11
64.6813
 21
71.8572
  0
LINE
  8
0
 10
64.6813
 20
71.8572
 11
64.7678
 21
71.8947
  0
LINE
  8
0
 10
64.7678
 20
71.8947
 11
64.8565
 21
71.9266
  0
LINE
  8
0
 10
64.8565
 20
71.9266
 11
64.947
 21
71.9529
  0
LINE
  8
0
 10
64.947
 20
71.9529
 11
65.0389
 21
71.9734
  0
LINE
  8
0
 10
65.0389
 20
71.9734
 11
65.132
 21
71.9882
  0
LINE
  8
0
 10
65.132
 20
71.9882
 11
65.2258
 21
71.997
  0
LINE
  8
0
 10
65.2258
 20
71.997
 11
65.32
 21
72
  0
LINE
  8
0
 10
65.32
 20
72
 11
65.4142
 21
71.997
  0
LINE
  8
0
 10
65.4142
 20
71.997
 11
65.508
 21
71.9882
  0
LINE
  8
0
 10
65.508
 20
71.9882
 11
65.6011
 21
71.9734
  0
LINE
  8
0
 10
65.6011
 20
71.9734
 11
65.693
 21
71.9529
  0
LINE
  8
0
 10
65.693
 20
71.9529
 11
65.7835
 21
71.9266
  0
LINE
  8
0
 10
65.7835
 20
71.9266
 11
65.8722
 21
71.8947
  0
LINE
  8
0
 10
65.8722
 20
71.8947
 11
65.9587
 21
71.8572
  0
LINE
  8
0
 10
65.9587
 20
71.8572
 11
66.0426
 21
71.8145
  0
LINE
  8
0
 10
66.0426
 20
71.8145
 11
66.1237
 21
71.7665
  0
LINE
  8
0
 10
66.1237
 20
71.7665
 11
66.2017
 21
71.7135
  0
LINE
  8
0
 10
66.2017
 20
71.7135
 11
66.2761
 21
71.6558
  0
LINE
  8
0
 10
66.2761
 20
71.6558
 11
66.3468
 21
71.5934
  0
LINE
  8
0
 10
66.3468
 20
71.5934
 11
66.4135
 21
71.5268
  0
LINE
  8
0
 10
66.4135
 20
71.5268
 11
66.4758
 21
71.4561
  0
LINE
  8
0
 10
66.4758
 20
71.4561
 11
66.5335
 21
71.3817
  0
LINE
  8
0
 10
66.5335
 20
71.3817
 11
66.5865
 21
71.3037
  0
LINE
  8
0
 10
66.5865
 20
71.3037
 11
66.6345
 21
71.2226
  0
LINE
  8
0
 10
66.6345
 20
71.2226
 11
66.6772
 21
71.1387
  0
LINE
  8
0
 10
66.6772
 20
71.1387
 11
66.7147
 21
71.0522
  0
LINE
  8
0
 10
66.7147
 20
71.0522
 11
66.7466
 21
70.9635
  0
LINE
  8
0
 10
66.7466
 20
70.9635
 11
66.7729
 21
70.873
  0
LINE
  8
0
 10
66.7729
 20
70.873
 11
66.7934
 21
70.7811
  0
LINE
  8
0
 10
66.7934
 20
70.7811
 11
66.8082
 21
70.688
  0
LINE
  8
0
 10
66.8082
 20
70.688
 11
66.817
 21
70.5942
  0
LINE
  8
0
 10
66.817
 20
70.5942
 11
66.82
 21
70.5
  0
LINE
  8
0
 10
66.82
 20
70.5
 11
66.817
 21
70.4058
  0
LINE
  8
0
 10
66.817
 20
70.4058
 11
66.8082
 21
70.312
  0
LINE
  8
0
 10
66.8082
 20
70.312
 11
66.7934
 21
70.2189
  0
LINE
  8
0
 10
66.7934
 20
70.2189
 11
66.7729
 21
70.127
  0
LINE
  8
0
 10
66.7729
 20
70.127
 11
66.7466
 21
70.0365
  0
LINE
  8
0
 10
66.7466
 20
70.0365
 11
66.7147
 21
69.9478
  0
LINE
  8
0
 10
66.7147
 20
69.9478
 11
66.6772
 21
69.8613
  0
LINE
  8
0
 10
66.6772
 20
69.8613
 11
66.6345
 21
69.7774
  0
LINE
  8
0
 10
66.6345
 20
69.7774
 11
66.5865
 21
69.6963
  0
LINE
  8
0
 10
66.5865
 20
69.6963
 11
66.5335
 21
69.6183
  0
LINE
  8
0
 10
66.5335
 20
69.6183
 11
66.4758
 21
69.5439
  0
LINE
  8
0
 10
66.4758
 20
69.5439
 11
66.4135
 21
69.4732
  0
LINE
  8
0
 10
66.4135
 20
69.4732
 11
66.3468
 21
69.4065
  0
LINE
  8
0
 10
66.3468
 20
69.4065
 11
66.2761
 21
69.3442
  0
LINE
  8
0
 10
66.2761
 20
69.3442
 11
66.2017
 21
69.2865
  0
LINE
  8
0
 10
66.2017
 20
69.2865
 11
66.1237
 21
69.2335
  0
LINE
  8
0
 10
66.1237
 20
69.2335
 11
66.0426
 21
69.1855
  0
LINE
  8
0
 10
66.0426
 20
69.1855
 11
65.9587
 21
69.1428
  0
LINE
  8
0
 10
65.9587
 20
69.1428
 11
65.8722
 21
69.1053
  0
LINE
  8
0
 10
65.8722
 20
69.1053
 11
65.7835
 21
69.0734
  0
LINE
  8
0
 10
65.7835
 20
69.0734
 11
65.693
 21
69.0471
  0
LINE
  8
0
 10
65.693
 20
69.0471
 11
65.6011
 21
69.0266
  0
LINE
  8
0
 10
65.6011
 20
69.0266
 11
65.508
 21
69.0118
  0
LINE
  8
0
 10
65.508
 20
69.0118
 11
65.4142
 21
69.003
  0
LINE
  8
0
 10
65.4142
 20
69.003
 11
65.32
 21
69
  0
LINE
  8
0
 10
65.32
 20
69
 11
65.2258
 21
69.003
  0
LINE
  8
0
 10
32.5858
 20
69.003
 11
32.492
 21
69.0118
  0
LINE
  8
0
 10
32.492
 20
69.0118
 11
32.3989
 21
69.0266
  0
LINE
  8
0
 10
32.3989
 20
69.0266
 11
32.307
 21
69.0471
  0
LINE
  8
0
 10
32.307
 20
69.0471
 11
32.2165
 21
69.0734
  0
LINE
  8
0
 10
32.2165
 20
69.0734
 11
32.1278
 21
69.1053
  0
LINE
  8
0
 10
32.1278
 20
69.1053
 11
32.0413
 21
69.1428
  0
LINE
  8
0
 10
32.0413
 20
69.1428
 11
31.9574
 21
69.1855
  0
LINE
  8
0
 10
31.9574
 20
69.1855
 11
31.8763
 21
69.2335
  0
LINE
  8
0
 10
31.8763
 20
69.2335
 11
31.7983
 21
69.2865
  0
LINE
  8
0
 10
31.7983
 20
69.2865
 11
31.7239
 21
69.3442
  0
LINE
  8
0
 10
31.7239
 20
69.3442
 11
31.6532
 21
69.4065
  0
LINE
  8
0
 10
31.6532
 20
69.4065
 11
31.5865
 21
69.4732
  0
LINE
  8
0
 10
31.5865
 20
69.4732
 11
31.5242
 21
69.5439
  0
LINE
  8
0
 10
31.5242
 20
69.5439
 11
31.4665
 21
69.6183
  0
LINE
  8
0
 10
31.4665
 20
69.6183
 11
31.4135
 21
69.6963
  0
LINE
  8
0
 10
31.4135
 20
69.6963
 11
31.3655
 21
69.7774
  0
LINE
  8
0
 10
31.3655
 20
69.7774
 11
31.3228
 21
69.8613
  0
LINE
  8
0
 10
31.3228
 20
69.8613
 11
31.2853
 21
69.9478
  0
LINE
  8
0
 10
31.2853
 20
69.9478
 11
31.2534
 21
70.0365
  0
LINE
  8
0
 10
31.2534
 20
70.0365
 11
31.2271
 21
70.127
  0
LINE
  8
0
 10
31.2271
 20
70.127
 11
31.2066
 21
70.2189
  0
LINE
  8
0
 10
31.2066
 20
70.2189
 11
31.1918
 21
70.312
  0
LINE
  8
0
 10
31.1918
 20
70.312
 11
31.183
 21
70.4058
  0
LINE
  8
0
 10
31.183
 20
70.4058
 11
31.18
 21
70.5
  0
LINE
  8
0
 10
31.18
 20
70.5
 11
31.183
 21
70.5942
  0
LINE
  8
0
 10
31.183
 20
70.5942
 11
31.1918
 21
70.688
  0
LINE
  8
0
 10
31.1918
 20
70.688
 11
31.2066
 21
70.7811
  0
LINE
  8
0
 10
31.2066
 20
70.7811
 11
31.2271
 21
70.873
  0
LINE
  8
0
 10
31.2271
 20
70.873
 11
31.2534
 21
70.9635
  0
LINE
  8
0
 10
31.2534
 20
70.9635
 11
31.2853
 21
71.0522
  0
LINE
  8
0
 10
31.2853
 20
71.0522
 11
31.3228
 21
71.1387
  0
LINE
  8
0
 10
31.3228
 20
71.1387
 11
31.3655
 21
71.2226
  0
LINE
  8
0
 10
31.3655
 20
71.2226
 11
31.4135
 21
71.3037
  0
LINE
  8
0
 10
31.4135
 20
71.3037
 11
31.4665
 21
71.3817
  0
LINE
  8
0
 10
31.4665
 20
71.3817
 11
31.5242
 21
71.4561
  0
LINE
  8
0
 10
31.5242
 20
71.4561
 11
31.5865
 21
71.5268
  0
LINE
  8
0
 10
31.5865
 20
71.5268
 11
31.6532
 21
71.5934
  0
LINE
  8
0
 10
31.6532
 20
71.5934
 11
31.7239
 21
71.6558
  0
LINE
  8
0
 10
31.7239
 20
71.6558
 11
31.7983
 21
71.7135
  0
LINE
  8
0
 10
31.7983
 20
71.7135
 11
31.8763
 21
71.7665
  0
LINE
  8
0
 10
31.8763
 20
71.7665
 11
31.9574
 21
71.8145
  0
LINE
  8
0
 10
31.9574
 20
71.8145
 11
32.0413
 21
71.8572
  0
LINE
  8
0
 10
32.0413
 20
71.8572
 11
32.1278
 21
71.8947
  0
LINE
  8
0
 10
32.1278
 20
71.8947
 11
32.2165
 21
71.9266
  0
LINE
  8
0
 10
32.2165
 20
71.9266
 11
32.307
 21
71.9529
  0
LINE
  8
0
 10
32.307
 20
71.9529
 11
32.3989
 21
71.9734
  0
LINE
  8
0
 10
32.3989
 20
71.9734
 11
32.492
 21
71.9882
  0
LINE
  8
0
 10
32.492
 20
71.9882
 11
32.5858
 21
71.997
  0
LINE
  8
0
 10
32.5858
 20
71.997
 11
32.68
 21
72
  0
LINE
  8
0
 10
32.68
 20
72
 11
32.7742
 21
71.997
  0
LINE
  8
0
 10
32.7742
 20
71.997
 11
32.868
 21
71.9882
  0
LINE
  8
0
 10
32.868
 20
71.9882
 11
32.9611
 21
71.9734
  0
LINE
  8
0
 10
32.9611
 20
71.9734
 11
33.053
 21
71.9529
  0
LINE
  8
0
 10
33.053
 20
71.9529
 11
33.1435
 21
71.9266
  0
LINE
  8
0
 10
33.1435
 20
71.9266
 11
33.2322
 21
71.8947
  0
LINE
  8
0
 10
33.2322
 20
71.8947
 11
33.3187
 21
71.8572
  0
LINE
  8
0
 10
33.3187
 20
71.8572
 11
33.4026
 21
71.8145
  0
LINE
  8
0
 10
33.4026
 20
71.8145
 11
33.4837
 21
71.7665
  0
LINE
  8
0
 10
33.4837
 20
71.7665
 11
33.5617
 21
71.7135
  0
LINE
  8
0
 10
33.5617
 20
71.7135
 11
33.6361
 21
71.6558
  0
LINE
  8
0
 10
33.6361
 20
71.6558
 11
33.7068
 21
71.5934
  0
LINE
  8
0
 10
33.7068
 20
71.5934
 11
33.7735
 21
71.5268
  0
LINE
  8
0
 10
33.7735
 20
71.5268
 11
33.8358
 21
71.4561
  0
LINE
  8
0
 10
33.8358
 20
71.4561
 11
33.8935
 21
71.3817
  0
LINE
  8
0
 10
33.8935
 20
71.3817
 11
33.9465
 21
71.3037
  0
LINE
  8
0
 10
33.9465
 20
71.3037
 11
33.9945
 21
71.2226
  0
LINE
  8
0
 10
33.9945
 20
71.2226
 11
34.0372
 21
71.1387
  0
LINE
  8
0
 10
34.0372
 20
71.1387
 11
34.0747
 21
71.0522
  0
LINE
  8
0
 10
34.0747
 20
71.0522
 11
34.1066
 21
70.9635
  0
LINE
  8
0
 10
34.1066
 20
70.9635
 11
34.1329
 21
70.873
  0
LINE
  8
0
 10
34.1329
 20
70.873
 11
34.1534
 21
70.7811
  0
LINE
  8
0
 10
34.1534
 20
70.7811
 11
34.1682
 21
70.688
  0
LINE
  8
0
 10
34.1682
 20
70.688
 11
34.177
 21
70.5942
  0
LINE
  8
0
 10
34.177
 20
70.5942
 11
34.18
 21
70.5
  0
LINE
  8
0
 10
34.18
 20
70.5
 11
34.177
 21
70.4058
  0
LINE
  8
0
 10
34.177
 20
70.4058
 11
34.1682
 21
70.312
  0
LINE
  8
0
 10
34.1682
 20
70.312
 11
34.1534
 21
70.2189
  0
LINE
  8
0
 10
34.1534
 20
70.2189
 11
34.1329
 21
70.127
  0
LINE
  8
0
 10
34.1329
 20
70.127
 11
34.1066
 21
70.0365
  0
LINE
  8
0
 10
34.1066
 20
70.0365
 11
34.0747
 21
69.9478
  0
LINE
  8
0
 10
34.0747
 20
69.9478
 11
34.0372
 21
69.8613
  0
LINE
  8
0
 10
34.0372
 20
69.8613
 11
33.9945
 21
69.7774
  0
LINE
  8
0
 10
33.9945
 20
69.7774
 11
33.9465
 21
69.6963
  0
LINE
  8
0
 10
33.9465
 20
69.6963
 11
33.8935
 21
69.6183
  0
LINE
  8
0
 10
33.8935
 20
69.6183
 11
33.8358
 21
69.5439
  0
LINE
  8
0
 10
33.8358
 20
69.5439
 11
33.7735
 21
69.4732
  0
LINE
  8
0
 10
33.7735
 20
69.4732
 11
33.7068
 21
69.4065
  0
LINE
  8
0
 10
33.7068
 20
69.4065
 11
33.6361
 21
69.3442
  0
LINE
  8
0
 10
33.6361
 20
69.3442
 11
33.5617
 21
69.2865
  0
LINE
  8
0
 10
33.5617
 20
69.2865
 11
33.4837
 21
69.2335
  0
LINE
  8
0
 10
33.4837
 20
69.2335
 11
33.4026
 21
69.1855
  0
LINE
  8
0
 10
33.4026
 20
69.1855
 11
33.3187
 21
69.1428
  0
LINE
  8
0
 10
33.3187
 20
69.1428
 11
33.2322
 21
69.1053
  0
LINE
  8
0
 10
33.2322
 20
69.1053
 11
33.1435
 21
69.0734
  0
LINE
  8
0
 10
33.1435
 20
69.0734
 11
33.053
 21
69.0471
  0
LINE
  8
0
 10
33.053
 20
69.0471
 11
32.9611
 21
69.0266
  0
LINE
  8
0
 10
32.9611
 20
69.0266
 11
32.868
 21
69.0118
  0
LINE
  8
0
 10
32.868
 20
69.0118
 11
32.7742
 21
69.003
  0
LINE
  8
0
 10
32.7742
 20
69.003
 11
32.68
 21
69
  0
LINE
  8
0
 10
32.68
 20
69
 11
32.5858
 21
69.003
  0
ENDSEC
  0
SECTION
  2
OBJECTS
  0
DICTIONARY
  0
ENDSEC
  0
EOF
