  0
SECTION
  2
BLOCKS
  0
ENDSEC
  0
SECTION
  2
ENTITIES
  0
LINE
  8
0
 10
293.1
 20
98
 11
0
 21
98
  0
LINE
  8
0
 10
0
 20
98
 11
0
 21
0
  0
LINE
  8
0
 10
0
 20
0
 11
293.1
 21
0
  0
LINE
  8
0
 10
293.1
 20
0
 11
293.1
 21
98
  0
LINE
  8
0
 10
184.85
 20
63
 11
185.729
 21
62.9724
  0
LINE
  8
0
 10
185.729
 20
62.9724
 11
186.605
 21
62.8896
  0
LINE
  8
0
 10
186.605
 20
62.8896
 11
187.473
 21
62.752
  0
LINE
  8
0
 10
187.473
 20
62.752
 11
188.332
 21
62.5602
  0
LINE
  8
0
 10
188.332
 20
62.5602
 11
189.176
 21
62.3148
  0
LINE
  8
0
 10
189.176
 20
62.3148
 11
190.004
 21
62.0169
  0
LINE
  8
0
 10
190.004
 20
62.0169
 11
190.811
 21
61.6676
  0
LINE
  8
0
 10
190.811
 20
61.6676
 11
191.595
 21
61.2683
  0
LINE
  8
0
 10
191.595
 20
61.2683
 11
192.352
 21
60.8206
  0
LINE
  8
0
 10
192.352
 20
60.8206
 11
193.079
 21
60.3262
  0
LINE
  8
0
 10
193.079
 20
60.3262
 11
193.774
 21
59.7872
  0
LINE
  8
0
 10
193.774
 20
59.7872
 11
194.434
 21
59.2056
  0
LINE
  8
0
 10
194.434
 20
59.2056
 11
195.056
 21
58.5836
  0
LINE
  8
0
 10
195.056
 20
58.5836
 11
195.637
 21
57.9239
  0
LINE
  8
0
 10
195.637
 20
57.9239
 11
196.176
 21
57.229
  0
LINE
  8
0
 10
196.176
 20
57.229
 11
196.671
 21
56.5016
  0
LINE
  8
0
 10
196.671
 20
56.5016
 11
197.118
 21
55.7446
  0
LINE
  8
0
 10
197.118
 20
55.7446
 11
197.518
 21
54.9609
  0
LINE
  8
0
 10
197.518
 20
54.9609
 11
197.867
 21
54.1537
  0
LINE
  8
0
 10
197.867
 20
54.1537
 11
198.165
 21
53.3262
  0
LINE
  8
0
 10
198.165
 20
53.3262
 11
198.41
 21
52.4817
  0
LINE
  8
0
 10
198.41
 20
52.4817
 11
198.602
 21
51.6233
  0
LINE
  8
0
 10
198.602
 20
51.6233
 11
198.74
 21
50.7547
  0
LINE
  8
0
 10
198.74
 20
50.7547
 11
198.822
 21
49.8791
  0
LINE
  8
0
 10
198.822
 20
49.8791
 11
198.85
 21
49
  0
LINE
  8
0
 10
198.85
 20
49
 11
198.822
 21
48.1209
  0
LINE
  8
0
 10
198.822
 20
48.1209
 11
198.74
 21
47.2453
  0
LINE
  8
0
 10
198.74
 20
47.2453
 11
198.602
 21
46.3767
  0
LINE
  8
0
 10
198.602
 20
46.3767
 11
198.41
 21
45.5183
  0
LINE
  8
0
 10
198.41
 20
45.5183
 11
198.165
 21
44.6738
  0
LINE
  8
0
 10
198.165
 20
44.6738
 11
197.867
 21
43.8463
  0
LINE
  8
0
 10
197.867
 20
43.8463
 11
197.518
 21
43.0391
  0
LINE
  8
0
 10
197.518
 20
43.0391
 11
197.118
 21
42.2554
  0
LINE
  8
0
 10
197.118
 20
42.2554
 11
196.671
 21
41.4984
  0
LINE
  8
0
 10
196.671
 20
41.4984
 11
196.176
 21
40.771
  0
LINE
  8
0
 10
196.176
 20
40.771
 11
195.637
 21
40.0761
  0
LINE
  8
0
 10
195.637
 20
40.0761
 11
195.056
 21
39.4163
  0
LINE
  8
0
 10
195.056
 20
39.4163
 11
194.434
 21
38.7944
  0
LINE
  8
0
 10
194.434
 20
38.7944
 11
193.774
 21
38.2128
  0
LINE
  8
0
 10
193.774
 20
38.2128
 11
193.079
 21
37.6738
  0
LINE
  8
0
 10
193.079
 20
37.6738
 11
192.352
 21
37.1794
  0
LINE
  8
0
 10
192.352
 20
37.1794
 11
191.595
 21
36.7317
  0
LINE
  8
0
 10
191.595
 20
36.7317
 11
190.811
 21
36.3324
  0
LINE
  8
0
 10
190.811
 20
36.3324
 11
190.004
 21
35.9831
  0
LINE
  8
0
 10
190.004
 20
35.9831
 11
189.176
 21
35.6852
  0
LINE
  8
0
 10
189.176
 20
35.6852
 11
188.332
 21
35.4398
  0
LINE
  8
0
 10
188.332
 20
35.4398
 11
187.473
 21
35.248
  0
LINE
  8
0
 10
187.473
 20
35.248
 11
186.605
 21
35.1104
  0
LINE
  8
0
 10
186.605
 20
35.1104
 11
185.729
 21
35.0276
  0
LINE
  8
0
 10
185.729
 20
35.0276
 11
184.85
 21
35
  0
LINE
  8
0
 10
184.85
 20
35
 11
183.971
 21
35.0276
  0
LINE
  8
0
 10
183.971
 20
35.0276
 11
183.095
 21
35.1104
  0
LINE
  8
0
 10
183.095
 20
35.1104
 11
182.227
 21
35.248
  0
LINE
  8
0
 10
182.227
 20
35.248
 11
181.368
 21
35.4398
  0
LINE
  8
0
 10
181.368
 20
35.4398
 11
180.524
 21
35.6852
  0
LINE
  8
0
 10
180.524
 20
35.6852
 11
179.696
 21
35.9831
  0
LINE
  8
0
 10
179.696
 20
35.9831
 11
178.889
 21
36.3324
  0
LINE
  8
0
 10
178.889
 20
36.3324
 11
178.105
 21
36.7317
  0
LINE
  8
0
 10
178.105
 20
36.7317
 11
177.348
 21
37.1794
  0
LINE
  8
0
 10
177.348
 20
37.1794
 11
176.621
 21
37.6738
  0
LINE
  8
0
 10
176.621
 20
37.6738
 11
175.926
 21
38.2128
  0
LINE
  8
0
 10
175.926
 20
38.2128
 11
175.266
 21
38.7944
  0
LINE
  8
0
 10
175.266
 20
38.7944
 11
174.644
 21
39.4163
  0
LINE
  8
0
 10
174.644
 20
39.4163
 11
174.063
 21
40.0761
  0
LINE
  8
0
 10
174.063
 20
40.0761
 11
173.524
 21
40.771
  0
LINE
  8
0
 10
173.524
 20
40.771
 11
173.029
 21
41.4984
  0
LINE
  8
0
 10
173.029
 20
41.4984
 11
172.582
 21
42.2554
  0
LINE
  8
0
 10
172.582
 20
42.2554
 11
172.182
 21
43.0391
  0
LINE
  8
0
 10
172.182
 20
43.0391
 11
171.833
 21
43.8463
  0
LINE
  8
0
 10
171.833
 20
43.8463
 11
171.535
 21
44.6738
  0
LINE
  8
0
 10
171.535
 20
44.6738
 11
171.29
 21
45.5183
  0
LINE
  8
0
 10
171.29
 20
45.5183
 11
171.098
 21
46.3767
  0
LINE
  8
0
 10
171.098
 20
46.3767
 11
170.96
 21
47.2453
  0
LINE
  8
0
 10
170.96
 20
47.2453
 11
170.878
 21
48.1209
  0
LINE
  8
0
 10
170.878
 20
48.1209
 11
170.85
 21
49
  0
LINE
  8
0
 10
170.85
 20
49
 11
170.878
 21
49.8791
  0
LINE
  8
0
 10
170.878
 20
49.8791
 11
170.96
 21
50.7547
  0
LINE
  8
0
 10
170.96
 20
50.7547
 11
171.098
 21
51.6233
  0
LINE
  8
0
 10
171.098
 20
51.6233
 11
171.29
 21
52.4817
  0
LINE
  8
0
 10
171.29
 20
52.4817
 11
171.535
 21
53.3262
  0
LINE
  8
0
 10
171.535
 20
53.3262
 11
171.833
 21
54.1537
  0
LINE
  8
0
 10
171.833
 20
54.1537
 11
172.182
 21
54.9609
  0
LINE
  8
0
 10
172.182
 20
54.9609
 11
172.582
 21
55.7446
  0
LINE
  8
0
 10
172.582
 20
55.7446
 11
173.029
 21
56.5016
  0
LINE
  8
0
 10
173.029
 20
56.5016
 11
173.524
 21
57.229
  0
LINE
  8
0
 10
173.524
 20
57.229
 11
174.063
 21
57.9239
  0
LINE
  8
0
 10
174.063
 20
57.9239
 11
174.644
 21
58.5836
  0
LINE
  8
0
 10
174.644
 20
58.5836
 11
175.266
 21
59.2056
  0
LINE
  8
0
 10
175.266
 20
59.2056
 11
175.926
 21
59.7872
  0
LINE
  8
0
 10
175.926
 20
59.7872
 11
176.621
 21
60.3262
  0
LINE
  8
0
 10
176.621
 20
60.3262
 11
177.348
 21
60.8206
  0
LINE
  8
0
 10
177.348
 20
60.8206
 11
178.105
 21
61.2683
  0
LINE
  8
0
 10
178.105
 20
61.2683
 11
178.889
 21
61.6676
  0
LINE
  8
0
 10
178.889
 20
61.6676
 11
179.696
 21
62.0169
  0
LINE
  8
0
 10
179.696
 20
62.0169
 11
180.524
 21
62.3148
  0
LINE
  8
0
 10
180.524
 20
62.3148
 11
181.368
 21
62.5602
  0
LINE
  8
0
 10
181.368
 20
62.5602
 11
182.227
 21
62.752
  0
LINE
  8
0
 10
182.227
 20
62.752
 11
183.095
 21
62.8896
  0
LINE
  8
0
 10
183.095
 20
62.8896
 11
183.971
 21
62.9724
  0
LINE
  8
0
 10
183.971
 20
62.9724
 11
184.85
 21
63
  0
LINE
  8
0
 10
257.124
 20
62.3148
 11
257.968
 21
62.5602
  0
LINE
  8
0
 10
257.968
 20
62.5602
 11
258.827
 21
62.752
  0
LINE
  8
0
 10
258.827
 20
62.752
 11
259.695
 21
62.8896
  0
LINE
  8
0
 10
259.695
 20
62.8896
 11
260.571
 21
62.9724
  0
LINE
  8
0
 10
260.571
 20
62.9724
 11
261.45
 21
63
  0
LINE
  8
0
 10
261.45
 20
63
 11
262.329
 21
62.9724
  0
LINE
  8
0
 10
262.329
 20
62.9724
 11
263.205
 21
62.8896
  0
LINE
  8
0
 10
263.205
 20
62.8896
 11
264.073
 21
62.752
  0
LINE
  8
0
 10
264.073
 20
62.752
 11
264.932
 21
62.5602
  0
LINE
  8
0
 10
264.932
 20
62.5602
 11
265.776
 21
62.3148
  0
LINE
  8
0
 10
265.776
 20
62.3148
 11
266.604
 21
62.0169
  0
LINE
  8
0
 10
266.604
 20
62.0169
 11
267.411
 21
61.6676
  0
LINE
  8
0
 10
267.411
 20
61.6676
 11
268.195
 21
61.2683
  0
LINE
  8
0
 10
268.195
 20
61.2683
 11
268.952
 21
60.8206
  0
LINE
  8
0
 10
268.952
 20
60.8206
 11
269.679
 21
60.3262
  0
LINE
  8
0
 10
269.679
 20
60.3262
 11
270.374
 21
59.7872
  0
LINE
  8
0
 10
270.374
 20
59.7872
 11
271.034
 21
59.2056
  0
LINE
  8
0
 10
271.034
 20
59.2056
 11
271.656
 21
58.5836
  0
LINE
  8
0
 10
271.656
 20
58.5836
 11
272.237
 21
57.9239
  0
LINE
  8
0
 10
272.237
 20
57.9239
 11
272.776
 21
57.229
  0
LINE
  8
0
 10
272.776
 20
57.229
 11
273.271
 21
56.5016
  0
LINE
  8
0
 10
273.271
 20
56.5016
 11
273.718
 21
55.7446
  0
LINE
  8
0
 10
273.718
 20
55.7446
 11
274.118
 21
54.9609
  0
LINE
  8
0
 10
274.118
 20
54.9609
 11
274.467
 21
54.1537
  0
LINE
  8
0
 10
274.467
 20
54.1537
 11
274.765
 21
53.3262
  0
LINE
  8
0
 10
274.765
 20
53.3262
 11
275.01
 21
52.4817
  0
LINE
  8
0
 10
275.01
 20
52.4817
 11
275.202
 21
51.6233
  0
LINE
  8
0
 10
275.202
 20
51.6233
 11
275.34
 21
50.7547
  0
LINE
  8
0
 10
275.34
 20
50.7547
 11
275.422
 21
49.8791
  0
LINE
  8
0
 10
275.422
 20
49.8791
 11
275.45
 21
49
  0
LINE
  8
0
 10
275.45
 20
49
 11
275.422
 21
48.1209
  0
LINE
  8
0
 10
275.422
 20
48.1209
 11
275.34
 21
47.2453
  0
LINE
  8
0
 10
275.34
 20
47.2453
 11
275.202
 21
46.3767
  0
LINE
  8
0
 10
275.202
 20
46.3767
 11
275.01
 21
45.5183
  0
LINE
  8
0
 10
275.01
 20
45.5183
 11
274.765
 21
44.6738
  0
LINE
  8
0
 10
274.765
 20
44.6738
 11
274.467
 21
43.8463
  0
LINE
  8
0
 10
274.467
 20
43.8463
 11
274.118
 21
43.0391
  0
LINE
  8
0
 10
274.118
 20
43.0391
 11
273.718
 21
42.2554
  0
LINE
  8
0
 10
273.718
 20
42.2554
 11
273.271
 21
41.4984
  0
LINE
  8
0
 10
273.271
 20
41.4984
 11
272.776
 21
40.771
  0
LINE
  8
0
 10
272.776
 20
40.771
 11
272.237
 21
40.0761
  0
LINE
  8
0
 10
272.237
 20
40.0761
 11
271.656
 21
39.4163
  0
LINE
  8
0
 10
271.656
 20
39.4163
 11
271.034
 21
38.7944
  0
LINE
  8
0
 10
271.034
 20
38.7944
 11
270.374
 21
38.2128
  0
LINE
  8
0
 10
270.374
 20
38.2128
 11
269.679
 21
37.6738
  0
LINE
  8
0
 10
269.679
 20
37.6738
 11
268.952
 21
37.1794
  0
LINE
  8
0
 10
268.952
 20
37.1794
 11
268.195
 21
36.7317
  0
LINE
  8
0
 10
268.195
 20
36.7317
 11
267.411
 21
36.3324
  0
LINE
  8
0
 10
267.411
 20
36.3324
 11
266.604
 21
35.9831
  0
LINE
  8
0
 10
266.604
 20
35.9831
 11
265.776
 21
35.6852
  0
LINE
  8
0
 10
265.776
 20
35.6852
 11
264.932
 21
35.4398
  0
LINE
  8
0
 10
264.932
 20
35.4398
 11
264.073
 21
35.248
  0
LINE
  8
0
 10
264.073
 20
35.248
 11
263.205
 21
35.1104
  0
LINE
  8
0
 10
263.205
 20
35.1104
 11
262.329
 21
35.0276
  0
LINE
  8
0
 10
262.329
 20
35.0276
 11
261.45
 21
35
  0
LINE
  8
0
 10
261.45
 20
35
 11
260.571
 21
35.0276
  0
LINE
  8
0
 10
260.571
 20
35.0276
 11
259.695
 21
35.1104
  0
LINE
  8
0
 10
259.695
 20
35.1104
 11
258.827
 21
35.248
  0
LINE
  8
0
 10
258.827
 20
35.248
 11
257.968
 21
35.4398
  0
LINE
  8
0
 10
257.968
 20
35.4398
 11
257.124
 21
35.6852
  0
LINE
  8
0
 10
257.124
 20
35.6852
 11
256.296
 21
35.9831
  0
LINE
  8
0
 10
256.296
 20
35.9831
 11
255.489
 21
36.3324
  0
LINE
  8
0
 10
255.489
 20
36.3324
 11
254.705
 21
36.7317
  0
LINE
  8
0
 10
254.705
 20
36.7317
 11
253.948
 21
37.1794
  0
LINE
  8
0
 10
253.948
 20
37.1794
 11
253.221
 21
37.6738
  0
LINE
  8
0
 10
253.221
 20
37.6738
 11
252.526
 21
38.2128
  0
LINE
  8
0
 10
252.526
 20
38.2128
 11
251.866
 21
38.7944
  0
LINE
  8
0
 10
251.866
 20
38.7944
 11
251.244
 21
39.4163
  0
LINE
  8
0
 10
251.244
 20
39.4163
 11
250.663
 21
40.0761
  0
LINE
  8
0
 10
250.663
 20
40.0761
 11
250.124
 21
40.771
  0
LINE
  8
0
 10
250.124
 20
40.771
 11
249.629
 21
41.4984
  0
LINE
  8
0
 10
249.629
 20
41.4984
 11
249.182
 21
42.2554
  0
LINE
  8
0
 10
249.182
 20
42.2554
 11
248.782
 21
43.0391
  0
LINE
  8
0
 10
248.782
 20
43.0391
 11
248.433
 21
43.8463
  0
LINE
  8
0
 10
248.433
 20
43.8463
 11
248.135
 21
44.6738
  0
LINE
  8
0
 10
248.135
 20
44.6738
 11
247.89
 21
45.5183
  0
LINE
  8
0
 10
247.89
 20
45.5183
 11
247.698
 21
46.3767
  0
LINE
  8
0
 10
247.698
 20
46.3767
 11
247.56
 21
47.2453
  0
LINE
  8
0
 10
247.56
 20
47.2453
 11
247.478
 21
48.1209
  0
LINE
  8
0
 10
247.478
 20
48.1209
 11
247.45
 21
49
  0
LINE
  8
0
 10
247.45
 20
49
 11
247.478
 21
49.8791
  0
LINE
  8
0
 10
247.478
 20
49.8791
 11
247.56
 21
50.7547
  0
LINE
  8
0
 10
247.56
 20
50.7547
 11
247.698
 21
51.6233
  0
LINE
  8
0
 10
247.698
 20
51.6233
 11
247.89
 21
52.4817
  0
LINE
  8
0
 10
247.89
 20
52.4817
 11
248.135
 21
53.3262
  0
LINE
  8
0
 10
248.135
 20
53.3262
 11
248.433
 21
54.1537
  0
LINE
  8
0
 10
248.433
 20
54.1537
 11
248.782
 21
54.9609
  0
LINE
  8
0
 10
248.782
 20
54.9609
 11
249.182
 21
55.7446
  0
LINE
  8
0
 10
249.182
 20
55.7446
 11
249.629
 21
56.5016
  0
LINE
  8
0
 10
249.629
 20
56.5016
 11
250.124
 21
57.229
  0
LINE
  8
0
 10
250.124
 20
57.229
 11
250.663
 21
57.9239
  0
LINE
  8
0
 10
250.663
 20
57.9239
 11
251.244
 21
58.5836
  0
LINE
  8
0
 10
251.244
 20
58.5836
 11
251.866
 21
59.2056
  0
LINE
  8
0
 10
251.866
 20
59.2056
 11
252.526
 21
59.7872
  0
LINE
  8
0
 10
252.526
 20
59.7872
 11
253.221
 21
60.3262
  0
LINE
  8
0
 10
253.221
 20
60.3262
 11
253.948
 21
60.8206
  0
LINE
  8
0
 10
253.948
 20
60.8206
 11
254.705
 21
61.2683
  0
LINE
  8
0
 10
254.705
 20
61.2683
 11
255.489
 21
61.6676
  0
LINE
  8
0
 10
255.489
 20
61.6676
 11
256.296
 21
62.0169
  0
LINE
  8
0
 10
256.296
 20
62.0169
 11
257.124
 21
62.3148
  0
LINE
  8
0
 10
30.7709
 20
35.0276
 11
29.8953
 21
35.1104
  0
LINE
  8
0
 10
29.8953
 20
35.1104
 11
29.0267
 21
35.248
  0
LINE
  8
0
 10
29.0267
 20
35.248
 11
28.1683
 21
35.4398
  0
LINE
  8
0
 10
28.1683
 20
35.4398
 11
27.3238
 21
35.6852
  0
LINE
  8
0
 10
27.3238
 20
35.6852
 11
26.4962
 21
35.9831
  0
LINE
  8
0
 10
26.4962
 20
35.9831
 11
25.6891
 21
36.3324
  0
LINE
  8
0
 10
25.6891
 20
36.3324
 11
24.9054
 21
36.7317
  0
LINE
  8
0
 10
24.9054
 20
36.7317
 11
24.1484
 21
37.1794
  0
LINE
  8
0
 10
24.1484
 20
37.1794
 11
23.421
 21
37.6738
  0
LINE
  8
0
 10
23.421
 20
37.6738
 11
22.7261
 21
38.2128
  0
LINE
  8
0
 10
22.7261
 20
38.2128
 11
22.0663
 21
38.7944
  0
LINE
  8
0
 10
22.0663
 20
38.7944
 11
21.4444
 21
39.4163
  0
LINE
  8
0
 10
21.4444
 20
39.4163
 11
20.8628
 21
40.0761
  0
LINE
  8
0
 10
20.8628
 20
40.0761
 11
20.3238
 21
40.771
  0
LINE
  8
0
 10
20.3238
 20
40.771
 11
19.8294
 21
41.4984
  0
LINE
  8
0
 10
19.8294
 20
41.4984
 11
19.3817
 21
42.2554
  0
LINE
  8
0
 10
19.3817
 20
42.2554
 11
18.9824
 21
43.0391
  0
LINE
  8
0
 10
18.9824
 20
43.0391
 11
18.6331
 21
43.8463
  0
LINE
  8
0
 10
18.6331
 20
43.8463
 11
18.3352
 21
44.6738
  0
LINE
  8
0
 10
18.3352
 20
44.6738
 11
18.0898
 21
45.5183
  0
LINE
  8
0
 10
18.0898
 20
45.5183
 11
17.898
 21
46.3767
  0
LINE
  8
0
 10
17.898
 20
46.3767
 11
17.7604
 21
47.2453
  0
LINE
  8
0
 10
17.7604
 20
47.2453
 11
17.6776
 21
48.1209
  0
LINE
  8
0
 10
17.6776
 20
48.1209
 11
17.65
 21
49
  0
LINE
  8
0
 10
17.65
 20
49
 11
17.6776
 21
49.8791
  0
LINE
  8
0
 10
17.6776
 20
49.8791
 11
17.7604
 21
50.7547
  0
LINE
  8
0
 10
17.7604
 20
50.7547
 11
17.898
 21
51.6233
  0
LINE
  8
0
 10
17.898
 20
51.6233
 11
18.0898
 21
52.4817
  0
LINE
  8
0
 10
18.0898
 20
52.4817
 11
18.3352
 21
53.3262
  0
LINE
  8
0
 10
18.3352
 20
53.3262
 11
18.6331
 21
54.1537
  0
LINE
  8
0
 10
18.6331
 20
54.1537
 11
18.9824
 21
54.9609
  0
LINE
  8
0
 10
18.9824
 20
54.9609
 11
19.3817
 21
55.7446
  0
LINE
  8
0
 10
19.3817
 20
55.7446
 11
19.8294
 21
56.5016
  0
LINE
  8
0
 10
19.8294
 20
56.5016
 11
20.3238
 21
57.229
  0
LINE
  8
0
 10
20.3238
 20
57.229
 11
20.8628
 21
57.9239
  0
LINE
  8
0
 10
20.8628
 20
57.9239
 11
21.4444
 21
58.5836
  0
LINE
  8
0
 10
21.4444
 20
58.5836
 11
22.0663
 21
59.2056
  0
LINE
  8
0
 10
22.0663
 20
59.2056
 11
22.7261
 21
59.7872
  0
LINE
  8
0
 10
22.7261
 20
59.7872
 11
23.421
 21
60.3262
  0
LINE
  8
0
 10
23.421
 20
60.3262
 11
24.1484
 21
60.8206
  0
LINE
  8
0
 10
24.1484
 20
60.8206
 11
24.9054
 21
61.2683
  0
LINE
  8
0
 10
24.9054
 20
61.2683
 11
25.6891
 21
61.6676
  0
LINE
  8
0
 10
25.6891
 20
61.6676
 11
26.4962
 21
62.0169
  0
LINE
  8
0
 10
26.4962
 20
62.0169
 11
27.3238
 21
62.3148
  0
LINE
  8
0
 10
27.3238
 20
62.3148
 11
28.1683
 21
62.5602
  0
LINE
  8
0
 10
28.1683
 20
62.5602
 11
29.0267
 21
62.752
  0
LINE
  8
0
 10
29.0267
 20
62.752
 11
29.8953
 21
62.8896
  0
LINE
  8
0
 10
29.8953
 20
62.8896
 11
30.7709
 21
62.9724
  0
LINE
  8
0
 10
30.7709
 20
62.9724
 11
31.65
 21
63
  0
LINE
  8
0
 10
31.65
 20
63
 11
32.5291
 21
62.9724
  0
LINE
  8
0
 10
32.5291
 20
62.9724
 11
33.4047
 21
62.8896
  0
LINE
  8
0
 10
33.4047
 20
62.8896
 11
34.2733
 21
62.752
  0
LINE
  8
0
 10
34.2733
 20
62.752
 11
35.1317
 21
62.5602
  0
LINE
  8
0
 10
35.1317
 20
62.5602
 11
35.9762
 21
62.3148
  0
LINE
  8
0
 10
35.9762
 20
62.3148
 11
36.8037
 21
62.0169
  0
LINE
  8
0
 10
36.8037
 20
62.0169
 11
37.6109
 21
61.6676
  0
LINE
  8
0
 10
37.6109
 20
61.6676
 11
38.3945
 21
61.2683
  0
LINE
  8
0
 10
38.3945
 20
61.2683
 11
39.1516
 21
60.8206
  0
LINE
  8
0
 10
39.1516
 20
60.8206
 11
39.879
 21
60.3262
  0
LINE
  8
0
 10
39.879
 20
60.3262
 11
40.5739
 21
59.7872
  0
LINE
  8
0
 10
40.5739
 20
59.7872
 11
41.2337
 21
59.2056
  0
LINE
  8
0
 10
41.2337
 20
59.2056
 11
41.8556
 21
58.5836
  0
LINE
  8
0
 10
41.8556
 20
58.5836
 11
42.4372
 21
57.9239
  0
LINE
  8
0
 10
42.4372
 20
57.9239
 11
42.9762
 21
57.229
  0
LINE
  8
0
 10
42.9762
 20
57.229
 11
43.4706
 21
56.5016
  0
LINE
  8
0
 10
43.4706
 20
56.5016
 11
43.9183
 21
55.7446
  0
LINE
  8
0
 10
43.9183
 20
55.7446
 11
44.3176
 21
54.9609
  0
LINE
  8
0
 10
44.3176
 20
54.9609
 11
44.6669
 21
54.1537
  0
LINE
  8
0
 10
44.6669
 20
54.1537
 11
44.9648
 21
53.3262
  0
LINE
  8
0
 10
44.9648
 20
53.3262
 11
45.2102
 21
52.4817
  0
LINE
  8
0
 10
45.2102
 20
52.4817
 11
45.402
 21
51.6233
  0
LINE
  8
0
 10
45.402
 20
51.6233
 11
45.5396
 21
50.7547
  0
LINE
  8
0
 10
45.5396
 20
50.7547
 11
45.6224
 21
49.8791
  0
LINE
  8
0
 10
45.6224
 20
49.8791
 11
45.65
 21
49
  0
LINE
  8
0
 10
45.65
 20
49
 11
45.6224
 21
48.1209
  0
LINE
  8
0
 10
45.6224
 20
48.1209
 11
45.5396
 21
47.2453
  0
LINE
  8
0
 10
45.5396
 20
47.2453
 11
45.402
 21
46.3767
  0
LINE
  8
0
 10
45.402
 20
46.3767
 11
45.2102
 21
45.5183
  0
LINE
  8
0
 10
45.2102
 20
45.5183
 11
44.9648
 21
44.6738
  0
LINE
  8
0
 10
44.9648
 20
44.6738
 11
44.6669
 21
43.8463
  0
LINE
  8
0
 10
44.6669
 20
43.8463
 11
44.3176
 21
43.0391
  0
LINE
  8
0
 10
44.3176
 20
43.0391
 11
43.9183
 21
42.2554
  0
LINE
  8
0
 10
43.9183
 20
42.2554
 11
43.4706
 21
41.4984
  0
LINE
  8
0
 10
43.4706
 20
41.4984
 11
42.9762
 21
40.771
  0
LINE
  8
0
 10
42.9762
 20
40.771
 11
42.4372
 21
40.0761
  0
LINE
  8
0
 10
42.4372
 20
40.0761
 11
41.8556
 21
39.4163
  0
LINE
  8
0
 10
41.8556
 20
39.4163
 11
41.2337
 21
38.7944
  0
LINE
  8
0
 10
41.2337
 20
38.7944
 11
40.5739
 21
38.2128
  0
LINE
  8
0
 10
40.5739
 20
38.2128
 11
39.879
 21
37.6738
  0
LINE
  8
0
 10
39.879
 20
37.6738
 11
39.1516
 21
37.1794
  0
LINE
  8
0
 10
39.1516
 20
37.1794
 11
38.3945
 21
36.7317
  0
LINE
  8
0
 10
38.3945
 20
36.7317
 11
37.6109
 21
36.3324
  0
LINE
  8
0
 10
37.6109
 20
36.3324
 11
36.8037
 21
35.9831
  0
LINE
  8
0
 10
36.8037
 20
35.9831
 11
35.9762
 21
35.6852
  0
LINE
  8
0
 10
35.9762
 20
35.6852
 11
35.1317
 21
35.4398
  0
LINE
  8
0
 10
35.1317
 20
35.4398
 11
34.2733
 21
35.248
  0
LINE
  8
0
 10
34.2733
 20
35.248
 11
33.4047
 21
35.1104
  0
LINE
  8
0
 10
33.4047
 20
35.1104
 11
32.5291
 21
35.0276
  0
LINE
  8
0
 10
32.5291
 20
35.0276
 11
31.65
 21
35
  0
LINE
  8
0
 10
31.65
 20
35
 11
30.7709
 21
35.0276
  0
LINE
  8
0
 10
69.0709
 20
35.0276
 11
68.1953
 21
35.1104
  0
LINE
  8
0
 10
68.1953
 20
35.1104
 11
67.3267
 21
35.248
  0
LINE
  8
0
 10
67.3267
 20
35.248
 11
66.4683
 21
35.4398
  0
LINE
  8
0
 10
66.4683
 20
35.4398
 11
65.6238
 21
35.6852
  0
LINE
  8
0
 10
65.6238
 20
35.6852
 11
64.7962
 21
35.9831
  0
LINE
  8
0
 10
64.7962
 20
35.9831
 11
63.9891
 21
36.3324
  0
LINE
  8
0
 10
63.9891
 20
36.3324
 11
63.2054
 21
36.7317
  0
LINE
  8
0
 10
63.2054
 20
36.7317
 11
62.4484
 21
37.1794
  0
LINE
  8
0
 10
62.4484
 20
37.1794
 11
61.721
 21
37.6738
  0
LINE
  8
0
 10
61.721
 20
37.6738
 11
61.0261
 21
38.2128
  0
LINE
  8
0
 10
61.0261
 20
38.2128
 11
60.3663
 21
38.7944
  0
LINE
  8
0
 10
60.3663
 20
38.7944
 11
59.7444
 21
39.4163
  0
LINE
  8
0
 10
59.7444
 20
39.4163
 11
59.1628
 21
40.0761
  0
LINE
  8
0
 10
59.1628
 20
40.0761
 11
58.6237
 21
40.771
  0
LINE
  8
0
 10
58.6237
 20
40.771
 11
58.1294
 21
41.4984
  0
LINE
  8
0
 10
58.1294
 20
41.4984
 11
57.6817
 21
42.2554
  0
LINE
  8
0
 10
57.6817
 20
42.2554
 11
57.2824
 21
43.0391
  0
LINE
  8
0
 10
57.2824
 20
43.0391
 11
56.9331
 21
43.8463
  0
LINE
  8
0
 10
56.9331
 20
43.8463
 11
56.6352
 21
44.6738
  0
LINE
  8
0
 10
56.6352
 20
44.6738
 11
56.3898
 21
45.5183
  0
LINE
  8
0
 10
56.3898
 20
45.5183
 11
56.198
 21
46.3767
  0
LINE
  8
0
 10
56.198
 20
46.3767
 11
56.0604
 21
47.2453
  0
LINE
  8
0
 10
56.0604
 20
47.2453
 11
55.9776
 21
48.1209
  0
LINE
  8
0
 10
55.9776
 20
48.1209
 11
55.95
 21
49
  0
LINE
  8
0
 10
55.95
 20
49
 11
55.9776
 21
49.8791
  0
LINE
  8
0
 10
55.9776
 20
49.8791
 11
56.0604
 21
50.7547
  0
LINE
  8
0
 10
56.0604
 20
50.7547
 11
56.198
 21
51.6233
  0
LINE
  8
0
 10
56.198
 20
51.6233
 11
56.3898
 21
52.4817
  0
LINE
  8
0
 10
56.3898
 20
52.4817
 11
56.6352
 21
53.3262
  0
LINE
  8
0
 10
56.6352
 20
53.3262
 11
56.9331
 21
54.1537
  0
LINE
  8
0
 10
56.9331
 20
54.1537
 11
57.2824
 21
54.9609
  0
LINE
  8
0
 10
57.2824
 20
54.9609
 11
57.6817
 21
55.7446
  0
LINE
  8
0
 10
57.6817
 20
55.7446
 11
58.1294
 21
56.5016
  0
LINE
  8
0
 10
58.1294
 20
56.5016
 11
58.6237
 21
57.229
  0
LINE
  8
0
 10
58.6237
 20
57.229
 11
59.1628
 21
57.9239
  0
LINE
  8
0
 10
59.1628
 20
57.9239
 11
59.7444
 21
58.5836
  0
LINE
  8
0
 10
59.7444
 20
58.5836
 11
60.3663
 21
59.2056
  0
LINE
  8
0
 10
60.3663
 20
59.2056
 11
61.0261
 21
59.7872
  0
LINE
  8
0
 10
61.0261
 20
59.7872
 11
61.721
 21
60.3262
  0
LINE
  8
0
 10
61.721
 20
60.3262
 11
62.4484
 21
60.8206
  0
LINE
  8
0
 10
62.4484
 20
60.8206
 11
63.2054
 21
61.2683
  0
LINE
  8
0
 10
63.2054
 20
61.2683
 11
63.9891
 21
61.6676
  0
LINE
  8
0
 10
63.9891
 20
61.6676
 11
64.7962
 21
62.0169
  0
LINE
  8
0
 10
64.7962
 20
62.0169
 11
65.6238
 21
62.3148
  0
LINE
  8
0
 10
65.6238
 20
62.3148
 11
66.4683
 21
62.5602
  0
LINE
  8
0
 10
66.4683
 20
62.5602
 11
67.3267
 21
62.752
  0
LINE
  8
0
 10
67.3267
 20
62.752
 11
68.1953
 21
62.8896
  0
LINE
  8
0
 10
68.1953
 20
62.8896
 11
69.0709
 21
62.9724
  0
LINE
  8
0
 10
69.0709
 20
62.9724
 11
69.95
 21
63
  0
LINE
  8
0
 10
69.95
 20
63
 11
70.8291
 21
62.9724
  0
LINE
  8
0
 10
70.8291
 20
62.9724
 11
71.7047
 21
62.8896
  0
LINE
  8
0
 10
71.7047
 20
62.8896
 11
72.5733
 21
62.752
  0
LINE
  8
0
 10
72.5733
 20
62.752
 11
73.4317
 21
62.5602
  0
LINE
  8
0
 10
73.4317
 20
62.5602
 11
74.2762
 21
62.3148
  0
LINE
  8
0
 10
74.2762
 20
62.3148
 11
75.1037
 21
62.0169
  0
LINE
  8
0
 10
75.1037
 20
62.0169
 11
75.9109
 21
61.6676
  0
LINE
  8
0
 10
75.9109
 20
61.6676
 11
76.6945
 21
61.2683
  0
LINE
  8
0
 10
76.6945
 20
61.2683
 11
77.4516
 21
60.8206
  0
LINE
  8
0
 10
77.4516
 20
60.8206
 11
78.179
 21
60.3262
  0
LINE
  8
0
 10
78.179
 20
60.3262
 11
78.8739
 21
59.7872
  0
LINE
  8
0
 10
78.8739
 20
59.7872
 11
79.5337
 21
59.2056
  0
LINE
  8
0
 10
79.5337
 20
59.2056
 11
80.1556
 21
58.5836
  0
LINE
  8
0
 10
80.1556
 20
58.5836
 11
80.7372
 21
57.9239
  0
LINE
  8
0
 10
80.7372
 20
57.9239
 11
81.2762
 21
57.229
  0
LINE
  8
0
 10
81.2762
 20
57.229
 11
81.7706
 21
56.5016
  0
LINE
  8
0
 10
81.7706
 20
56.5016
 11
82.2183
 21
55.7446
  0
LINE
  8
0
 10
82.2183
 20
55.7446
 11
82.6176
 21
54.9609
  0
LINE
  8
0
 10
82.6176
 20
54.9609
 11
82.9669
 21
54.1537
  0
LINE
  8
0
 10
82.9669
 20
54.1537
 11
83.2648
 21
53.3262
  0
LINE
  8
0
 10
83.2648
 20
53.3262
 11
83.5102
 21
52.4817
  0
LINE
  8
0
 10
83.5102
 20
52.4817
 11
83.702
 21
51.6233
  0
LINE
  8
0
 10
83.702
 20
51.6233
 11
83.8396
 21
50.7547
  0
LINE
  8
0
 10
83.8396
 20
50.7547
 11
83.9224
 21
49.8791
  0
LINE
  8
0
 10
83.9224
 20
49.8791
 11
83.95
 21
49
  0
LINE
  8
0
 10
83.95
 20
49
 11
83.9224
 21
48.1209
  0
LINE
  8
0
 10
83.9224
 20
48.1209
 11
83.8396
 21
47.2453
  0
LINE
  8
0
 10
83.8396
 20
47.2453
 11
83.702
 21
46.3767
  0
LINE
  8
0
 10
83.702
 20
46.3767
 11
83.5102
 21
45.5183
  0
LINE
  8
0
 10
83.5102
 20
45.5183
 11
83.2648
 21
44.6738
  0
LINE
  8
0
 10
83.2648
 20
44.6738
 11
82.9669
 21
43.8463
  0
LINE
  8
0
 10
82.9669
 20
43.8463
 11
82.6176
 21
43.0391
  0
LINE
  8
0
 10
82.6176
 20
43.0391
 11
82.2183
 21
42.2554
  0
LINE
  8
0
 10
82.2183
 20
42.2554
 11
81.7706
 21
41.4984
  0
LINE
  8
0
 10
81.7706
 20
41.4984
 11
81.2762
 21
40.771
  0
LINE
  8
0
 10
81.2762
 20
40.771
 11
80.7372
 21
40.0761
  0
LINE
  8
0
 10
80.7372
 20
40.0761
 11
80.1556
 21
39.4163
  0
LINE
  8
0
 10
80.1556
 20
39.4163
 11
79.5337
 21
38.7944
  0
LINE
  8
0
 10
79.5337
 20
38.7944
 11
78.8739
 21
38.2128
  0
LINE
  8
0
 10
78.8739
 20
38.2128
 11
78.179
 21
37.6738
  0
LINE
  8
0
 10
78.179
 20
37.6738
 11
77.4516
 21
37.1794
  0
LINE
  8
0
 10
77.4516
 20
37.1794
 11
76.6945
 21
36.7317
  0
LINE
  8
0
 10
76.6945
 20
36.7317
 11
75.9109
 21
36.3324
  0
LINE
  8
0
 10
75.9109
 20
36.3324
 11
75.1037
 21
35.9831
  0
LINE
  8
0
 10
75.1037
 20
35.9831
 11
74.2762
 21
35.6852
  0
LINE
  8
0
 10
74.2762
 20
35.6852
 11
73.4317
 21
35.4398
  0
LINE
  8
0
 10
73.4317
 20
35.4398
 11
72.5733
 21
35.248
  0
LINE
  8
0
 10
72.5733
 20
35.248
 11
71.7047
 21
35.1104
  0
LINE
  8
0
 10
71.7047
 20
35.1104
 11
70.8291
 21
35.0276
  0
LINE
  8
0
 10
70.8291
 20
35.0276
 11
69.95
 21
35
  0
LINE
  8
0
 10
69.95
 20
35
 11
69.0709
 21
35.0276
  0
LINE
  8
0
 10
107.371
 20
35.0276
 11
106.495
 21
35.1104
  0
LINE
  8
0
 10
106.495
 20
35.1104
 11
105.627
 21
35.248
  0
LINE
  8
0
 10
105.627
 20
35.248
 11
104.768
 21
35.4398
  0
LINE
  8
0
 10
104.768
 20
35.4398
 11
103.924
 21
35.6852
  0
LINE
  8
0
 10
103.924
 20
35.6852
 11
103.096
 21
35.9831
  0
LINE
  8
0
 10
103.096
 20
35.9831
 11
102.289
 21
36.3324
  0
LINE
  8
0
 10
102.289
 20
36.3324
 11
101.505
 21
36.7317
  0
LINE
  8
0
 10
101.505
 20
36.7317
 11
100.748
 21
37.1794
  0
LINE
  8
0
 10
100.748
 20
37.1794
 11
100.021
 21
37.6738
  0
LINE
  8
0
 10
100.021
 20
37.6738
 11
99.3261
 21
38.2128
  0
LINE
  8
0
 10
99.3261
 20
38.2128
 11
98.6663
 21
38.7944
  0
LINE
  8
0
 10
98.6663
 20
38.7944
 11
98.0444
 21
39.4163
  0
LINE
  8
0
 10
98.0444
 20
39.4163
 11
97.4628
 21
40.0761
  0
LINE
  8
0
 10
97.4628
 20
40.0761
 11
96.9238
 21
40.771
  0
LINE
  8
0
 10
96.9238
 20
40.771
 11
96.4294
 21
41.4984
  0
LINE
  8
0
 10
96.4294
 20
41.4984
 11
95.9817
 21
42.2554
  0
LINE
  8
0
 10
95.9817
 20
42.2554
 11
95.5824
 21
43.0391
  0
LINE
  8
0
 10
95.5824
 20
43.0391
 11
95.2331
 21
43.8463
  0
LINE
  8
0
 10
95.2331
 20
43.8463
 11
94.9352
 21
44.6738
  0
LINE
  8
0
 10
94.9352
 20
44.6738
 11
94.6898
 21
45.5183
  0
LINE
  8
0
 10
94.6898
 20
45.5183
 11
94.498
 21
46.3767
  0
LINE
  8
0
 10
94.498
 20
46.3767
 11
94.3604
 21
47.2453
  0
LINE
  8
0
 10
94.3604
 20
47.2453
 11
94.2776
 21
48.1209
  0
LINE
  8
0
 10
94.2776
 20
48.1209
 11
94.25
 21
49
  0
LINE
  8
0
 10
94.25
 20
49
 11
94.2776
 21
49.8791
  0
LINE
  8
0
 10
94.2776
 20
49.8791
 11
94.3604
 21
50.7547
  0
LINE
  8
0
 10
94.3604
 20
50.7547
 11
94.498
 21
51.6233
  0
LINE
  8
0
 10
94.498
 20
51.6233
 11
94.6898
 21
52.4817
  0
LINE
  8
0
 10
94.6898
 20
52.4817
 11
94.9352
 21
53.3262
  0
LINE
  8
0
 10
94.9352
 20
53.3262
 11
95.2331
 21
54.1537
  0
LINE
  8
0
 10
95.2331
 20
54.1537
 11
95.5824
 21
54.9609
  0
LINE
  8
0
 10
95.5824
 20
54.9609
 11
95.9817
 21
55.7446
  0
LINE
  8
0
 10
95.9817
 20
55.7446
 11
96.4294
 21
56.5016
  0
LINE
  8
0
 10
96.4294
 20
56.5016
 11
96.9238
 21
57.229
  0
LINE
  8
0
 10
96.9238
 20
57.229
 11
97.4628
 21
57.9239
  0
LINE
  8
0
 10
97.4628
 20
57.9239
 11
98.0444
 21
58.5836
  0
LINE
  8
0
 10
98.0444
 20
58.5836
 11
98.6663
 21
59.2056
  0
LINE
  8
0
 10
98.6663
 20
59.2056
 11
99.3261
 21
59.7872
  0
LINE
  8
0
 10
99.3261
 20
59.7872
 11
100.021
 21
60.3262
  0
LINE
  8
0
 10
100.021
 20
60.3262
 11
100.748
 21
60.8206
  0
LINE
  8
0
 10
100.748
 20
60.8206
 11
101.505
 21
61.2683
  0
LINE
  8
0
 10
101.505
 20
61.2683
 11
102.289
 21
61.6676
  0
LINE
  8
0
 10
102.289
 20
61.6676
 11
103.096
 21
62.0169
  0
LINE
  8
0
 10
103.096
 20
62.0169
 11
103.924
 21
62.3148
  0
LINE
  8
0
 10
103.924
 20
62.3148
 11
104.768
 21
62.5602
  0
LINE
  8
0
 10
104.768
 20
62.5602
 11
105.627
 21
62.752
  0
LINE
  8
0
 10
105.627
 20
62.752
 11
106.495
 21
62.8896
  0
LINE
  8
0
 10
106.495
 20
62.8896
 11
107.371
 21
62.9724
  0
LINE
  8
0
 10
107.371
 20
62.9724
 11
108.25
 21
63
  0
LINE
  8
0
 10
108.25
 20
63
 11
109.129
 21
62.9724
  0
LINE
  8
0
 10
109.129
 20
62.9724
 11
110.005
 21
62.8896
  0
LINE
  8
0
 10
110.005
 20
62.8896
 11
110.873
 21
62.752
  0
LINE
  8
0
 10
110.873
 20
62.752
 11
111.732
 21
62.5602
  0
LINE
  8
0
 10
111.732
 20
62.5602
 11
112.576
 21
62.3148
  0
LINE
  8
0
 10
112.576
 20
62.3148
 11
113.404
 21
62.0169
  0
LINE
  8
0
 10
113.404
 20
62.0169
 11
114.211
 21
61.6676
  0
LINE
  8
0
 10
114.211
 20
61.6676
 11
114.995
 21
61.2683
  0
LINE
  8
0
 10
114.995
 20
61.2683
 11
115.752
 21
60.8206
  0
LINE
  8
0
 10
115.752
 20
60.8206
 11
116.479
 21
60.3262
  0
LINE
  8
0
 10
116.479
 20
60.3262
 11
117.174
 21
59.7872
  0
LINE
  8
0
 10
117.174
 20
59.7872
 11
117.834
 21
59.2056
  0
LINE
  8
0
 10
117.834
 20
59.2056
 11
118.456
 21
58.5836
  0
LINE
  8
0
 10
118.456
 20
58.5836
 11
119.037
 21
57.9239
  0
LINE
  8
0
 10
119.037
 20
57.9239
 11
119.576
 21
57.229
  0
LINE
  8
0
 10
119.576
 20
57.229
 11
120.071
 21
56.5016
  0
LINE
  8
0
 10
120.071
 20
56.5016
 11
120.518
 21
55.7446
  0
LINE
  8
0
 10
120.518
 20
55.7446
 11
120.918
 21
54.9609
  0
LINE
  8
0
 10
120.918
 20
54.9609
 11
121.267
 21
54.1537
  0
LINE
  8
0
 10
121.267
 20
54.1537
 11
121.565
 21
53.3262
  0
LINE
  8
0
 10
121.565
 20
53.3262
 11
121.81
 21
52.4817
  0
LINE
  8
0
 10
121.81
 20
52.4817
 11
122.002
 21
51.6233
  0
LINE
  8
0
 10
122.002
 20
51.6233
 11
122.14
 21
50.7547
  0
LINE
  8
0
 10
122.14
 20
50.7547
 11
122.222
 21
49.8791
  0
LINE
  8
0
 10
122.222
 20
49.8791
 11
122.25
 21
49
  0
LINE
  8
0
 10
122.25
 20
49
 11
122.222
 21
48.1209
  0
LINE
  8
0
 10
122.222
 20
48.1209
 11
122.14
 21
47.2453
  0
LINE
  8
0
 10
122.14
 20
47.2453
 11
122.002
 21
46.3767
  0
LINE
  8
0
 10
122.002
 20
46.3767
 11
121.81
 21
45.5183
  0
LINE
  8
0
 10
121.81
 20
45.5183
 11
121.565
 21
44.6738
  0
LINE
  8
0
 10
121.565
 20
44.6738
 11
121.267
 21
43.8463
  0
LINE
  8
0
 10
121.267
 20
43.8463
 11
120.918
 21
43.0391
  0
LINE
  8
0
 10
120.918
 20
43.0391
 11
120.518
 21
42.2554
  0
LINE
  8
0
 10
120.518
 20
42.2554
 11
120.071
 21
41.4984
  0
LINE
  8
0
 10
120.071
 20
41.4984
 11
119.576
 21
40.771
  0
LINE
  8
0
 10
119.576
 20
40.771
 11
119.037
 21
40.0761
  0
LINE
  8
0
 10
119.037
 20
40.0761
 11
118.456
 21
39.4163
  0
LINE
  8
0
 10
118.456
 20
39.4163
 11
117.834
 21
38.7944
  0
LINE
  8
0
 10
117.834
 20
38.7944
 11
117.174
 21
38.2128
  0
LINE
  8
0
 10
117.174
 20
38.2128
 11
116.479
 21
37.6738
  0
LINE
  8
0
 10
116.479
 20
37.6738
 11
115.752
 21
37.1794
  0
LINE
  8
0
 10
115.752
 20
37.1794
 11
114.995
 21
36.7317
  0
LINE
  8
0
 10
114.995
 20
36.7317
 11
114.211
 21
36.3324
  0
LINE
  8
0
 10
114.211
 20
36.3324
 11
113.404
 21
35.9831
  0
LINE
  8
0
 10
113.404
 20
35.9831
 11
112.576
 21
35.6852
  0
LINE
  8
0
 10
112.576
 20
35.6852
 11
111.732
 21
35.4398
  0
LINE
  8
0
 10
111.732
 20
35.4398
 11
110.873
 21
35.248
  0
LINE
  8
0
 10
110.873
 20
35.248
 11
110.005
 21
35.1104
  0
LINE
  8
0
 10
110.005
 20
35.1104
 11
109.129
 21
35.0276
  0
LINE
  8
0
 10
109.129
 20
35.0276
 11
108.25
 21
35
  0
LINE
  8
0
 10
108.25
 20
35
 11
107.371
 21
35.0276
  0
LINE
  8
0
 10
150.032
 20
62.5602
 11
150.876
 21
62.3148
  0
LINE
  8
0
 10
150.876
 20
62.3148
 11
151.704
 21
62.0169
  0
LINE
  8
0
 10
151.704
 20
62.0169
 11
152.511
 21
61.6676
  0
LINE
  8
0
 10
152.511
 20
61.6676
 11
153.295
 21
61.2683
  0
LINE
  8
0
 10
153.295
 20
61.2683
 11
154.052
 21
60.8206
  0
LINE
  8
0
 10
154.052
 20
60.8206
 11
154.779
 21
60.3262
  0
LINE
  8
0
 10
154.779
 20
60.3262
 11
155.474
 21
59.7872
  0
LINE
  8
0
 10
155.474
 20
59.7872
 11
156.134
 21
59.2056
  0
LINE
  8
0
 10
156.134
 20
59.2056
 11
156.756
 21
58.5836
  0
LINE
  8
0
 10
156.756
 20
58.5836
 11
157.337
 21
57.9239
  0
LINE
  8
0
 10
157.337
 20
57.9239
 11
157.876
 21
57.229
  0
LINE
  8
0
 10
157.876
 20
57.229
 11
158.371
 21
56.5016
  0
LINE
  8
0
 10
158.371
 20
56.5016
 11
158.818
 21
55.7446
  0
LINE
  8
0
 10
158.818
 20
55.7446
 11
159.218
 21
54.9609
  0
LINE
  8
0
 10
159.218
 20
54.9609
 11
159.567
 21
54.1537
  0
LINE
  8
0
 10
159.567
 20
54.1537
 11
159.865
 21
53.3262
  0
LINE
  8
0
 10
159.865
 20
53.3262
 11
160.11
 21
52.4817
  0
LINE
  8
0
 10
160.11
 20
52.4817
 11
160.302
 21
51.6233
  0
LINE
  8
0
 10
160.302
 20
51.6233
 11
160.44
 21
50.7547
  0
LINE
  8
0
 10
160.44
 20
50.7547
 11
160.522
 21
49.8791
  0
LINE
  8
0
 10
160.522
 20
49.8791
 11
160.55
 21
49
  0
LINE
  8
0
 10
160.55
 20
49
 11
160.522
 21
48.1209
  0
LINE
  8
0
 10
160.522
 20
48.1209
 11
160.44
 21
47.2453
  0
LINE
  8
0
 10
160.44
 20
47.2453
 11
160.302
 21
46.3767
  0
LINE
  8
0
 10
160.302
 20
46.3767
 11
160.11
 21
45.5183
  0
LINE
  8
0
 10
160.11
 20
45.5183
 11
159.865
 21
44.6738
  0
LINE
  8
0
 10
159.865
 20
44.6738
 11
159.567
 21
43.8463
  0
LINE
  8
0
 10
159.567
 20
43.8463
 11
159.218
 21
43.0391
  0
LINE
  8
0
 10
159.218
 20
43.0391
 11
158.818
 21
42.2554
  0
LINE
  8
0
 10
158.818
 20
42.2554
 11
158.371
 21
41.4984
  0
LINE
  8
0
 10
158.371
 20
41.4984
 11
157.876
 21
40.771
  0
LINE
  8
0
 10
157.876
 20
40.771
 11
157.337
 21
40.0761
  0
LINE
  8
0
 10
157.337
 20
40.0761
 11
156.756
 21
39.4163
  0
LINE
  8
0
 10
156.756
 20
39.4163
 11
156.134
 21
38.7944
  0
LINE
  8
0
 10
156.134
 20
38.7944
 11
155.474
 21
38.2128
  0
LINE
  8
0
 10
155.474
 20
38.2128
 11
154.779
 21
37.6738
  0
LINE
  8
0
 10
154.779
 20
37.6738
 11
154.052
 21
37.1794
  0
LINE
  8
0
 10
154.052
 20
37.1794
 11
153.295
 21
36.7317
  0
LINE
  8
0
 10
153.295
 20
36.7317
 11
152.511
 21
36.3324
  0
LINE
  8
0
 10
152.511
 20
36.3324
 11
151.704
 21
35.9831
  0
LINE
  8
0
 10
151.704
 20
35.9831
 11
150.876
 21
35.6852
  0
LINE
  8
0
 10
150.876
 20
35.6852
 11
150.032
 21
35.4398
  0
LINE
  8
0
 10
150.032
 20
35.4398
 11
149.173
 21
35.248
  0
LINE
  8
0
 10
149.173
 20
35.248
 11
148.305
 21
35.1104
  0
LINE
  8
0
 10
148.305
 20
35.1104
 11
147.429
 21
35.0276
  0
LINE
  8
0
 10
147.429
 20
35.0276
 11
146.55
 21
35
  0
LINE
  8
0
 10
146.55
 20
35
 11
145.671
 21
35.0276
  0
LINE
  8
0
 10
145.671
 20
35.0276
 11
144.795
 21
35.1104
  0
LINE
  8
0
 10
144.795
 20
35.1104
 11
143.927
 21
35.248
  0
LINE
  8
0
 10
143.927
 20
35.248
 11
143.068
 21
35.4398
  0
LINE
  8
0
 10
143.068
 20
35.4398
 11
142.224
 21
35.6852
  0
LINE
  8
0
 10
142.224
 20
35.6852
 11
141.396
 21
35.9831
  0
LINE
  8
0
 10
141.396
 20
35.9831
 11
140.589
 21
36.3324
  0
LINE
  8
0
 10
140.589
 20
36.3324
 11
139.805
 21
36.7317
  0
LINE
  8
0
 10
139.805
 20
36.7317
 11
139.048
 21
37.1794
  0
LINE
  8
0
 10
139.048
 20
37.1794
 11
138.321
 21
37.6738
  0
LINE
  8
0
 10
138.321
 20
37.6738
 11
137.626
 21
38.2128
  0
LINE
  8
0
 10
137.626
 20
38.2128
 11
136.966
 21
38.7944
  0
LINE
  8
0
 10
136.966
 20
38.7944
 11
136.344
 21
39.4163
  0
LINE
  8
0
 10
136.344
 20
39.4163
 11
135.763
 21
40.0761
  0
LINE
  8
0
 10
135.763
 20
40.0761
 11
135.224
 21
40.771
  0
LINE
  8
0
 10
135.224
 20
40.771
 11
134.729
 21
41.4984
  0
LINE
  8
0
 10
134.729
 20
41.4984
 11
134.282
 21
42.2554
  0
LINE
  8
0
 10
134.282
 20
42.2554
 11
133.882
 21
43.0391
  0
LINE
  8
0
 10
133.882
 20
43.0391
 11
133.533
 21
43.8463
  0
LINE
  8
0
 10
133.533
 20
43.8463
 11
133.235
 21
44.6738
  0
LINE
  8
0
 10
133.235
 20
44.6738
 11
132.99
 21
45.5183
  0
LINE
  8
0
 10
132.99
 20
45.5183
 11
132.798
 21
46.3767
  0
LINE
  8
0
 10
132.798
 20
46.3767
 11
132.66
 21
47.2453
  0
LINE
  8
0
 10
132.66
 20
47.2453
 11
132.578
 21
48.1209
  0
LINE
  8
0
 10
132.578
 20
48.1209
 11
132.55
 21
49
  0
LINE
  8
0
 10
132.55
 20
49
 11
132.578
 21
49.8791
  0
LINE
  8
0
 10
132.578
 20
49.8791
 11
132.66
 21
50.7547
  0
LINE
  8
0
 10
132.66
 20
50.7547
 11
132.798
 21
51.6233
  0
LINE
  8
0
 10
132.798
 20
51.6233
 11
132.99
 21
52.4817
  0
LINE
  8
0
 10
132.99
 20
52.4817
 11
133.235
 21
53.3262
  0
LINE
  8
0
 10
133.235
 20
53.3262
 11
133.533
 21
54.1537
  0
LINE
  8
0
 10
133.533
 20
54.1537
 11
133.882
 21
54.9609
  0
LINE
  8
0
 10
133.882
 20
54.9609
 11
134.282
 21
55.7446
  0
LINE
  8
0
 10
134.282
 20
55.7446
 11
134.729
 21
56.5016
  0
LINE
  8
0
 10
134.729
 20
56.5016
 11
135.224
 21
57.229
  0
LINE
  8
0
 10
135.224
 20
57.229
 11
135.763
 21
57.9239
  0
LINE
  8
0
 10
135.763
 20
57.9239
 11
136.344
 21
58.5836
  0
LINE
  8
0
 10
136.344
 20
58.5836
 11
136.966
 21
59.2056
  0
LINE
  8
0
 10
136.966
 20
59.2056
 11
137.626
 21
59.7872
  0
LINE
  8
0
 10
137.626
 20
59.7872
 11
138.321
 21
60.3262
  0
LINE
  8
0
 10
138.321
 20
60.3262
 11
139.048
 21
60.8206
  0
LINE
  8
0
 10
139.048
 20
60.8206
 11
139.805
 21
61.2683
  0
LINE
  8
0
 10
139.805
 20
61.2683
 11
140.589
 21
61.6676
  0
LINE
  8
0
 10
140.589
 20
61.6676
 11
141.396
 21
62.0169
  0
LINE
  8
0
 10
141.396
 20
62.0169
 11
142.224
 21
62.3148
  0
LINE
  8
0
 10
142.224
 20
62.3148
 11
143.068
 21
62.5602
  0
LINE
  8
0
 10
143.068
 20
62.5602
 11
143.927
 21
62.752
  0
LINE
  8
0
 10
143.927
 20
62.752
 11
144.795
 21
62.8896
  0
LINE
  8
0
 10
144.795
 20
62.8896
 11
145.671
 21
62.9724
  0
LINE
  8
0
 10
145.671
 20
62.9724
 11
146.55
 21
63
  0
LINE
  8
0
 10
146.55
 20
63
 11
147.429
 21
62.9724
  0
LINE
  8
0
 10
147.429
 20
62.9724
 11
148.305
 21
62.8896
  0
LINE
  8
0
 10
148.305
 20
62.8896
 11
149.173
 21
62.752
  0
LINE
  8
0
 10
149.173
 20
62.752
 11
150.032
 21
62.5602
  0
LINE
  8
0
 10
230.652
 20
60.8206
 11
231.379
 21
60.3262
  0
LINE
  8
0
 10
231.379
 20
60.3262
 11
232.074
 21
59.7872
  0
LINE
  8
0
 10
232.074
 20
59.7872
 11
232.734
 21
59.2056
  0
LINE
  8
0
 10
232.734
 20
59.2056
 11
233.356
 21
58.5836
  0
LINE
  8
0
 10
233.356
 20
58.5836
 11
233.937
 21
57.9239
  0
LINE
  8
0
 10
233.937
 20
57.9239
 11
234.476
 21
57.229
  0
LINE
  8
0
 10
234.476
 20
57.229
 11
234.971
 21
56.5016
  0
LINE
  8
0
 10
234.971
 20
56.5016
 11
235.418
 21
55.7446
  0
LINE
  8
0
 10
235.418
 20
55.7446
 11
235.818
 21
54.9609
  0
LINE
  8
0
 10
235.818
 20
54.9609
 11
236.167
 21
54.1537
  0
LINE
  8
0
 10
236.167
 20
54.1537
 11
236.465
 21
53.3262
  0
LINE
  8
0
 10
236.465
 20
53.3262
 11
236.71
 21
52.4817
  0
LINE
  8
0
 10
236.71
 20
52.4817
 11
236.902
 21
51.6233
  0
LINE
  8
0
 10
236.902
 20
51.6233
 11
237.04
 21
50.7547
  0
LINE
  8
0
 10
237.04
 20
50.7547
 11
237.122
 21
49.8791
  0
LINE
  8
0
 10
237.122
 20
49.8791
 11
237.15
 21
49
  0
LINE
  8
0
 10
237.15
 20
49
 11
237.122
 21
48.1209
  0
LINE
  8
0
 10
237.122
 20
48.1209
 11
237.04
 21
47.2453
  0
LINE
  8
0
 10
237.04
 20
47.2453
 11
236.902
 21
46.3767
  0
LINE
  8
0
 10
236.902
 20
46.3767
 11
236.71
 21
45.5183
  0
LINE
  8
0
 10
236.71
 20
45.5183
 11
236.465
 21
44.6738
  0
LINE
  8
0
 10
236.465
 20
44.6738
 11
236.167
 21
43.8463
  0
LINE
  8
0
 10
236.167
 20
43.8463
 11
235.818
 21
43.0391
  0
LINE
  8
0
 10
235.818
 20
43.0391
 11
235.418
 21
42.2554
  0
LINE
  8
0
 10
235.418
 20
42.2554
 11
234.971
 21
41.4984
  0
LINE
  8
0
 10
234.971
 20
41.4984
 11
234.476
 21
40.771
  0
LINE
  8
0
 10
234.476
 20
40.771
 11
233.937
 21
40.0761
  0
LINE
  8
0
 10
233.937
 20
40.0761
 11
233.356
 21
39.4163
  0
LINE
  8
0
 10
233.356
 20
39.4163
 11
232.734
 21
38.7944
  0
LINE
  8
0
 10
232.734
 20
38.7944
 11
232.074
 21
38.2128
  0
LINE
  8
0
 10
232.074
 20
38.2128
 11
231.379
 21
37.6738
  0
LINE
  8
0
 10
231.379
 20
37.6738
 11
230.652
 21
37.1794
  0
LINE
  8
0
 10
230.652
 20
37.1794
 11
229.895
 21
36.7317
  0
LINE
  8
0
 10
229.895
 20
36.7317
 11
229.111
 21
36.3324
  0
LINE
  8
0
 10
229.111
 20
36.3324
 11
228.304
 21
35.9831
  0
LINE
  8
0
 10
228.304
 20
35.9831
 11
227.476
 21
35.6852
  0
LINE
  8
0
 10
227.476
 20
35.6852
 11
226.632
 21
35.4398
  0
LINE
  8
0
 10
226.632
 20
35.4398
 11
225.773
 21
35.248
  0
LINE
  8
0
 10
225.773
 20
35.248
 11
224.905
 21
35.1104
  0
LINE
  8
0
 10
224.905
 20
35.1104
 11
224.029
 21
35.0276
  0
LINE
  8
0
 10
224.029
 20
35.0276
 11
223.15
 21
35
  0
LINE
  8
0
 10
223.15
 20
35
 11
222.271
 21
35.0276
  0
LINE
  8
0
 10
222.271
 20
35.0276
 11
221.395
 21
35.1104
  0
LINE
  8
0
 10
221.395
 20
35.1104
 11
220.527
 21
35.248
  0
LINE
  8
0
 10
220.527
 20
35.248
 11
219.668
 21
35.4398
  0
LINE
  8
0
 10
219.668
 20
35.4398
 11
218.824
 21
35.6852
  0
LINE
  8
0
 10
218.824
 20
35.6852
 11
217.996
 21
35.9831
  0
LINE
  8
0
 10
217.996
 20
35.9831
 11
217.189
 21
36.3324
  0
LINE
  8
0
 10
217.189
 20
36.3324
 11
216.405
 21
36.7317
  0
LINE
  8
0
 10
216.405
 20
36.7317
 11
215.648
 21
37.1794
  0
LINE
  8
0
 10
215.648
 20
37.1794
 11
214.921
 21
37.6738
  0
LINE
  8
0
 10
214.921
 20
37.6738
 11
214.226
 21
38.2128
  0
LINE
  8
0
 10
214.226
 20
38.2128
 11
213.566
 21
38.7944
  0
LINE
  8
0
 10
213.566
 20
38.7944
 11
212.944
 21
39.4163
  0
LINE
  8
0
 10
212.944
 20
39.4163
 11
212.363
 21
40.0761
  0
LINE
  8
0
 10
212.363
 20
40.0761
 11
211.824
 21
40.771
  0
LINE
  8
0
 10
211.824
 20
40.771
 11
211.329
 21
41.4984
  0
LINE
  8
0
 10
211.329
 20
41.4984
 11
210.882
 21
42.2554
  0
LINE
  8
0
 10
210.882
 20
42.2554
 11
210.482
 21
43.0391
  0
LINE
  8
0
 10
210.482
 20
43.0391
 11
210.133
 21
43.8463
  0
LINE
  8
0
 10
210.133
 20
43.8463
 11
209.835
 21
44.6738
  0
LINE
  8
0
 10
209.835
 20
44.6738
 11
209.59
 21
45.5183
  0
LINE
  8
0
 10
209.59
 20
45.5183
 11
209.398
 21
46.3767
  0
LINE
  8
0
 10
209.398
 20
46.3767
 11
209.26
 21
47.2453
  0
LINE
  8
0
 10
209.26
 20
47.2453
 11
209.178
 21
48.1209
  0
LINE
  8
0
 10
209.178
 20
48.1209
 11
209.15
 21
49
  0
LINE
  8
0
 10
209.15
 20
49
 11
209.178
 21
49.8791
  0
LINE
  8
0
 10
209.178
 20
49.8791
 11
209.26
 21
50.7547
  0
LINE
  8
0
 10
209.26
 20
50.7547
 11
209.398
 21
51.6233
  0
LINE
  8
0
 10
209.398
 20
51.6233
 11
209.59
 21
52.4817
  0
LINE
  8
0
 10
209.59
 20
52.4817
 11
209.835
 21
53.3262
  0
LINE
  8
0
 10
209.835
 20
53.3262
 11
210.133
 21
54.1537
  0
LINE
  8
0
 10
210.133
 20
54.1537
 11
210.482
 21
54.9609
  0
LINE
  8
0
 10
210.482
 20
54.9609
 11
210.882
 21
55.7446
  0
LINE
  8
0
 10
210.882
 20
55.7446
 11
211.329
 21
56.5016
  0
LINE
  8
0
 10
211.329
 20
56.5016
 11
211.824
 21
57.229
  0
LINE
  8
0
 10
211.824
 20
57.229
 11
212.363
 21
57.9239
  0
LINE
  8
0
 10
212.363
 20
57.9239
 11
212.944
 21
58.5836
  0
LINE
  8
0
 10
212.944
 20
58.5836
 11
213.566
 21
59.2056
  0
LINE
  8
0
 10
213.566
 20
59.2056
 11
214.226
 21
59.7872
  0
LINE
  8
0
 10
214.226
 20
59.7872
 11
214.921
 21
60.3262
  0
LINE
  8
0
 10
214.921
 20
60.3262
 11
215.648
 21
60.8206
  0
LINE
  8
0
 10
215.648
 20
60.8206
 11
216.405
 21
61.2683
  0
LINE
  8
0
 10
216.405
 20
61.2683
 11
217.189
 21
61.6676
  0
LINE
  8
0
 10
217.189
 20
61.6676
 11
217.996
 21
62.0169
  0
LINE
  8
0
 10
217.996
 20
62.0169
 11
218.824
 21
62.3148
  0
LINE
  8
0
 10
218.824
 20
62.3148
 11
219.668
 21
62.5602
  0
LINE
  8
0
 10
219.668
 20
62.5602
 11
220.527
 21
62.752
  0
LINE
  8
0
 10
220.527
 20
62.752
 11
221.395
 21
62.8896
  0
LINE
  8
0
 10
221.395
 20
62.8896
 11
222.271
 21
62.9724
  0
LINE
  8
0
 10
222.271
 20
62.9724
 11
223.15
 21
63
  0
LINE
  8
0
 10
223.15
 20
63
 11
224.029
 21
62.9724
  0
LINE
  8
0
 10
224.029
 20
62.9724
 11
224.905
 21
62.8896
  0
LINE
  8
0
 10
224.905
 20
62.8896
 11
225.773
 21
62.752
  0
LINE
  8
0
 10
225.773
 20
62.752
 11
226.632
 21
62.5602
  0
LINE
  8
0
 10
226.632
 20
62.5602
 11
227.476
 21
62.3148
  0
LINE
  8
0
 10
227.476
 20
62.3148
 11
228.304
 21
62.0169
  0
LINE
  8
0
 10
228.304
 20
62.0169
 11
229.111
 21
61.6676
  0
LINE
  8
0
 10
229.111
 20
61.6676
 11
229.895
 21
61.2683
  0
LINE
  8
0
 10
229.895
 20
61.2683
 11
230.652
 21
60.8206
  0
ENDSEC
  0
SECTION
  2
OBJECTS
  0
DICTIONARY
  0
ENDSEC
  0
EOF
