  0
SECTION
  2
BLOCKS
  0
ENDSEC
  0
SECTION
  2
ENTITIES
  0
LINE
  8
0
 10
293.1
 20
188
 11
0
 21
188
  0
LINE
  8
0
 10
0
 20
188
 11
0
 21
0
  0
LINE
  8
0
 10
0
 20
0
 11
293.1
 21
0
  0
LINE
  8
0
 10
293.1
 20
0
 11
293.1
 21
188
  0
LINE
  8
0
 10
267.9
 20
92.2032
 11
267.799
 21
92.2126
  0
LINE
  8
0
 10
267.799
 20
92.2126
 11
267.7
 21
92.2283
  0
LINE
  8
0
 10
267.7
 20
92.2283
 11
267.602
 21
92.2503
  0
LINE
  8
0
 10
267.602
 20
92.2503
 11
267.506
 21
92.2783
  0
LINE
  8
0
 10
267.506
 20
92.2783
 11
267.411
 21
92.3123
  0
LINE
  8
0
 10
267.411
 20
92.3123
 11
267.319
 21
92.3523
  0
LINE
  8
0
 10
267.319
 20
92.3523
 11
267.229
 21
92.3979
  0
LINE
  8
0
 10
267.229
 20
92.3979
 11
267.143
 21
92.4491
  0
LINE
  8
0
 10
267.143
 20
92.4491
 11
267.06
 21
92.5056
  0
LINE
  8
0
 10
267.06
 20
92.5056
 11
266.98
 21
92.5672
  0
LINE
  8
0
 10
266.98
 20
92.5672
 11
266.905
 21
92.6337
  0
LINE
  8
0
 10
266.905
 20
92.6337
 11
266.834
 21
92.7047
  0
LINE
  8
0
 10
266.834
 20
92.7047
 11
266.767
 21
92.7801
  0
LINE
  8
0
 10
266.767
 20
92.7801
 11
266.706
 21
92.8595
  0
LINE
  8
0
 10
266.706
 20
92.8595
 11
266.649
 21
92.9427
  0
LINE
  8
0
 10
266.649
 20
92.9427
 11
266.598
 21
93.0292
  0
LINE
  8
0
 10
266.598
 20
93.0292
 11
266.552
 21
93.1187
  0
LINE
  8
0
 10
266.552
 20
93.1187
 11
266.512
 21
93.211
  0
LINE
  8
0
 10
266.512
 20
93.211
 11
266.478
 21
93.3056
  0
LINE
  8
0
 10
266.478
 20
93.3056
 11
266.45
 21
93.4021
  0
LINE
  8
0
 10
266.45
 20
93.4021
 11
266.428
 21
93.5002
  0
LINE
  8
0
 10
266.428
 20
93.5002
 11
266.413
 21
93.5995
  0
LINE
  8
0
 10
266.413
 20
93.5995
 11
266.403
 21
93.6995
  0
LINE
  8
0
 10
266.403
 20
93.6995
 11
266.4
 21
93.8
  0
LINE
  8
0
 10
266.4
 20
93.8
 11
266.403
 21
93.9005
  0
LINE
  8
0
 10
266.403
 20
93.9005
 11
266.413
 21
94.0005
  0
LINE
  8
0
 10
266.413
 20
94.0005
 11
266.428
 21
94.0998
  0
LINE
  8
0
 10
266.428
 20
94.0998
 11
266.45
 21
94.1979
  0
LINE
  8
0
 10
266.45
 20
94.1979
 11
266.478
 21
94.2944
  0
LINE
  8
0
 10
266.478
 20
94.2944
 11
266.512
 21
94.389
  0
LINE
  8
0
 10
266.512
 20
94.389
 11
266.552
 21
94.4812
  0
LINE
  8
0
 10
266.552
 20
94.4812
 11
266.598
 21
94.5708
  0
LINE
  8
0
 10
266.598
 20
94.5708
 11
266.649
 21
94.6573
  0
LINE
  8
0
 10
266.649
 20
94.6573
 11
266.706
 21
94.7404
  0
LINE
  8
0
 10
266.706
 20
94.7404
 11
266.767
 21
94.8199
  0
LINE
  8
0
 10
266.767
 20
94.8199
 11
266.834
 21
94.8953
  0
LINE
  8
0
 10
266.834
 20
94.8953
 11
266.905
 21
94.9663
  0
LINE
  8
0
 10
266.905
 20
94.9663
 11
266.98
 21
95.0328
  0
LINE
  8
0
 10
266.98
 20
95.0328
 11
267.06
 21
95.0944
  0
LINE
  8
0
 10
267.06
 20
95.0944
 11
267.143
 21
95.1509
  0
LINE
  8
0
 10
267.143
 20
95.1509
 11
267.229
 21
95.2021
  0
LINE
  8
0
 10
267.229
 20
95.2021
 11
267.319
 21
95.2477
  0
LINE
  8
0
 10
267.319
 20
95.2477
 11
267.411
 21
95.2876
  0
LINE
  8
0
 10
267.411
 20
95.2876
 11
267.506
 21
95.3217
  0
LINE
  8
0
 10
267.506
 20
95.3217
 11
267.602
 21
95.3497
  0
LINE
  8
0
 10
267.602
 20
95.3497
 11
267.7
 21
95.3717
  0
LINE
  8
0
 10
267.7
 20
95.3717
 11
267.799
 21
95.3874
  0
LINE
  8
0
 10
267.799
 20
95.3874
 11
267.9
 21
95.3968
  0
LINE
  8
0
 10
267.9
 20
95.3968
 11
268
 21
95.4
  0
LINE
  8
0
 10
268
 20
95.4
 11
268.1
 21
95.3968
  0
LINE
  8
0
 10
268.1
 20
95.3968
 11
268.201
 21
95.3874
  0
LINE
  8
0
 10
268.201
 20
95.3874
 11
268.3
 21
95.3717
  0
LINE
  8
0
 10
268.3
 20
95.3717
 11
268.398
 21
95.3497
  0
LINE
  8
0
 10
268.398
 20
95.3497
 11
268.494
 21
95.3217
  0
LINE
  8
0
 10
268.494
 20
95.3217
 11
268.589
 21
95.2876
  0
LINE
  8
0
 10
268.589
 20
95.2876
 11
268.681
 21
95.2477
  0
LINE
  8
0
 10
268.681
 20
95.2477
 11
268.771
 21
95.2021
  0
LINE
  8
0
 10
268.771
 20
95.2021
 11
268.857
 21
95.1509
  0
LINE
  8
0
 10
268.857
 20
95.1509
 11
268.94
 21
95.0944
  0
LINE
  8
0
 10
268.94
 20
95.0944
 11
269.02
 21
95.0328
  0
LINE
  8
0
 10
269.02
 20
95.0328
 11
269.095
 21
94.9663
  0
LINE
  8
0
 10
269.095
 20
94.9663
 11
269.166
 21
94.8953
  0
LINE
  8
0
 10
269.166
 20
94.8953
 11
269.233
 21
94.8199
  0
LINE
  8
0
 10
269.233
 20
94.8199
 11
269.294
 21
94.7404
  0
LINE
  8
0
 10
269.294
 20
94.7404
 11
269.351
 21
94.6573
  0
LINE
  8
0
 10
269.351
 20
94.6573
 11
269.402
 21
94.5708
  0
LINE
  8
0
 10
269.402
 20
94.5708
 11
269.448
 21
94.4812
  0
LINE
  8
0
 10
269.448
 20
94.4812
 11
269.488
 21
94.389
  0
LINE
  8
0
 10
269.488
 20
94.389
 11
269.522
 21
94.2944
  0
LINE
  8
0
 10
269.522
 20
94.2944
 11
269.55
 21
94.1979
  0
LINE
  8
0
 10
269.55
 20
94.1979
 11
269.572
 21
94.0998
  0
LINE
  8
0
 10
269.572
 20
94.0998
 11
269.587
 21
94.0005
  0
LINE
  8
0
 10
269.587
 20
94.0005
 11
269.597
 21
93.9005
  0
LINE
  8
0
 10
269.597
 20
93.9005
 11
269.6
 21
93.8
  0
LINE
  8
0
 10
269.6
 20
93.8
 11
269.597
 21
93.6995
  0
LINE
  8
0
 10
269.597
 20
93.6995
 11
269.587
 21
93.5995
  0
LINE
  8
0
 10
269.587
 20
93.5995
 11
269.572
 21
93.5002
  0
LINE
  8
0
 10
269.572
 20
93.5002
 11
269.55
 21
93.4021
  0
LINE
  8
0
 10
269.55
 20
93.4021
 11
269.522
 21
93.3056
  0
LINE
  8
0
 10
269.522
 20
93.3056
 11
269.488
 21
93.211
  0
LINE
  8
0
 10
269.488
 20
93.211
 11
269.448
 21
93.1187
  0
LINE
  8
0
 10
269.448
 20
93.1187
 11
269.402
 21
93.0292
  0
LINE
  8
0
 10
269.402
 20
93.0292
 11
269.351
 21
92.9427
  0
LINE
  8
0
 10
269.351
 20
92.9427
 11
269.294
 21
92.8595
  0
LINE
  8
0
 10
269.294
 20
92.8595
 11
269.233
 21
92.7801
  0
LINE
  8
0
 10
269.233
 20
92.7801
 11
269.166
 21
92.7047
  0
LINE
  8
0
 10
269.166
 20
92.7047
 11
269.095
 21
92.6337
  0
LINE
  8
0
 10
269.095
 20
92.6337
 11
269.02
 21
92.5672
  0
LINE
  8
0
 10
269.02
 20
92.5672
 11
268.94
 21
92.5056
  0
LINE
  8
0
 10
268.94
 20
92.5056
 11
268.857
 21
92.4491
  0
LINE
  8
0
 10
268.857
 20
92.4491
 11
268.771
 21
92.3979
  0
LINE
  8
0
 10
268.771
 20
92.3979
 11
268.681
 21
92.3523
  0
LINE
  8
0
 10
268.681
 20
92.3523
 11
268.589
 21
92.3123
  0
LINE
  8
0
 10
268.589
 20
92.3123
 11
268.494
 21
92.2783
  0
LINE
  8
0
 10
268.494
 20
92.2783
 11
268.398
 21
92.2503
  0
LINE
  8
0
 10
268.398
 20
92.2503
 11
268.3
 21
92.2283
  0
LINE
  8
0
 10
268.3
 20
92.2283
 11
268.201
 21
92.2126
  0
LINE
  8
0
 10
268.201
 20
92.2126
 11
268.1
 21
92.2032
  0
LINE
  8
0
 10
268.1
 20
92.2032
 11
268
 21
92.2
  0
LINE
  8
0
 10
268
 20
92.2
 11
267.9
 21
92.2032
  0
ENDSEC
  0
SECTION
  2
OBJECTS
  0
DICTIONARY
  0
ENDSEC
  0
EOF
