  0
SECTION
  2
BLOCKS
  0
ENDSEC
  0
SECTION
  2
ENTITIES
  0
LINE
  8
0
 10
293.1
 20
254.8
 11
0
 21
254.8
  0
LINE
  8
0
 10
0
 20
254.8
 11
0
 21
0
  0
LINE
  8
0
 10
0
 20
0
 11
293.1
 21
0
  0
LINE
  8
0
 10
293.1
 20
0
 11
293.1
 21
254.8
  0
LINE
  8
0
 10
68.9045
 20
168.233
 11
67.8632
 21
168.331
  0
LINE
  8
0
 10
67.8632
 20
168.331
 11
66.8301
 21
168.495
  0
LINE
  8
0
 10
66.8301
 20
168.495
 11
65.8093
 21
168.723
  0
LINE
  8
0
 10
65.8093
 20
168.723
 11
64.8049
 21
169.015
  0
LINE
  8
0
 10
64.8049
 20
169.015
 11
63.8207
 21
169.369
  0
LINE
  8
0
 10
63.8207
 20
169.369
 11
62.8608
 21
169.785
  0
LINE
  8
0
 10
62.8608
 20
169.785
 11
61.9288
 21
170.259
  0
LINE
  8
0
 10
61.9288
 20
170.259
 11
61.0285
 21
170.792
  0
LINE
  8
0
 10
61.0285
 20
170.792
 11
60.1634
 21
171.38
  0
LINE
  8
0
 10
60.1634
 20
171.38
 11
59.3369
 21
172.021
  0
LINE
  8
0
 10
59.3369
 20
172.021
 11
58.5523
 21
172.713
  0
LINE
  8
0
 10
58.5523
 20
172.713
 11
57.8127
 21
173.452
  0
LINE
  8
0
 10
57.8127
 20
173.452
 11
57.1209
 21
174.237
  0
LINE
  8
0
 10
57.1209
 20
174.237
 11
56.4799
 21
175.063
  0
LINE
  8
0
 10
56.4799
 20
175.063
 11
55.8919
 21
175.928
  0
LINE
  8
0
 10
55.8919
 20
175.928
 11
55.3595
 21
176.829
  0
LINE
  8
0
 10
55.3595
 20
176.829
 11
54.8846
 21
177.761
  0
LINE
  8
0
 10
54.8846
 20
177.761
 11
54.4692
 21
178.721
  0
LINE
  8
0
 10
54.4692
 20
178.721
 11
54.1149
 21
179.705
  0
LINE
  8
0
 10
54.1149
 20
179.705
 11
53.8231
 21
180.709
  0
LINE
  8
0
 10
53.8231
 20
180.709
 11
53.5949
 21
181.73
  0
LINE
  8
0
 10
53.5949
 20
181.73
 11
53.4313
 21
182.763
  0
LINE
  8
0
 10
53.4313
 20
182.763
 11
53.3329
 21
183.805
  0
LINE
  8
0
 10
53.3329
 20
183.805
 11
53.3
 21
184.85
  0
LINE
  8
0
 10
53.3
 20
184.85
 11
53.3
 21
223.15
  0
LINE
  8
0
 10
53.3
 20
223.15
 11
53.3329
 21
224.195
  0
LINE
  8
0
 10
53.3329
 20
224.195
 11
53.4313
 21
225.237
  0
LINE
  8
0
 10
53.4313
 20
225.237
 11
53.5949
 21
226.27
  0
LINE
  8
0
 10
53.5949
 20
226.27
 11
53.8231
 21
227.291
  0
LINE
  8
0
 10
53.8231
 20
227.291
 11
54.1149
 21
228.295
  0
LINE
  8
0
 10
54.1149
 20
228.295
 11
54.4692
 21
229.279
  0
LINE
  8
0
 10
54.4692
 20
229.279
 11
54.8846
 21
230.239
  0
LINE
  8
0
 10
54.8846
 20
230.239
 11
55.3595
 21
231.171
  0
LINE
  8
0
 10
55.3595
 20
231.171
 11
55.8919
 21
232.072
  0
LINE
  8
0
 10
55.8919
 20
232.072
 11
56.4799
 21
232.937
  0
LINE
  8
0
 10
56.4799
 20
232.937
 11
57.1209
 21
233.763
  0
LINE
  8
0
 10
57.1209
 20
233.763
 11
57.8127
 21
234.548
  0
LINE
  8
0
 10
57.8127
 20
234.548
 11
58.5523
 21
235.287
  0
LINE
  8
0
 10
58.5523
 20
235.287
 11
59.3369
 21
235.979
  0
LINE
  8
0
 10
59.3369
 20
235.979
 11
60.1634
 21
236.62
  0
LINE
  8
0
 10
60.1634
 20
236.62
 11
61.0285
 21
237.208
  0
LINE
  8
0
 10
61.0285
 20
237.208
 11
61.9288
 21
237.741
  0
LINE
  8
0
 10
61.9288
 20
237.741
 11
62.8608
 21
238.215
  0
LINE
  8
0
 10
62.8608
 20
238.215
 11
63.8207
 21
238.631
  0
LINE
  8
0
 10
63.8207
 20
238.631
 11
64.8049
 21
238.985
  0
LINE
  8
0
 10
64.8049
 20
238.985
 11
65.8093
 21
239.277
  0
LINE
  8
0
 10
65.8093
 20
239.277
 11
66.8301
 21
239.505
  0
LINE
  8
0
 10
66.8301
 20
239.505
 11
67.8632
 21
239.669
  0
LINE
  8
0
 10
67.8632
 20
239.669
 11
68.9045
 21
239.767
  0
LINE
  8
0
 10
68.9045
 20
239.767
 11
69.95
 21
239.8
  0
LINE
  8
0
 10
69.95
 20
239.8
 11
70.9955
 21
239.767
  0
LINE
  8
0
 10
70.9955
 20
239.767
 11
72.0368
 21
239.669
  0
LINE
  8
0
 10
72.0368
 20
239.669
 11
73.0699
 21
239.505
  0
LINE
  8
0
 10
73.0699
 20
239.505
 11
74.0907
 21
239.277
  0
LINE
  8
0
 10
74.0907
 20
239.277
 11
75.0951
 21
238.985
  0
LINE
  8
0
 10
75.0951
 20
238.985
 11
76.0793
 21
238.631
  0
LINE
  8
0
 10
76.0793
 20
238.631
 11
77.0392
 21
238.215
  0
LINE
  8
0
 10
77.0392
 20
238.215
 11
77.9712
 21
237.741
  0
LINE
  8
0
 10
77.9712
 20
237.741
 11
78.8715
 21
237.208
  0
LINE
  8
0
 10
78.8715
 20
237.208
 11
79.7366
 21
236.62
  0
LINE
  8
0
 10
79.7366
 20
236.62
 11
80.5631
 21
235.979
  0
LINE
  8
0
 10
80.5631
 20
235.979
 11
81.3477
 21
235.287
  0
LINE
  8
0
 10
81.3477
 20
235.287
 11
82.0873
 21
234.548
  0
LINE
  8
0
 10
82.0873
 20
234.548
 11
82.779
 21
233.763
  0
LINE
  8
0
 10
82.779
 20
233.763
 11
83.4201
 21
232.937
  0
LINE
  8
0
 10
83.4201
 20
232.937
 11
84.0081
 21
232.072
  0
LINE
  8
0
 10
84.0081
 20
232.072
 11
84.5405
 21
231.171
  0
LINE
  8
0
 10
84.5405
 20
231.171
 11
85.0154
 21
230.239
  0
LINE
  8
0
 10
85.0154
 20
230.239
 11
85.4308
 21
229.279
  0
LINE
  8
0
 10
85.4308
 20
229.279
 11
85.7851
 21
228.295
  0
LINE
  8
0
 10
85.7851
 20
228.295
 11
86.0769
 21
227.291
  0
LINE
  8
0
 10
86.0769
 20
227.291
 11
86.3051
 21
226.27
  0
LINE
  8
0
 10
86.3051
 20
226.27
 11
86.4687
 21
225.237
  0
LINE
  8
0
 10
86.4687
 20
225.237
 11
86.5671
 21
224.195
  0
LINE
  8
0
 10
86.5671
 20
224.195
 11
86.6
 21
223.15
  0
LINE
  8
0
 10
86.6
 20
223.15
 11
86.6
 21
184.85
  0
LINE
  8
0
 10
86.6
 20
184.85
 11
86.5671
 21
183.805
  0
LINE
  8
0
 10
86.5671
 20
183.805
 11
86.4687
 21
182.763
  0
LINE
  8
0
 10
86.4687
 20
182.763
 11
86.3051
 21
181.73
  0
LINE
  8
0
 10
86.3051
 20
181.73
 11
86.0769
 21
180.709
  0
LINE
  8
0
 10
86.0769
 20
180.709
 11
85.7851
 21
179.705
  0
LINE
  8
0
 10
85.7851
 20
179.705
 11
85.4308
 21
178.721
  0
LINE
  8
0
 10
85.4308
 20
178.721
 11
85.0154
 21
177.761
  0
LINE
  8
0
 10
85.0154
 20
177.761
 11
84.5405
 21
176.829
  0
LINE
  8
0
 10
84.5405
 20
176.829
 11
84.0081
 21
175.928
  0
LINE
  8
0
 10
84.0081
 20
175.928
 11
83.4201
 21
175.063
  0
LINE
  8
0
 10
83.4201
 20
175.063
 11
82.779
 21
174.237
  0
LINE
  8
0
 10
82.779
 20
174.237
 11
82.0873
 21
173.452
  0
LINE
  8
0
 10
82.0873
 20
173.452
 11
81.3477
 21
172.713
  0
LINE
  8
0
 10
81.3477
 20
172.713
 11
80.5631
 21
172.021
  0
LINE
  8
0
 10
80.5631
 20
172.021
 11
79.7366
 21
171.38
  0
LINE
  8
0
 10
79.7366
 20
171.38
 11
78.8715
 21
170.792
  0
LINE
  8
0
 10
78.8715
 20
170.792
 11
77.9712
 21
170.259
  0
LINE
  8
0
 10
77.9712
 20
170.259
 11
77.0392
 21
169.785
  0
LINE
  8
0
 10
77.0392
 20
169.785
 11
76.0793
 21
169.369
  0
LINE
  8
0
 10
76.0793
 20
169.369
 11
75.0951
 21
169.015
  0
LINE
  8
0
 10
75.0951
 20
169.015
 11
74.0907
 21
168.723
  0
LINE
  8
0
 10
74.0907
 20
168.723
 11
73.0699
 21
168.495
  0
LINE
  8
0
 10
73.0699
 20
168.495
 11
72.0368
 21
168.331
  0
LINE
  8
0
 10
72.0368
 20
168.331
 11
70.9955
 21
168.233
  0
LINE
  8
0
 10
70.9955
 20
168.233
 11
69.95
 21
168.2
  0
LINE
  8
0
 10
69.95
 20
168.2
 11
68.9045
 21
168.233
  0
LINE
  8
0
 10
145.505
 20
168.233
 11
144.463
 21
168.331
  0
LINE
  8
0
 10
144.463
 20
168.331
 11
143.43
 21
168.495
  0
LINE
  8
0
 10
143.43
 20
168.495
 11
142.409
 21
168.723
  0
LINE
  8
0
 10
142.409
 20
168.723
 11
141.405
 21
169.015
  0
LINE
  8
0
 10
141.405
 20
169.015
 11
140.421
 21
169.369
  0
LINE
  8
0
 10
140.421
 20
169.369
 11
139.461
 21
169.785
  0
LINE
  8
0
 10
139.461
 20
169.785
 11
138.529
 21
170.259
  0
LINE
  8
0
 10
138.529
 20
170.259
 11
137.628
 21
170.792
  0
LINE
  8
0
 10
137.628
 20
170.792
 11
136.763
 21
171.38
  0
LINE
  8
0
 10
136.763
 20
171.38
 11
135.937
 21
172.021
  0
LINE
  8
0
 10
135.937
 20
172.021
 11
135.152
 21
172.713
  0
LINE
  8
0
 10
135.152
 20
172.713
 11
134.413
 21
173.452
  0
LINE
  8
0
 10
134.413
 20
173.452
 11
133.721
 21
174.237
  0
LINE
  8
0
 10
133.721
 20
174.237
 11
133.08
 21
175.063
  0
LINE
  8
0
 10
133.08
 20
175.063
 11
132.492
 21
175.928
  0
LINE
  8
0
 10
132.492
 20
175.928
 11
131.959
 21
176.829
  0
LINE
  8
0
 10
131.959
 20
176.829
 11
131.485
 21
177.761
  0
LINE
  8
0
 10
131.485
 20
177.761
 11
131.069
 21
178.721
  0
LINE
  8
0
 10
131.069
 20
178.721
 11
130.715
 21
179.705
  0
LINE
  8
0
 10
130.715
 20
179.705
 11
130.423
 21
180.709
  0
LINE
  8
0
 10
130.423
 20
180.709
 11
130.195
 21
181.73
  0
LINE
  8
0
 10
130.195
 20
181.73
 11
130.031
 21
182.763
  0
LINE
  8
0
 10
130.031
 20
182.763
 11
129.933
 21
183.805
  0
LINE
  8
0
 10
129.933
 20
183.805
 11
129.9
 21
184.85
  0
LINE
  8
0
 10
129.9
 20
184.85
 11
129.9
 21
223.15
  0
LINE
  8
0
 10
129.9
 20
223.15
 11
129.933
 21
224.195
  0
LINE
  8
0
 10
129.933
 20
224.195
 11
130.031
 21
225.237
  0
LINE
  8
0
 10
130.031
 20
225.237
 11
130.195
 21
226.27
  0
LINE
  8
0
 10
130.195
 20
226.27
 11
130.423
 21
227.291
  0
LINE
  8
0
 10
130.423
 20
227.291
 11
130.715
 21
228.295
  0
LINE
  8
0
 10
130.715
 20
228.295
 11
131.069
 21
229.279
  0
LINE
  8
0
 10
131.069
 20
229.279
 11
131.485
 21
230.239
  0
LINE
  8
0
 10
131.485
 20
230.239
 11
131.959
 21
231.171
  0
LINE
  8
0
 10
131.959
 20
231.171
 11
132.492
 21
232.072
  0
LINE
  8
0
 10
132.492
 20
232.072
 11
133.08
 21
232.937
  0
LINE
  8
0
 10
133.08
 20
232.937
 11
133.721
 21
233.763
  0
LINE
  8
0
 10
133.721
 20
233.763
 11
134.413
 21
234.548
  0
LINE
  8
0
 10
134.413
 20
234.548
 11
135.152
 21
235.287
  0
LINE
  8
0
 10
135.152
 20
235.287
 11
135.937
 21
235.979
  0
LINE
  8
0
 10
135.937
 20
235.979
 11
136.763
 21
236.62
  0
LINE
  8
0
 10
136.763
 20
236.62
 11
137.628
 21
237.208
  0
LINE
  8
0
 10
137.628
 20
237.208
 11
138.529
 21
237.741
  0
LINE
  8
0
 10
138.529
 20
237.741
 11
139.461
 21
238.215
  0
LINE
  8
0
 10
139.461
 20
238.215
 11
140.421
 21
238.631
  0
LINE
  8
0
 10
140.421
 20
238.631
 11
141.405
 21
238.985
  0
LINE
  8
0
 10
141.405
 20
238.985
 11
142.409
 21
239.277
  0
LINE
  8
0
 10
142.409
 20
239.277
 11
143.43
 21
239.505
  0
LINE
  8
0
 10
143.43
 20
239.505
 11
144.463
 21
239.669
  0
LINE
  8
0
 10
144.463
 20
239.669
 11
145.505
 21
239.767
  0
LINE
  8
0
 10
145.505
 20
239.767
 11
146.55
 21
239.8
  0
LINE
  8
0
 10
146.55
 20
239.8
 11
147.595
 21
239.767
  0
LINE
  8
0
 10
147.595
 20
239.767
 11
148.637
 21
239.669
  0
LINE
  8
0
 10
148.637
 20
239.669
 11
149.67
 21
239.505
  0
LINE
  8
0
 10
149.67
 20
239.505
 11
150.691
 21
239.277
  0
LINE
  8
0
 10
150.691
 20
239.277
 11
151.695
 21
238.985
  0
LINE
  8
0
 10
151.695
 20
238.985
 11
152.679
 21
238.631
  0
LINE
  8
0
 10
152.679
 20
238.631
 11
153.639
 21
238.215
  0
LINE
  8
0
 10
153.639
 20
238.215
 11
154.571
 21
237.741
  0
LINE
  8
0
 10
154.571
 20
237.741
 11
155.472
 21
237.208
  0
LINE
  8
0
 10
155.472
 20
237.208
 11
156.337
 21
236.62
  0
LINE
  8
0
 10
156.337
 20
236.62
 11
157.163
 21
235.979
  0
LINE
  8
0
 10
157.163
 20
235.979
 11
157.948
 21
235.287
  0
LINE
  8
0
 10
157.948
 20
235.287
 11
158.687
 21
234.548
  0
LINE
  8
0
 10
158.687
 20
234.548
 11
159.379
 21
233.763
  0
LINE
  8
0
 10
159.379
 20
233.763
 11
160.02
 21
232.937
  0
LINE
  8
0
 10
160.02
 20
232.937
 11
160.608
 21
232.072
  0
LINE
  8
0
 10
160.608
 20
232.072
 11
161.141
 21
231.171
  0
LINE
  8
0
 10
161.141
 20
231.171
 11
161.615
 21
230.239
  0
LINE
  8
0
 10
161.615
 20
230.239
 11
162.031
 21
229.279
  0
LINE
  8
0
 10
162.031
 20
229.279
 11
162.385
 21
228.295
  0
LINE
  8
0
 10
162.385
 20
228.295
 11
162.677
 21
227.291
  0
LINE
  8
0
 10
162.677
 20
227.291
 11
162.905
 21
226.27
  0
LINE
  8
0
 10
162.905
 20
226.27
 11
163.069
 21
225.237
  0
LINE
  8
0
 10
163.069
 20
225.237
 11
163.167
 21
224.195
  0
LINE
  8
0
 10
163.167
 20
224.195
 11
163.2
 21
223.15
  0
LINE
  8
0
 10
163.2
 20
223.15
 11
163.2
 21
184.85
  0
LINE
  8
0
 10
163.2
 20
184.85
 11
163.167
 21
183.805
  0
LINE
  8
0
 10
163.167
 20
183.805
 11
163.069
 21
182.763
  0
LINE
  8
0
 10
163.069
 20
182.763
 11
162.905
 21
181.73
  0
LINE
  8
0
 10
162.905
 20
181.73
 11
162.677
 21
180.709
  0
LINE
  8
0
 10
162.677
 20
180.709
 11
162.385
 21
179.705
  0
LINE
  8
0
 10
162.385
 20
179.705
 11
162.031
 21
178.721
  0
LINE
  8
0
 10
162.031
 20
178.721
 11
161.615
 21
177.761
  0
LINE
  8
0
 10
161.615
 20
177.761
 11
161.141
 21
176.829
  0
LINE
  8
0
 10
161.141
 20
176.829
 11
160.608
 21
175.928
  0
LINE
  8
0
 10
160.608
 20
175.928
 11
160.02
 21
175.063
  0
LINE
  8
0
 10
160.02
 20
175.063
 11
159.379
 21
174.237
  0
LINE
  8
0
 10
159.379
 20
174.237
 11
158.687
 21
173.452
  0
LINE
  8
0
 10
158.687
 20
173.452
 11
157.948
 21
172.713
  0
LINE
  8
0
 10
157.948
 20
172.713
 11
157.163
 21
172.021
  0
LINE
  8
0
 10
157.163
 20
172.021
 11
156.337
 21
171.38
  0
LINE
  8
0
 10
156.337
 20
171.38
 11
155.472
 21
170.792
  0
LINE
  8
0
 10
155.472
 20
170.792
 11
154.571
 21
170.259
  0
LINE
  8
0
 10
154.571
 20
170.259
 11
153.639
 21
169.785
  0
LINE
  8
0
 10
153.639
 20
169.785
 11
152.679
 21
169.369
  0
LINE
  8
0
 10
152.679
 20
169.369
 11
151.695
 21
169.015
  0
LINE
  8
0
 10
151.695
 20
169.015
 11
150.691
 21
168.723
  0
LINE
  8
0
 10
150.691
 20
168.723
 11
149.67
 21
168.495
  0
LINE
  8
0
 10
149.67
 20
168.495
 11
148.637
 21
168.331
  0
LINE
  8
0
 10
148.637
 20
168.331
 11
147.595
 21
168.233
  0
LINE
  8
0
 10
147.595
 20
168.233
 11
146.55
 21
168.2
  0
LINE
  8
0
 10
146.55
 20
168.2
 11
145.505
 21
168.233
  0
LINE
  8
0
 10
260.405
 20
91.6329
 11
259.363
 21
91.7313
  0
LINE
  8
0
 10
259.363
 20
91.7313
 11
258.33
 21
91.8949
  0
LINE
  8
0
 10
258.33
 20
91.8949
 11
257.309
 21
92.1231
  0
LINE
  8
0
 10
257.309
 20
92.1231
 11
256.305
 21
92.4149
  0
LINE
  8
0
 10
256.305
 20
92.4149
 11
255.321
 21
92.7692
  0
LINE
  8
0
 10
255.321
 20
92.7692
 11
254.361
 21
93.1846
  0
LINE
  8
0
 10
254.361
 20
93.1846
 11
253.429
 21
93.6595
  0
LINE
  8
0
 10
253.429
 20
93.6595
 11
252.528
 21
94.1919
  0
LINE
  8
0
 10
252.528
 20
94.1919
 11
251.663
 21
94.7799
  0
LINE
  8
0
 10
251.663
 20
94.7799
 11
250.837
 21
95.4209
  0
LINE
  8
0
 10
250.837
 20
95.4209
 11
250.052
 21
96.1127
  0
LINE
  8
0
 10
250.052
 20
96.1127
 11
249.313
 21
96.8523
  0
LINE
  8
0
 10
249.313
 20
96.8523
 11
248.621
 21
97.6369
  0
LINE
  8
0
 10
248.621
 20
97.6369
 11
247.98
 21
98.4634
  0
LINE
  8
0
 10
247.98
 20
98.4634
 11
247.392
 21
99.3285
  0
LINE
  8
0
 10
247.392
 20
99.3285
 11
246.859
 21
100.229
  0
LINE
  8
0
 10
246.859
 20
100.229
 11
246.385
 21
101.161
  0
LINE
  8
0
 10
246.385
 20
101.161
 11
245.969
 21
102.121
  0
LINE
  8
0
 10
245.969
 20
102.121
 11
245.615
 21
103.105
  0
LINE
  8
0
 10
245.615
 20
103.105
 11
245.323
 21
104.109
  0
LINE
  8
0
 10
245.323
 20
104.109
 11
245.095
 21
105.13
  0
LINE
  8
0
 10
245.095
 20
105.13
 11
244.931
 21
106.163
  0
LINE
  8
0
 10
244.931
 20
106.163
 11
244.833
 21
107.205
  0
LINE
  8
0
 10
244.833
 20
107.205
 11
244.8
 21
108.25
  0
LINE
  8
0
 10
244.8
 20
108.25
 11
244.8
 21
223.15
  0
LINE
  8
0
 10
244.8
 20
223.15
 11
244.833
 21
224.195
  0
LINE
  8
0
 10
244.833
 20
224.195
 11
244.931
 21
225.237
  0
LINE
  8
0
 10
244.931
 20
225.237
 11
245.095
 21
226.27
  0
LINE
  8
0
 10
245.095
 20
226.27
 11
245.323
 21
227.291
  0
LINE
  8
0
 10
245.323
 20
227.291
 11
245.615
 21
228.295
  0
LINE
  8
0
 10
245.615
 20
228.295
 11
245.969
 21
229.279
  0
LINE
  8
0
 10
245.969
 20
229.279
 11
246.385
 21
230.239
  0
LINE
  8
0
 10
246.385
 20
230.239
 11
246.859
 21
231.171
  0
LINE
  8
0
 10
246.859
 20
231.171
 11
247.392
 21
232.072
  0
LINE
  8
0
 10
247.392
 20
232.072
 11
247.98
 21
232.937
  0
LINE
  8
0
 10
247.98
 20
232.937
 11
248.621
 21
233.763
  0
LINE
  8
0
 10
248.621
 20
233.763
 11
249.313
 21
234.548
  0
LINE
  8
0
 10
249.313
 20
234.548
 11
250.052
 21
235.287
  0
LINE
  8
0
 10
250.052
 20
235.287
 11
250.837
 21
235.979
  0
LINE
  8
0
 10
250.837
 20
235.979
 11
251.663
 21
236.62
  0
LINE
  8
0
 10
251.663
 20
236.62
 11
252.528
 21
237.208
  0
LINE
  8
0
 10
252.528
 20
237.208
 11
253.429
 21
237.741
  0
LINE
  8
0
 10
253.429
 20
237.741
 11
254.361
 21
238.215
  0
LINE
  8
0
 10
254.361
 20
238.215
 11
255.321
 21
238.631
  0
LINE
  8
0
 10
255.321
 20
238.631
 11
256.305
 21
238.985
  0
LINE
  8
0
 10
256.305
 20
238.985
 11
257.309
 21
239.277
  0
LINE
  8
0
 10
257.309
 20
239.277
 11
258.33
 21
239.505
  0
LINE
  8
0
 10
258.33
 20
239.505
 11
259.363
 21
239.669
  0
LINE
  8
0
 10
259.363
 20
239.669
 11
260.405
 21
239.767
  0
LINE
  8
0
 10
260.405
 20
239.767
 11
261.45
 21
239.8
  0
LINE
  8
0
 10
261.45
 20
239.8
 11
262.495
 21
239.767
  0
LINE
  8
0
 10
262.495
 20
239.767
 11
263.537
 21
239.669
  0
LINE
  8
0
 10
263.537
 20
239.669
 11
264.57
 21
239.505
  0
LINE
  8
0
 10
264.57
 20
239.505
 11
265.591
 21
239.277
  0
LINE
  8
0
 10
265.591
 20
239.277
 11
266.595
 21
238.985
  0
LINE
  8
0
 10
266.595
 20
238.985
 11
267.579
 21
238.631
  0
LINE
  8
0
 10
267.579
 20
238.631
 11
268.539
 21
238.215
  0
LINE
  8
0
 10
268.539
 20
238.215
 11
269.471
 21
237.741
  0
LINE
  8
0
 10
269.471
 20
237.741
 11
270.372
 21
237.208
  0
LINE
  8
0
 10
270.372
 20
237.208
 11
271.237
 21
236.62
  0
LINE
  8
0
 10
271.237
 20
236.62
 11
272.063
 21
235.979
  0
LINE
  8
0
 10
272.063
 20
235.979
 11
272.848
 21
235.287
  0
LINE
  8
0
 10
272.848
 20
235.287
 11
273.587
 21
234.548
  0
LINE
  8
0
 10
273.587
 20
234.548
 11
274.279
 21
233.763
  0
LINE
  8
0
 10
274.279
 20
233.763
 11
274.92
 21
232.937
  0
LINE
  8
0
 10
274.92
 20
232.937
 11
275.508
 21
232.072
  0
LINE
  8
0
 10
275.508
 20
232.072
 11
276.04
 21
231.171
  0
LINE
  8
0
 10
276.04
 20
231.171
 11
276.515
 21
230.239
  0
LINE
  8
0
 10
276.515
 20
230.239
 11
276.931
 21
229.279
  0
LINE
  8
0
 10
276.931
 20
229.279
 11
277.285
 21
228.295
  0
LINE
  8
0
 10
277.285
 20
228.295
 11
277.577
 21
227.291
  0
LINE
  8
0
 10
277.577
 20
227.291
 11
277.805
 21
226.27
  0
LINE
  8
0
 10
277.805
 20
226.27
 11
277.969
 21
225.237
  0
LINE
  8
0
 10
277.969
 20
225.237
 11
278.067
 21
224.195
  0
LINE
  8
0
 10
278.067
 20
224.195
 11
278.1
 21
223.15
  0
LINE
  8
0
 10
278.1
 20
223.15
 11
278.1
 21
108.25
  0
LINE
  8
0
 10
278.1
 20
108.25
 11
278.067
 21
107.205
  0
LINE
  8
0
 10
278.067
 20
107.205
 11
277.969
 21
106.163
  0
LINE
  8
0
 10
277.969
 20
106.163
 11
277.805
 21
105.13
  0
LINE
  8
0
 10
277.805
 20
105.13
 11
277.577
 21
104.109
  0
LINE
  8
0
 10
277.577
 20
104.109
 11
277.285
 21
103.105
  0
LINE
  8
0
 10
277.285
 20
103.105
 11
276.931
 21
102.121
  0
LINE
  8
0
 10
276.931
 20
102.121
 11
276.515
 21
101.161
  0
LINE
  8
0
 10
276.515
 20
101.161
 11
276.04
 21
100.229
  0
LINE
  8
0
 10
276.04
 20
100.229
 11
275.508
 21
99.3285
  0
LINE
  8
0
 10
275.508
 20
99.3285
 11
274.92
 21
98.4634
  0
LINE
  8
0
 10
274.92
 20
98.4634
 11
274.279
 21
97.6369
  0
LINE
  8
0
 10
274.279
 20
97.6369
 11
273.587
 21
96.8523
  0
LINE
  8
0
 10
273.587
 20
96.8523
 11
272.848
 21
96.1127
  0
LINE
  8
0
 10
272.848
 20
96.1127
 11
272.063
 21
95.4209
  0
LINE
  8
0
 10
272.063
 20
95.4209
 11
271.237
 21
94.7799
  0
LINE
  8
0
 10
271.237
 20
94.7799
 11
270.372
 21
94.1919
  0
LINE
  8
0
 10
270.372
 20
94.1919
 11
269.471
 21
93.6595
  0
LINE
  8
0
 10
269.471
 20
93.6595
 11
268.539
 21
93.1846
  0
LINE
  8
0
 10
268.539
 20
93.1846
 11
267.579
 21
92.7692
  0
LINE
  8
0
 10
267.579
 20
92.7692
 11
266.595
 21
92.4149
  0
LINE
  8
0
 10
266.595
 20
92.4149
 11
265.591
 21
92.1231
  0
LINE
  8
0
 10
265.591
 20
92.1231
 11
264.57
 21
91.8949
  0
LINE
  8
0
 10
264.57
 20
91.8949
 11
263.537
 21
91.7313
  0
LINE
  8
0
 10
263.537
 20
91.7313
 11
262.495
 21
91.6329
  0
LINE
  8
0
 10
262.495
 20
91.6329
 11
261.45
 21
91.6
  0
LINE
  8
0
 10
261.45
 20
91.6
 11
260.405
 21
91.6329
  0
LINE
  8
0
 10
107.205
 20
91.6329
 11
106.163
 21
91.7313
  0
LINE
  8
0
 10
106.163
 20
91.7313
 11
105.13
 21
91.8949
  0
LINE
  8
0
 10
105.13
 20
91.8949
 11
104.109
 21
92.1231
  0
LINE
  8
0
 10
104.109
 20
92.1231
 11
103.105
 21
92.4149
  0
LINE
  8
0
 10
103.105
 20
92.4149
 11
102.121
 21
92.7692
  0
LINE
  8
0
 10
102.121
 20
92.7692
 11
101.161
 21
93.1846
  0
LINE
  8
0
 10
101.161
 20
93.1846
 11
100.229
 21
93.6595
  0
LINE
  8
0
 10
100.229
 20
93.6595
 11
99.3285
 21
94.1919
  0
LINE
  8
0
 10
99.3285
 20
94.1919
 11
98.4634
 21
94.7799
  0
LINE
  8
0
 10
98.4634
 20
94.7799
 11
97.6369
 21
95.4209
  0
LINE
  8
0
 10
97.6369
 20
95.4209
 11
96.8523
 21
96.1127
  0
LINE
  8
0
 10
96.8523
 20
96.1127
 11
96.1127
 21
96.8523
  0
LINE
  8
0
 10
96.1127
 20
96.8523
 11
95.4209
 21
97.6369
  0
LINE
  8
0
 10
95.4209
 20
97.6369
 11
94.7799
 21
98.4634
  0
LINE
  8
0
 10
94.7799
 20
98.4634
 11
94.1919
 21
99.3285
  0
LINE
  8
0
 10
94.1919
 20
99.3285
 11
93.6595
 21
100.229
  0
LINE
  8
0
 10
93.6595
 20
100.229
 11
93.1846
 21
101.161
  0
LINE
  8
0
 10
93.1846
 20
101.161
 11
92.7692
 21
102.121
  0
LINE
  8
0
 10
92.7692
 20
102.121
 11
92.4149
 21
103.105
  0
LINE
  8
0
 10
92.4149
 20
103.105
 11
92.1231
 21
104.109
  0
LINE
  8
0
 10
92.1231
 20
104.109
 11
91.8949
 21
105.13
  0
LINE
  8
0
 10
91.8949
 20
105.13
 11
91.7313
 21
106.163
  0
LINE
  8
0
 10
91.7313
 20
106.163
 11
91.6329
 21
107.205
  0
LINE
  8
0
 10
91.6329
 20
107.205
 11
91.6
 21
108.25
  0
LINE
  8
0
 10
91.6
 20
108.25
 11
91.6
 21
223.15
  0
LINE
  8
0
 10
91.6
 20
223.15
 11
91.6329
 21
224.195
  0
LINE
  8
0
 10
91.6329
 20
224.195
 11
91.7313
 21
225.237
  0
LINE
  8
0
 10
91.7313
 20
225.237
 11
91.8949
 21
226.27
  0
LINE
  8
0
 10
91.8949
 20
226.27
 11
92.1231
 21
227.291
  0
LINE
  8
0
 10
92.1231
 20
227.291
 11
92.4149
 21
228.295
  0
LINE
  8
0
 10
92.4149
 20
228.295
 11
92.7692
 21
229.279
  0
LINE
  8
0
 10
92.7692
 20
229.279
 11
93.1846
 21
230.239
  0
LINE
  8
0
 10
93.1846
 20
230.239
 11
93.6595
 21
231.171
  0
LINE
  8
0
 10
93.6595
 20
231.171
 11
94.1919
 21
232.072
  0
LINE
  8
0
 10
94.1919
 20
232.072
 11
94.7799
 21
232.937
  0
LINE
  8
0
 10
94.7799
 20
232.937
 11
95.4209
 21
233.763
  0
LINE
  8
0
 10
95.4209
 20
233.763
 11
96.1127
 21
234.548
  0
LINE
  8
0
 10
96.1127
 20
234.548
 11
96.8523
 21
235.287
  0
LINE
  8
0
 10
96.8523
 20
235.287
 11
97.6369
 21
235.979
  0
LINE
  8
0
 10
97.6369
 20
235.979
 11
98.4634
 21
236.62
  0
LINE
  8
0
 10
98.4634
 20
236.62
 11
99.3285
 21
237.208
  0
LINE
  8
0
 10
99.3285
 20
237.208
 11
100.229
 21
237.741
  0
LINE
  8
0
 10
100.229
 20
237.741
 11
101.161
 21
238.215
  0
LINE
  8
0
 10
101.161
 20
238.215
 11
102.121
 21
238.631
  0
LINE
  8
0
 10
102.121
 20
238.631
 11
103.105
 21
238.985
  0
LINE
  8
0
 10
103.105
 20
238.985
 11
104.109
 21
239.277
  0
LINE
  8
0
 10
104.109
 20
239.277
 11
105.13
 21
239.505
  0
LINE
  8
0
 10
105.13
 20
239.505
 11
106.163
 21
239.669
  0
LINE
  8
0
 10
106.163
 20
239.669
 11
107.205
 21
239.767
  0
LINE
  8
0
 10
107.205
 20
239.767
 11
108.25
 21
239.8
  0
LINE
  8
0
 10
108.25
 20
239.8
 11
109.295
 21
239.767
  0
LINE
  8
0
 10
109.295
 20
239.767
 11
110.337
 21
239.669
  0
LINE
  8
0
 10
110.337
 20
239.669
 11
111.37
 21
239.505
  0
LINE
  8
0
 10
111.37
 20
239.505
 11
112.391
 21
239.277
  0
LINE
  8
0
 10
112.391
 20
239.277
 11
113.395
 21
238.985
  0
LINE
  8
0
 10
113.395
 20
238.985
 11
114.379
 21
238.631
  0
LINE
  8
0
 10
114.379
 20
238.631
 11
115.339
 21
238.215
  0
LINE
  8
0
 10
115.339
 20
238.215
 11
116.271
 21
237.741
  0
LINE
  8
0
 10
116.271
 20
237.741
 11
117.172
 21
237.208
  0
LINE
  8
0
 10
117.172
 20
237.208
 11
118.037
 21
236.62
  0
LINE
  8
0
 10
118.037
 20
236.62
 11
118.863
 21
235.979
  0
LINE
  8
0
 10
118.863
 20
235.979
 11
119.648
 21
235.287
  0
LINE
  8
0
 10
119.648
 20
235.287
 11
120.387
 21
234.548
  0
LINE
  8
0
 10
120.387
 20
234.548
 11
121.079
 21
233.763
  0
LINE
  8
0
 10
121.079
 20
233.763
 11
121.72
 21
232.937
  0
LINE
  8
0
 10
121.72
 20
232.937
 11
122.308
 21
232.072
  0
LINE
  8
0
 10
122.308
 20
232.072
 11
122.84
 21
231.171
  0
LINE
  8
0
 10
122.84
 20
231.171
 11
123.315
 21
230.239
  0
LINE
  8
0
 10
123.315
 20
230.239
 11
123.731
 21
229.279
  0
LINE
  8
0
 10
123.731
 20
229.279
 11
124.085
 21
228.295
  0
LINE
  8
0
 10
124.085
 20
228.295
 11
124.377
 21
227.291
  0
LINE
  8
0
 10
124.377
 20
227.291
 11
124.605
 21
226.27
  0
LINE
  8
0
 10
124.605
 20
226.27
 11
124.769
 21
225.237
  0
LINE
  8
0
 10
124.769
 20
225.237
 11
124.867
 21
224.195
  0
LINE
  8
0
 10
124.867
 20
224.195
 11
124.9
 21
223.15
  0
LINE
  8
0
 10
124.9
 20
223.15
 11
124.9
 21
108.25
  0
LINE
  8
0
 10
124.9
 20
108.25
 11
124.867
 21
107.205
  0
LINE
  8
0
 10
124.867
 20
107.205
 11
124.769
 21
106.163
  0
LINE
  8
0
 10
124.769
 20
106.163
 11
124.605
 21
105.13
  0
LINE
  8
0
 10
124.605
 20
105.13
 11
124.377
 21
104.109
  0
LINE
  8
0
 10
124.377
 20
104.109
 11
124.085
 21
103.105
  0
LINE
  8
0
 10
124.085
 20
103.105
 11
123.731
 21
102.121
  0
LINE
  8
0
 10
123.731
 20
102.121
 11
123.315
 21
101.161
  0
LINE
  8
0
 10
123.315
 20
101.161
 11
122.84
 21
100.229
  0
LINE
  8
0
 10
122.84
 20
100.229
 11
122.308
 21
99.3285
  0
LINE
  8
0
 10
122.308
 20
99.3285
 11
121.72
 21
98.4634
  0
LINE
  8
0
 10
121.72
 20
98.4634
 11
121.079
 21
97.6369
  0
LINE
  8
0
 10
121.079
 20
97.6369
 11
120.387
 21
96.8523
  0
LINE
  8
0
 10
120.387
 20
96.8523
 11
119.648
 21
96.1127
  0
LINE
  8
0
 10
119.648
 20
96.1127
 11
118.863
 21
95.4209
  0
LINE
  8
0
 10
118.863
 20
95.4209
 11
118.037
 21
94.7799
  0
LINE
  8
0
 10
118.037
 20
94.7799
 11
117.172
 21
94.1919
  0
LINE
  8
0
 10
117.172
 20
94.1919
 11
116.271
 21
93.6595
  0
LINE
  8
0
 10
116.271
 20
93.6595
 11
115.339
 21
93.1846
  0
LINE
  8
0
 10
115.339
 20
93.1846
 11
114.379
 21
92.7692
  0
LINE
  8
0
 10
114.379
 20
92.7692
 11
113.395
 21
92.4149
  0
LINE
  8
0
 10
113.395
 20
92.4149
 11
112.391
 21
92.1231
  0
LINE
  8
0
 10
112.391
 20
92.1231
 11
111.37
 21
91.8949
  0
LINE
  8
0
 10
111.37
 20
91.8949
 11
110.337
 21
91.7313
  0
LINE
  8
0
 10
110.337
 20
91.7313
 11
109.295
 21
91.6329
  0
LINE
  8
0
 10
109.295
 20
91.6329
 11
108.25
 21
91.6
  0
LINE
  8
0
 10
108.25
 20
91.6
 11
107.205
 21
91.6329
  0
LINE
  8
0
 10
222.105
 20
168.233
 11
221.063
 21
168.331
  0
LINE
  8
0
 10
221.063
 20
168.331
 11
220.03
 21
168.495
  0
LINE
  8
0
 10
220.03
 20
168.495
 11
219.009
 21
168.723
  0
LINE
  8
0
 10
219.009
 20
168.723
 11
218.005
 21
169.015
  0
LINE
  8
0
 10
218.005
 20
169.015
 11
217.021
 21
169.369
  0
LINE
  8
0
 10
217.021
 20
169.369
 11
216.061
 21
169.785
  0
LINE
  8
0
 10
216.061
 20
169.785
 11
215.129
 21
170.259
  0
LINE
  8
0
 10
215.129
 20
170.259
 11
214.228
 21
170.792
  0
LINE
  8
0
 10
214.228
 20
170.792
 11
213.363
 21
171.38
  0
LINE
  8
0
 10
213.363
 20
171.38
 11
212.537
 21
172.021
  0
LINE
  8
0
 10
212.537
 20
172.021
 11
211.752
 21
172.713
  0
LINE
  8
0
 10
211.752
 20
172.713
 11
211.013
 21
173.452
  0
LINE
  8
0
 10
211.013
 20
173.452
 11
210.321
 21
174.237
  0
LINE
  8
0
 10
210.321
 20
174.237
 11
209.68
 21
175.063
  0
LINE
  8
0
 10
209.68
 20
175.063
 11
209.092
 21
175.928
  0
LINE
  8
0
 10
209.092
 20
175.928
 11
208.559
 21
176.829
  0
LINE
  8
0
 10
208.559
 20
176.829
 11
208.085
 21
177.761
  0
LINE
  8
0
 10
208.085
 20
177.761
 11
207.669
 21
178.721
  0
LINE
  8
0
 10
207.669
 20
178.721
 11
207.315
 21
179.705
  0
LINE
  8
0
 10
207.315
 20
179.705
 11
207.023
 21
180.709
  0
LINE
  8
0
 10
207.023
 20
180.709
 11
206.795
 21
181.73
  0
LINE
  8
0
 10
206.795
 20
181.73
 11
206.631
 21
182.763
  0
LINE
  8
0
 10
206.631
 20
182.763
 11
206.533
 21
183.805
  0
LINE
  8
0
 10
206.533
 20
183.805
 11
206.5
 21
184.85
  0
LINE
  8
0
 10
206.5
 20
184.85
 11
206.5
 21
223.15
  0
LINE
  8
0
 10
206.5
 20
223.15
 11
206.533
 21
224.195
  0
LINE
  8
0
 10
206.533
 20
224.195
 11
206.631
 21
225.237
  0
LINE
  8
0
 10
206.631
 20
225.237
 11
206.795
 21
226.27
  0
LINE
  8
0
 10
206.795
 20
226.27
 11
207.023
 21
227.291
  0
LINE
  8
0
 10
207.023
 20
227.291
 11
207.315
 21
228.295
  0
LINE
  8
0
 10
207.315
 20
228.295
 11
207.669
 21
229.279
  0
LINE
  8
0
 10
207.669
 20
229.279
 11
208.085
 21
230.239
  0
LINE
  8
0
 10
208.085
 20
230.239
 11
208.559
 21
231.171
  0
LINE
  8
0
 10
208.559
 20
231.171
 11
209.092
 21
232.072
  0
LINE
  8
0
 10
209.092
 20
232.072
 11
209.68
 21
232.937
  0
LINE
  8
0
 10
209.68
 20
232.937
 11
210.321
 21
233.763
  0
LINE
  8
0
 10
210.321
 20
233.763
 11
211.013
 21
234.548
  0
LINE
  8
0
 10
211.013
 20
234.548
 11
211.752
 21
235.287
  0
LINE
  8
0
 10
211.752
 20
235.287
 11
212.537
 21
235.979
  0
LINE
  8
0
 10
212.537
 20
235.979
 11
213.363
 21
236.62
  0
LINE
  8
0
 10
213.363
 20
236.62
 11
214.228
 21
237.208
  0
LINE
  8
0
 10
214.228
 20
237.208
 11
215.129
 21
237.741
  0
LINE
  8
0
 10
215.129
 20
237.741
 11
216.061
 21
238.215
  0
LINE
  8
0
 10
216.061
 20
238.215
 11
217.021
 21
238.631
  0
LINE
  8
0
 10
217.021
 20
238.631
 11
218.005
 21
238.985
  0
LINE
  8
0
 10
218.005
 20
238.985
 11
219.009
 21
239.277
  0
LINE
  8
0
 10
219.009
 20
239.277
 11
220.03
 21
239.505
  0
LINE
  8
0
 10
220.03
 20
239.505
 11
221.063
 21
239.669
  0
LINE
  8
0
 10
221.063
 20
239.669
 11
222.105
 21
239.767
  0
LINE
  8
0
 10
222.105
 20
239.767
 11
223.15
 21
239.8
  0
LINE
  8
0
 10
223.15
 20
239.8
 11
224.195
 21
239.767
  0
LINE
  8
0
 10
224.195
 20
239.767
 11
225.237
 21
239.669
  0
LINE
  8
0
 10
225.237
 20
239.669
 11
226.27
 21
239.505
  0
LINE
  8
0
 10
226.27
 20
239.505
 11
227.291
 21
239.277
  0
LINE
  8
0
 10
227.291
 20
239.277
 11
228.295
 21
238.985
  0
LINE
  8
0
 10
228.295
 20
238.985
 11
229.279
 21
238.631
  0
LINE
  8
0
 10
229.279
 20
238.631
 11
230.239
 21
238.215
  0
LINE
  8
0
 10
230.239
 20
238.215
 11
231.171
 21
237.741
  0
LINE
  8
0
 10
231.171
 20
237.741
 11
232.072
 21
237.208
  0
LINE
  8
0
 10
232.072
 20
237.208
 11
232.937
 21
236.62
  0
LINE
  8
0
 10
232.937
 20
236.62
 11
233.763
 21
235.979
  0
LINE
  8
0
 10
233.763
 20
235.979
 11
234.548
 21
235.287
  0
LINE
  8
0
 10
234.548
 20
235.287
 11
235.287
 21
234.548
  0
LINE
  8
0
 10
235.287
 20
234.548
 11
235.979
 21
233.763
  0
LINE
  8
0
 10
235.979
 20
233.763
 11
236.62
 21
232.937
  0
LINE
  8
0
 10
236.62
 20
232.937
 11
237.208
 21
232.072
  0
LINE
  8
0
 10
237.208
 20
232.072
 11
237.741
 21
231.171
  0
LINE
  8
0
 10
237.741
 20
231.171
 11
238.215
 21
230.239
  0
LINE
  8
0
 10
238.215
 20
230.239
 11
238.631
 21
229.279
  0
LINE
  8
0
 10
238.631
 20
229.279
 11
238.985
 21
228.295
  0
LINE
  8
0
 10
238.985
 20
228.295
 11
239.277
 21
227.291
  0
LINE
  8
0
 10
239.277
 20
227.291
 11
239.505
 21
226.27
  0
LINE
  8
0
 10
239.505
 20
226.27
 11
239.669
 21
225.237
  0
LINE
  8
0
 10
239.669
 20
225.237
 11
239.767
 21
224.195
  0
LINE
  8
0
 10
239.767
 20
224.195
 11
239.8
 21
223.15
  0
LINE
  8
0
 10
239.8
 20
223.15
 11
239.8
 21
184.85
  0
LINE
  8
0
 10
239.8
 20
184.85
 11
239.767
 21
183.805
  0
LINE
  8
0
 10
239.767
 20
183.805
 11
239.669
 21
182.763
  0
LINE
  8
0
 10
239.669
 20
182.763
 11
239.505
 21
181.73
  0
LINE
  8
0
 10
239.505
 20
181.73
 11
239.277
 21
180.709
  0
LINE
  8
0
 10
239.277
 20
180.709
 11
238.985
 21
179.705
  0
LINE
  8
0
 10
238.985
 20
179.705
 11
238.631
 21
178.721
  0
LINE
  8
0
 10
238.631
 20
178.721
 11
238.215
 21
177.761
  0
LINE
  8
0
 10
238.215
 20
177.761
 11
237.741
 21
176.829
  0
LINE
  8
0
 10
237.741
 20
176.829
 11
237.208
 21
175.928
  0
LINE
  8
0
 10
237.208
 20
175.928
 11
236.62
 21
175.063
  0
LINE
  8
0
 10
236.62
 20
175.063
 11
235.979
 21
174.237
  0
LINE
  8
0
 10
235.979
 20
174.237
 11
235.287
 21
173.452
  0
LINE
  8
0
 10
235.287
 20
173.452
 11
234.548
 21
172.713
  0
LINE
  8
0
 10
234.548
 20
172.713
 11
233.763
 21
172.021
  0
LINE
  8
0
 10
233.763
 20
172.021
 11
232.937
 21
171.38
  0
LINE
  8
0
 10
232.937
 20
171.38
 11
232.072
 21
170.792
  0
LINE
  8
0
 10
232.072
 20
170.792
 11
231.171
 21
170.259
  0
LINE
  8
0
 10
231.171
 20
170.259
 11
230.239
 21
169.785
  0
LINE
  8
0
 10
230.239
 20
169.785
 11
229.279
 21
169.369
  0
LINE
  8
0
 10
229.279
 20
169.369
 11
228.295
 21
169.015
  0
LINE
  8
0
 10
228.295
 20
169.015
 11
227.291
 21
168.723
  0
LINE
  8
0
 10
227.291
 20
168.723
 11
226.27
 21
168.495
  0
LINE
  8
0
 10
226.27
 20
168.495
 11
225.237
 21
168.331
  0
LINE
  8
0
 10
225.237
 20
168.331
 11
224.195
 21
168.233
  0
LINE
  8
0
 10
224.195
 20
168.233
 11
223.15
 21
168.2
  0
LINE
  8
0
 10
223.15
 20
168.2
 11
222.105
 21
168.233
  0
LINE
  8
0
 10
183.805
 20
91.6329
 11
182.763
 21
91.7313
  0
LINE
  8
0
 10
182.763
 20
91.7313
 11
181.73
 21
91.8949
  0
LINE
  8
0
 10
181.73
 20
91.8949
 11
180.709
 21
92.1231
  0
LINE
  8
0
 10
180.709
 20
92.1231
 11
179.705
 21
92.4149
  0
LINE
  8
0
 10
179.705
 20
92.4149
 11
178.721
 21
92.7692
  0
LINE
  8
0
 10
178.721
 20
92.7692
 11
177.761
 21
93.1846
  0
LINE
  8
0
 10
177.761
 20
93.1846
 11
176.829
 21
93.6595
  0
LINE
  8
0
 10
176.829
 20
93.6595
 11
175.928
 21
94.1919
  0
LINE
  8
0
 10
175.928
 20
94.1919
 11
175.063
 21
94.7799
  0
LINE
  8
0
 10
175.063
 20
94.7799
 11
174.237
 21
95.4209
  0
LINE
  8
0
 10
174.237
 20
95.4209
 11
173.452
 21
96.1127
  0
LINE
  8
0
 10
173.452
 20
96.1127
 11
172.713
 21
96.8523
  0
LINE
  8
0
 10
172.713
 20
96.8523
 11
172.021
 21
97.6369
  0
LINE
  8
0
 10
172.021
 20
97.6369
 11
171.38
 21
98.4634
  0
LINE
  8
0
 10
171.38
 20
98.4634
 11
170.792
 21
99.3285
  0
LINE
  8
0
 10
170.792
 20
99.3285
 11
170.259
 21
100.229
  0
LINE
  8
0
 10
170.259
 20
100.229
 11
169.785
 21
101.161
  0
LINE
  8
0
 10
169.785
 20
101.161
 11
169.369
 21
102.121
  0
LINE
  8
0
 10
169.369
 20
102.121
 11
169.015
 21
103.105
  0
LINE
  8
0
 10
169.015
 20
103.105
 11
168.723
 21
104.109
  0
LINE
  8
0
 10
168.723
 20
104.109
 11
168.495
 21
105.13
  0
LINE
  8
0
 10
168.495
 20
105.13
 11
168.331
 21
106.163
  0
LINE
  8
0
 10
168.331
 20
106.163
 11
168.233
 21
107.205
  0
LINE
  8
0
 10
168.233
 20
107.205
 11
168.2
 21
108.25
  0
LINE
  8
0
 10
168.2
 20
108.25
 11
168.2
 21
223.15
  0
LINE
  8
0
 10
168.2
 20
223.15
 11
168.233
 21
224.195
  0
LINE
  8
0
 10
168.233
 20
224.195
 11
168.331
 21
225.237
  0
LINE
  8
0
 10
168.331
 20
225.237
 11
168.495
 21
226.27
  0
LINE
  8
0
 10
168.495
 20
226.27
 11
168.723
 21
227.291
  0
LINE
  8
0
 10
168.723
 20
227.291
 11
169.015
 21
228.295
  0
LINE
  8
0
 10
169.015
 20
228.295
 11
169.369
 21
229.279
  0
LINE
  8
0
 10
169.369
 20
229.279
 11
169.785
 21
230.239
  0
LINE
  8
0
 10
169.785
 20
230.239
 11
170.259
 21
231.171
  0
LINE
  8
0
 10
170.259
 20
231.171
 11
170.792
 21
232.072
  0
LINE
  8
0
 10
170.792
 20
232.072
 11
171.38
 21
232.937
  0
LINE
  8
0
 10
171.38
 20
232.937
 11
172.021
 21
233.763
  0
LINE
  8
0
 10
172.021
 20
233.763
 11
172.713
 21
234.548
  0
LINE
  8
0
 10
172.713
 20
234.548
 11
173.452
 21
235.287
  0
LINE
  8
0
 10
173.452
 20
235.287
 11
174.237
 21
235.979
  0
LINE
  8
0
 10
174.237
 20
235.979
 11
175.063
 21
236.62
  0
LINE
  8
0
 10
175.063
 20
236.62
 11
175.928
 21
237.208
  0
LINE
  8
0
 10
175.928
 20
237.208
 11
176.829
 21
237.741
  0
LINE
  8
0
 10
176.829
 20
237.741
 11
177.761
 21
238.215
  0
LINE
  8
0
 10
177.761
 20
238.215
 11
178.721
 21
238.631
  0
LINE
  8
0
 10
178.721
 20
238.631
 11
179.705
 21
238.985
  0
LINE
  8
0
 10
179.705
 20
238.985
 11
180.709
 21
239.277
  0
LINE
  8
0
 10
180.709
 20
239.277
 11
181.73
 21
239.505
  0
LINE
  8
0
 10
181.73
 20
239.505
 11
182.763
 21
239.669
  0
LINE
  8
0
 10
182.763
 20
239.669
 11
183.805
 21
239.767
  0
LINE
  8
0
 10
183.805
 20
239.767
 11
184.85
 21
239.8
  0
LINE
  8
0
 10
184.85
 20
239.8
 11
185.895
 21
239.767
  0
LINE
  8
0
 10
185.895
 20
239.767
 11
186.937
 21
239.669
  0
LINE
  8
0
 10
186.937
 20
239.669
 11
187.97
 21
239.505
  0
LINE
  8
0
 10
187.97
 20
239.505
 11
188.991
 21
239.277
  0
LINE
  8
0
 10
188.991
 20
239.277
 11
189.995
 21
238.985
  0
LINE
  8
0
 10
189.995
 20
238.985
 11
190.979
 21
238.631
  0
LINE
  8
0
 10
190.979
 20
238.631
 11
191.939
 21
238.215
  0
LINE
  8
0
 10
191.939
 20
238.215
 11
192.871
 21
237.741
  0
LINE
  8
0
 10
192.871
 20
237.741
 11
193.772
 21
237.208
  0
LINE
  8
0
 10
193.772
 20
237.208
 11
194.637
 21
236.62
  0
LINE
  8
0
 10
194.637
 20
236.62
 11
195.463
 21
235.979
  0
LINE
  8
0
 10
195.463
 20
235.979
 11
196.248
 21
235.287
  0
LINE
  8
0
 10
196.248
 20
235.287
 11
196.987
 21
234.548
  0
LINE
  8
0
 10
196.987
 20
234.548
 11
197.679
 21
233.763
  0
LINE
  8
0
 10
197.679
 20
233.763
 11
198.32
 21
232.937
  0
LINE
  8
0
 10
198.32
 20
232.937
 11
198.908
 21
232.072
  0
LINE
  8
0
 10
198.908
 20
232.072
 11
199.441
 21
231.171
  0
LINE
  8
0
 10
199.441
 20
231.171
 11
199.915
 21
230.239
  0
LINE
  8
0
 10
199.915
 20
230.239
 11
200.331
 21
229.279
  0
LINE
  8
0
 10
200.331
 20
229.279
 11
200.685
 21
228.295
  0
LINE
  8
0
 10
200.685
 20
228.295
 11
200.977
 21
227.291
  0
LINE
  8
0
 10
200.977
 20
227.291
 11
201.205
 21
226.27
  0
LINE
  8
0
 10
201.205
 20
226.27
 11
201.369
 21
225.237
  0
LINE
  8
0
 10
201.369
 20
225.237
 11
201.467
 21
224.195
  0
LINE
  8
0
 10
201.467
 20
224.195
 11
201.5
 21
223.15
  0
LINE
  8
0
 10
201.5
 20
223.15
 11
201.5
 21
108.25
  0
LINE
  8
0
 10
201.5
 20
108.25
 11
201.467
 21
107.205
  0
LINE
  8
0
 10
201.467
 20
107.205
 11
201.369
 21
106.163
  0
LINE
  8
0
 10
201.369
 20
106.163
 11
201.205
 21
105.13
  0
LINE
  8
0
 10
201.205
 20
105.13
 11
200.977
 21
104.109
  0
LINE
  8
0
 10
200.977
 20
104.109
 11
200.685
 21
103.105
  0
LINE
  8
0
 10
200.685
 20
103.105
 11
200.331
 21
102.121
  0
LINE
  8
0
 10
200.331
 20
102.121
 11
199.915
 21
101.161
  0
LINE
  8
0
 10
199.915
 20
101.161
 11
199.441
 21
100.229
  0
LINE
  8
0
 10
199.441
 20
100.229
 11
198.908
 21
99.3285
  0
LINE
  8
0
 10
198.908
 20
99.3285
 11
198.32
 21
98.4634
  0
LINE
  8
0
 10
198.32
 20
98.4634
 11
197.679
 21
97.6369
  0
LINE
  8
0
 10
197.679
 20
97.6369
 11
196.987
 21
96.8523
  0
LINE
  8
0
 10
196.987
 20
96.8523
 11
196.248
 21
96.1127
  0
LINE
  8
0
 10
196.248
 20
96.1127
 11
195.463
 21
95.4209
  0
LINE
  8
0
 10
195.463
 20
95.4209
 11
194.637
 21
94.7799
  0
LINE
  8
0
 10
194.637
 20
94.7799
 11
193.772
 21
94.1919
  0
LINE
  8
0
 10
193.772
 20
94.1919
 11
192.871
 21
93.6595
  0
LINE
  8
0
 10
192.871
 20
93.6595
 11
191.939
 21
93.1846
  0
LINE
  8
0
 10
191.939
 20
93.1846
 11
190.979
 21
92.7692
  0
LINE
  8
0
 10
190.979
 20
92.7692
 11
189.995
 21
92.4149
  0
LINE
  8
0
 10
189.995
 20
92.4149
 11
188.991
 21
92.1231
  0
LINE
  8
0
 10
188.991
 20
92.1231
 11
187.97
 21
91.8949
  0
LINE
  8
0
 10
187.97
 20
91.8949
 11
186.937
 21
91.7313
  0
LINE
  8
0
 10
186.937
 20
91.7313
 11
185.895
 21
91.6329
  0
LINE
  8
0
 10
185.895
 20
91.6329
 11
184.85
 21
91.6
  0
LINE
  8
0
 10
184.85
 20
91.6
 11
183.805
 21
91.6329
  0
LINE
  8
0
 10
30.6045
 20
91.6329
 11
29.5632
 21
91.7313
  0
LINE
  8
0
 10
29.5632
 20
91.7313
 11
28.5301
 21
91.8949
  0
LINE
  8
0
 10
28.5301
 20
91.8949
 11
27.5093
 21
92.1231
  0
LINE
  8
0
 10
27.5093
 20
92.1231
 11
26.5049
 21
92.4149
  0
LINE
  8
0
 10
26.5049
 20
92.4149
 11
25.5207
 21
92.7692
  0
LINE
  8
0
 10
25.5207
 20
92.7692
 11
24.5608
 21
93.1846
  0
LINE
  8
0
 10
24.5608
 20
93.1846
 11
23.6288
 21
93.6595
  0
LINE
  8
0
 10
23.6288
 20
93.6595
 11
22.7285
 21
94.1919
  0
LINE
  8
0
 10
22.7285
 20
94.1919
 11
21.8634
 21
94.7799
  0
LINE
  8
0
 10
21.8634
 20
94.7799
 11
21.0369
 21
95.4209
  0
LINE
  8
0
 10
21.0369
 20
95.4209
 11
20.2523
 21
96.1127
  0
LINE
  8
0
 10
20.2523
 20
96.1127
 11
19.5127
 21
96.8523
  0
LINE
  8
0
 10
19.5127
 20
96.8523
 11
18.821
 21
97.6369
  0
LINE
  8
0
 10
18.821
 20
97.6369
 11
18.1799
 21
98.4634
  0
LINE
  8
0
 10
18.1799
 20
98.4634
 11
17.5919
 21
99.3285
  0
LINE
  8
0
 10
17.5919
 20
99.3285
 11
17.0595
 21
100.229
  0
LINE
  8
0
 10
17.0595
 20
100.229
 11
16.5846
 21
101.161
  0
LINE
  8
0
 10
16.5846
 20
101.161
 11
16.1692
 21
102.121
  0
LINE
  8
0
 10
16.1692
 20
102.121
 11
15.8149
 21
103.105
  0
LINE
  8
0
 10
15.8149
 20
103.105
 11
15.5231
 21
104.109
  0
LINE
  8
0
 10
15.5231
 20
104.109
 11
15.2949
 21
105.13
  0
LINE
  8
0
 10
15.2949
 20
105.13
 11
15.1313
 21
106.163
  0
LINE
  8
0
 10
15.1313
 20
106.163
 11
15.0329
 21
107.205
  0
LINE
  8
0
 10
15.0329
 20
107.205
 11
15
 21
108.25
  0
LINE
  8
0
 10
15
 20
108.25
 11
15
 21
223.15
  0
LINE
  8
0
 10
15
 20
223.15
 11
15.0329
 21
224.195
  0
LINE
  8
0
 10
15.0329
 20
224.195
 11
15.1313
 21
225.237
  0
LINE
  8
0
 10
15.1313
 20
225.237
 11
15.2949
 21
226.27
  0
LINE
  8
0
 10
15.2949
 20
226.27
 11
15.5231
 21
227.291
  0
LINE
  8
0
 10
15.5231
 20
227.291
 11
15.8149
 21
228.295
  0
LINE
  8
0
 10
15.8149
 20
228.295
 11
16.1692
 21
229.279
  0
LINE
  8
0
 10
16.1692
 20
229.279
 11
16.5846
 21
230.239
  0
LINE
  8
0
 10
16.5846
 20
230.239
 11
17.0595
 21
231.171
  0
LINE
  8
0
 10
17.0595
 20
231.171
 11
17.5919
 21
232.072
  0
LINE
  8
0
 10
17.5919
 20
232.072
 11
18.1799
 21
232.937
  0
LINE
  8
0
 10
18.1799
 20
232.937
 11
18.821
 21
233.763
  0
LINE
  8
0
 10
18.821
 20
233.763
 11
19.5127
 21
234.548
  0
LINE
  8
0
 10
19.5127
 20
234.548
 11
20.2523
 21
235.287
  0
LINE
  8
0
 10
20.2523
 20
235.287
 11
21.0369
 21
235.979
  0
LINE
  8
0
 10
21.0369
 20
235.979
 11
21.8634
 21
236.62
  0
LINE
  8
0
 10
21.8634
 20
236.62
 11
22.7285
 21
237.208
  0
LINE
  8
0
 10
22.7285
 20
237.208
 11
23.6288
 21
237.741
  0
LINE
  8
0
 10
23.6288
 20
237.741
 11
24.5608
 21
238.215
  0
LINE
  8
0
 10
24.5608
 20
238.215
 11
25.5207
 21
238.631
  0
LINE
  8
0
 10
25.5207
 20
238.631
 11
26.5049
 21
238.985
  0
LINE
  8
0
 10
26.5049
 20
238.985
 11
27.5093
 21
239.277
  0
LINE
  8
0
 10
27.5093
 20
239.277
 11
28.5301
 21
239.505
  0
LINE
  8
0
 10
28.5301
 20
239.505
 11
29.5632
 21
239.669
  0
LINE
  8
0
 10
29.5632
 20
239.669
 11
30.6045
 21
239.767
  0
LINE
  8
0
 10
30.6045
 20
239.767
 11
31.65
 21
239.8
  0
LINE
  8
0
 10
31.65
 20
239.8
 11
32.6954
 21
239.767
  0
LINE
  8
0
 10
32.6954
 20
239.767
 11
33.7368
 21
239.669
  0
LINE
  8
0
 10
33.7368
 20
239.669
 11
34.7699
 21
239.505
  0
LINE
  8
0
 10
34.7699
 20
239.505
 11
35.7907
 21
239.277
  0
LINE
  8
0
 10
35.7907
 20
239.277
 11
36.7951
 21
238.985
  0
LINE
  8
0
 10
36.7951
 20
238.985
 11
37.7793
 21
238.631
  0
LINE
  8
0
 10
37.7793
 20
238.631
 11
38.7392
 21
238.215
  0
LINE
  8
0
 10
38.7392
 20
238.215
 11
39.6712
 21
237.741
  0
LINE
  8
0
 10
39.6712
 20
237.741
 11
40.5715
 21
237.208
  0
LINE
  8
0
 10
40.5715
 20
237.208
 11
41.4366
 21
236.62
  0
LINE
  8
0
 10
41.4366
 20
236.62
 11
42.2631
 21
235.979
  0
LINE
  8
0
 10
42.2631
 20
235.979
 11
43.0477
 21
235.287
  0
LINE
  8
0
 10
43.0477
 20
235.287
 11
43.7873
 21
234.548
  0
LINE
  8
0
 10
43.7873
 20
234.548
 11
44.479
 21
233.763
  0
LINE
  8
0
 10
44.479
 20
233.763
 11
45.1201
 21
232.937
  0
LINE
  8
0
 10
45.1201
 20
232.937
 11
45.7081
 21
232.072
  0
LINE
  8
0
 10
45.7081
 20
232.072
 11
46.2405
 21
231.171
  0
LINE
  8
0
 10
46.2405
 20
231.171
 11
46.7154
 21
230.239
  0
LINE
  8
0
 10
46.7154
 20
230.239
 11
47.1308
 21
229.279
  0
LINE
  8
0
 10
47.1308
 20
229.279
 11
47.4851
 21
228.295
  0
LINE
  8
0
 10
47.4851
 20
228.295
 11
47.7769
 21
227.291
  0
LINE
  8
0
 10
47.7769
 20
227.291
 11
48.0051
 21
226.27
  0
LINE
  8
0
 10
48.0051
 20
226.27
 11
48.1687
 21
225.237
  0
LINE
  8
0
 10
48.1687
 20
225.237
 11
48.2671
 21
224.195
  0
LINE
  8
0
 10
48.2671
 20
224.195
 11
48.3
 21
223.15
  0
LINE
  8
0
 10
48.3
 20
223.15
 11
48.3
 21
108.25
  0
LINE
  8
0
 10
48.3
 20
108.25
 11
48.2671
 21
107.205
  0
LINE
  8
0
 10
48.2671
 20
107.205
 11
48.1687
 21
106.163
  0
LINE
  8
0
 10
48.1687
 20
106.163
 11
48.0051
 21
105.13
  0
LINE
  8
0
 10
48.0051
 20
105.13
 11
47.7769
 21
104.109
  0
LINE
  8
0
 10
47.7769
 20
104.109
 11
47.4851
 21
103.105
  0
LINE
  8
0
 10
47.4851
 20
103.105
 11
47.1308
 21
102.121
  0
LINE
  8
0
 10
47.1308
 20
102.121
 11
46.7154
 21
101.161
  0
LINE
  8
0
 10
46.7154
 20
101.161
 11
46.2405
 21
100.229
  0
LINE
  8
0
 10
46.2405
 20
100.229
 11
45.7081
 21
99.3285
  0
LINE
  8
0
 10
45.7081
 20
99.3285
 11
45.1201
 21
98.4634
  0
LINE
  8
0
 10
45.1201
 20
98.4634
 11
44.479
 21
97.6369
  0
LINE
  8
0
 10
44.479
 20
97.6369
 11
43.7873
 21
96.8523
  0
LINE
  8
0
 10
43.7873
 20
96.8523
 11
43.0477
 21
96.1127
  0
LINE
  8
0
 10
43.0477
 20
96.1127
 11
42.2631
 21
95.4209
  0
LINE
  8
0
 10
42.2631
 20
95.4209
 11
41.4366
 21
94.7799
  0
LINE
  8
0
 10
41.4366
 20
94.7799
 11
40.5715
 21
94.1919
  0
LINE
  8
0
 10
40.5715
 20
94.1919
 11
39.6712
 21
93.6595
  0
LINE
  8
0
 10
39.6712
 20
93.6595
 11
38.7392
 21
93.1846
  0
LINE
  8
0
 10
38.7392
 20
93.1846
 11
37.7793
 21
92.7692
  0
LINE
  8
0
 10
37.7793
 20
92.7692
 11
36.7951
 21
92.4149
  0
LINE
  8
0
 10
36.7951
 20
92.4149
 11
35.7907
 21
92.1231
  0
LINE
  8
0
 10
35.7907
 20
92.1231
 11
34.7699
 21
91.8949
  0
LINE
  8
0
 10
34.7699
 20
91.8949
 11
33.7368
 21
91.7313
  0
LINE
  8
0
 10
33.7368
 20
91.7313
 11
32.6954
 21
91.6329
  0
LINE
  8
0
 10
32.6954
 20
91.6329
 11
31.65
 21
91.6
  0
LINE
  8
0
 10
31.65
 20
91.6
 11
30.6045
 21
91.6329
  0
LINE
  8
0
 10
68.9045
 20
15.0329
 11
67.8632
 21
15.1313
  0
LINE
  8
0
 10
67.8632
 20
15.1313
 11
66.8301
 21
15.2949
  0
LINE
  8
0
 10
66.8301
 20
15.2949
 11
65.8093
 21
15.5231
  0
LINE
  8
0
 10
65.8093
 20
15.5231
 11
64.8049
 21
15.8149
  0
LINE
  8
0
 10
64.8049
 20
15.8149
 11
63.8207
 21
16.1692
  0
LINE
  8
0
 10
63.8207
 20
16.1692
 11
62.8608
 21
16.5846
  0
LINE
  8
0
 10
62.8608
 20
16.5846
 11
61.9288
 21
17.0595
  0
LINE
  8
0
 10
61.9288
 20
17.0595
 11
61.0285
 21
17.5919
  0
LINE
  8
0
 10
61.0285
 20
17.5919
 11
60.1634
 21
18.1799
  0
LINE
  8
0
 10
60.1634
 20
18.1799
 11
59.3369
 21
18.821
  0
LINE
  8
0
 10
59.3369
 20
18.821
 11
58.5523
 21
19.5127
  0
LINE
  8
0
 10
58.5523
 20
19.5127
 11
57.8127
 21
20.2523
  0
LINE
  8
0
 10
57.8127
 20
20.2523
 11
57.1209
 21
21.0369
  0
LINE
  8
0
 10
57.1209
 20
21.0369
 11
56.4799
 21
21.8634
  0
LINE
  8
0
 10
56.4799
 20
21.8634
 11
55.8919
 21
22.7285
  0
LINE
  8
0
 10
55.8919
 20
22.7285
 11
55.3595
 21
23.6288
  0
LINE
  8
0
 10
55.3595
 20
23.6288
 11
54.8846
 21
24.5608
  0
LINE
  8
0
 10
54.8846
 20
24.5608
 11
54.4692
 21
25.5207
  0
LINE
  8
0
 10
54.4692
 20
25.5207
 11
54.1149
 21
26.5049
  0
LINE
  8
0
 10
54.1149
 20
26.5049
 11
53.8231
 21
27.5093
  0
LINE
  8
0
 10
53.8231
 20
27.5093
 11
53.5949
 21
28.5301
  0
LINE
  8
0
 10
53.5949
 20
28.5301
 11
53.4313
 21
29.5632
  0
LINE
  8
0
 10
53.4313
 20
29.5632
 11
53.3329
 21
30.6045
  0
LINE
  8
0
 10
53.3329
 20
30.6045
 11
53.3
 21
31.65
  0
LINE
  8
0
 10
53.3
 20
31.65
 11
53.3
 21
146.55
  0
LINE
  8
0
 10
53.3
 20
146.55
 11
53.3329
 21
147.595
  0
LINE
  8
0
 10
53.3329
 20
147.595
 11
53.4313
 21
148.637
  0
LINE
  8
0
 10
53.4313
 20
148.637
 11
53.5949
 21
149.67
  0
LINE
  8
0
 10
53.5949
 20
149.67
 11
53.8231
 21
150.691
  0
LINE
  8
0
 10
53.8231
 20
150.691
 11
54.1149
 21
151.695
  0
LINE
  8
0
 10
54.1149
 20
151.695
 11
54.4692
 21
152.679
  0
LINE
  8
0
 10
54.4692
 20
152.679
 11
54.8846
 21
153.639
  0
LINE
  8
0
 10
54.8846
 20
153.639
 11
55.3595
 21
154.571
  0
LINE
  8
0
 10
55.3595
 20
154.571
 11
55.8919
 21
155.472
  0
LINE
  8
0
 10
55.8919
 20
155.472
 11
56.4799
 21
156.337
  0
LINE
  8
0
 10
56.4799
 20
156.337
 11
57.1209
 21
157.163
  0
LINE
  8
0
 10
57.1209
 20
157.163
 11
57.8127
 21
157.948
  0
LINE
  8
0
 10
57.8127
 20
157.948
 11
58.5523
 21
158.687
  0
LINE
  8
0
 10
58.5523
 20
158.687
 11
59.3369
 21
159.379
  0
LINE
  8
0
 10
59.3369
 20
159.379
 11
60.1634
 21
160.02
  0
LINE
  8
0
 10
60.1634
 20
160.02
 11
61.0285
 21
160.608
  0
LINE
  8
0
 10
61.0285
 20
160.608
 11
61.9288
 21
161.141
  0
LINE
  8
0
 10
61.9288
 20
161.141
 11
62.8608
 21
161.615
  0
LINE
  8
0
 10
62.8608
 20
161.615
 11
63.8207
 21
162.031
  0
LINE
  8
0
 10
63.8207
 20
162.031
 11
64.8049
 21
162.385
  0
LINE
  8
0
 10
64.8049
 20
162.385
 11
65.8093
 21
162.677
  0
LINE
  8
0
 10
65.8093
 20
162.677
 11
66.8301
 21
162.905
  0
LINE
  8
0
 10
66.8301
 20
162.905
 11
67.8632
 21
163.069
  0
LINE
  8
0
 10
67.8632
 20
163.069
 11
68.9045
 21
163.167
  0
LINE
  8
0
 10
68.9045
 20
163.167
 11
69.95
 21
163.2
  0
LINE
  8
0
 10
69.95
 20
163.2
 11
70.9955
 21
163.167
  0
LINE
  8
0
 10
70.9955
 20
163.167
 11
72.0368
 21
163.069
  0
LINE
  8
0
 10
72.0368
 20
163.069
 11
73.0699
 21
162.905
  0
LINE
  8
0
 10
73.0699
 20
162.905
 11
74.0907
 21
162.677
  0
LINE
  8
0
 10
74.0907
 20
162.677
 11
75.0951
 21
162.385
  0
LINE
  8
0
 10
75.0951
 20
162.385
 11
76.0793
 21
162.031
  0
LINE
  8
0
 10
76.0793
 20
162.031
 11
77.0392
 21
161.615
  0
LINE
  8
0
 10
77.0392
 20
161.615
 11
77.9712
 21
161.141
  0
LINE
  8
0
 10
77.9712
 20
161.141
 11
78.8715
 21
160.608
  0
LINE
  8
0
 10
78.8715
 20
160.608
 11
79.7366
 21
160.02
  0
LINE
  8
0
 10
79.7366
 20
160.02
 11
80.5631
 21
159.379
  0
LINE
  8
0
 10
80.5631
 20
159.379
 11
81.3477
 21
158.687
  0
LINE
  8
0
 10
81.3477
 20
158.687
 11
82.0873
 21
157.948
  0
LINE
  8
0
 10
82.0873
 20
157.948
 11
82.779
 21
157.163
  0
LINE
  8
0
 10
82.779
 20
157.163
 11
83.4201
 21
156.337
  0
LINE
  8
0
 10
83.4201
 20
156.337
 11
84.0081
 21
155.472
  0
LINE
  8
0
 10
84.0081
 20
155.472
 11
84.5405
 21
154.571
  0
LINE
  8
0
 10
84.5405
 20
154.571
 11
85.0154
 21
153.639
  0
LINE
  8
0
 10
85.0154
 20
153.639
 11
85.4308
 21
152.679
  0
LINE
  8
0
 10
85.4308
 20
152.679
 11
85.7851
 21
151.695
  0
LINE
  8
0
 10
85.7851
 20
151.695
 11
86.0769
 21
150.691
  0
LINE
  8
0
 10
86.0769
 20
150.691
 11
86.3051
 21
149.67
  0
LINE
  8
0
 10
86.3051
 20
149.67
 11
86.4687
 21
148.637
  0
LINE
  8
0
 10
86.4687
 20
148.637
 11
86.5671
 21
147.595
  0
LINE
  8
0
 10
86.5671
 20
147.595
 11
86.6
 21
146.55
  0
LINE
  8
0
 10
86.6
 20
146.55
 11
86.6
 21
31.65
  0
LINE
  8
0
 10
86.6
 20
31.65
 11
86.5671
 21
30.6045
  0
LINE
  8
0
 10
86.5671
 20
30.6045
 11
86.4687
 21
29.5632
  0
LINE
  8
0
 10
86.4687
 20
29.5632
 11
86.3051
 21
28.5301
  0
LINE
  8
0
 10
86.3051
 20
28.5301
 11
86.0769
 21
27.5093
  0
LINE
  8
0
 10
86.0769
 20
27.5093
 11
85.7851
 21
26.5049
  0
LINE
  8
0
 10
85.7851
 20
26.5049
 11
85.4308
 21
25.5207
  0
LINE
  8
0
 10
85.4308
 20
25.5207
 11
85.0154
 21
24.5608
  0
LINE
  8
0
 10
85.0154
 20
24.5608
 11
84.5405
 21
23.6288
  0
LINE
  8
0
 10
84.5405
 20
23.6288
 11
84.0081
 21
22.7285
  0
LINE
  8
0
 10
84.0081
 20
22.7285
 11
83.4201
 21
21.8634
  0
LINE
  8
0
 10
83.4201
 20
21.8634
 11
82.779
 21
21.0369
  0
LINE
  8
0
 10
82.779
 20
21.0369
 11
82.0873
 21
20.2523
  0
LINE
  8
0
 10
82.0873
 20
20.2523
 11
81.3477
 21
19.5127
  0
LINE
  8
0
 10
81.3477
 20
19.5127
 11
80.5631
 21
18.821
  0
LINE
  8
0
 10
80.5631
 20
18.821
 11
79.7366
 21
18.1799
  0
LINE
  8
0
 10
79.7366
 20
18.1799
 11
78.8715
 21
17.5919
  0
LINE
  8
0
 10
78.8715
 20
17.5919
 11
77.9712
 21
17.0595
  0
LINE
  8
0
 10
77.9712
 20
17.0595
 11
77.0392
 21
16.5846
  0
LINE
  8
0
 10
77.0392
 20
16.5846
 11
76.0793
 21
16.1692
  0
LINE
  8
0
 10
76.0793
 20
16.1692
 11
75.0951
 21
15.8149
  0
LINE
  8
0
 10
75.0951
 20
15.8149
 11
74.0907
 21
15.5231
  0
LINE
  8
0
 10
74.0907
 20
15.5231
 11
73.0699
 21
15.2949
  0
LINE
  8
0
 10
73.0699
 20
15.2949
 11
72.0368
 21
15.1313
  0
LINE
  8
0
 10
72.0368
 20
15.1313
 11
70.9955
 21
15.0329
  0
LINE
  8
0
 10
70.9955
 20
15.0329
 11
69.95
 21
15
  0
LINE
  8
0
 10
69.95
 20
15
 11
68.9045
 21
15.0329
  0
LINE
  8
0
 10
222.105
 20
15.0329
 11
221.063
 21
15.1313
  0
LINE
  8
0
 10
221.063
 20
15.1313
 11
220.03
 21
15.2949
  0
LINE
  8
0
 10
220.03
 20
15.2949
 11
219.009
 21
15.5231
  0
LINE
  8
0
 10
219.009
 20
15.5231
 11
218.005
 21
15.8149
  0
LINE
  8
0
 10
218.005
 20
15.8149
 11
217.021
 21
16.1692
  0
LINE
  8
0
 10
217.021
 20
16.1692
 11
216.061
 21
16.5846
  0
LINE
  8
0
 10
216.061
 20
16.5846
 11
215.129
 21
17.0595
  0
LINE
  8
0
 10
215.129
 20
17.0595
 11
214.228
 21
17.5919
  0
LINE
  8
0
 10
214.228
 20
17.5919
 11
213.363
 21
18.1799
  0
LINE
  8
0
 10
213.363
 20
18.1799
 11
212.537
 21
18.821
  0
LINE
  8
0
 10
212.537
 20
18.821
 11
211.752
 21
19.5127
  0
LINE
  8
0
 10
211.752
 20
19.5127
 11
211.013
 21
20.2523
  0
LINE
  8
0
 10
211.013
 20
20.2523
 11
210.321
 21
21.0369
  0
LINE
  8
0
 10
210.321
 20
21.0369
 11
209.68
 21
21.8634
  0
LINE
  8
0
 10
209.68
 20
21.8634
 11
209.092
 21
22.7285
  0
LINE
  8
0
 10
209.092
 20
22.7285
 11
208.559
 21
23.6288
  0
LINE
  8
0
 10
208.559
 20
23.6288
 11
208.085
 21
24.5608
  0
LINE
  8
0
 10
208.085
 20
24.5608
 11
207.669
 21
25.5207
  0
LINE
  8
0
 10
207.669
 20
25.5207
 11
207.315
 21
26.5049
  0
LINE
  8
0
 10
207.315
 20
26.5049
 11
207.023
 21
27.5093
  0
LINE
  8
0
 10
207.023
 20
27.5093
 11
206.795
 21
28.5301
  0
LINE
  8
0
 10
206.795
 20
28.5301
 11
206.631
 21
29.5632
  0
LINE
  8
0
 10
206.631
 20
29.5632
 11
206.533
 21
30.6045
  0
LINE
  8
0
 10
206.533
 20
30.6045
 11
206.5
 21
31.65
  0
LINE
  8
0
 10
206.5
 20
31.65
 11
206.5
 21
146.55
  0
LINE
  8
0
 10
206.5
 20
146.55
 11
206.533
 21
147.595
  0
LINE
  8
0
 10
206.533
 20
147.595
 11
206.631
 21
148.637
  0
LINE
  8
0
 10
206.631
 20
148.637
 11
206.795
 21
149.67
  0
LINE
  8
0
 10
206.795
 20
149.67
 11
207.023
 21
150.691
  0
LINE
  8
0
 10
207.023
 20
150.691
 11
207.315
 21
151.695
  0
LINE
  8
0
 10
207.315
 20
151.695
 11
207.669
 21
152.679
  0
LINE
  8
0
 10
207.669
 20
152.679
 11
208.085
 21
153.639
  0
LINE
  8
0
 10
208.085
 20
153.639
 11
208.559
 21
154.571
  0
LINE
  8
0
 10
208.559
 20
154.571
 11
209.092
 21
155.472
  0
LINE
  8
0
 10
209.092
 20
155.472
 11
209.68
 21
156.337
  0
LINE
  8
0
 10
209.68
 20
156.337
 11
210.321
 21
157.163
  0
LINE
  8
0
 10
210.321
 20
157.163
 11
211.013
 21
157.948
  0
LINE
  8
0
 10
211.013
 20
157.948
 11
211.752
 21
158.687
  0
LINE
  8
0
 10
211.752
 20
158.687
 11
212.537
 21
159.379
  0
LINE
  8
0
 10
212.537
 20
159.379
 11
213.363
 21
160.02
  0
LINE
  8
0
 10
213.363
 20
160.02
 11
214.228
 21
160.608
  0
LINE
  8
0
 10
214.228
 20
160.608
 11
215.129
 21
161.141
  0
LINE
  8
0
 10
215.129
 20
161.141
 11
216.061
 21
161.615
  0
LINE
  8
0
 10
216.061
 20
161.615
 11
217.021
 21
162.031
  0
LINE
  8
0
 10
217.021
 20
162.031
 11
218.005
 21
162.385
  0
LINE
  8
0
 10
218.005
 20
162.385
 11
219.009
 21
162.677
  0
LINE
  8
0
 10
219.009
 20
162.677
 11
220.03
 21
162.905
  0
LINE
  8
0
 10
220.03
 20
162.905
 11
221.063
 21
163.069
  0
LINE
  8
0
 10
221.063
 20
163.069
 11
222.105
 21
163.167
  0
LINE
  8
0
 10
222.105
 20
163.167
 11
223.15
 21
163.2
  0
LINE
  8
0
 10
223.15
 20
163.2
 11
224.195
 21
163.167
  0
LINE
  8
0
 10
224.195
 20
163.167
 11
225.237
 21
163.069
  0
LINE
  8
0
 10
225.237
 20
163.069
 11
226.27
 21
162.905
  0
LINE
  8
0
 10
226.27
 20
162.905
 11
227.291
 21
162.677
  0
LINE
  8
0
 10
227.291
 20
162.677
 11
228.295
 21
162.385
  0
LINE
  8
0
 10
228.295
 20
162.385
 11
229.279
 21
162.031
  0
LINE
  8
0
 10
229.279
 20
162.031
 11
230.239
 21
161.615
  0
LINE
  8
0
 10
230.239
 20
161.615
 11
231.171
 21
161.141
  0
LINE
  8
0
 10
231.171
 20
161.141
 11
232.072
 21
160.608
  0
LINE
  8
0
 10
232.072
 20
160.608
 11
232.937
 21
160.02
  0
LINE
  8
0
 10
232.937
 20
160.02
 11
233.763
 21
159.379
  0
LINE
  8
0
 10
233.763
 20
159.379
 11
234.548
 21
158.687
  0
LINE
  8
0
 10
234.548
 20
158.687
 11
235.287
 21
157.948
  0
LINE
  8
0
 10
235.287
 20
157.948
 11
235.979
 21
157.163
  0
LINE
  8
0
 10
235.979
 20
157.163
 11
236.62
 21
156.337
  0
LINE
  8
0
 10
236.62
 20
156.337
 11
237.208
 21
155.472
  0
LINE
  8
0
 10
237.208
 20
155.472
 11
237.741
 21
154.571
  0
LINE
  8
0
 10
237.741
 20
154.571
 11
238.215
 21
153.639
  0
LINE
  8
0
 10
238.215
 20
153.639
 11
238.631
 21
152.679
  0
LINE
  8
0
 10
238.631
 20
152.679
 11
238.985
 21
151.695
  0
LINE
  8
0
 10
238.985
 20
151.695
 11
239.277
 21
150.691
  0
LINE
  8
0
 10
239.277
 20
150.691
 11
239.505
 21
149.67
  0
LINE
  8
0
 10
239.505
 20
149.67
 11
239.669
 21
148.637
  0
LINE
  8
0
 10
239.669
 20
148.637
 11
239.767
 21
147.595
  0
LINE
  8
0
 10
239.767
 20
147.595
 11
239.8
 21
146.55
  0
LINE
  8
0
 10
239.8
 20
146.55
 11
239.8
 21
31.65
  0
LINE
  8
0
 10
239.8
 20
31.65
 11
239.767
 21
30.6045
  0
LINE
  8
0
 10
239.767
 20
30.6045
 11
239.669
 21
29.5632
  0
LINE
  8
0
 10
239.669
 20
29.5632
 11
239.505
 21
28.5301
  0
LINE
  8
0
 10
239.505
 20
28.5301
 11
239.277
 21
27.5093
  0
LINE
  8
0
 10
239.277
 20
27.5093
 11
238.985
 21
26.5049
  0
LINE
  8
0
 10
238.985
 20
26.5049
 11
238.631
 21
25.5207
  0
LINE
  8
0
 10
238.631
 20
25.5207
 11
238.215
 21
24.5608
  0
LINE
  8
0
 10
238.215
 20
24.5608
 11
237.741
 21
23.6288
  0
LINE
  8
0
 10
237.741
 20
23.6288
 11
237.208
 21
22.7285
  0
LINE
  8
0
 10
237.208
 20
22.7285
 11
236.62
 21
21.8634
  0
LINE
  8
0
 10
236.62
 20
21.8634
 11
235.979
 21
21.0369
  0
LINE
  8
0
 10
235.979
 20
21.0369
 11
235.287
 21
20.2523
  0
LINE
  8
0
 10
235.287
 20
20.2523
 11
234.548
 21
19.5127
  0
LINE
  8
0
 10
234.548
 20
19.5127
 11
233.763
 21
18.821
  0
LINE
  8
0
 10
233.763
 20
18.821
 11
232.937
 21
18.1799
  0
LINE
  8
0
 10
232.937
 20
18.1799
 11
232.072
 21
17.5919
  0
LINE
  8
0
 10
232.072
 20
17.5919
 11
231.171
 21
17.0595
  0
LINE
  8
0
 10
231.171
 20
17.0595
 11
230.239
 21
16.5846
  0
LINE
  8
0
 10
230.239
 20
16.5846
 11
229.279
 21
16.1692
  0
LINE
  8
0
 10
229.279
 20
16.1692
 11
228.295
 21
15.8149
  0
LINE
  8
0
 10
228.295
 20
15.8149
 11
227.291
 21
15.5231
  0
LINE
  8
0
 10
227.291
 20
15.5231
 11
226.27
 21
15.2949
  0
LINE
  8
0
 10
226.27
 20
15.2949
 11
225.237
 21
15.1313
  0
LINE
  8
0
 10
225.237
 20
15.1313
 11
224.195
 21
15.0329
  0
LINE
  8
0
 10
224.195
 20
15.0329
 11
223.15
 21
15
  0
LINE
  8
0
 10
223.15
 20
15
 11
222.105
 21
15.0329
  0
LINE
  8
0
 10
145.505
 20
15.0329
 11
144.463
 21
15.1313
  0
LINE
  8
0
 10
144.463
 20
15.1313
 11
143.43
 21
15.2949
  0
LINE
  8
0
 10
143.43
 20
15.2949
 11
142.409
 21
15.5231
  0
LINE
  8
0
 10
142.409
 20
15.5231
 11
141.405
 21
15.8149
  0
LINE
  8
0
 10
141.405
 20
15.8149
 11
140.421
 21
16.1692
  0
LINE
  8
0
 10
140.421
 20
16.1692
 11
139.461
 21
16.5846
  0
LINE
  8
0
 10
139.461
 20
16.5846
 11
138.529
 21
17.0595
  0
LINE
  8
0
 10
138.529
 20
17.0595
 11
137.628
 21
17.5919
  0
LINE
  8
0
 10
137.628
 20
17.5919
 11
136.763
 21
18.1799
  0
LINE
  8
0
 10
136.763
 20
18.1799
 11
135.937
 21
18.821
  0
LINE
  8
0
 10
135.937
 20
18.821
 11
135.152
 21
19.5127
  0
LINE
  8
0
 10
135.152
 20
19.5127
 11
134.413
 21
20.2523
  0
LINE
  8
0
 10
134.413
 20
20.2523
 11
133.721
 21
21.0369
  0
LINE
  8
0
 10
133.721
 20
21.0369
 11
133.08
 21
21.8634
  0
LINE
  8
0
 10
133.08
 20
21.8634
 11
132.492
 21
22.7285
  0
LINE
  8
0
 10
132.492
 20
22.7285
 11
131.959
 21
23.6288
  0
LINE
  8
0
 10
131.959
 20
23.6288
 11
131.485
 21
24.5608
  0
LINE
  8
0
 10
131.485
 20
24.5608
 11
131.069
 21
25.5207
  0
LINE
  8
0
 10
131.069
 20
25.5207
 11
130.715
 21
26.5049
  0
LINE
  8
0
 10
130.715
 20
26.5049
 11
130.423
 21
27.5093
  0
LINE
  8
0
 10
130.423
 20
27.5093
 11
130.195
 21
28.5301
  0
LINE
  8
0
 10
130.195
 20
28.5301
 11
130.031
 21
29.5632
  0
LINE
  8
0
 10
130.031
 20
29.5632
 11
129.933
 21
30.6045
  0
LINE
  8
0
 10
129.933
 20
30.6045
 11
129.9
 21
31.65
  0
LINE
  8
0
 10
129.9
 20
31.65
 11
129.9
 21
146.55
  0
LINE
  8
0
 10
129.9
 20
146.55
 11
129.933
 21
147.595
  0
LINE
  8
0
 10
129.933
 20
147.595
 11
130.031
 21
148.637
  0
LINE
  8
0
 10
130.031
 20
148.637
 11
130.195
 21
149.67
  0
LINE
  8
0
 10
130.195
 20
149.67
 11
130.423
 21
150.691
  0
LINE
  8
0
 10
130.423
 20
150.691
 11
130.715
 21
151.695
  0
LINE
  8
0
 10
130.715
 20
151.695
 11
131.069
 21
152.679
  0
LINE
  8
0
 10
131.069
 20
152.679
 11
131.485
 21
153.639
  0
LINE
  8
0
 10
131.485
 20
153.639
 11
131.959
 21
154.571
  0
LINE
  8
0
 10
131.959
 20
154.571
 11
132.492
 21
155.472
  0
LINE
  8
0
 10
132.492
 20
155.472
 11
133.08
 21
156.337
  0
LINE
  8
0
 10
133.08
 20
156.337
 11
133.721
 21
157.163
  0
LINE
  8
0
 10
133.721
 20
157.163
 11
134.413
 21
157.948
  0
LINE
  8
0
 10
134.413
 20
157.948
 11
135.152
 21
158.687
  0
LINE
  8
0
 10
135.152
 20
158.687
 11
135.937
 21
159.379
  0
LINE
  8
0
 10
135.937
 20
159.379
 11
136.763
 21
160.02
  0
LINE
  8
0
 10
136.763
 20
160.02
 11
137.628
 21
160.608
  0
LINE
  8
0
 10
137.628
 20
160.608
 11
138.529
 21
161.141
  0
LINE
  8
0
 10
138.529
 20
161.141
 11
139.461
 21
161.615
  0
LINE
  8
0
 10
139.461
 20
161.615
 11
140.421
 21
162.031
  0
LINE
  8
0
 10
140.421
 20
162.031
 11
141.405
 21
162.385
  0
LINE
  8
0
 10
141.405
 20
162.385
 11
142.409
 21
162.677
  0
LINE
  8
0
 10
142.409
 20
162.677
 11
143.43
 21
162.905
  0
LINE
  8
0
 10
143.43
 20
162.905
 11
144.463
 21
163.069
  0
LINE
  8
0
 10
144.463
 20
163.069
 11
145.505
 21
163.167
  0
LINE
  8
0
 10
145.505
 20
163.167
 11
146.55
 21
163.2
  0
LINE
  8
0
 10
146.55
 20
163.2
 11
147.595
 21
163.167
  0
LINE
  8
0
 10
147.595
 20
163.167
 11
148.637
 21
163.069
  0
LINE
  8
0
 10
148.637
 20
163.069
 11
149.67
 21
162.905
  0
LINE
  8
0
 10
149.67
 20
162.905
 11
150.691
 21
162.677
  0
LINE
  8
0
 10
150.691
 20
162.677
 11
151.695
 21
162.385
  0
LINE
  8
0
 10
151.695
 20
162.385
 11
152.679
 21
162.031
  0
LINE
  8
0
 10
152.679
 20
162.031
 11
153.639
 21
161.615
  0
LINE
  8
0
 10
153.639
 20
161.615
 11
154.571
 21
161.141
  0
LINE
  8
0
 10
154.571
 20
161.141
 11
155.472
 21
160.608
  0
LINE
  8
0
 10
155.472
 20
160.608
 11
156.337
 21
160.02
  0
LINE
  8
0
 10
156.337
 20
160.02
 11
157.163
 21
159.379
  0
LINE
  8
0
 10
157.163
 20
159.379
 11
157.948
 21
158.687
  0
LINE
  8
0
 10
157.948
 20
158.687
 11
158.687
 21
157.948
  0
LINE
  8
0
 10
158.687
 20
157.948
 11
159.379
 21
157.163
  0
LINE
  8
0
 10
159.379
 20
157.163
 11
160.02
 21
156.337
  0
LINE
  8
0
 10
160.02
 20
156.337
 11
160.608
 21
155.472
  0
LINE
  8
0
 10
160.608
 20
155.472
 11
161.141
 21
154.571
  0
LINE
  8
0
 10
161.141
 20
154.571
 11
161.615
 21
153.639
  0
LINE
  8
0
 10
161.615
 20
153.639
 11
162.031
 21
152.679
  0
LINE
  8
0
 10
162.031
 20
152.679
 11
162.385
 21
151.695
  0
LINE
  8
0
 10
162.385
 20
151.695
 11
162.677
 21
150.691
  0
LINE
  8
0
 10
162.677
 20
150.691
 11
162.905
 21
149.67
  0
LINE
  8
0
 10
162.905
 20
149.67
 11
163.069
 21
148.637
  0
LINE
  8
0
 10
163.069
 20
148.637
 11
163.167
 21
147.595
  0
LINE
  8
0
 10
163.167
 20
147.595
 11
163.2
 21
146.55
  0
LINE
  8
0
 10
163.2
 20
146.55
 11
163.2
 21
31.65
  0
LINE
  8
0
 10
163.2
 20
31.65
 11
163.167
 21
30.6045
  0
LINE
  8
0
 10
163.167
 20
30.6045
 11
163.069
 21
29.5632
  0
LINE
  8
0
 10
163.069
 20
29.5632
 11
162.905
 21
28.5301
  0
LINE
  8
0
 10
162.905
 20
28.5301
 11
162.677
 21
27.5093
  0
LINE
  8
0
 10
162.677
 20
27.5093
 11
162.385
 21
26.5049
  0
LINE
  8
0
 10
162.385
 20
26.5049
 11
162.031
 21
25.5207
  0
LINE
  8
0
 10
162.031
 20
25.5207
 11
161.615
 21
24.5608
  0
LINE
  8
0
 10
161.615
 20
24.5608
 11
161.141
 21
23.6288
  0
LINE
  8
0
 10
161.141
 20
23.6288
 11
160.608
 21
22.7285
  0
LINE
  8
0
 10
160.608
 20
22.7285
 11
160.02
 21
21.8634
  0
LINE
  8
0
 10
160.02
 20
21.8634
 11
159.379
 21
21.0369
  0
LINE
  8
0
 10
159.379
 20
21.0369
 11
158.687
 21
20.2523
  0
LINE
  8
0
 10
158.687
 20
20.2523
 11
157.948
 21
19.5127
  0
LINE
  8
0
 10
157.948
 20
19.5127
 11
157.163
 21
18.821
  0
LINE
  8
0
 10
157.163
 20
18.821
 11
156.337
 21
18.1799
  0
LINE
  8
0
 10
156.337
 20
18.1799
 11
155.472
 21
17.5919
  0
LINE
  8
0
 10
155.472
 20
17.5919
 11
154.571
 21
17.0595
  0
LINE
  8
0
 10
154.571
 20
17.0595
 11
153.639
 21
16.5846
  0
LINE
  8
0
 10
153.639
 20
16.5846
 11
152.679
 21
16.1692
  0
LINE
  8
0
 10
152.679
 20
16.1692
 11
151.695
 21
15.8149
  0
LINE
  8
0
 10
151.695
 20
15.8149
 11
150.691
 21
15.5231
  0
LINE
  8
0
 10
150.691
 20
15.5231
 11
149.67
 21
15.2949
  0
LINE
  8
0
 10
149.67
 20
15.2949
 11
148.637
 21
15.1313
  0
LINE
  8
0
 10
148.637
 20
15.1313
 11
147.595
 21
15.0329
  0
LINE
  8
0
 10
147.595
 20
15.0329
 11
146.55
 21
15
  0
LINE
  8
0
 10
146.55
 20
15
 11
145.505
 21
15.0329
  0
LINE
  8
0
 10
30.6045
 20
15.0329
 11
29.5632
 21
15.1313
  0
LINE
  8
0
 10
29.5632
 20
15.1313
 11
28.5301
 21
15.2949
  0
LINE
  8
0
 10
28.5301
 20
15.2949
 11
27.5093
 21
15.5231
  0
LINE
  8
0
 10
27.5093
 20
15.5231
 11
26.5049
 21
15.8149
  0
LINE
  8
0
 10
26.5049
 20
15.8149
 11
25.5207
 21
16.1692
  0
LINE
  8
0
 10
25.5207
 20
16.1692
 11
24.5608
 21
16.5846
  0
LINE
  8
0
 10
24.5608
 20
16.5846
 11
23.6288
 21
17.0595
  0
LINE
  8
0
 10
23.6288
 20
17.0595
 11
22.7285
 21
17.5919
  0
LINE
  8
0
 10
22.7285
 20
17.5919
 11
21.8634
 21
18.1799
  0
LINE
  8
0
 10
21.8634
 20
18.1799
 11
21.0369
 21
18.821
  0
LINE
  8
0
 10
21.0369
 20
18.821
 11
20.2523
 21
19.5127
  0
LINE
  8
0
 10
20.2523
 20
19.5127
 11
19.5127
 21
20.2523
  0
LINE
  8
0
 10
19.5127
 20
20.2523
 11
18.821
 21
21.0369
  0
LINE
  8
0
 10
18.821
 20
21.0369
 11
18.1799
 21
21.8634
  0
LINE
  8
0
 10
18.1799
 20
21.8634
 11
17.5919
 21
22.7285
  0
LINE
  8
0
 10
17.5919
 20
22.7285
 11
17.0595
 21
23.6288
  0
LINE
  8
0
 10
17.0595
 20
23.6288
 11
16.5846
 21
24.5608
  0
LINE
  8
0
 10
16.5846
 20
24.5608
 11
16.1692
 21
25.5207
  0
LINE
  8
0
 10
16.1692
 20
25.5207
 11
15.8149
 21
26.5049
  0
LINE
  8
0
 10
15.8149
 20
26.5049
 11
15.5231
 21
27.5093
  0
LINE
  8
0
 10
15.5231
 20
27.5093
 11
15.2949
 21
28.5301
  0
LINE
  8
0
 10
15.2949
 20
28.5301
 11
15.1313
 21
29.5632
  0
LINE
  8
0
 10
15.1313
 20
29.5632
 11
15.0329
 21
30.6045
  0
LINE
  8
0
 10
15.0329
 20
30.6045
 11
15
 21
31.65
  0
LINE
  8
0
 10
15
 20
31.65
 11
15
 21
69.95
  0
LINE
  8
0
 10
15
 20
69.95
 11
15.0329
 21
70.9955
  0
LINE
  8
0
 10
15.0329
 20
70.9955
 11
15.1313
 21
72.0368
  0
LINE
  8
0
 10
15.1313
 20
72.0368
 11
15.2949
 21
73.0699
  0
LINE
  8
0
 10
15.2949
 20
73.0699
 11
15.5231
 21
74.0907
  0
LINE
  8
0
 10
15.5231
 20
74.0907
 11
15.8149
 21
75.0951
  0
LINE
  8
0
 10
15.8149
 20
75.0951
 11
16.1692
 21
76.0793
  0
LINE
  8
0
 10
16.1692
 20
76.0793
 11
16.5846
 21
77.0392
  0
LINE
  8
0
 10
16.5846
 20
77.0392
 11
17.0595
 21
77.9712
  0
LINE
  8
0
 10
17.0595
 20
77.9712
 11
17.5919
 21
78.8715
  0
LINE
  8
0
 10
17.5919
 20
78.8715
 11
18.1799
 21
79.7366
  0
LINE
  8
0
 10
18.1799
 20
79.7366
 11
18.821
 21
80.5631
  0
LINE
  8
0
 10
18.821
 20
80.5631
 11
19.5127
 21
81.3477
  0
LINE
  8
0
 10
19.5127
 20
81.3477
 11
20.2523
 21
82.0873
  0
LINE
  8
0
 10
20.2523
 20
82.0873
 11
21.0369
 21
82.779
  0
LINE
  8
0
 10
21.0369
 20
82.779
 11
21.8634
 21
83.4201
  0
LINE
  8
0
 10
21.8634
 20
83.4201
 11
22.7285
 21
84.0081
  0
LINE
  8
0
 10
22.7285
 20
84.0081
 11
23.6288
 21
84.5405
  0
LINE
  8
0
 10
23.6288
 20
84.5405
 11
24.5608
 21
85.0154
  0
LINE
  8
0
 10
24.5608
 20
85.0154
 11
25.5207
 21
85.4308
  0
LINE
  8
0
 10
25.5207
 20
85.4308
 11
26.5049
 21
85.7851
  0
LINE
  8
0
 10
26.5049
 20
85.7851
 11
27.5093
 21
86.0769
  0
LINE
  8
0
 10
27.5093
 20
86.0769
 11
28.5301
 21
86.3051
  0
LINE
  8
0
 10
28.5301
 20
86.3051
 11
29.5632
 21
86.4687
  0
LINE
  8
0
 10
29.5632
 20
86.4687
 11
30.6045
 21
86.5671
  0
LINE
  8
0
 10
30.6045
 20
86.5671
 11
31.65
 21
86.6
  0
LINE
  8
0
 10
31.65
 20
86.6
 11
32.6954
 21
86.5671
  0
LINE
  8
0
 10
32.6954
 20
86.5671
 11
33.7368
 21
86.4687
  0
LINE
  8
0
 10
33.7368
 20
86.4687
 11
34.7699
 21
86.3051
  0
LINE
  8
0
 10
34.7699
 20
86.3051
 11
35.7907
 21
86.0769
  0
LINE
  8
0
 10
35.7907
 20
86.0769
 11
36.7951
 21
85.7851
  0
LINE
  8
0
 10
36.7951
 20
85.7851
 11
37.7793
 21
85.4308
  0
LINE
  8
0
 10
37.7793
 20
85.4308
 11
38.7392
 21
85.0154
  0
LINE
  8
0
 10
38.7392
 20
85.0154
 11
39.6712
 21
84.5405
  0
LINE
  8
0
 10
39.6712
 20
84.5405
 11
40.5715
 21
84.0081
  0
LINE
  8
0
 10
40.5715
 20
84.0081
 11
41.4366
 21
83.4201
  0
LINE
  8
0
 10
41.4366
 20
83.4201
 11
42.2631
 21
82.779
  0
LINE
  8
0
 10
42.2631
 20
82.779
 11
43.0477
 21
82.0873
  0
LINE
  8
0
 10
43.0477
 20
82.0873
 11
43.7873
 21
81.3477
  0
LINE
  8
0
 10
43.7873
 20
81.3477
 11
44.479
 21
80.5631
  0
LINE
  8
0
 10
44.479
 20
80.5631
 11
45.1201
 21
79.7366
  0
LINE
  8
0
 10
45.1201
 20
79.7366
 11
45.7081
 21
78.8715
  0
LINE
  8
0
 10
45.7081
 20
78.8715
 11
46.2405
 21
77.9712
  0
LINE
  8
0
 10
46.2405
 20
77.9712
 11
46.7154
 21
77.0392
  0
LINE
  8
0
 10
46.7154
 20
77.0392
 11
47.1308
 21
76.0793
  0
LINE
  8
0
 10
47.1308
 20
76.0793
 11
47.4851
 21
75.0951
  0
LINE
  8
0
 10
47.4851
 20
75.0951
 11
47.7769
 21
74.0907
  0
LINE
  8
0
 10
47.7769
 20
74.0907
 11
48.0051
 21
73.0699
  0
LINE
  8
0
 10
48.0051
 20
73.0699
 11
48.1687
 21
72.0368
  0
LINE
  8
0
 10
48.1687
 20
72.0368
 11
48.2671
 21
70.9955
  0
LINE
  8
0
 10
48.2671
 20
70.9955
 11
48.3
 21
69.95
  0
LINE
  8
0
 10
48.3
 20
69.95
 11
48.3
 21
31.65
  0
LINE
  8
0
 10
48.3
 20
31.65
 11
48.2671
 21
30.6045
  0
LINE
  8
0
 10
48.2671
 20
30.6045
 11
48.1687
 21
29.5632
  0
LINE
  8
0
 10
48.1687
 20
29.5632
 11
48.0051
 21
28.5301
  0
LINE
  8
0
 10
48.0051
 20
28.5301
 11
47.7769
 21
27.5093
  0
LINE
  8
0
 10
47.7769
 20
27.5093
 11
47.4851
 21
26.5049
  0
LINE
  8
0
 10
47.4851
 20
26.5049
 11
47.1308
 21
25.5207
  0
LINE
  8
0
 10
47.1308
 20
25.5207
 11
46.7154
 21
24.5608
  0
LINE
  8
0
 10
46.7154
 20
24.5608
 11
46.2405
 21
23.6288
  0
LINE
  8
0
 10
46.2405
 20
23.6288
 11
45.7081
 21
22.7285
  0
LINE
  8
0
 10
45.7081
 20
22.7285
 11
45.1201
 21
21.8634
  0
LINE
  8
0
 10
45.1201
 20
21.8634
 11
44.479
 21
21.0369
  0
LINE
  8
0
 10
44.479
 20
21.0369
 11
43.7873
 21
20.2523
  0
LINE
  8
0
 10
43.7873
 20
20.2523
 11
43.0477
 21
19.5127
  0
LINE
  8
0
 10
43.0477
 20
19.5127
 11
42.2631
 21
18.821
  0
LINE
  8
0
 10
42.2631
 20
18.821
 11
41.4366
 21
18.1799
  0
LINE
  8
0
 10
41.4366
 20
18.1799
 11
40.5715
 21
17.5919
  0
LINE
  8
0
 10
40.5715
 20
17.5919
 11
39.6712
 21
17.0595
  0
LINE
  8
0
 10
39.6712
 20
17.0595
 11
38.7392
 21
16.5846
  0
LINE
  8
0
 10
38.7392
 20
16.5846
 11
37.7793
 21
16.1692
  0
LINE
  8
0
 10
37.7793
 20
16.1692
 11
36.7951
 21
15.8149
  0
LINE
  8
0
 10
36.7951
 20
15.8149
 11
35.7907
 21
15.5231
  0
LINE
  8
0
 10
35.7907
 20
15.5231
 11
34.7699
 21
15.2949
  0
LINE
  8
0
 10
34.7699
 20
15.2949
 11
33.7368
 21
15.1313
  0
LINE
  8
0
 10
33.7368
 20
15.1313
 11
32.6954
 21
15.0329
  0
LINE
  8
0
 10
32.6954
 20
15.0329
 11
31.65
 21
15
  0
LINE
  8
0
 10
31.65
 20
15
 11
30.6045
 21
15.0329
  0
LINE
  8
0
 10
107.205
 20
15.0329
 11
106.163
 21
15.1313
  0
LINE
  8
0
 10
106.163
 20
15.1313
 11
105.13
 21
15.2949
  0
LINE
  8
0
 10
105.13
 20
15.2949
 11
104.109
 21
15.5231
  0
LINE
  8
0
 10
104.109
 20
15.5231
 11
103.105
 21
15.8149
  0
LINE
  8
0
 10
103.105
 20
15.8149
 11
102.121
 21
16.1692
  0
LINE
  8
0
 10
102.121
 20
16.1692
 11
101.161
 21
16.5846
  0
LINE
  8
0
 10
101.161
 20
16.5846
 11
100.229
 21
17.0595
  0
LINE
  8
0
 10
100.229
 20
17.0595
 11
99.3285
 21
17.5919
  0
LINE
  8
0
 10
99.3285
 20
17.5919
 11
98.4634
 21
18.1799
  0
LINE
  8
0
 10
98.4634
 20
18.1799
 11
97.6369
 21
18.821
  0
LINE
  8
0
 10
97.6369
 20
18.821
 11
96.8523
 21
19.5127
  0
LINE
  8
0
 10
96.8523
 20
19.5127
 11
96.1127
 21
20.2523
  0
LINE
  8
0
 10
96.1127
 20
20.2523
 11
95.4209
 21
21.0369
  0
LINE
  8
0
 10
95.4209
 20
21.0369
 11
94.7799
 21
21.8634
  0
LINE
  8
0
 10
94.7799
 20
21.8634
 11
94.1919
 21
22.7285
  0
LINE
  8
0
 10
94.1919
 20
22.7285
 11
93.6595
 21
23.6288
  0
LINE
  8
0
 10
93.6595
 20
23.6288
 11
93.1846
 21
24.5608
  0
LINE
  8
0
 10
93.1846
 20
24.5608
 11
92.7692
 21
25.5207
  0
LINE
  8
0
 10
92.7692
 20
25.5207
 11
92.4149
 21
26.5049
  0
LINE
  8
0
 10
92.4149
 20
26.5049
 11
92.1231
 21
27.5093
  0
LINE
  8
0
 10
92.1231
 20
27.5093
 11
91.8949
 21
28.5301
  0
LINE
  8
0
 10
91.8949
 20
28.5301
 11
91.7313
 21
29.5632
  0
LINE
  8
0
 10
91.7313
 20
29.5632
 11
91.6329
 21
30.6045
  0
LINE
  8
0
 10
91.6329
 20
30.6045
 11
91.6
 21
31.65
  0
LINE
  8
0
 10
91.6
 20
31.65
 11
91.6
 21
69.95
  0
LINE
  8
0
 10
91.6
 20
69.95
 11
91.6329
 21
70.9955
  0
LINE
  8
0
 10
91.6329
 20
70.9955
 11
91.7313
 21
72.0368
  0
LINE
  8
0
 10
91.7313
 20
72.0368
 11
91.8949
 21
73.0699
  0
LINE
  8
0
 10
91.8949
 20
73.0699
 11
92.1231
 21
74.0907
  0
LINE
  8
0
 10
92.1231
 20
74.0907
 11
92.4149
 21
75.0951
  0
LINE
  8
0
 10
92.4149
 20
75.0951
 11
92.7692
 21
76.0793
  0
LINE
  8
0
 10
92.7692
 20
76.0793
 11
93.1846
 21
77.0392
  0
LINE
  8
0
 10
93.1846
 20
77.0392
 11
93.6595
 21
77.9712
  0
LINE
  8
0
 10
93.6595
 20
77.9712
 11
94.1919
 21
78.8715
  0
LINE
  8
0
 10
94.1919
 20
78.8715
 11
94.7799
 21
79.7366
  0
LINE
  8
0
 10
94.7799
 20
79.7366
 11
95.4209
 21
80.5631
  0
LINE
  8
0
 10
95.4209
 20
80.5631
 11
96.1127
 21
81.3477
  0
LINE
  8
0
 10
96.1127
 20
81.3477
 11
96.8523
 21
82.0873
  0
LINE
  8
0
 10
96.8523
 20
82.0873
 11
97.6369
 21
82.779
  0
LINE
  8
0
 10
97.6369
 20
82.779
 11
98.4634
 21
83.4201
  0
LINE
  8
0
 10
98.4634
 20
83.4201
 11
99.3285
 21
84.0081
  0
LINE
  8
0
 10
99.3285
 20
84.0081
 11
100.229
 21
84.5405
  0
LINE
  8
0
 10
100.229
 20
84.5405
 11
101.161
 21
85.0154
  0
LINE
  8
0
 10
101.161
 20
85.0154
 11
102.121
 21
85.4308
  0
LINE
  8
0
 10
102.121
 20
85.4308
 11
103.105
 21
85.7851
  0
LINE
  8
0
 10
103.105
 20
85.7851
 11
104.109
 21
86.0769
  0
LINE
  8
0
 10
104.109
 20
86.0769
 11
105.13
 21
86.3051
  0
LINE
  8
0
 10
105.13
 20
86.3051
 11
106.163
 21
86.4687
  0
LINE
  8
0
 10
106.163
 20
86.4687
 11
107.205
 21
86.5671
  0
LINE
  8
0
 10
107.205
 20
86.5671
 11
108.25
 21
86.6
  0
LINE
  8
0
 10
108.25
 20
86.6
 11
109.295
 21
86.5671
  0
LINE
  8
0
 10
109.295
 20
86.5671
 11
110.337
 21
86.4687
  0
LINE
  8
0
 10
110.337
 20
86.4687
 11
111.37
 21
86.3051
  0
LINE
  8
0
 10
111.37
 20
86.3051
 11
112.391
 21
86.0769
  0
LINE
  8
0
 10
112.391
 20
86.0769
 11
113.395
 21
85.7851
  0
LINE
  8
0
 10
113.395
 20
85.7851
 11
114.379
 21
85.4308
  0
LINE
  8
0
 10
114.379
 20
85.4308
 11
115.339
 21
85.0154
  0
LINE
  8
0
 10
115.339
 20
85.0154
 11
116.271
 21
84.5405
  0
LINE
  8
0
 10
116.271
 20
84.5405
 11
117.172
 21
84.0081
  0
LINE
  8
0
 10
117.172
 20
84.0081
 11
118.037
 21
83.4201
  0
LINE
  8
0
 10
118.037
 20
83.4201
 11
118.863
 21
82.779
  0
LINE
  8
0
 10
118.863
 20
82.779
 11
119.648
 21
82.0873
  0
LINE
  8
0
 10
119.648
 20
82.0873
 11
120.387
 21
81.3477
  0
LINE
  8
0
 10
120.387
 20
81.3477
 11
121.079
 21
80.5631
  0
LINE
  8
0
 10
121.079
 20
80.5631
 11
121.72
 21
79.7366
  0
LINE
  8
0
 10
121.72
 20
79.7366
 11
122.308
 21
78.8715
  0
LINE
  8
0
 10
122.308
 20
78.8715
 11
122.84
 21
77.9712
  0
LINE
  8
0
 10
122.84
 20
77.9712
 11
123.315
 21
77.0392
  0
LINE
  8
0
 10
123.315
 20
77.0392
 11
123.731
 21
76.0793
  0
LINE
  8
0
 10
123.731
 20
76.0793
 11
124.085
 21
75.0951
  0
LINE
  8
0
 10
124.085
 20
75.0951
 11
124.377
 21
74.0907
  0
LINE
  8
0
 10
124.377
 20
74.0907
 11
124.605
 21
73.0699
  0
LINE
  8
0
 10
124.605
 20
73.0699
 11
124.769
 21
72.0368
  0
LINE
  8
0
 10
124.769
 20
72.0368
 11
124.867
 21
70.9955
  0
LINE
  8
0
 10
124.867
 20
70.9955
 11
124.9
 21
69.95
  0
LINE
  8
0
 10
124.9
 20
69.95
 11
124.9
 21
31.65
  0
LINE
  8
0
 10
124.9
 20
31.65
 11
124.867
 21
30.6045
  0
LINE
  8
0
 10
124.867
 20
30.6045
 11
124.769
 21
29.5632
  0
LINE
  8
0
 10
124.769
 20
29.5632
 11
124.605
 21
28.5301
  0
LINE
  8
0
 10
124.605
 20
28.5301
 11
124.377
 21
27.5093
  0
LINE
  8
0
 10
124.377
 20
27.5093
 11
124.085
 21
26.5049
  0
LINE
  8
0
 10
124.085
 20
26.5049
 11
123.731
 21
25.5207
  0
LINE
  8
0
 10
123.731
 20
25.5207
 11
123.315
 21
24.5608
  0
LINE
  8
0
 10
123.315
 20
24.5608
 11
122.84
 21
23.6288
  0
LINE
  8
0
 10
122.84
 20
23.6288
 11
122.308
 21
22.7285
  0
LINE
  8
0
 10
122.308
 20
22.7285
 11
121.72
 21
21.8634
  0
LINE
  8
0
 10
121.72
 20
21.8634
 11
121.079
 21
21.0369
  0
LINE
  8
0
 10
121.079
 20
21.0369
 11
120.387
 21
20.2523
  0
LINE
  8
0
 10
120.387
 20
20.2523
 11
119.648
 21
19.5127
  0
LINE
  8
0
 10
119.648
 20
19.5127
 11
118.863
 21
18.821
  0
LINE
  8
0
 10
118.863
 20
18.821
 11
118.037
 21
18.1799
  0
LINE
  8
0
 10
118.037
 20
18.1799
 11
117.172
 21
17.5919
  0
LINE
  8
0
 10
117.172
 20
17.5919
 11
116.271
 21
17.0595
  0
LINE
  8
0
 10
116.271
 20
17.0595
 11
115.339
 21
16.5846
  0
LINE
  8
0
 10
115.339
 20
16.5846
 11
114.379
 21
16.1692
  0
LINE
  8
0
 10
114.379
 20
16.1692
 11
113.395
 21
15.8149
  0
LINE
  8
0
 10
113.395
 20
15.8149
 11
112.391
 21
15.5231
  0
LINE
  8
0
 10
112.391
 20
15.5231
 11
111.37
 21
15.2949
  0
LINE
  8
0
 10
111.37
 20
15.2949
 11
110.337
 21
15.1313
  0
LINE
  8
0
 10
110.337
 20
15.1313
 11
109.295
 21
15.0329
  0
LINE
  8
0
 10
109.295
 20
15.0329
 11
108.25
 21
15
  0
LINE
  8
0
 10
108.25
 20
15
 11
107.205
 21
15.0329
  0
LINE
  8
0
 10
183.805
 20
15.0329
 11
182.763
 21
15.1313
  0
LINE
  8
0
 10
182.763
 20
15.1313
 11
181.73
 21
15.2949
  0
LINE
  8
0
 10
181.73
 20
15.2949
 11
180.709
 21
15.5231
  0
LINE
  8
0
 10
180.709
 20
15.5231
 11
179.705
 21
15.8149
  0
LINE
  8
0
 10
179.705
 20
15.8149
 11
178.721
 21
16.1692
  0
LINE
  8
0
 10
178.721
 20
16.1692
 11
177.761
 21
16.5846
  0
LINE
  8
0
 10
177.761
 20
16.5846
 11
176.829
 21
17.0595
  0
LINE
  8
0
 10
176.829
 20
17.0595
 11
175.928
 21
17.5919
  0
LINE
  8
0
 10
175.928
 20
17.5919
 11
175.063
 21
18.1799
  0
LINE
  8
0
 10
175.063
 20
18.1799
 11
174.237
 21
18.821
  0
LINE
  8
0
 10
174.237
 20
18.821
 11
173.452
 21
19.5127
  0
LINE
  8
0
 10
173.452
 20
19.5127
 11
172.713
 21
20.2523
  0
LINE
  8
0
 10
172.713
 20
20.2523
 11
172.021
 21
21.0369
  0
LINE
  8
0
 10
172.021
 20
21.0369
 11
171.38
 21
21.8634
  0
LINE
  8
0
 10
171.38
 20
21.8634
 11
170.792
 21
22.7285
  0
LINE
  8
0
 10
170.792
 20
22.7285
 11
170.259
 21
23.6288
  0
LINE
  8
0
 10
170.259
 20
23.6288
 11
169.785
 21
24.5608
  0
LINE
  8
0
 10
169.785
 20
24.5608
 11
169.369
 21
25.5207
  0
LINE
  8
0
 10
169.369
 20
25.5207
 11
169.015
 21
26.5049
  0
LINE
  8
0
 10
169.015
 20
26.5049
 11
168.723
 21
27.5093
  0
LINE
  8
0
 10
168.723
 20
27.5093
 11
168.495
 21
28.5301
  0
LINE
  8
0
 10
168.495
 20
28.5301
 11
168.331
 21
29.5632
  0
LINE
  8
0
 10
168.331
 20
29.5632
 11
168.233
 21
30.6045
  0
LINE
  8
0
 10
168.233
 20
30.6045
 11
168.2
 21
31.65
  0
LINE
  8
0
 10
168.2
 20
31.65
 11
168.2
 21
69.95
  0
LINE
  8
0
 10
168.2
 20
69.95
 11
168.233
 21
70.9955
  0
LINE
  8
0
 10
168.233
 20
70.9955
 11
168.331
 21
72.0368
  0
LINE
  8
0
 10
168.331
 20
72.0368
 11
168.495
 21
73.0699
  0
LINE
  8
0
 10
168.495
 20
73.0699
 11
168.723
 21
74.0907
  0
LINE
  8
0
 10
168.723
 20
74.0907
 11
169.015
 21
75.0951
  0
LINE
  8
0
 10
169.015
 20
75.0951
 11
169.369
 21
76.0793
  0
LINE
  8
0
 10
169.369
 20
76.0793
 11
169.785
 21
77.0392
  0
LINE
  8
0
 10
169.785
 20
77.0392
 11
170.259
 21
77.9712
  0
LINE
  8
0
 10
170.259
 20
77.9712
 11
170.792
 21
78.8715
  0
LINE
  8
0
 10
170.792
 20
78.8715
 11
171.38
 21
79.7366
  0
LINE
  8
0
 10
171.38
 20
79.7366
 11
172.021
 21
80.5631
  0
LINE
  8
0
 10
172.021
 20
80.5631
 11
172.713
 21
81.3477
  0
LINE
  8
0
 10
172.713
 20
81.3477
 11
173.452
 21
82.0873
  0
LINE
  8
0
 10
173.452
 20
82.0873
 11
174.237
 21
82.779
  0
LINE
  8
0
 10
174.237
 20
82.779
 11
175.063
 21
83.4201
  0
LINE
  8
0
 10
175.063
 20
83.4201
 11
175.928
 21
84.0081
  0
LINE
  8
0
 10
175.928
 20
84.0081
 11
176.829
 21
84.5405
  0
LINE
  8
0
 10
176.829
 20
84.5405
 11
177.761
 21
85.0154
  0
LINE
  8
0
 10
177.761
 20
85.0154
 11
178.721
 21
85.4308
  0
LINE
  8
0
 10
178.721
 20
85.4308
 11
179.705
 21
85.7851
  0
LINE
  8
0
 10
179.705
 20
85.7851
 11
180.709
 21
86.0769
  0
LINE
  8
0
 10
180.709
 20
86.0769
 11
181.73
 21
86.3051
  0
LINE
  8
0
 10
181.73
 20
86.3051
 11
182.763
 21
86.4687
  0
LINE
  8
0
 10
182.763
 20
86.4687
 11
183.805
 21
86.5671
  0
LINE
  8
0
 10
183.805
 20
86.5671
 11
184.85
 21
86.6
  0
LINE
  8
0
 10
184.85
 20
86.6
 11
185.895
 21
86.5671
  0
LINE
  8
0
 10
185.895
 20
86.5671
 11
186.937
 21
86.4687
  0
LINE
  8
0
 10
186.937
 20
86.4687
 11
187.97
 21
86.3051
  0
LINE
  8
0
 10
187.97
 20
86.3051
 11
188.991
 21
86.0769
  0
LINE
  8
0
 10
188.991
 20
86.0769
 11
189.995
 21
85.7851
  0
LINE
  8
0
 10
189.995
 20
85.7851
 11
190.979
 21
85.4308
  0
LINE
  8
0
 10
190.979
 20
85.4308
 11
191.939
 21
85.0154
  0
LINE
  8
0
 10
191.939
 20
85.0154
 11
192.871
 21
84.5405
  0
LINE
  8
0
 10
192.871
 20
84.5405
 11
193.772
 21
84.0081
  0
LINE
  8
0
 10
193.772
 20
84.0081
 11
194.637
 21
83.4201
  0
LINE
  8
0
 10
194.637
 20
83.4201
 11
195.463
 21
82.779
  0
LINE
  8
0
 10
195.463
 20
82.779
 11
196.248
 21
82.0873
  0
LINE
  8
0
 10
196.248
 20
82.0873
 11
196.987
 21
81.3477
  0
LINE
  8
0
 10
196.987
 20
81.3477
 11
197.679
 21
80.5631
  0
LINE
  8
0
 10
197.679
 20
80.5631
 11
198.32
 21
79.7366
  0
LINE
  8
0
 10
198.32
 20
79.7366
 11
198.908
 21
78.8715
  0
LINE
  8
0
 10
198.908
 20
78.8715
 11
199.441
 21
77.9712
  0
LINE
  8
0
 10
199.441
 20
77.9712
 11
199.915
 21
77.0392
  0
LINE
  8
0
 10
199.915
 20
77.0392
 11
200.331
 21
76.0793
  0
LINE
  8
0
 10
200.331
 20
76.0793
 11
200.685
 21
75.0951
  0
LINE
  8
0
 10
200.685
 20
75.0951
 11
200.977
 21
74.0907
  0
LINE
  8
0
 10
200.977
 20
74.0907
 11
201.205
 21
73.0699
  0
LINE
  8
0
 10
201.205
 20
73.0699
 11
201.369
 21
72.0368
  0
LINE
  8
0
 10
201.369
 20
72.0368
 11
201.467
 21
70.9955
  0
LINE
  8
0
 10
201.467
 20
70.9955
 11
201.5
 21
69.95
  0
LINE
  8
0
 10
201.5
 20
69.95
 11
201.5
 21
31.65
  0
LINE
  8
0
 10
201.5
 20
31.65
 11
201.467
 21
30.6045
  0
LINE
  8
0
 10
201.467
 20
30.6045
 11
201.369
 21
29.5632
  0
LINE
  8
0
 10
201.369
 20
29.5632
 11
201.205
 21
28.5301
  0
LINE
  8
0
 10
201.205
 20
28.5301
 11
200.977
 21
27.5093
  0
LINE
  8
0
 10
200.977
 20
27.5093
 11
200.685
 21
26.5049
  0
LINE
  8
0
 10
200.685
 20
26.5049
 11
200.331
 21
25.5207
  0
LINE
  8
0
 10
200.331
 20
25.5207
 11
199.915
 21
24.5608
  0
LINE
  8
0
 10
199.915
 20
24.5608
 11
199.441
 21
23.6288
  0
LINE
  8
0
 10
199.441
 20
23.6288
 11
198.908
 21
22.7285
  0
LINE
  8
0
 10
198.908
 20
22.7285
 11
198.32
 21
21.8634
  0
LINE
  8
0
 10
198.32
 20
21.8634
 11
197.679
 21
21.0369
  0
LINE
  8
0
 10
197.679
 20
21.0369
 11
196.987
 21
20.2523
  0
LINE
  8
0
 10
196.987
 20
20.2523
 11
196.248
 21
19.5127
  0
LINE
  8
0
 10
196.248
 20
19.5127
 11
195.463
 21
18.821
  0
LINE
  8
0
 10
195.463
 20
18.821
 11
194.637
 21
18.1799
  0
LINE
  8
0
 10
194.637
 20
18.1799
 11
193.772
 21
17.5919
  0
LINE
  8
0
 10
193.772
 20
17.5919
 11
192.871
 21
17.0595
  0
LINE
  8
0
 10
192.871
 20
17.0595
 11
191.939
 21
16.5846
  0
LINE
  8
0
 10
191.939
 20
16.5846
 11
190.979
 21
16.1692
  0
LINE
  8
0
 10
190.979
 20
16.1692
 11
189.995
 21
15.8149
  0
LINE
  8
0
 10
189.995
 20
15.8149
 11
188.991
 21
15.5231
  0
LINE
  8
0
 10
188.991
 20
15.5231
 11
187.97
 21
15.2949
  0
LINE
  8
0
 10
187.97
 20
15.2949
 11
186.937
 21
15.1313
  0
LINE
  8
0
 10
186.937
 20
15.1313
 11
185.895
 21
15.0329
  0
LINE
  8
0
 10
185.895
 20
15.0329
 11
184.85
 21
15
  0
LINE
  8
0
 10
184.85
 20
15
 11
183.805
 21
15.0329
  0
LINE
  8
0
 10
260.405
 20
15.0329
 11
259.363
 21
15.1313
  0
LINE
  8
0
 10
259.363
 20
15.1313
 11
258.33
 21
15.2949
  0
LINE
  8
0
 10
258.33
 20
15.2949
 11
257.309
 21
15.5231
  0
LINE
  8
0
 10
257.309
 20
15.5231
 11
256.305
 21
15.8149
  0
LINE
  8
0
 10
256.305
 20
15.8149
 11
255.321
 21
16.1692
  0
LINE
  8
0
 10
255.321
 20
16.1692
 11
254.361
 21
16.5846
  0
LINE
  8
0
 10
254.361
 20
16.5846
 11
253.429
 21
17.0595
  0
LINE
  8
0
 10
253.429
 20
17.0595
 11
252.528
 21
17.5919
  0
LINE
  8
0
 10
252.528
 20
17.5919
 11
251.663
 21
18.1799
  0
LINE
  8
0
 10
251.663
 20
18.1799
 11
250.837
 21
18.821
  0
LINE
  8
0
 10
250.837
 20
18.821
 11
250.052
 21
19.5127
  0
LINE
  8
0
 10
250.052
 20
19.5127
 11
249.313
 21
20.2523
  0
LINE
  8
0
 10
249.313
 20
20.2523
 11
248.621
 21
21.0369
  0
LINE
  8
0
 10
248.621
 20
21.0369
 11
247.98
 21
21.8634
  0
LINE
  8
0
 10
247.98
 20
21.8634
 11
247.392
 21
22.7285
  0
LINE
  8
0
 10
247.392
 20
22.7285
 11
246.859
 21
23.6288
  0
LINE
  8
0
 10
246.859
 20
23.6288
 11
246.385
 21
24.5608
  0
LINE
  8
0
 10
246.385
 20
24.5608
 11
245.969
 21
25.5207
  0
LINE
  8
0
 10
245.969
 20
25.5207
 11
245.615
 21
26.5049
  0
LINE
  8
0
 10
245.615
 20
26.5049
 11
245.323
 21
27.5093
  0
LINE
  8
0
 10
245.323
 20
27.5093
 11
245.095
 21
28.5301
  0
LINE
  8
0
 10
245.095
 20
28.5301
 11
244.931
 21
29.5632
  0
LINE
  8
0
 10
244.931
 20
29.5632
 11
244.833
 21
30.6045
  0
LINE
  8
0
 10
244.833
 20
30.6045
 11
244.8
 21
31.65
  0
LINE
  8
0
 10
244.8
 20
31.65
 11
244.8
 21
69.95
  0
LINE
  8
0
 10
244.8
 20
69.95
 11
244.833
 21
70.9955
  0
LINE
  8
0
 10
244.833
 20
70.9955
 11
244.931
 21
72.0368
  0
LINE
  8
0
 10
244.931
 20
72.0368
 11
245.095
 21
73.0699
  0
LINE
  8
0
 10
245.095
 20
73.0699
 11
245.323
 21
74.0907
  0
LINE
  8
0
 10
245.323
 20
74.0907
 11
245.615
 21
75.0951
  0
LINE
  8
0
 10
245.615
 20
75.0951
 11
245.969
 21
76.0793
  0
LINE
  8
0
 10
245.969
 20
76.0793
 11
246.385
 21
77.0392
  0
LINE
  8
0
 10
246.385
 20
77.0392
 11
246.859
 21
77.9712
  0
LINE
  8
0
 10
246.859
 20
77.9712
 11
247.392
 21
78.8715
  0
LINE
  8
0
 10
247.392
 20
78.8715
 11
247.98
 21
79.7366
  0
LINE
  8
0
 10
247.98
 20
79.7366
 11
248.621
 21
80.5631
  0
LINE
  8
0
 10
248.621
 20
80.5631
 11
249.313
 21
81.3477
  0
LINE
  8
0
 10
249.313
 20
81.3477
 11
250.052
 21
82.0873
  0
LINE
  8
0
 10
250.052
 20
82.0873
 11
250.837
 21
82.779
  0
LINE
  8
0
 10
250.837
 20
82.779
 11
251.663
 21
83.4201
  0
LINE
  8
0
 10
251.663
 20
83.4201
 11
252.528
 21
84.0081
  0
LINE
  8
0
 10
252.528
 20
84.0081
 11
253.429
 21
84.5405
  0
LINE
  8
0
 10
253.429
 20
84.5405
 11
254.361
 21
85.0154
  0
LINE
  8
0
 10
254.361
 20
85.0154
 11
255.321
 21
85.4308
  0
LINE
  8
0
 10
255.321
 20
85.4308
 11
256.305
 21
85.7851
  0
LINE
  8
0
 10
256.305
 20
85.7851
 11
257.309
 21
86.0769
  0
LINE
  8
0
 10
257.309
 20
86.0769
 11
258.33
 21
86.3051
  0
LINE
  8
0
 10
258.33
 20
86.3051
 11
259.363
 21
86.4687
  0
LINE
  8
0
 10
259.363
 20
86.4687
 11
260.405
 21
86.5671
  0
LINE
  8
0
 10
260.405
 20
86.5671
 11
261.45
 21
86.6
  0
LINE
  8
0
 10
261.45
 20
86.6
 11
262.495
 21
86.5671
  0
LINE
  8
0
 10
262.495
 20
86.5671
 11
263.537
 21
86.4687
  0
LINE
  8
0
 10
263.537
 20
86.4687
 11
264.57
 21
86.3051
  0
LINE
  8
0
 10
264.57
 20
86.3051
 11
265.591
 21
86.0769
  0
LINE
  8
0
 10
265.591
 20
86.0769
 11
266.595
 21
85.7851
  0
LINE
  8
0
 10
266.595
 20
85.7851
 11
267.579
 21
85.4308
  0
LINE
  8
0
 10
267.579
 20
85.4308
 11
268.539
 21
85.0154
  0
LINE
  8
0
 10
268.539
 20
85.0154
 11
269.471
 21
84.5405
  0
LINE
  8
0
 10
269.471
 20
84.5405
 11
270.372
 21
84.0081
  0
LINE
  8
0
 10
270.372
 20
84.0081
 11
271.237
 21
83.4201
  0
LINE
  8
0
 10
271.237
 20
83.4201
 11
272.063
 21
82.779
  0
LINE
  8
0
 10
272.063
 20
82.779
 11
272.848
 21
82.0873
  0
LINE
  8
0
 10
272.848
 20
82.0873
 11
273.587
 21
81.3477
  0
LINE
  8
0
 10
273.587
 20
81.3477
 11
274.279
 21
80.5631
  0
LINE
  8
0
 10
274.279
 20
80.5631
 11
274.92
 21
79.7366
  0
LINE
  8
0
 10
274.92
 20
79.7366
 11
275.508
 21
78.8715
  0
LINE
  8
0
 10
275.508
 20
78.8715
 11
276.04
 21
77.9712
  0
LINE
  8
0
 10
276.04
 20
77.9712
 11
276.515
 21
77.0392
  0
LINE
  8
0
 10
276.515
 20
77.0392
 11
276.931
 21
76.0793
  0
LINE
  8
0
 10
276.931
 20
76.0793
 11
277.285
 21
75.0951
  0
LINE
  8
0
 10
277.285
 20
75.0951
 11
277.577
 21
74.0907
  0
LINE
  8
0
 10
277.577
 20
74.0907
 11
277.805
 21
73.0699
  0
LINE
  8
0
 10
277.805
 20
73.0699
 11
277.969
 21
72.0368
  0
LINE
  8
0
 10
277.969
 20
72.0368
 11
278.067
 21
70.9955
  0
LINE
  8
0
 10
278.067
 20
70.9955
 11
278.1
 21
69.95
  0
LINE
  8
0
 10
278.1
 20
69.95
 11
278.1
 21
31.65
  0
LINE
  8
0
 10
278.1
 20
31.65
 11
278.067
 21
30.6045
  0
LINE
  8
0
 10
278.067
 20
30.6045
 11
277.969
 21
29.5632
  0
LINE
  8
0
 10
277.969
 20
29.5632
 11
277.805
 21
28.5301
  0
LINE
  8
0
 10
277.805
 20
28.5301
 11
277.577
 21
27.5093
  0
LINE
  8
0
 10
277.577
 20
27.5093
 11
277.285
 21
26.5049
  0
LINE
  8
0
 10
277.285
 20
26.5049
 11
276.931
 21
25.5207
  0
LINE
  8
0
 10
276.931
 20
25.5207
 11
276.515
 21
24.5608
  0
LINE
  8
0
 10
276.515
 20
24.5608
 11
276.04
 21
23.6288
  0
LINE
  8
0
 10
276.04
 20
23.6288
 11
275.508
 21
22.7285
  0
LINE
  8
0
 10
275.508
 20
22.7285
 11
274.92
 21
21.8634
  0
LINE
  8
0
 10
274.92
 20
21.8634
 11
274.279
 21
21.0369
  0
LINE
  8
0
 10
274.279
 20
21.0369
 11
273.587
 21
20.2523
  0
LINE
  8
0
 10
273.587
 20
20.2523
 11
272.848
 21
19.5127
  0
LINE
  8
0
 10
272.848
 20
19.5127
 11
272.063
 21
18.821
  0
LINE
  8
0
 10
272.063
 20
18.821
 11
271.237
 21
18.1799
  0
LINE
  8
0
 10
271.237
 20
18.1799
 11
270.372
 21
17.5919
  0
LINE
  8
0
 10
270.372
 20
17.5919
 11
269.471
 21
17.0595
  0
LINE
  8
0
 10
269.471
 20
17.0595
 11
268.539
 21
16.5846
  0
LINE
  8
0
 10
268.539
 20
16.5846
 11
267.579
 21
16.1692
  0
LINE
  8
0
 10
267.579
 20
16.1692
 11
266.595
 21
15.8149
  0
LINE
  8
0
 10
266.595
 20
15.8149
 11
265.591
 21
15.5231
  0
LINE
  8
0
 10
265.591
 20
15.5231
 11
264.57
 21
15.2949
  0
LINE
  8
0
 10
264.57
 20
15.2949
 11
263.537
 21
15.1313
  0
LINE
  8
0
 10
263.537
 20
15.1313
 11
262.495
 21
15.0329
  0
LINE
  8
0
 10
262.495
 20
15.0329
 11
261.45
 21
15
  0
LINE
  8
0
 10
261.45
 20
15
 11
260.405
 21
15.0329
  0
ENDSEC
  0
SECTION
  2
OBJECTS
  0
DICTIONARY
  0
ENDSEC
  0
EOF
