  0
SECTION
  2
BLOCKS
  0
ENDSEC
  0
SECTION
  2
ENTITIES
  0
LINE
  8
0
 10
0
 20
254.8
 11
-15
 21
254.8
  0
LINE
  8
0
 10
-15
 20
254.8
 11
-15
 21
245.1
  0
LINE
  8
0
 10
-15
 20
245.1
 11
-7.7
 21
245.1
  0
LINE
  8
0
 10
-7.7
 20
245.1
 11
-7.7
 21
241.7
  0
LINE
  8
0
 10
-7.7
 20
241.7
 11
-15
 21
241.7
  0
LINE
  8
0
 10
-15
 20
241.7
 11
-15
 21
206.8
  0
LINE
  8
0
 10
-15
 20
206.8
 11
-7.7
 21
206.8
  0
LINE
  8
0
 10
-7.7
 20
206.8
 11
-7.7
 21
203.4
  0
LINE
  8
0
 10
-7.7
 20
203.4
 11
-15
 21
203.4
  0
LINE
  8
0
 10
-15
 20
203.4
 11
-15
 21
168.5
  0
LINE
  8
0
 10
-15
 20
168.5
 11
-7.7
 21
168.5
  0
LINE
  8
0
 10
-7.7
 20
168.5
 11
-7.7
 21
165.1
  0
LINE
  8
0
 10
-7.7
 20
165.1
 11
-15
 21
165.1
  0
LINE
  8
0
 10
-15
 20
165.1
 11
-15
 21
130.2
  0
LINE
  8
0
 10
-15
 20
130.2
 11
-7.7
 21
130.2
  0
LINE
  8
0
 10
-7.7
 20
130.2
 11
-7.7
 21
126.8
  0
LINE
  8
0
 10
-7.7
 20
126.8
 11
-15
 21
126.8
  0
LINE
  8
0
 10
-15
 20
126.8
 11
-15
 21
91.9
  0
LINE
  8
0
 10
-15
 20
91.9
 11
-7.7
 21
91.9
  0
LINE
  8
0
 10
-7.7
 20
91.9
 11
-7.7
 21
88.5
  0
LINE
  8
0
 10
-7.7
 20
88.5
 11
-15
 21
88.5
  0
LINE
  8
0
 10
-15
 20
88.5
 11
-15
 21
53.6
  0
LINE
  8
0
 10
-15
 20
53.6
 11
-7.7
 21
53.6
  0
LINE
  8
0
 10
-7.7
 20
53.6
 11
-7.7
 21
50.2
  0
LINE
  8
0
 10
-7.7
 20
50.2
 11
-15
 21
50.2
  0
LINE
  8
0
 10
-15
 20
50.2
 11
-15
 21
15.3
  0
LINE
  8
0
 10
-15
 20
15.3
 11
-7.7
 21
15.3
  0
LINE
  8
0
 10
-7.7
 20
15.3
 11
-7.7
 21
11.9
  0
LINE
  8
0
 10
-7.7
 20
11.9
 11
-15
 21
11.9
  0
LINE
  8
0
 10
-15
 20
11.9
 11
-15
 21
0
  0
LINE
  8
0
 10
-15
 20
0
 11
0
 21
0
  0
LINE
  8
0
 10
0
 20
0
 11
0
 21
254.8
  0
ENDSEC
  0
SECTION
  2
OBJECTS
  0
DICTIONARY
  0
ENDSEC
  0
EOF
