  0
SECTION
  2
BLOCKS
  0
ENDSEC
  0
SECTION
  2
ENTITIES
  0
LINE
  8
0
 10
12.1
 20
7.89999
 11
15.5
 21
7.89999
  0
LINE
  8
0
 10
15.5
 20
7.89999
 11
15.5
 21
0
  0
LINE
  8
0
 10
15.5
 20
0
 11
50.4
 21
0
  0
LINE
  8
0
 10
50.4
 20
0
 11
50.4
 21
7.89999
  0
LINE
  8
0
 10
50.4
 20
7.89999
 11
53.8
 21
7.89999
  0
LINE
  8
0
 10
53.8
 20
7.89999
 11
53.8
 21
0
  0
LINE
  8
0
 10
53.8
 20
0
 11
88.7
 21
0
  0
LINE
  8
0
 10
88.7
 20
0
 11
88.7
 21
7.89999
  0
LINE
  8
0
 10
88.7
 20
7.89999
 11
92.1
 21
7.89999
  0
LINE
  8
0
 10
92.1
 20
7.89999
 11
92.1
 21
0
  0
LINE
  8
0
 10
92.1
 20
0
 11
127
 21
0
  0
LINE
  8
0
 10
127
 20
0
 11
127
 21
7.89999
  0
LINE
  8
0
 10
127
 20
7.89999
 11
130.4
 21
7.89999
  0
LINE
  8
0
 10
130.4
 20
7.89999
 11
130.4
 21
0
  0
LINE
  8
0
 10
130.4
 20
0
 11
165.3
 21
0
  0
LINE
  8
0
 10
165.3
 20
0
 11
165.3
 21
7.89999
  0
LINE
  8
0
 10
165.3
 20
7.89999
 11
168.7
 21
7.89999
  0
LINE
  8
0
 10
168.7
 20
7.89999
 11
168.7
 21
0
  0
LINE
  8
0
 10
168.7
 20
0
 11
203.6
 21
0
  0
LINE
  8
0
 10
203.6
 20
0
 11
203.6
 21
7.89999
  0
LINE
  8
0
 10
203.6
 20
7.89999
 11
207
 21
7.89999
  0
LINE
  8
0
 10
207
 20
7.89999
 11
207
 21
0
  0
LINE
  8
0
 10
207
 20
0
 11
241.9
 21
0
  0
LINE
  8
0
 10
241.9
 20
0
 11
241.9
 21
7.89999
  0
LINE
  8
0
 10
241.9
 20
7.89999
 11
245.3
 21
7.89999
  0
LINE
  8
0
 10
245.3
 20
7.89999
 11
245.3
 21
0
  0
LINE
  8
0
 10
245.3
 20
0
 11
280.2
 21
0
  0
LINE
  8
0
 10
280.2
 20
0
 11
280.2
 21
7.89999
  0
LINE
  8
0
 10
280.2
 20
7.89999
 11
283.6
 21
7.89999
  0
LINE
  8
0
 10
283.6
 20
7.89999
 11
283.6
 21
0
  0
LINE
  8
0
 10
283.6
 20
0
 11
293.1
 21
0
  0
LINE
  8
0
 10
293.1
 20
0
 11
293.1
 21
15
  0
LINE
  8
0
 10
293.1
 20
15
 11
0
 21
15
  0
LINE
  8
0
 10
0
 20
15
 11
0
 21
0
  0
LINE
  8
0
 10
0
 20
0
 11
12.1
 21
0
  0
LINE
  8
0
 10
12.1
 20
0
 11
12.1
 21
7.89999
  0
ENDSEC
  0
SECTION
  2
OBJECTS
  0
DICTIONARY
  0
ENDSEC
  0
EOF
